<?xml version="1.0" encoding="UTF-8" standalone="no"?>
<svg width="586px" height="385px" viewBox="0 0 586 385" version="1.1" xmlns="http://www.w3.org/2000/svg" xmlns:xlink="http://www.w3.org/1999/xlink" xmlns:sketch="http://www.bohemiancoding.com/sketch/ns">
    <!-- Generator: Sketch 3.3.1 (12005) - http://www.bohemiancoding.com/sketch -->
    <title>architektur-s0</title>
    <desc>Created with Sketch.</desc>
    <defs></defs>
    <g id="Page-1" stroke="none" stroke-width="1" fill="none" fill-rule="evenodd" sketch:type="MSPage">
        <g id="architektur-s0" sketch:type="MSArtboardGroup">
            <g id="Server" sketch:type="MSLayerGroup" transform="translate(38.000000, 22.000000)">
                <path d="M93.1768466,110 C93.1768466,120.49341 72.318499,129 46.5884233,129 C20.8583476,129 0,120.49341 0,110 L0,19 L93.1768466,19 L93.1768466,110 Z" id="Oval-1-Copy" fill="#000000" sketch:type="MSShapeGroup"></path>
                <ellipse id="Oval-1" stroke="#000000" stroke-width="2" fill="#FFFFFF" sketch:type="MSShapeGroup" cx="46.5884233" cy="18.6545455" rx="45.7413611" ry="18.6545455"></ellipse>
            </g>
            <path d="M340.487224,296.182259 L340.487224,179.084831 L543.658187,179.084831 L543.658187,281.059099 L543.658187,282.720551 L543.658187,296.182259 L340.487224,296.182259 Z M417.776629,323 L417.776629,322.692592 L337.176469,322.692592 C334.120856,322.692592 331.645384,320.21712 331.645384,317.176694 L331.693982,175.360992 C331.906599,172.505846 334.263613,170.242991 337.176469,170.242991 L546.968941,170.242991 C549.87876,170.242991 552.238812,172.505846 552.436242,175.360992 L552.460541,240.579813 L552.460541,247.948519 L552.472691,270.039451 L552.472691,277.402082 L552.48484,317.176694 C552.48484,320.21712 550.009368,322.692592 546.968941,322.692592 L466.365744,322.692592 L466.365744,323 L417.776629,323 Z" id="Fill-29-Copy" fill="#1A171B" sketch:type="MSShapeGroup"></path>
            <path d="M448,96 L132,96 L132,170.242991" id="Path-160-Copy" stroke="#77CC00" stroke-width="2" stroke-dasharray="2" sketch:type="MSShapeGroup" transform="translate(290.000000, 133.121496) scale(-1, 1) translate(-290.000000, -133.121496) "></path>
            <g id="QR-Code" sketch:type="MSLayerGroup" transform="translate(425.000000, 219.000000)" fill="#4A4A4A">
                <path d="M8.72085781,8.51281083 L1.64677837,8.51281083 L1.64677837,1.42961922 L8.6965587,1.42961922 L8.72085781,1.42961922 L8.72085781,8.51281083 Z M10.1362812,0.0263454056 L0.234392393,0.0263454056 L0.234392393,9.92823419 L10.1362812,9.92823419 L10.1362812,0.0263454056 Z" id="Fill-47-Copy" sketch:type="MSShapeGroup"></path>
                <path d="M21.4572382,0.0290790559 L15.7985821,0.0290790559 L15.7985821,1.43235287 L21.4572382,1.43235287 L21.4572382,0.0290790559 Z" id="Fill-49-Copy" sketch:type="MSShapeGroup"></path>
                <path d="M27.1158943,1.43235287 L34.1626372,1.43235287 L34.1869363,1.43235287 L34.1869363,8.51858186 L27.1158943,8.51858186 L27.1158943,1.43235287 Z M25.7004709,9.93400523 L35.6023597,9.93400523 L35.6023597,0.0290790559 L25.7004709,0.0290790559 L25.7004709,9.93400523 Z" id="Fill-51-Copy" sketch:type="MSShapeGroup"></path>
                <path d="M15.78947,1.43235287 L12.9616606,1.43235287 L12.9616606,2.84777623 L15.78947,2.84777623 L15.78947,1.43235287 Z" id="Fill-52-Copy" sketch:type="MSShapeGroup"></path>
                <path d="M3.05977183,7.10012111 L7.30300454,7.10012111 L7.30300454,2.85992579 L3.05977183,2.85992579 L3.05977183,7.10012111 Z" id="Fill-53-Copy" sketch:type="MSShapeGroup"></path>
                <path d="M18.6251765,4.27686785 L18.6251765,2.84929493 L17.2127905,2.84929493 L17.2127905,5.69229122 L20.0405999,5.69229122 L20.0405999,4.27686785 L18.6251765,4.27686785 Z" id="Fill-54-Copy" sketch:type="MSShapeGroup"></path>
                <path d="M21.4572382,2.84777623 L20.0448522,2.84777623 L20.0448522,4.27534915 L21.4572382,4.27534915 L21.4572382,2.84777623 Z" id="Fill-55-Copy" sketch:type="MSShapeGroup"></path>
                <path d="M28.5313176,7.10012111 L32.7745504,7.10012111 L32.7745504,2.85992579 L28.5313176,2.85992579 L28.5313176,7.10012111 Z" id="Fill-56-Copy" sketch:type="MSShapeGroup"></path>
                <path d="M14.3776915,5.69168374 L12.9622681,5.69168374 L12.9622681,4.27929776 L11.5498821,4.27929776 L11.5498821,4.29144732 L11.5498821,7.09495755 L14.3776915,7.09495755 L14.3776915,5.69168374 Z" id="Fill-57-Copy" sketch:type="MSShapeGroup"></path>
                <path d="M21.4572382,5.68773513 L20.0448522,5.68773513 L20.0448522,7.08797155 L21.4572382,7.08797155 L21.4572382,5.68773513 Z" id="Fill-58-Copy" sketch:type="MSShapeGroup"></path>
                <path d="M24.2880849,5.68773513 L22.8726616,5.68773513 L22.8726616,11.3312043 L24.2880849,11.3312043 L24.2880849,5.68773513 Z" id="Fill-59-Copy" sketch:type="MSShapeGroup"></path>
                <path d="M17.2103606,9.92762671 L18.625784,9.92762671 L18.625784,8.51220335 L20.03817,8.51220335 L20.03817,7.09981737 L15.7949373,7.09981737 L15.7949373,8.51220335 L17.2103606,8.51220335 L17.2103606,9.92762671 Z" id="Fill-60-Copy" sketch:type="MSShapeGroup"></path>
                <path d="M12.9707728,8.51554448 L11.5553494,8.51554448 L11.5553494,9.93096784 L12.9707728,9.93096784 L12.9707728,8.51554448 Z" id="Fill-61-Copy" sketch:type="MSShapeGroup"></path>
                <path d="M15.794026,12.7602959 L17.2094494,12.7602959 L17.2094494,9.93248654 L15.794026,9.93248654 L15.794026,8.52010056 L14.3786027,8.52010056 L14.3786027,11.3448725 L15.794026,11.3448725 L15.794026,12.7602959 Z" id="Fill-62-Copy" sketch:type="MSShapeGroup"></path>
                <path d="M18.6251765,11.34548 L18.6251765,12.7609034 L17.2127905,12.7609034 L17.2127905,14.1763267 L20.0405999,14.1763267 L20.0405999,17.0041361 L21.4560232,17.0041361 L21.4560232,15.5887127 L22.8684092,15.5887127 L22.8684092,11.34548 L21.4560232,11.34548 L21.4560232,8.51463326 L20.0405999,8.51463326 L20.0405999,11.34548 L18.6251765,11.34548 Z" id="Fill-63-Copy" sketch:type="MSShapeGroup"></path>
                <path d="M7.30907931,15.592965 L10.139926,15.592965 L10.139926,17.0083884 L11.552312,17.0083884 L11.552312,18.4116622 L12.9677354,18.4116622 L12.9677354,21.2364342 L14.3831588,21.2364342 L14.3831588,22.6640071 L15.7955447,22.6640071 L15.7955447,24.0794305 L17.2109681,24.0794305 L17.2109681,25.4948538 L18.6263915,25.4948538 L18.6263915,24.0794305 L20.0387774,24.0794305 L20.0387774,28.3226632 L21.4542008,28.3226632 L21.4542008,22.6640071 L17.2109681,22.6640071 L17.2109681,21.2364342 L18.6263915,21.2364342 L18.6263915,19.8240482 L14.3831588,19.8240482 L14.3831588,15.592965 L12.9677354,15.592965 L12.9677354,14.1775417 L14.3831588,14.1775417 L14.3831588,11.3497323 L12.9677354,11.3497323 L12.9677354,12.7621183 L11.552312,12.7621183 L11.552312,11.3497323 L7.30907931,11.3497323 L7.30907931,12.7621183 L10.139926,12.7621183 L10.139926,14.1775417 L5.88454378,14.1775417 L5.88454378,15.592965 L4.46912041,15.592965 L4.46912041,14.1775417 L1.65346063,14.1775417 L1.65346063,12.7621183 L3.0658466,12.7621183 L3.0658466,11.3497323 L0.225887704,11.3497323 L0.225887704,18.4116622 L3.0658466,18.4116622 L3.0658466,17.0083884 L5.88454378,17.0083884 L5.88454378,18.4116622 L7.30907931,18.4116622 L7.30907931,15.592965 Z" id="Fill-64-Copy" sketch:type="MSShapeGroup"></path>
                <path d="M28.5249391,28.3238781 L24.2817064,28.3238781 L24.2817064,24.0806454 L28.4186305,24.0806454 L28.5249391,24.0806454 L28.5249391,28.3238781 Z M34.1835952,12.7633333 L31.3679354,12.7633333 L31.3679354,11.3509473 L28.5249391,11.3509473 L28.5249391,12.7633333 L27.1095158,12.7633333 L27.1095158,14.1787566 L25.6971298,14.1787566 L25.6971298,15.59418 L27.1095158,15.59418 L27.1095158,17.006566 L25.6971298,17.006566 L25.6971298,18.4098398 L27.1095158,18.4098398 L27.1095158,19.8252632 L25.6971298,19.8252632 L25.6971298,18.4098398 L22.866283,18.4098398 L22.866283,17.006566 L21.4508597,17.006566 L21.4508597,18.4098398 L20.0384737,18.4098398 L20.0384737,21.2406865 L21.4508597,21.2406865 L21.4508597,22.6682594 L22.866283,22.6682594 L22.866283,19.8252632 L24.2817064,19.8252632 L24.2817064,21.2406865 L28.5249391,21.2406865 L28.5249391,22.6682594 L22.866283,22.6682594 L22.866283,28.3238781 L21.4508597,28.3238781 L21.4508597,29.7271519 L24.2817064,29.7271519 L24.2817064,31.1425753 L27.1095158,31.1425753 L27.1095158,32.5671108 L22.866283,32.5671108 L22.866283,31.1425753 L21.4508597,31.1425753 L21.4508597,29.7271519 L20.0384737,29.7271519 L20.0384737,28.3238781 L17.207627,28.3238781 L17.207627,29.7271519 L18.6230503,29.7271519 L18.6230503,31.1425753 L17.207627,31.1425753 L17.207627,32.5671108 L21.4508597,32.5671108 L21.4508597,33.9825342 L22.866283,33.9825342 L22.866283,35.3949202 L24.2817064,35.3949202 L24.2817064,33.9825342 L25.6971298,33.9825342 L25.6971298,35.3949202 L27.1095158,35.3949202 L27.1095158,33.9825342 L29.952512,33.9825342 L29.952512,32.5671108 L28.5249391,32.5671108 L28.5249391,29.7271519 L29.952512,29.7271519 L29.952512,31.1425753 L31.3679354,31.1425753 L31.3679354,29.7271519 L32.7681718,29.7271519 L32.7681718,28.3238781 L29.952512,28.3238781 L29.952512,26.9084548 L31.3679354,26.9084548 L31.3679354,25.4930314 L29.952512,25.4930314 L29.952512,21.2406865 L31.3679354,21.2406865 L31.3679354,19.8252632 L28.5249391,19.8252632 L28.5249391,14.1787566 L29.952512,14.1787566 L29.952512,17.006566 L31.3679354,17.006566 L31.3679354,14.1787566 L32.7681718,14.1787566 L32.7681718,15.59418 L34.1835952,15.59418 L34.1835952,18.4098398 L35.6111681,18.4098398 L35.6111681,14.1787566 L34.1835952,14.1787566 L34.1835952,12.7633333 Z" id="Fill-65-Copy" sketch:type="MSShapeGroup"></path>
                <path d="M24.2880849,14.1742006 L25.7035083,14.1742006 L25.7035083,12.7587772 L24.2880849,12.7587772 L24.2880849,14.1742006 Z" id="Fill-66-Copy" sketch:type="MSShapeGroup"></path>
                <path d="M15.78947,14.1742006 L14.377084,14.1742006 L14.377084,15.5896239 L15.78947,15.5896239 L15.78947,14.1742006 Z" id="Fill-67-Copy" sketch:type="MSShapeGroup"></path>
                <path d="M15.794026,18.4137884 L18.6248728,18.4137884 L18.6248728,15.5950912 L17.2094494,15.5950912 L17.2094494,17.0105146 L15.794026,17.0105146 L15.794026,18.4137884 Z" id="Fill-68-Copy" sketch:type="MSShapeGroup"></path>
                <path d="M8.71539051,18.4174333 L10.1277765,18.4174333 L10.1277765,17.0141595 L8.71539051,17.0141595 L8.71539051,18.4174333 Z" id="Fill-69-Copy" sketch:type="MSShapeGroup"></path>
                <path d="M10.1359774,21.2437239 L10.1359774,22.6591473 L8.72359146,22.6591473 L8.72359146,21.2437239 L7.3081681,21.2437239 L7.3081681,19.8283005 L5.89274473,19.8283005 L5.89274473,18.4159146 L4.47732136,18.4159146 L4.47732136,24.0745706 L11.5514008,24.0745706 L11.5514008,21.2437239 L10.1359774,21.2437239 Z" id="Fill-70-Copy" sketch:type="MSShapeGroup"></path>
                <path d="M10.1308139,19.8328566 L11.5462372,19.8328566 L11.5462372,18.4174333 L10.1308139,18.4174333 L10.1308139,19.8328566 Z" id="Fill-71-Copy" sketch:type="MSShapeGroup"></path>
                <path d="M32.7724242,21.2437239 L34.1878475,21.2437239 L34.1878475,22.6591473 L35.6032709,22.6591473 L35.6032709,19.8283005 L34.1878475,19.8283005 L34.1878475,18.4159146 L32.7724242,18.4159146 L32.7724242,21.2437239 Z" id="Fill-72-Copy" sketch:type="MSShapeGroup"></path>
                <path d="M1.64434846,24.0760893 L3.05977183,24.0760893 L3.05977183,19.8328566 L1.64434846,19.8328566 L1.64434846,24.0760893 Z" id="Fill-73-Copy" sketch:type="MSShapeGroup"></path>
                <path d="M8.71539051,21.2452426 L10.1277765,21.2452426 L10.1277765,19.8298192 L8.71539051,19.8298192 L8.71539051,21.2452426 Z" id="Fill-74-Copy" sketch:type="MSShapeGroup"></path>
                <path d="M31.359127,25.4915127 L32.7745504,25.4915127 L32.7745504,21.24828 L31.359127,21.24828 L31.359127,25.4915127 Z" id="Fill-75-Copy" sketch:type="MSShapeGroup"></path>
                <path d="M12.9707728,24.0760893 L14.3861961,24.0760893 L14.3861961,22.660666 L12.9707728,22.660666 L12.9707728,24.0760893 Z" id="Fill-76-Copy" sketch:type="MSShapeGroup"></path>
                <path d="M11.5553494,28.319322 L12.9707728,28.319322 L12.9707728,24.0791267 L11.5553494,24.0791267 L11.5553494,28.319322 Z" id="Fill-77-Copy" sketch:type="MSShapeGroup"></path>
                <path d="M1.64647463,26.9090622 L8.69625496,26.9090622 L8.72055407,26.9090622 L8.72055407,33.9922539 L1.64647463,33.9922539 L1.64647463,26.9090622 Z M0.234088654,35.3955277 L10.1359774,35.3955277 L10.1359774,25.4936389 L0.234088654,25.4936389 L0.234088654,35.3955277 Z" id="Fill-78-Copy" sketch:type="MSShapeGroup"></path>
                <path d="M15.794026,29.7268482 L15.794026,26.9111884 L17.2094494,26.9111884 L17.2094494,25.495765 L14.3786027,25.495765 L14.3786027,28.3266118 L12.9662167,28.3266118 L12.9662167,31.1422716 L17.2094494,31.1422716 L17.2094494,29.7268482 L15.794026,29.7268482 Z" id="Fill-79-Copy" sketch:type="MSShapeGroup"></path>
                <path d="M25.7004709,26.9069361 L27.1158943,26.9069361 L27.1158943,25.4915127 L25.7004709,25.4915127 L25.7004709,26.9069361 Z" id="Fill-80-Copy" sketch:type="MSShapeGroup"></path>
                <path d="M35.6050933,25.4942464 L34.18967,25.4942464 L34.18967,26.9066323 L32.7742466,26.9066323 L32.7742466,28.3220557 L35.6050933,28.3220557 L35.6050933,25.4942464 Z" id="Fill-81-Copy" sketch:type="MSShapeGroup"></path>
                <path d="M3.05977183,32.5747043 L7.30300454,32.5747043 L7.30300454,28.3314716 L3.05977183,28.3314716 L3.05977183,32.5747043 Z" id="Fill-82-Copy" sketch:type="MSShapeGroup"></path>
                <path d="M34.1887588,31.1447015 L34.1887588,35.3848968 L35.6041821,35.3848968 L35.6041821,29.7292781 L32.7733354,29.7292781 L32.7733354,31.1447015 L34.1887588,31.1447015 Z" id="Fill-83-Copy" sketch:type="MSShapeGroup"></path>
                <path d="M31.359127,32.5747043 L32.7745504,32.5747043 L32.7745504,31.1471314 L31.359127,31.1471314 L31.359127,32.5747043 Z" id="Fill-84-Copy" sketch:type="MSShapeGroup"></path>
                <path d="M15.794026,32.5716669 L11.5507933,32.5716669 L11.5507933,35.3903641 L12.9662167,35.3903641 L12.9662167,33.9870903 L14.3786027,33.9870903 L14.3786027,35.3903641 L18.6248728,35.3903641 L18.6248728,33.9870903 L15.794026,33.9870903 L15.794026,32.5716669 Z" id="Fill-85-Copy" sketch:type="MSShapeGroup"></path>
                <path d="M31.359127,33.9901277 L29.946741,33.9901277 L29.946741,35.3934015 L31.359127,35.3934015 L31.359127,33.9901277 Z" id="Fill-86-Copy" sketch:type="MSShapeGroup"></path>
            </g>
        </g>
    </g>
</svg>