<?xml version="1.0" encoding="UTF-8" standalone="no"?>
<svg width="1003px" height="264px" viewBox="0 0 1003 264" version="1.1" xmlns="http://www.w3.org/2000/svg" xmlns:xlink="http://www.w3.org/1999/xlink" xmlns:sketch="http://www.bohemiancoding.com/sketch/ns">
    <!-- Generator: Sketch 3.3.1 (12005) - http://www.bohemiancoding.com/sketch -->
    <title>kopplung</title>
    <desc>Created with Sketch.</desc>
    <defs>
        <path id="path-1" d="M35.5035077,220.061566 L963.589927,220.061566 L963.589927,43.2490659 L35.5035077,43.2490659 L35.5035077,220.061566 Z"></path>
        <path id="path-3" d="M35.5035077,220.061566 L963.589927,220.061566 L963.589927,43.2490659 L35.5035077,43.2490659 L35.5035077,220.061566 Z"></path>
        <path id="path-5" d="M35.5035077,220.061566 L963.589927,220.061566 L963.589927,43.2490659 L35.5035077,43.2490659 L35.5035077,220.061566 Z"></path>
        <path id="path-7" d="M35.5035077,220.061566 L963.589927,220.061566 L963.589927,43.2490659 L35.5035077,43.2490659 L35.5035077,220.061566 Z"></path>
    </defs>
    <g id="Page-1" stroke="none" stroke-width="1" fill="none" fill-rule="evenodd" sketch:type="MSPage">
        <g id="kopplung" sketch:type="MSArtboardGroup">
            <path d="M387.624393,96.7891253 L340.475,155.723588 L346.367535,155.723588 L389.146125,102.247314 L389.158274,96.7891253 L387.624393,96.7891253 Z" id="Fill-1" fill="#E3E2E0" sketch:type="MSShapeGroup"></path>
            <path d="M741.249089,96.7891253 L694.099696,155.723588 L699.992231,155.723588 L742.770821,102.247314 L742.78297,96.7891253 L741.249089,96.7891253 Z" id="Fill-2" fill="#E3E2E0" sketch:type="MSShapeGroup"></path>
            <path d="M717.673481,155.724499 L723.566016,155.724499 L742.771428,131.726087 L742.771428,124.360418 L717.673481,155.724499 Z" id="Fill-3" fill="#E3E2E0" sketch:type="MSShapeGroup"></path>
            <path d="M629.269054,96.7891253 L623.376519,96.7891253 L609.939109,113.58285 L609.939109,120.951556 L629.269054,96.7891253 Z" id="Fill-4" fill="#E3E2E0" sketch:type="MSShapeGroup"></path>
            <path d="M652.844357,96.7891253 L646.951822,96.7891253 L609.950347,143.042488 L609.950347,150.408157 L652.844357,96.7891253 Z" id="Fill-5" fill="#E3E2E0" sketch:type="MSShapeGroup"></path>
            <path d="M364.049089,155.724499 L369.941624,155.724499 L389.147036,131.726087 L389.147036,124.360418 L364.049089,155.724499 Z" id="Fill-6" fill="#E3E2E0" sketch:type="MSShapeGroup"></path>
            <path d="M275.644357,96.7891253 L269.751822,96.7891253 L256.311375,113.58285 L256.311375,120.951556 L275.644357,96.7891253 Z" id="Fill-7" fill="#E3E2E0" sketch:type="MSShapeGroup"></path>
            <path d="M864.568609,176.826153 C866.287771,179.16798 867.183801,181.045087 868.037307,182.858408 C868.705533,184.261682 869.391983,185.713554 870.509742,187.457015 C870.534041,187.505614 870.57049,187.551174 870.591752,187.587623 C871.077734,185.914022 871.263015,182.284342 871.159743,181.102797 C870.992687,179.547654 870.688948,178.08667 870.415583,176.601386 L864.34688,176.601386 C864.39244,176.659097 864.53216,176.777555 864.568609,176.826153" id="Fill-8" fill="#1A171B" sketch:type="MSShapeGroup"></path>
            <mask id="mask-2" sketch:name="Clip 11" fill="white">
                <use xlink:href="#path-1"></use>
            </mask>
            <g id="Clip-11"></g>
            <path d="M828.870174,196 L828.870174,195.691377 L748.266977,195.691377 C745.22655,195.691377 742.751078,193.215905 742.751078,190.175479 L742.772339,131.720924 L742.772339,124.355255 L742.772339,102.240024 L742.772339,96.7818356 L742.784489,48.359777 C743.012293,45.5076685 745.369307,43.2417762 748.266977,43.2417762 L958.071598,43.2417762 C960.972305,43.2417762 963.332356,45.5076685 963.541936,48.359777 L963.590534,190.175479 C963.590534,193.215905 961.115062,195.691377 958.071598,195.691377 L914.084128,195.691377 C913.385528,192.818007 913.081789,189.820104 912.820574,186.615658 C912.586695,183.632942 912.328517,180.546955 911.714964,177.245313 C911.535758,176.337133 911.371739,174.982458 911.183421,173.366567 C911.007252,171.917732 910.794635,170.560019 910.60328,169.181045 L954.760844,169.181045 L954.760844,52.0866535 L751.592918,52.0866535 L751.592918,169.181045 L843.522539,169.181045 C843.841465,173.093202 846.894041,176.170077 850.821385,176.479891 C851.30433,178.141343 852.39779,179.520317 853.23611,180.522656 C853.567185,180.932703 853.943822,181.394386 854.059242,181.616116 C854.660645,184.164485 855.641722,186.624771 857.066258,189.11543 C857.950138,190.670573 858.71556,191.897678 859.438459,193.027587 C860.068021,194.033922 860.648932,194.960023 861.240012,196 L828.870174,196 Z" id="Fill-10" fill="#1A171B" sketch:type="MSShapeGroup" mask="url(#mask-2)"></path>
            <path d="M866.22672,170.113523 C867.004291,170.113523 867.666442,169.736887 868.149387,169.181045 L864.291903,169.181045 C864.774848,169.736887 865.436998,170.113523 866.22672,170.113523" id="Fill-13" fill="#1A171B" sketch:type="MSShapeGroup" mask="url(#mask-2)"></path>
            <path d="M364.049089,96.7891253 L316.899696,155.723588 L322.792231,155.723588 L369.941624,96.7891253 L364.049089,96.7891253 Z" id="Fill-15" fill="#E3E2E0" sketch:type="MSShapeGroup" mask="url(#mask-2)"></path>
            <path d="M670.525911,96.7891253 L623.376519,155.723588 L629.269054,155.723588 L676.418446,96.7891253 L670.525911,96.7891253 Z" id="Fill-17" fill="#E3E2E0" sketch:type="MSShapeGroup" mask="url(#mask-2)"></path>
            <path d="M694.098178,96.7891253 L646.951822,155.723588 L652.844357,155.723588 L699.990713,96.7891253 L694.098178,96.7891253 Z" id="Fill-19" fill="#E3E2E0" sketch:type="MSShapeGroup" mask="url(#mask-2)"></path>
            <path d="M717.673481,96.7891253 L670.527126,155.723588 L676.419661,155.723588 L723.566016,96.7891253 L717.673481,96.7891253 Z" id="Fill-21" fill="#E3E2E0" sketch:type="MSShapeGroup" mask="url(#mask-2)"></path>
            <path d="M299.219965,96.7891253 L293.32743,96.7891253 L256.322917,143.042488 L256.322917,150.408157 L299.219965,96.7891253 Z" id="Fill-23" fill="#E3E2E0" sketch:type="MSShapeGroup" mask="url(#mask-2)"></path>
            <path d="M316.898481,96.7891253 L269.752126,155.723588 L275.644661,155.723588 L322.791016,96.7891253 L316.898481,96.7891253 Z" id="Fill-25" fill="#E3E2E0" sketch:type="MSShapeGroup" mask="url(#mask-2)"></path>
            <path d="M340.473785,96.7891253 L293.32743,155.723588 L299.219965,155.723588 L346.36632,96.7891253 L340.473785,96.7891253 Z" id="Fill-27" fill="#E3E2E0" sketch:type="MSShapeGroup" mask="url(#mask-2)"></path>
            <mask id="mask-4" sketch:name="Clip 30" fill="white">
                <use xlink:href="#path-3"></use>
            </mask>
            <g id="Clip-30"></g>
            <path d="M44.3371467,169.182259 L44.3371467,52.0848311 L247.50811,52.0848311 L247.50811,154.059099 L247.50811,155.720551 L247.50811,169.182259 L44.3371467,169.182259 Z M121.626552,196 L121.626552,195.692592 L41.0263924,195.692592 C37.9707789,195.692592 35.4953067,193.21712 35.4953067,190.176694 L35.5439049,48.3609919 C35.7565222,45.5058461 38.1135362,43.2429911 41.0263924,43.2429911 L250.818864,43.2429911 C253.728683,43.2429911 256.088735,45.5058461 256.286165,48.3609919 L256.310464,113.579813 L256.310464,120.948519 L256.322614,143.039451 L256.322614,150.402082 L256.334763,190.176694 C256.334763,193.21712 253.859291,195.692592 250.818864,195.692592 L170.215667,195.692592 L170.215667,196 L121.626552,196 Z" id="Fill-29" fill="#1A171B" sketch:type="MSShapeGroup" mask="url(#mask-4)"></path>
            <path d="M511.303236,169.182259 C511.783143,169.738102 512.445294,170.114738 513.235015,170.114738 C514.012587,170.114738 514.6717,169.738102 515.157683,169.182259 L511.303236,169.182259 Z" id="Fill-32" fill="#1A171B" sketch:type="MSShapeGroup" mask="url(#mask-4)"></path>
            <mask id="mask-6" sketch:name="Clip 35" fill="white">
                <use xlink:href="#path-5"></use>
            </mask>
            <g id="Clip-35"></g>
            <path d="M601.134629,169.182259 L535.92492,169.182259 C535.596882,173.319184 532.216268,176.608676 528.018596,176.608676 L498.45265,176.608676 C494.236753,176.608676 490.862214,173.319184 490.534176,169.182259 L397.963665,169.182259 L397.963665,52.0848311 L601.134629,52.0848311 L601.134629,169.182259 Z M475.259146,196 L475.259146,195.692592 L394.643799,195.692592 C391.600335,195.692592 389.124863,193.21712 389.124863,190.176694 L389.149162,131.722138 L389.149162,124.353432 L389.149162,102.241239 L389.161311,96.7830505 L389.173461,48.3609919 C389.383041,45.5058461 391.743092,43.2429911 394.643799,43.2429911 L604.44842,43.2429911 C607.349127,43.2429911 609.715253,45.5058461 609.918758,48.3609919 L609.94002,113.579813 L609.94002,120.948519 L609.95217,143.039451 L609.95217,150.402082 L609.964319,190.176694 C609.964319,193.21712 607.488847,195.692592 604.44842,195.692592 L523.833074,195.692592 L523.833074,196 L475.259146,196 Z" id="Fill-34" fill="#1A171B" sketch:type="MSShapeGroup" mask="url(#mask-6)"></path>
            <path d="M513.231067,171.587872 C510.968212,171.587872 509.118442,169.750251 509.118442,167.475247 C509.118442,165.209354 510.968212,163.371734 513.231067,163.371734 C515.493922,163.371734 517.33458,165.209354 517.33458,167.475247 C517.33458,169.750251 515.493922,171.587872 513.231067,171.587872 L513.231067,171.587872 Z M506.226847,92.5519674 C506.806989,92.5519674 507.277784,93.0136505 507.277784,93.5877171 C507.277784,94.1678584 506.806989,94.6386538 506.226847,94.6386538 C505.649743,94.6386538 505.191098,94.1678584 505.191098,93.5877171 C505.191098,93.0136505 505.649743,92.5519674 506.226847,92.5519674 L506.226847,92.5519674 Z M510.011434,92.8830428 L516.459811,92.8830428 C516.930607,92.8830428 517.33458,93.2718286 517.33458,93.7547735 C517.33458,94.2377184 516.930607,94.6386538 516.459811,94.6386538 L510.011434,94.6386538 C509.51634,94.6386538 509.118442,94.2377184 509.118442,93.7547735 C509.118442,93.2718286 509.51634,92.8830428 510.011434,92.8830428 L510.011434,92.8830428 Z M495.161638,100.591937 L495.161638,100.591937 L531.312645,100.591937 L531.312645,160.461915 L495.161638,160.461915 L495.161638,100.591937 Z M528.011003,85.9031224 L498.460243,85.9031224 C494.815376,85.9031224 491.884295,88.8402778 491.884295,92.4699579 L491.884295,168.571744 C491.884295,172.201424 494.815376,175.135542 498.460243,175.135542 L528.011003,175.135542 C531.63157,175.135542 534.574801,172.201424 534.574801,168.571744 L534.574801,92.4699579 C534.574801,88.8402778 531.63157,85.9031224 528.011003,85.9031224 L528.011003,85.9031224 Z" id="Fill-37" fill="#1A171B" sketch:type="MSShapeGroup" mask="url(#mask-6)"></path>
            <path d="M859.229486,92.5504487 C859.803553,92.5504487 860.265236,93.0090945 860.265236,93.5892358 C860.265236,94.1663397 859.803553,94.6401725 859.229486,94.6401725 C858.652382,94.6401725 858.190699,94.1663397 858.190699,93.5892358 C858.190699,93.0090945 858.652382,92.5504487 859.229486,92.5504487 M862.998886,92.8815241 L869.447263,92.8815241 C869.930208,92.8815241 870.318994,93.2824595 870.318994,93.7654044 C870.318994,94.2513866 869.930208,94.6401725 869.447263,94.6401725 L862.998886,94.6401725 C862.491642,94.6401725 862.102856,94.2513866 862.102856,93.7654044 C862.102856,93.2824595 862.491642,92.8815241 862.998886,92.8815241 M850.661011,174.970005 C850.661011,174.757387 850.600263,174.54477 850.636712,174.323041 C850.89489,172.127008 852.273865,170.820931 854.32714,170.820931 C857.033454,170.820931 860.678321,173.259954 862.859166,175.134024 L870.176237,175.134024 C869.860348,173.542432 869.483712,171.966027 869.070627,170.419996 C868.329504,171.139857 867.339315,171.586353 866.230668,171.586353 C863.943514,171.586353 862.102856,169.748733 862.102856,167.473728 C862.102856,165.210873 863.943514,163.370215 866.230668,163.370215 C866.491884,163.370215 866.713613,163.479561 866.962679,163.522085 C866.607305,162.510634 866.26408,161.483997 865.866182,160.457359 L848.158203,160.457359 L848.158203,100.590418 L884.300097,100.590418 L884.300097,145.489105 C885.396594,145.726021 886.550802,146.336537 887.56529,147.788409 L887.56529,92.4714766 C887.56529,88.8509086 884.615985,85.9137533 881.010604,85.9137533 L851.447695,85.9137533 C847.805865,85.9137533 844.86871,88.8509086 844.86871,92.4714766 L844.86871,168.567188 C844.86871,171.917428 847.41708,174.569069 850.661011,174.970005" id="Fill-39" fill="#1A171B" sketch:type="MSShapeGroup" mask="url(#mask-6)"></path>
            <path d="M816.845454,145.055062 C803.936549,145.055062 793.469706,134.576069 793.469706,121.679315 C793.469706,108.773448 803.936549,98.291418 816.845454,98.291418 C829.75132,98.291418 840.218163,108.773448 840.218163,121.679315 C840.218163,134.576069 829.75132,145.055062 816.845454,145.055062 M816.845454,91.1383664 C800.012243,91.1383664 786.280206,104.849141 786.280206,121.679315 C786.280206,138.500376 800.012243,152.208114 816.845454,152.208114 C828.278187,152.208114 838.167926,145.808335 843.401347,136.474438 L843.401347,106.87508 C838.167926,97.5381455 828.278187,91.1383664 816.845454,91.1383664" id="Fill-41" fill="#E3E2E0" sketch:type="MSShapeGroup" mask="url(#mask-6)"></path>
            <path d="M816.845454,105.456315 C807.885155,105.456315 800.622758,112.718713 800.622758,121.675974 C800.622758,130.633234 807.885155,137.895632 816.845454,137.895632 C825.802714,137.895632 833.065112,130.633234 833.065112,121.675974 C833.065112,112.718713 825.802714,105.456315 816.845454,105.456315" id="Fill-43" fill="#E3E2E0" sketch:type="MSShapeGroup" mask="url(#mask-6)"></path>
            <path d="M247.509933,155.724499 L247.509933,154.050898 L246.179556,155.724499 L247.509933,155.724499 Z" id="Fill-45" fill="#CFD0D1" sketch:type="MSShapeGroup" mask="url(#mask-6)"></path>
            <path d="M136.720858,105.512811 L129.646778,105.512811 L129.646778,98.4296192 L136.696559,98.4296192 L136.720858,98.4296192 L136.720858,105.512811 Z M138.136281,97.0263454 L128.234392,97.0263454 L128.234392,106.928234 L138.136281,106.928234 L138.136281,97.0263454 Z" id="Fill-47" fill="#CFD0D1" sketch:type="MSShapeGroup" mask="url(#mask-6)"></path>
            <mask id="mask-8" sketch:name="Clip 50" fill="white">
                <use xlink:href="#path-7"></use>
            </mask>
            <g id="Clip-50"></g>
            <path d="M149.457238,97.0290791 L143.798582,97.0290791 L143.798582,98.4323529 L149.457238,98.4323529 L149.457238,97.0290791 Z" id="Fill-49" fill="#CFD0D1" sketch:type="MSShapeGroup" mask="url(#mask-8)"></path>
            <path d="M155.115894,98.4323529 L162.162637,98.4323529 L162.186936,98.4323529 L162.186936,105.518582 L155.115894,105.518582 L155.115894,98.4323529 Z M153.700471,106.934005 L163.60236,106.934005 L163.60236,97.0290791 L153.700471,97.0290791 L153.700471,106.934005 Z" id="Fill-51" fill="#CFD0D1" sketch:type="MSShapeGroup" mask="url(#mask-8)"></path>
            <path d="M143.78947,98.4323529 L140.961661,98.4323529 L140.961661,99.8477762 L143.78947,99.8477762 L143.78947,98.4323529 Z" id="Fill-52" fill="#CFD0D1" sketch:type="MSShapeGroup" mask="url(#mask-8)"></path>
            <path d="M131.059772,104.100121 L135.303005,104.100121 L135.303005,99.8599258 L131.059772,99.8599258 L131.059772,104.100121 Z" id="Fill-53" fill="#CFD0D1" sketch:type="MSShapeGroup" mask="url(#mask-8)"></path>
            <path d="M146.625177,101.276868 L146.625177,99.8492949 L145.212791,99.8492949 L145.212791,102.692291 L148.0406,102.692291 L148.0406,101.276868 L146.625177,101.276868 Z" id="Fill-54" fill="#CFD0D1" sketch:type="MSShapeGroup" mask="url(#mask-8)"></path>
            <path d="M149.457238,99.8477762 L148.044852,99.8477762 L148.044852,101.275349 L149.457238,101.275349 L149.457238,99.8477762 Z" id="Fill-55" fill="#CFD0D1" sketch:type="MSShapeGroup" mask="url(#mask-8)"></path>
            <path d="M156.531318,104.100121 L160.77455,104.100121 L160.77455,99.8599258 L156.531318,99.8599258 L156.531318,104.100121 Z" id="Fill-56" fill="#CFD0D1" sketch:type="MSShapeGroup" mask="url(#mask-8)"></path>
            <path d="M142.377691,102.691684 L140.962268,102.691684 L140.962268,101.279298 L139.549882,101.279298 L139.549882,101.291447 L139.549882,104.094958 L142.377691,104.094958 L142.377691,102.691684 Z" id="Fill-57" fill="#CFD0D1" sketch:type="MSShapeGroup" mask="url(#mask-8)"></path>
            <path d="M149.457238,102.687735 L148.044852,102.687735 L148.044852,104.087972 L149.457238,104.087972 L149.457238,102.687735 Z" id="Fill-58" fill="#CFD0D1" sketch:type="MSShapeGroup" mask="url(#mask-8)"></path>
            <path d="M152.288085,102.687735 L150.872662,102.687735 L150.872662,108.331204 L152.288085,108.331204 L152.288085,102.687735 Z" id="Fill-59" fill="#CFD0D1" sketch:type="MSShapeGroup" mask="url(#mask-8)"></path>
            <path d="M145.210361,106.927627 L146.625784,106.927627 L146.625784,105.512203 L148.03817,105.512203 L148.03817,104.099817 L143.794937,104.099817 L143.794937,105.512203 L145.210361,105.512203 L145.210361,106.927627 Z" id="Fill-60" fill="#CFD0D1" sketch:type="MSShapeGroup" mask="url(#mask-8)"></path>
            <path d="M140.970773,105.515544 L139.555349,105.515544 L139.555349,106.930968 L140.970773,106.930968 L140.970773,105.515544 Z" id="Fill-61" fill="#CFD0D1" sketch:type="MSShapeGroup" mask="url(#mask-8)"></path>
            <path d="M143.794026,109.760296 L145.209449,109.760296 L145.209449,106.932487 L143.794026,106.932487 L143.794026,105.520101 L142.378603,105.520101 L142.378603,108.344873 L143.794026,108.344873 L143.794026,109.760296 Z" id="Fill-62" fill="#CFD0D1" sketch:type="MSShapeGroup" mask="url(#mask-8)"></path>
            <path d="M146.625177,108.34548 L146.625177,109.760903 L145.212791,109.760903 L145.212791,111.176327 L148.0406,111.176327 L148.0406,114.004136 L149.456023,114.004136 L149.456023,112.588713 L150.868409,112.588713 L150.868409,108.34548 L149.456023,108.34548 L149.456023,105.514633 L148.0406,105.514633 L148.0406,108.34548 L146.625177,108.34548 Z" id="Fill-63" fill="#CFD0D1" sketch:type="MSShapeGroup" mask="url(#mask-8)"></path>
            <path d="M135.309079,112.592965 L138.139926,112.592965 L138.139926,114.008388 L139.552312,114.008388 L139.552312,115.411662 L140.967735,115.411662 L140.967735,118.236434 L142.383159,118.236434 L142.383159,119.664007 L143.795545,119.664007 L143.795545,121.07943 L145.210968,121.07943 L145.210968,122.494854 L146.626391,122.494854 L146.626391,121.07943 L148.038777,121.07943 L148.038777,125.322663 L149.454201,125.322663 L149.454201,119.664007 L145.210968,119.664007 L145.210968,118.236434 L146.626391,118.236434 L146.626391,116.824048 L142.383159,116.824048 L142.383159,112.592965 L140.967735,112.592965 L140.967735,111.177542 L142.383159,111.177542 L142.383159,108.349732 L140.967735,108.349732 L140.967735,109.762118 L139.552312,109.762118 L139.552312,108.349732 L135.309079,108.349732 L135.309079,109.762118 L138.139926,109.762118 L138.139926,111.177542 L133.884544,111.177542 L133.884544,112.592965 L132.46912,112.592965 L132.46912,111.177542 L129.653461,111.177542 L129.653461,109.762118 L131.065847,109.762118 L131.065847,108.349732 L128.225888,108.349732 L128.225888,115.411662 L131.065847,115.411662 L131.065847,114.008388 L133.884544,114.008388 L133.884544,115.411662 L135.309079,115.411662 L135.309079,112.592965 Z" id="Fill-64" fill="#CFD0D1" sketch:type="MSShapeGroup" mask="url(#mask-8)"></path>
            <path d="M156.524939,125.323878 L152.281706,125.323878 L152.281706,121.080645 L156.418631,121.080645 L156.524939,121.080645 L156.524939,125.323878 Z M162.183595,109.763333 L159.367935,109.763333 L159.367935,108.350947 L156.524939,108.350947 L156.524939,109.763333 L155.109516,109.763333 L155.109516,111.178757 L153.69713,111.178757 L153.69713,112.59418 L155.109516,112.59418 L155.109516,114.006566 L153.69713,114.006566 L153.69713,115.40984 L155.109516,115.40984 L155.109516,116.825263 L153.69713,116.825263 L153.69713,115.40984 L150.866283,115.40984 L150.866283,114.006566 L149.45086,114.006566 L149.45086,115.40984 L148.038474,115.40984 L148.038474,118.240687 L149.45086,118.240687 L149.45086,119.668259 L150.866283,119.668259 L150.866283,116.825263 L152.281706,116.825263 L152.281706,118.240687 L156.524939,118.240687 L156.524939,119.668259 L150.866283,119.668259 L150.866283,125.323878 L149.45086,125.323878 L149.45086,126.727152 L152.281706,126.727152 L152.281706,128.142575 L155.109516,128.142575 L155.109516,129.567111 L150.866283,129.567111 L150.866283,128.142575 L149.45086,128.142575 L149.45086,126.727152 L148.038474,126.727152 L148.038474,125.323878 L145.207627,125.323878 L145.207627,126.727152 L146.62305,126.727152 L146.62305,128.142575 L145.207627,128.142575 L145.207627,129.567111 L149.45086,129.567111 L149.45086,130.982534 L150.866283,130.982534 L150.866283,132.39492 L152.281706,132.39492 L152.281706,130.982534 L153.69713,130.982534 L153.69713,132.39492 L155.109516,132.39492 L155.109516,130.982534 L157.952512,130.982534 L157.952512,129.567111 L156.524939,129.567111 L156.524939,126.727152 L157.952512,126.727152 L157.952512,128.142575 L159.367935,128.142575 L159.367935,126.727152 L160.768172,126.727152 L160.768172,125.323878 L157.952512,125.323878 L157.952512,123.908455 L159.367935,123.908455 L159.367935,122.493031 L157.952512,122.493031 L157.952512,118.240687 L159.367935,118.240687 L159.367935,116.825263 L156.524939,116.825263 L156.524939,111.178757 L157.952512,111.178757 L157.952512,114.006566 L159.367935,114.006566 L159.367935,111.178757 L160.768172,111.178757 L160.768172,112.59418 L162.183595,112.59418 L162.183595,115.40984 L163.611168,115.40984 L163.611168,111.178757 L162.183595,111.178757 L162.183595,109.763333 Z" id="Fill-65" fill="#CFD0D1" sketch:type="MSShapeGroup" mask="url(#mask-8)"></path>
            <path d="M152.288085,111.174201 L153.703508,111.174201 L153.703508,109.758777 L152.288085,109.758777 L152.288085,111.174201 Z" id="Fill-66" fill="#CFD0D1" sketch:type="MSShapeGroup" mask="url(#mask-8)"></path>
            <path d="M143.78947,111.174201 L142.377084,111.174201 L142.377084,112.589624 L143.78947,112.589624 L143.78947,111.174201 Z" id="Fill-67" fill="#CFD0D1" sketch:type="MSShapeGroup" mask="url(#mask-8)"></path>
            <path d="M143.794026,115.413788 L146.624873,115.413788 L146.624873,112.595091 L145.209449,112.595091 L145.209449,114.010515 L143.794026,114.010515 L143.794026,115.413788 Z" id="Fill-68" fill="#CFD0D1" sketch:type="MSShapeGroup" mask="url(#mask-8)"></path>
            <path d="M136.715391,115.417433 L138.127776,115.417433 L138.127776,114.014159 L136.715391,114.014159 L136.715391,115.417433 Z" id="Fill-69" fill="#CFD0D1" sketch:type="MSShapeGroup" mask="url(#mask-8)"></path>
            <path d="M138.135977,118.243724 L138.135977,119.659147 L136.723591,119.659147 L136.723591,118.243724 L135.308168,118.243724 L135.308168,116.828301 L133.892745,116.828301 L133.892745,115.415915 L132.477321,115.415915 L132.477321,121.074571 L139.551401,121.074571 L139.551401,118.243724 L138.135977,118.243724 Z" id="Fill-70" fill="#CFD0D1" sketch:type="MSShapeGroup" mask="url(#mask-8)"></path>
            <path d="M138.130814,116.832857 L139.546237,116.832857 L139.546237,115.417433 L138.130814,115.417433 L138.130814,116.832857 Z" id="Fill-71" fill="#CFD0D1" sketch:type="MSShapeGroup" mask="url(#mask-8)"></path>
            <path d="M160.772424,118.243724 L162.187848,118.243724 L162.187848,119.659147 L163.603271,119.659147 L163.603271,116.828301 L162.187848,116.828301 L162.187848,115.415915 L160.772424,115.415915 L160.772424,118.243724 Z" id="Fill-72" fill="#CFD0D1" sketch:type="MSShapeGroup" mask="url(#mask-8)"></path>
            <path d="M129.644348,121.076089 L131.059772,121.076089 L131.059772,116.832857 L129.644348,116.832857 L129.644348,121.076089 Z" id="Fill-73" fill="#CFD0D1" sketch:type="MSShapeGroup" mask="url(#mask-8)"></path>
            <path d="M136.715391,118.245243 L138.127776,118.245243 L138.127776,116.829819 L136.715391,116.829819 L136.715391,118.245243 Z" id="Fill-74" fill="#CFD0D1" sketch:type="MSShapeGroup" mask="url(#mask-8)"></path>
            <path d="M159.359127,122.491513 L160.77455,122.491513 L160.77455,118.24828 L159.359127,118.24828 L159.359127,122.491513 Z" id="Fill-75" fill="#CFD0D1" sketch:type="MSShapeGroup" mask="url(#mask-8)"></path>
            <path d="M140.970773,121.076089 L142.386196,121.076089 L142.386196,119.660666 L140.970773,119.660666 L140.970773,121.076089 Z" id="Fill-76" fill="#CFD0D1" sketch:type="MSShapeGroup" mask="url(#mask-8)"></path>
            <path d="M139.555349,125.319322 L140.970773,125.319322 L140.970773,121.079127 L139.555349,121.079127 L139.555349,125.319322 Z" id="Fill-77" fill="#CFD0D1" sketch:type="MSShapeGroup" mask="url(#mask-8)"></path>
            <path d="M129.646475,123.909062 L136.696255,123.909062 L136.720554,123.909062 L136.720554,130.992254 L129.646475,130.992254 L129.646475,123.909062 Z M128.234089,132.395528 L138.135977,132.395528 L138.135977,122.493639 L128.234089,122.493639 L128.234089,132.395528 Z" id="Fill-78" fill="#CFD0D1" sketch:type="MSShapeGroup" mask="url(#mask-8)"></path>
            <path d="M143.794026,126.726848 L143.794026,123.911188 L145.209449,123.911188 L145.209449,122.495765 L142.378603,122.495765 L142.378603,125.326612 L140.966217,125.326612 L140.966217,128.142272 L145.209449,128.142272 L145.209449,126.726848 L143.794026,126.726848 Z" id="Fill-79" fill="#CFD0D1" sketch:type="MSShapeGroup" mask="url(#mask-8)"></path>
            <path d="M153.700471,123.906936 L155.115894,123.906936 L155.115894,122.491513 L153.700471,122.491513 L153.700471,123.906936 Z" id="Fill-80" fill="#CFD0D1" sketch:type="MSShapeGroup" mask="url(#mask-8)"></path>
            <path d="M163.605093,122.494246 L162.18967,122.494246 L162.18967,123.906632 L160.774247,123.906632 L160.774247,125.322056 L163.605093,125.322056 L163.605093,122.494246 Z" id="Fill-81" fill="#CFD0D1" sketch:type="MSShapeGroup" mask="url(#mask-8)"></path>
            <path d="M131.059772,129.574704 L135.303005,129.574704 L135.303005,125.331472 L131.059772,125.331472 L131.059772,129.574704 Z" id="Fill-82" fill="#CFD0D1" sketch:type="MSShapeGroup" mask="url(#mask-8)"></path>
            <path d="M162.188759,128.144701 L162.188759,132.384897 L163.604182,132.384897 L163.604182,126.729278 L160.773335,126.729278 L160.773335,128.144701 L162.188759,128.144701 Z" id="Fill-83" fill="#CFD0D1" sketch:type="MSShapeGroup" mask="url(#mask-8)"></path>
            <path d="M159.359127,129.574704 L160.77455,129.574704 L160.77455,128.147131 L159.359127,128.147131 L159.359127,129.574704 Z" id="Fill-84" fill="#CFD0D1" sketch:type="MSShapeGroup" mask="url(#mask-8)"></path>
            <path d="M143.794026,129.571667 L139.550793,129.571667 L139.550793,132.390364 L140.966217,132.390364 L140.966217,130.98709 L142.378603,130.98709 L142.378603,132.390364 L146.624873,132.390364 L146.624873,130.98709 L143.794026,130.98709 L143.794026,129.571667 Z" id="Fill-85" fill="#CFD0D1" sketch:type="MSShapeGroup" mask="url(#mask-8)"></path>
            <path d="M159.359127,130.990128 L157.946741,130.990128 L157.946741,132.393401 L159.359127,132.393401 L159.359127,130.990128 Z" id="Fill-86" fill="#CFD0D1" sketch:type="MSShapeGroup" mask="url(#mask-8)"></path>
            <path d="M483.27269,105.512811 L483.27269,98.4296192 L490.319433,98.4296192 L490.343732,98.4296192 L490.343732,105.512811 L483.27269,105.512811 Z M481.857266,106.928234 L490.413592,106.928234 L490.413592,97.0263454 L481.857266,97.0263454 L481.857266,106.928234 Z" id="Fill-87" fill="#CFD0D1" sketch:type="MSShapeGroup" mask="url(#mask-8)"></path>
            <path d="M484.681734,104.100121 L488.924967,104.100121 L488.924967,99.8599258 L484.681734,99.8599258 L484.681734,104.100121 Z" id="Fill-88" fill="#CFD0D1" sketch:type="MSShapeGroup" mask="url(#mask-8)"></path>
            <path d="M488.934991,112.592965 L490.408124,112.592965 L490.408124,111.177542 L487.507418,111.177542 L487.507418,112.592965 L486.091994,112.592965 L486.091994,111.177542 L483.276334,111.177542 L483.276334,109.762118 L484.691758,109.762118 L484.691758,108.349732 L481.851799,108.349732 L481.851799,115.411662 L484.691758,115.411662 L484.691758,114.008388 L487.507418,114.008388 L487.507418,115.411662 L488.934991,115.411662 L488.934991,112.592965 Z" id="Fill-89" fill="#CFD0D1" sketch:type="MSShapeGroup" mask="url(#mask-8)"></path>
            <path d="M488.937117,109.758777 L490.41025,109.758777 L490.41025,108.343354 L488.937117,108.343354 L488.937117,109.758777 Z" id="Fill-90" fill="#CFD0D1" sketch:type="MSShapeGroup" mask="url(#mask-8)"></path>
            <path d="M490.340391,115.417433 L490.401138,115.417433 L490.401138,114.014159 L490.340391,114.014159 L490.340391,115.417433 Z" id="Fill-91" fill="#CFD0D1" sketch:type="MSShapeGroup" mask="url(#mask-8)"></path>
            <path d="M490.347073,119.661577 L490.347073,118.246154 L488.931649,118.246154 L488.931649,116.83073 L487.516226,116.83073 L487.516226,115.418344 L486.10384,115.418344 L486.10384,121.073963 L490.404783,121.073963 L490.404783,119.661577 L490.347073,119.661577 Z" id="Fill-92" fill="#CFD0D1" sketch:type="MSShapeGroup" mask="url(#mask-8)"></path>
            <path d="M484.681734,116.832857 L483.269348,116.832857 L483.269348,121.076089 L484.681734,121.076089 L484.681734,116.832857 Z" id="Fill-93" fill="#CFD0D1" sketch:type="MSShapeGroup" mask="url(#mask-8)"></path>
            <path d="M490.340391,118.245243 L490.401138,118.245243 L490.401138,116.829819 L490.340391,116.829819 L490.340391,118.245243 Z" id="Fill-94" fill="#CFD0D1" sketch:type="MSShapeGroup" mask="url(#mask-8)"></path>
            <path d="M483.27269,130.989216 L483.27269,123.902987 L490.319433,123.902987 L490.343732,123.902987 L490.343732,130.989216 L483.27269,130.989216 Z M481.857266,132.389453 L490.413592,132.389453 L490.413592,122.487564 L481.857266,122.487564 L481.857266,132.389453 Z" id="Fill-95" fill="#CFD0D1" sketch:type="MSShapeGroup" mask="url(#mask-8)"></path>
            <path d="M484.681734,129.574704 L488.924967,129.574704 L488.924967,125.331472 L484.681734,125.331472 L484.681734,129.574704 Z" id="Fill-96" fill="#CFD0D1" sketch:type="MSShapeGroup" mask="url(#mask-8)"></path>
            <path d="M501.941699,115.897341 L501.941699,111.086116 L506.728624,111.086116 L506.752923,111.086116 L506.752923,115.897341 L501.941699,115.897341 Z M500.975809,116.863231 L507.706663,116.863231 L507.706663,110.129339 L500.975809,110.129339 L500.975809,116.863231 Z" id="Fill-97" fill="#CFD0D1" sketch:type="MSShapeGroup" mask="url(#mask-8)"></path>
            <path d="M515.401889,110.126301 L511.544405,110.126301 L511.544405,111.080041 L515.401889,111.080041 L515.401889,110.126301 Z" id="Fill-98" fill="#CFD0D1" sketch:type="MSShapeGroup" mask="url(#mask-8)"></path>
            <path d="M524.052373,115.900378 L519.268485,115.900378 L519.268485,111.092191 L524.052373,111.092191 L524.052373,115.900378 Z M525.018263,110.126301 L518.299558,110.126301 L518.299558,116.857156 L525.018263,116.857156 L525.018263,110.126301 Z" id="Fill-99" fill="#CFD0D1" sketch:type="MSShapeGroup" mask="url(#mask-8)"></path>
            <path d="M509.636924,112.045931 L511.559591,112.045931 L511.559591,111.080041 L509.636924,111.080041 L509.636924,112.045931 Z" id="Fill-100" fill="#CFD0D1" sketch:type="MSShapeGroup" mask="url(#mask-8)"></path>
            <path d="M505.782477,112.045931 L502.89392,112.045931 L502.89392,114.922339 L505.782477,114.922339 L505.782477,112.045931 Z" id="Fill-101" fill="#CFD0D1" sketch:type="MSShapeGroup" mask="url(#mask-8)"></path>
            <path d="M513.483474,113.017288 L513.483474,112.051399 L512.517584,112.051399 L512.517584,113.971029 L514.446326,113.971029 L514.446326,113.017288 L513.483474,113.017288 Z" id="Fill-102" fill="#CFD0D1" sketch:type="MSShapeGroup" mask="url(#mask-8)"></path>
            <path d="M515.401889,112.045931 L514.435999,112.045931 L514.435999,113.011821 L515.401889,113.011821 L515.401889,112.045931 Z" id="Fill-103" fill="#CFD0D1" sketch:type="MSShapeGroup" mask="url(#mask-8)"></path>
            <path d="M523.107745,112.045931 L520.210076,112.045931 L520.210076,114.922339 L523.107745,114.922339 L523.107745,112.045931 Z" id="Fill-104" fill="#CFD0D1" sketch:type="MSShapeGroup" mask="url(#mask-8)"></path>
            <path d="M510.594309,114.930236 L510.594309,113.976496 L509.628419,113.976496 L509.628419,113.019718 L508.671642,113.019718 L508.671642,114.930236 L510.594309,114.930236 Z" id="Fill-105" fill="#CFD0D1" sketch:type="MSShapeGroup" mask="url(#mask-8)"></path>
            <path d="M515.401889,113.968599 L514.435999,113.968599 L514.435999,114.922339 L515.401889,114.922339 L515.401889,113.968599 Z" id="Fill-106" fill="#CFD0D1" sketch:type="MSShapeGroup" mask="url(#mask-8)"></path>
            <path d="M517.321519,113.968599 L516.367779,113.968599 L516.367779,117.810896 L517.321519,117.810896 L517.321519,113.968599 Z" id="Fill-107" fill="#CFD0D1" sketch:type="MSShapeGroup" mask="url(#mask-8)"></path>
            <path d="M512.516369,116.864445 L513.482259,116.864445 L513.482259,115.898556 L514.448149,115.898556 L514.448149,114.929629 L511.550479,114.929629 L511.550479,115.898556 L512.516369,115.898556 L512.516369,116.864445 Z" id="Fill-108" fill="#CFD0D1" sketch:type="MSShapeGroup" mask="url(#mask-8)"></path>
            <path d="M508.667997,116.866268 L509.633887,116.866268 L509.633887,115.900378 L508.667997,115.900378 L508.667997,116.866268 Z" id="Fill-109" fill="#CFD0D1" sketch:type="MSShapeGroup" mask="url(#mask-8)"></path>
            <path d="M511.555339,118.786505 L512.521229,118.786505 L512.521229,116.863838 L511.555339,116.863838 L511.555339,115.897948 L510.589449,115.897948 L510.589449,117.820616 L511.555339,117.820616 L511.555339,118.786505 Z" id="Fill-110" fill="#CFD0D1" sketch:type="MSShapeGroup" mask="url(#mask-8)"></path>
            <path d="M515.405534,115.897341 L514.439644,115.897341 L514.439644,117.820008 L513.482866,117.820008 L513.482866,118.78286 L512.516977,118.78286 L512.516977,119.739638 L514.439644,119.739638 L514.439644,121.671418 L515.405534,121.671418 L515.405534,120.705528 L516.371423,120.705528 L516.371423,117.820008 L515.405534,117.820008 L515.405534,115.897341 Z" id="Fill-111" fill="#CFD0D1" sketch:type="MSShapeGroup" mask="url(#mask-8)"></path>
            <path d="M505.786122,120.708565 L507.708789,120.708565 L507.708789,121.674455 L508.674679,121.674455 L508.674679,122.619083 L509.631457,122.619083 L509.631457,124.550863 L510.597347,124.550863 L510.597347,125.504603 L511.551087,125.504603 L511.551087,126.470493 L512.520014,126.470493 L512.520014,127.42727 L513.482866,127.42727 L513.482866,126.470493 L514.439644,126.470493 L514.439644,129.362087 L515.405534,129.362087 L515.405534,125.504603 L512.520014,125.504603 L512.520014,124.550863 L513.482866,124.550863 L513.482866,123.584973 L510.597347,123.584973 L510.597347,120.708565 L509.631457,120.708565 L509.631457,119.742675 L510.597347,119.742675 L510.597347,117.820008 L509.631457,117.820008 L509.631457,118.785898 L508.674679,118.785898 L508.674679,117.820008 L505.786122,117.820008 L505.786122,118.785898 L507.708789,118.785898 L507.708789,119.742675 L504.82327,119.742675 L504.82327,120.708565 L503.854343,120.708565 L503.854343,119.742675 L501.943825,119.742675 L501.943825,118.785898 L502.900602,118.785898 L502.900602,117.820008 L500.977935,117.820008 L500.977935,122.619083 L502.900602,122.619083 L502.900602,121.674455 L504.82327,121.674455 L504.82327,122.619083 L505.786122,122.619083 L505.786122,120.708565 Z" id="Fill-112" fill="#CFD0D1" sketch:type="MSShapeGroup" mask="url(#mask-8)"></path>
            <path d="M520.210683,129.36391 L517.322126,129.36391 L517.322126,126.47839 L520.140823,126.47839 L520.210683,126.47839 L520.210683,129.36391 Z M514.448756,122.620905 L514.448756,124.555722 L515.402496,124.555722 L515.402496,125.509463 L516.365349,125.509463 L516.365349,123.589833 L517.322126,123.589833 L517.322126,124.555722 L520.210683,124.555722 L520.210683,125.509463 L516.365349,125.509463 L516.365349,129.36391 L515.402496,129.36391 L515.402496,130.31765 L517.322126,130.31765 L517.322126,131.274427 L519.266055,131.274427 L519.266055,132.240317 L516.365349,132.240317 L516.365349,131.274427 L515.402496,131.274427 L515.402496,130.31765 L514.448756,130.31765 L514.448756,129.36391 L512.513939,129.36391 L512.513939,130.31765 L513.479829,130.31765 L513.479829,131.274427 L512.513939,131.274427 L512.513939,132.240317 L515.402496,132.240317 L515.402496,133.209244 L516.365349,133.209244 L516.365349,134.162984 L517.322126,134.162984 L517.322126,133.209244 L518.300166,133.209244 L518.300166,134.162984 L519.266055,134.162984 L519.266055,133.209244 L521.176573,133.209244 L521.176573,132.240317 L520.210683,132.240317 L520.210683,130.31765 L521.176573,130.31765 L521.176573,131.274427 L522.1455,131.274427 L522.1455,130.31765 L523.108353,130.31765 L523.108353,129.36391 L521.176573,129.36391 L521.176573,128.401057 L522.1455,128.401057 L522.1455,127.43213 L521.176573,127.43213 L521.176573,124.555722 L522.1455,124.555722 L522.1455,123.589833 L520.210683,123.589833 L520.210683,119.747535 L521.176573,119.747535 L521.176573,121.679315 L522.1455,121.679315 L522.1455,119.747535 L523.108353,119.747535 L523.108353,120.710388 L524.052981,120.710388 L524.052981,122.620905 L525.01887,122.620905 L525.01887,119.747535 L524.052981,119.747535 L524.052981,118.793795 L522.1455,118.793795 L522.1455,117.824868 L520.210683,117.824868 L520.210683,118.793795 L519.266055,118.793795 L519.266055,119.747535 L518.300166,119.747535 L518.300166,120.710388 L519.266055,120.710388 L519.266055,121.679315 L518.300166,121.679315 L518.300166,122.620905 L519.266055,122.620905 L519.266055,123.589833 L518.300166,123.589833 L518.300166,122.620905 L516.365349,122.620905 L516.365349,121.679315 L515.402496,121.679315 L515.402496,122.620905 L514.448756,122.620905 Z" id="Fill-113" fill="#CFD0D1" sketch:type="MSShapeGroup" mask="url(#mask-8)"></path>
            <path d="M517.321519,119.745713 L518.299558,119.745713 L518.299558,118.791973 L517.321519,118.791973 L517.321519,119.745713 Z" id="Fill-114" fill="#CFD0D1" sketch:type="MSShapeGroup" mask="url(#mask-8)"></path>
            <path d="M511.559591,119.745713 L510.593702,119.745713 L510.593702,120.711603 L511.559591,120.711603 L511.559591,119.745713 Z" id="Fill-115" fill="#CFD0D1" sketch:type="MSShapeGroup" mask="url(#mask-8)"></path>
            <path d="M513.483474,120.708565 L512.517584,120.708565 L512.517584,121.674455 L511.548657,121.674455 L511.548657,122.619083 L513.483474,122.619083 L513.483474,120.708565 Z" id="Fill-116" fill="#CFD0D1" sketch:type="MSShapeGroup" mask="url(#mask-8)"></path>
            <path d="M507.717294,121.677492 L506.751404,121.677492 L506.751404,122.619083 L507.717294,122.619083 L507.717294,121.677492 Z" id="Fill-117" fill="#CFD0D1" sketch:type="MSShapeGroup" mask="url(#mask-8)"></path>
            <path d="M508.669212,124.552685 L507.70636,124.552685 L507.70636,125.506425 L506.749582,125.506425 L506.749582,124.552685 L505.783692,124.552685 L505.783692,123.586795 L504.814765,123.586795 L504.814765,122.617868 L503.861025,122.617868 L503.861025,126.475352 L508.669212,126.475352 L508.669212,124.552685 Z" id="Fill-118" fill="#CFD0D1" sketch:type="MSShapeGroup" mask="url(#mask-8)"></path>
            <path d="M507.717294,123.584973 L508.680146,123.584973 L508.680146,122.619083 L507.717294,122.619083 L507.717294,123.584973 Z" id="Fill-119" fill="#CFD0D1" sketch:type="MSShapeGroup" mask="url(#mask-8)"></path>
            <path d="M523.111694,124.552685 L524.056322,124.552685 L524.056322,125.506425 L525.022212,125.506425 L525.022212,123.586795 L524.056322,123.586795 L524.056322,122.617868 L523.111694,122.617868 L523.111694,124.552685 Z" id="Fill-120" fill="#CFD0D1" sketch:type="MSShapeGroup" mask="url(#mask-8)"></path>
            <path d="M501.94018,126.47353 L502.90607,126.47353 L502.90607,123.584973 L501.94018,123.584973 L501.94018,126.47353 Z" id="Fill-121" fill="#CFD0D1" sketch:type="MSShapeGroup" mask="url(#mask-8)"></path>
            <path d="M506.751404,124.5539 L507.717294,124.5539 L507.717294,123.58801 L506.751404,123.58801 L506.751404,124.5539 Z" id="Fill-122" fill="#CFD0D1" sketch:type="MSShapeGroup" mask="url(#mask-8)"></path>
            <path d="M522.144893,127.430308 L523.110783,127.430308 L523.110783,124.5539 L522.144893,124.5539 L522.144893,127.430308 Z" id="Fill-123" fill="#CFD0D1" sketch:type="MSShapeGroup" mask="url(#mask-8)"></path>
            <path d="M509.636924,126.47353 L510.602814,126.47353 L510.602814,125.50764 L509.636924,125.50764 L509.636924,126.47353 Z" id="Fill-124" fill="#CFD0D1" sketch:type="MSShapeGroup" mask="url(#mask-8)"></path>
            <path d="M508.667997,129.365124 L509.633887,129.365124 L509.633887,126.476567 L508.667997,126.476567 L508.667997,129.365124 Z" id="Fill-125" fill="#CFD0D1" sketch:type="MSShapeGroup" mask="url(#mask-8)"></path>
            <path d="M501.941699,133.208029 L501.941699,128.399842 L506.728624,128.399842 L506.752923,128.399842 L506.752923,133.208029 L501.941699,133.208029 Z M507.703626,127.433952 L500.972771,127.433952 L500.972771,134.164807 L507.703626,134.164807 L507.703626,127.433952 Z" id="Fill-126" fill="#CFD0D1" sketch:type="MSShapeGroup" mask="url(#mask-8)"></path>
            <path d="M512.516369,130.318865 L511.550479,130.318865 L511.550479,128.399235 L512.516369,128.399235 L512.516369,127.433345 L510.593702,127.433345 L510.593702,129.365124 L509.627812,129.365124 L509.627812,131.272605 L512.516369,131.272605 L512.516369,130.318865 Z" id="Fill-127" fill="#CFD0D1" sketch:type="MSShapeGroup" mask="url(#mask-8)"></path>
            <path d="M518.299558,128.396197 L519.265448,128.396197 L519.265448,127.430308 L518.299558,127.430308 L518.299558,128.396197 Z" id="Fill-128" fill="#CFD0D1" sketch:type="MSShapeGroup" mask="url(#mask-8)"></path>
            <path d="M525.024945,127.430004 L524.059055,127.430004 L524.059055,128.395894 L523.114427,128.395894 L523.114427,129.364821 L525.024945,129.364821 L525.024945,127.430004 Z" id="Fill-129" fill="#CFD0D1" sketch:type="MSShapeGroup" mask="url(#mask-8)"></path>
            <path d="M505.782477,129.365124 L502.89392,129.365124 L502.89392,132.238495 L505.782477,132.238495 L505.782477,129.365124 Z" id="Fill-130" fill="#CFD0D1" sketch:type="MSShapeGroup" mask="url(#mask-8)"></path>
            <path d="M524.054803,131.277161 L524.054803,134.162681 L525.020693,134.162681 L525.020693,130.323421 L523.110175,130.323421 L523.110175,131.277161 L524.054803,131.277161 Z" id="Fill-131" fill="#CFD0D1" sketch:type="MSShapeGroup" mask="url(#mask-8)"></path>
            <path d="M522.144893,132.238495 L523.110783,132.238495 L523.110783,131.272605 L522.144893,131.272605 L522.144893,132.238495 Z" id="Fill-132" fill="#CFD0D1" sketch:type="MSShapeGroup" mask="url(#mask-8)"></path>
            <path d="M513.483474,134.166022 L513.483474,133.212282 L511.548657,133.212282 L511.548657,132.243354 L508.672249,132.243354 L508.672249,134.166022 L509.625989,134.166022 L509.625989,133.212282 L510.594917,133.212282 L510.594917,134.166022 L513.483474,134.166022 Z" id="Fill-133" fill="#CFD0D1" sketch:type="MSShapeGroup" mask="url(#mask-8)"></path>
            <path d="M522.144893,133.204384 L521.179003,133.204384 L521.179003,134.158125 L522.144893,134.158125 L522.144893,133.204384 Z" id="Fill-134" fill="#CFD0D1" sketch:type="MSShapeGroup" mask="url(#mask-8)"></path>
            <path d="M871.337734,141.311784 C871.653623,141.986084 871.963437,142.587487 872.221615,143.067395 C872.340073,143.292161 872.598251,143.884452 872.798719,144.318799 C874.071385,142.350571 875.016013,140.133277 875.016013,137.621356 C875.016013,130.693071 869.369506,125.046564 862.438184,125.046564 C855.506862,125.046564 849.875542,130.693071 849.875542,137.621356 C849.875542,144.261089 855.093777,149.588669 861.636313,150.023016 C861.566453,149.868109 861.520893,149.764838 861.435846,149.588669 C861.03491,148.7382 860.576265,147.77231 860.129768,146.769972 C855.965508,145.709923 852.818773,142.104542 852.818773,137.621356 C852.818773,132.305925 857.131865,127.992832 862.438184,127.992832 C867.741466,127.992832 872.066708,132.305925 872.066708,137.621356 C872.066708,138.921358 871.784231,140.145426 871.325585,141.275335 C871.325585,141.287485 871.337734,141.299634 871.337734,141.311784" id="Fill-135" fill="#E3E2E0" sketch:type="MSShapeGroup" mask="url(#mask-8)"></path>
            <path d="M860.896709,133.267258 C861.640869,132.924033 862.406292,132.735715 863.147415,132.735715 C865.671485,132.735715 867.536442,134.740392 869.006538,137.036658 C868.687612,133.631745 865.917513,130.943656 862.44274,130.943656 C858.752312,130.943656 855.760484,133.938521 855.760484,137.6168 C855.760484,139.867505 856.948103,141.753724 858.658153,142.953493 C857.892731,140.550918 857.540394,138.145305 858.20862,136.213526 C858.682452,134.880112 859.587594,133.889923 860.896709,133.267258" id="Fill-136" fill="#E3E2E0" sketch:type="MSShapeGroup" mask="url(#mask-8)"></path>
            <path d="M858.342569,188.382508 C860.699583,192.519432 862.184866,194.229482 864.213842,198.533462 C866.179033,202.691648 871.063155,203.991651 875.327649,205.276467 C880.819249,206.90147 886.869728,210.743767 891.486559,214.127419 C892.197309,214.643775 892.853385,214.83513 893.527685,214.83513 C894.718342,214.83513 895.957596,214.245877 897.676759,213.808493 C905.255045,211.922274 910.916738,208.857548 918.507174,206.97133 C910.063232,198.083929 912.398984,188.819892 910.254587,177.514729 C909.464866,173.259347 908.684257,158.84086 904.820698,156.553706 C903.535882,155.791322 902.545694,155.472396 901.81672,155.472396 C897.934937,155.472396 900.811344,164.466105 901.564617,167.55513 C899.468818,164.077319 899.43237,149.859301 893.855723,149.859301 C893.551984,149.859301 893.257357,149.895749 892.926282,149.977759 C888.306413,151.131967 888.069497,152.760007 889.460621,156.757211 C890.028613,158.430813 891.395438,165.231527 892.324879,166.021249 L892.337028,166.021249 L892.324879,166.021249 C889.931416,164.05302 888.649638,154.776834 887.765758,151.757669 C886.73912,148.176587 885.11108,146.818874 883.212711,146.818874 C881.220184,146.818874 878.899619,148.295045 876.588165,150.272386 C875.9898,150.803929 875.045172,152.53524 875.127181,152.960475 C876.472745,155.991789 878.981628,161.38923 879.655929,163.156991 C880.193546,163.606524 880.597519,163.791805 880.867847,163.791805 C881.584671,163.791805 881.38724,162.379419 880.843548,160.705817 C882.091915,163.803954 883.37673,167.55513 882.517149,167.977327 C882.49285,167.989477 882.468551,167.989477 882.456401,167.989477 C881.047053,167.989477 872.238624,146.193172 870.920397,143.778447 C869.432077,141.069096 867.029502,134.207634 863.150756,134.207634 C862.631362,134.207634 862.078557,134.338242 861.525752,134.59642 C856.091863,137.19035 862.254726,147.490137 863.740009,151.077294 C867.913382,161.094603 871.473202,170.133873 872.61526,180.959129 C872.733719,182.101187 872.590961,189.606576 870.801939,189.606576 C870.376705,189.606576 869.88161,189.20564 869.271095,188.2519 C866.649828,184.139275 866.32179,181.724551 863.387672,177.703047 C862.409633,176.360521 857.35238,172.293457 854.324103,172.293457 C853.166857,172.293457 852.282977,172.903972 852.094659,174.498602 C851.702836,177.338561 854.7463,179.659126 855.381114,180.977353 C856.055414,183.680629 856.975743,185.989045 858.342569,188.382508" id="Fill-137" fill="#1A171B" sketch:type="MSShapeGroup" mask="url(#mask-8)"></path>
            <path d="M859.229486,92.5504487 C859.803553,92.5504487 860.265236,93.0090945 860.265236,93.5892358 C860.265236,94.1663397 859.803553,94.6401725 859.229486,94.6401725 C858.652382,94.6401725 858.190699,94.1663397 858.190699,93.5892358 C858.190699,93.0090945 858.652382,92.5504487 859.229486,92.5504487 M862.998886,92.8815241 L869.447263,92.8815241 C869.930208,92.8815241 870.318994,93.2824595 870.318994,93.7654044 C870.318994,94.2513866 869.930208,94.6401725 869.447263,94.6401725 L862.998886,94.6401725 C862.491642,94.6401725 862.102856,94.2513866 862.102856,93.7654044 C862.102856,93.2824595 862.491642,92.8815241 862.998886,92.8815241 M850.661011,174.970005 C850.661011,174.757387 850.600263,174.54477 850.636712,174.323041 C850.89489,172.127008 852.273865,170.820931 854.32714,170.820931 C857.033454,170.820931 860.678321,173.259954 862.859166,175.134024 L870.176237,175.134024 C869.860348,173.542432 869.483712,171.966027 869.070627,170.419996 C868.329504,171.139857 867.339315,171.586353 866.230668,171.586353 C863.943514,171.586353 862.102856,169.748733 862.102856,167.473728 C862.102856,165.210873 863.943514,163.370215 866.230668,163.370215 C866.491884,163.370215 866.713613,163.479561 866.962679,163.522085 C866.607305,162.510634 866.26408,161.483997 865.866182,160.457359 L848.158203,160.457359 L848.158203,100.590418 L884.300097,100.590418 L884.300097,145.489105 C885.396594,145.726021 886.550802,146.336537 887.56529,147.788409 L887.56529,92.4714766 C887.56529,88.8509086 884.615985,85.9137533 881.010604,85.9137533 L851.447695,85.9137533 C847.805865,85.9137533 844.86871,88.8509086 844.86871,92.4714766 L844.86871,168.567188 C844.86871,171.917428 847.41708,174.569069 850.661011,174.970005" id="Fill-39-Copy" fill="#1A171B" sketch:type="MSShapeGroup" mask="url(#mask-8)"></path>
            <path d="M858.342569,188.382508 C860.699583,192.519432 862.184866,194.229482 864.213842,198.533462 C866.179033,202.691648 871.063155,203.991651 875.327649,205.276467 C880.819249,206.90147 886.869728,210.743767 891.486559,214.127419 C892.197309,214.643775 892.853385,214.83513 893.527685,214.83513 C894.718342,214.83513 895.957596,214.245877 897.676759,213.808493 C905.255045,211.922274 910.916738,208.857548 918.507174,206.97133 C910.063232,198.083929 912.398984,188.819892 910.254587,177.514729 C909.464866,173.259347 908.684257,158.84086 904.820698,156.553706 C903.535882,155.791322 902.545694,155.472396 901.81672,155.472396 C897.934937,155.472396 900.811344,164.466105 901.564617,167.55513 C899.468818,164.077319 899.43237,149.859301 893.855723,149.859301 C893.551984,149.859301 893.257357,149.895749 892.926282,149.977759 C888.306413,151.131967 888.069497,152.760007 889.460621,156.757211 C890.028613,158.430813 891.395438,165.231527 892.324879,166.021249 L892.337028,166.021249 L892.324879,166.021249 C889.931416,164.05302 888.649638,154.776834 887.765758,151.757669 C886.73912,148.176587 885.11108,146.818874 883.212711,146.818874 C881.220184,146.818874 878.899619,148.295045 876.588165,150.272386 C875.9898,150.803929 875.045172,152.53524 875.127181,152.960475 C876.472745,155.991789 878.981628,161.38923 879.655929,163.156991 C880.193546,163.606524 880.597519,163.791805 880.867847,163.791805 C881.584671,163.791805 881.38724,162.379419 880.843548,160.705817 C882.091915,163.803954 883.37673,167.55513 882.517149,167.977327 C882.49285,167.989477 882.468551,167.989477 882.456401,167.989477 C881.047053,167.989477 872.238624,146.193172 870.920397,143.778447 C869.432077,141.069096 867.029502,134.207634 863.150756,134.207634 C862.631362,134.207634 862.078557,134.338242 861.525752,134.59642 C856.091863,137.19035 862.254726,147.490137 863.740009,151.077294 C867.913382,161.094603 871.473202,170.133873 872.61526,180.959129 C872.733719,182.101187 872.590961,189.606576 870.801939,189.606576 C870.376705,189.606576 869.88161,189.20564 869.271095,188.2519 C866.649828,184.139275 866.32179,181.724551 863.387672,177.703047 C862.409633,176.360521 857.35238,172.293457 854.324103,172.293457 C853.166857,172.293457 852.282977,172.903972 852.094659,174.498602 C851.702836,177.338561 854.7463,179.659126 855.381114,180.977353 C856.055414,183.680629 856.975743,185.989045 858.342569,188.382508" id="Fill-137-Copy" fill="#1A171B" sketch:type="MSShapeGroup" mask="url(#mask-8)"></path>
            <path d="M892.32336,166.0173 L892.33551,166.0173" id="Stroke-138" stroke-linecap="round" stroke-linejoin="round" sketch:type="MSShapeGroup" mask="url(#mask-8)"></path>
        </g>
    </g>
</svg>