<?xml version="1.0" encoding="UTF-8" standalone="no"?>
<svg width="1003px" height="385px" viewBox="0 0 1003 385" version="1.1" xmlns="http://www.w3.org/2000/svg" xmlns:xlink="http://www.w3.org/1999/xlink" xmlns:sketch="http://www.bohemiancoding.com/sketch/ns">
    <!-- Generator: Sketch 3.3.1 (12005) - http://www.bohemiancoding.com/sketch -->
    <title>s2</title>
    <desc>Created with Sketch.</desc>
    <defs></defs>
    <g id="Page-1" stroke="none" stroke-width="1" fill="none" fill-rule="evenodd" sketch:type="MSPage">
        <g id="s2" sketch:type="MSArtboardGroup">
            <g id="Server" sketch:type="MSLayerGroup" transform="translate(455.000000, 22.000000)">
                <path d="M93.1768466,110 C93.1768466,120.49341 72.318499,129 46.5884233,129 C20.8583476,129 0,120.49341 0,110 L0,19 L93.1768466,19 L93.1768466,110 Z" id="Oval-1-Copy" fill="#000000" sketch:type="MSShapeGroup"></path>
                <ellipse id="Oval-1" stroke="#000000" stroke-width="2" fill="#FFFFFF" sketch:type="MSShapeGroup" cx="46.5884233" cy="18.6545455" rx="45.7413611" ry="18.6545455"></ellipse>
            </g>
            <g id="Group" sketch:type="MSLayerGroup" transform="translate(117.000000, 193.000000)">
                <path d="M19.8126044,91.8261531 C21.5317666,94.1679802 22.4277965,96.0450867 23.2813028,97.8584081 C23.9495284,99.2616819 24.6359784,100.713554 25.7537376,102.457015 C25.7780367,102.505614 25.8144854,102.551174 25.8357471,102.587623 C26.3217294,100.914022 26.5070102,97.2843415 26.4037389,96.1027971 C26.2366825,94.5476538 25.9329436,93.0866696 25.6595786,91.6013863 L19.5908749,91.6013863 C19.6364358,91.6590967 19.7761557,91.7775549 19.8126044,91.8261531" id="Fill-8-Copy" fill="#1A171B" sketch:type="MSShapeGroup"></path>
                <path d="M21.4707151,85.113523 C22.2482868,85.113523 22.9104376,84.7368867 23.3933825,84.1810445 L19.5358982,84.1810445 C20.0188431,84.7368867 20.6809939,85.113523 21.4707151,85.113523" id="Fill-13-Copy" fill="#1A171B" sketch:type="MSShapeGroup"></path>
                <path d="M14.4734816,7.55044868 C15.0475482,7.55044868 15.5092313,8.00909445 15.5092313,8.58923579 C15.5092313,9.16633974 15.0475482,9.64017245 14.4734816,9.64017245 C13.8963777,9.64017245 13.4346945,9.16633974 13.4346945,8.58923579 C13.4346945,8.00909445 13.8963777,7.55044868 14.4734816,7.55044868 M18.2428816,7.88152411 L24.6912589,7.88152411 C25.1742038,7.88152411 25.5629896,8.28245948 25.5629896,8.76540436 C25.5629896,9.25138663 25.1742038,9.64017245 24.6912589,9.64017245 L18.2428816,9.64017245 C17.7356376,9.64017245 17.3468518,9.25138663 17.3468518,8.76540436 C17.3468518,8.28245948 17.7356376,7.88152411 18.2428816,7.88152411 M5.9050067,89.9700046 C5.9050067,89.7573873 5.84425892,89.5447701 5.88070759,89.3230407 C6.13888567,87.1270083 7.51786036,85.8209309 9.57113546,85.8209309 C12.2774492,85.8209309 15.9223163,88.2599545 18.1031617,90.1340236 L25.4202323,90.1340236 C25.1043438,88.5424317 24.7277076,86.9660267 24.3146226,85.4199956 C23.5734997,86.1398568 22.5833108,86.586353 21.4746637,86.586353 C19.1875097,86.586353 17.3468518,84.7487325 17.3468518,82.473728 C17.3468518,80.2108731 19.1875097,78.3702152 21.4746637,78.3702152 C21.7358792,78.3702152 21.9576086,78.4795612 22.2066745,78.5220847 C21.8513,77.5106341 21.508075,76.4839965 21.110177,75.457359 L3.402198,75.457359 L3.402198,15.5904179 L39.5440921,15.5904179 L39.5440921,60.489105 C40.6405896,60.7260214 41.7947975,61.3365366 42.8092855,62.7884086 L42.8092855,7.47147656 C42.8092855,3.85090864 39.8599805,0.913753285 36.2545996,0.913753285 L6.6916905,0.913753285 C3.04986085,0.913753285 0.112705499,3.85090864 0.112705499,7.47147656 L0.112705499,83.5671881 C0.112705499,86.9174284 2.66107504,89.5690692 5.9050067,89.9700046" id="Fill-39-Copy-3" fill="#1A171B" sketch:type="MSShapeGroup"></path>
                <path d="M26.5817299,56.3117837 C26.8976184,56.9860841 27.2074321,57.5874871 27.4656102,58.0673946 C27.5840684,58.2921614 27.8422464,58.8844523 28.0427141,59.318799 C29.3153802,57.3505708 30.2600082,55.1332766 30.2600082,52.6213558 C30.2600082,45.693071 24.6135017,40.0465645 17.6821796,40.0465645 C10.7508574,40.0465645 5.11953785,45.693071 5.11953785,52.6213558 C5.11953785,59.2610886 10.3377725,64.5886692 16.8803088,65.0230159 C16.8104489,64.868109 16.764888,64.7648378 16.6798411,64.5886692 C16.2789058,63.7382002 15.82026,62.7723105 15.3737638,61.769972 C11.2095032,60.7099232 8.06276799,57.1045422 8.06276799,52.6213558 C8.06276799,47.3059247 12.3758606,42.992832 17.6821796,42.992832 C22.9854611,42.992832 27.3107033,47.3059247 27.3107033,52.6213558 C27.3107033,53.9213584 27.0282261,55.1454262 26.5695804,56.275335 C26.5695804,56.2874845 26.5817299,56.2996341 26.5817299,56.3117837" id="Fill-135-Copy" fill="#E3E2E0" sketch:type="MSShapeGroup"></path>
                <path d="M16.1407046,48.2672584 C16.8848649,47.9240334 17.650287,47.7357153 18.39141,47.7357153 C20.9154804,47.7357153 22.7804373,49.7403921 24.2505337,52.0366584 C23.9316079,48.6317451 21.1615089,45.9436556 17.6867357,45.9436556 C13.9963078,45.9436556 11.0044794,48.9385214 11.0044794,52.6167997 C11.0044794,54.8675051 12.1920986,56.7537238 13.9021487,57.9534925 C13.1367266,55.5509177 12.7843895,53.1453054 13.4526151,51.2135259 C13.9264478,49.880112 14.8315898,48.8899231 16.1407046,48.2672584" id="Fill-136-Copy" fill="#E3E2E0" sketch:type="MSShapeGroup"></path>
                <path d="M13.586564,103.382508 C15.943578,107.519432 17.4288613,109.229482 19.4578373,113.533462 C21.4230281,117.691648 26.3071499,118.991651 30.5716444,120.276467 C36.063244,121.90147 42.1137233,125.743767 46.7305549,129.127419 C47.441304,129.643775 48.0973801,129.83513 48.7716805,129.83513 C49.962337,129.83513 51.2015918,129.245877 52.9207541,128.808493 C60.4990401,126.922274 66.1607336,123.857548 73.7511692,121.97133 C65.3072272,113.083929 67.6429795,103.819892 65.4985828,92.5147292 C64.7088616,88.259347 63.9282526,73.8408605 60.0646935,71.5537064 C58.7798779,70.7913217 57.789689,70.4723958 57.0607156,70.4723958 C53.1789322,70.4723958 56.0553397,79.4661052 56.8086123,82.5551301 C54.7128137,79.0773194 54.6763651,64.8593006 49.0997185,64.8593006 C48.7959796,64.8593006 48.5013528,64.8957493 48.1702774,64.9777588 C43.5504084,66.1319667 43.3134921,67.7600073 44.7046163,71.7572115 C45.2726081,73.4308129 46.6394332,80.2315273 47.5688743,81.0212485 L47.5810239,81.0212485 L47.5688743,81.0212485 C45.1754116,79.0530203 43.8936334,69.7768337 43.0097531,66.7576688 C41.9831156,63.176587 40.355075,61.818874 38.4567067,61.818874 C36.4641794,61.818874 34.1436141,63.2950452 31.8321609,65.2723855 C31.2337952,65.8039286 30.2891672,67.5352405 30.3711767,67.960475 C31.7167401,70.9917894 34.2256236,76.38923 34.899924,78.1569905 C35.4375419,78.6065241 35.8415146,78.7918048 36.1118423,78.7918048 C36.8286661,78.7918048 36.6312358,77.3794189 36.0875432,75.7058174 C37.3359101,78.8039544 38.6207258,82.5551301 37.7611446,82.9773272 C37.7368455,82.9894767 37.7125464,82.9894767 37.7003968,82.9894767 C36.2910482,82.9894767 27.4826196,61.1931718 26.1643927,58.7784474 C24.6760719,56.0690963 22.2734971,49.2076341 18.3947511,49.2076341 C17.8753575,49.2076341 17.3225527,49.3382418 16.7697479,49.5964199 C11.3358586,52.1903502 17.4987213,62.490137 18.9840046,66.0772937 C23.1573773,76.0946032 26.7171975,85.1338735 27.8592558,95.9591286 C27.977714,97.1011869 27.8349567,104.606576 26.0459345,104.606576 C25.6207,104.606576 25.1256055,104.20564 24.5150903,103.2519 C21.8938234,99.1392751 21.5657854,96.7245507 18.6316674,92.7030474 C17.6536281,91.3605213 12.5963751,87.2934572 9.56809807,87.2934572 C8.41085279,87.2934572 7.52697253,87.9039724 7.3386544,89.4986018 C6.94683119,92.3385607 9.99029517,94.659126 10.6251095,95.9773529 C11.2994099,98.6806293 12.2197388,100.989045 13.586564,103.382508" id="Fill-137-Copy-3" fill="#1A171B" sketch:type="MSShapeGroup"></path>
                <path d="M14.4734816,7.55044868 C15.0475482,7.55044868 15.5092313,8.00909445 15.5092313,8.58923579 C15.5092313,9.16633974 15.0475482,9.64017245 14.4734816,9.64017245 C13.8963777,9.64017245 13.4346945,9.16633974 13.4346945,8.58923579 C13.4346945,8.00909445 13.8963777,7.55044868 14.4734816,7.55044868 M18.2428816,7.88152411 L24.6912589,7.88152411 C25.1742038,7.88152411 25.5629896,8.28245948 25.5629896,8.76540436 C25.5629896,9.25138663 25.1742038,9.64017245 24.6912589,9.64017245 L18.2428816,9.64017245 C17.7356376,9.64017245 17.3468518,9.25138663 17.3468518,8.76540436 C17.3468518,8.28245948 17.7356376,7.88152411 18.2428816,7.88152411 M5.9050067,89.9700046 C5.9050067,89.7573873 5.84425892,89.5447701 5.88070759,89.3230407 C6.13888567,87.1270083 7.51786036,85.8209309 9.57113546,85.8209309 C12.2774492,85.8209309 15.9223163,88.2599545 18.1031617,90.1340236 L25.4202323,90.1340236 C25.1043438,88.5424317 24.7277076,86.9660267 24.3146226,85.4199956 C23.5734997,86.1398568 22.5833108,86.586353 21.4746637,86.586353 C19.1875097,86.586353 17.3468518,84.7487325 17.3468518,82.473728 C17.3468518,80.2108731 19.1875097,78.3702152 21.4746637,78.3702152 C21.7358792,78.3702152 21.9576086,78.4795612 22.2066745,78.5220847 C21.8513,77.5106341 21.508075,76.4839965 21.110177,75.457359 L3.402198,75.457359 L3.402198,15.5904179 L39.5440921,15.5904179 L39.5440921,60.489105 C40.6405896,60.7260214 41.7947975,61.3365366 42.8092855,62.7884086 L42.8092855,7.47147656 C42.8092855,3.85090864 39.8599805,0.913753285 36.2545996,0.913753285 L6.6916905,0.913753285 C3.04986085,0.913753285 0.112705499,3.85090864 0.112705499,7.47147656 L0.112705499,83.5671881 C0.112705499,86.9174284 2.66107504,89.5690692 5.9050067,89.9700046" id="Fill-39-Copy-2" fill="#1A171B" sketch:type="MSShapeGroup"></path>
                <path d="M13.586564,103.382508 C15.943578,107.519432 17.4288613,109.229482 19.4578373,113.533462 C21.4230281,117.691648 26.3071499,118.991651 30.5716444,120.276467 C36.063244,121.90147 42.1137233,125.743767 46.7305549,129.127419 C47.441304,129.643775 48.0973801,129.83513 48.7716805,129.83513 C49.962337,129.83513 51.2015918,129.245877 52.9207541,128.808493 C60.4990401,126.922274 66.1607336,123.857548 73.7511692,121.97133 C65.3072272,113.083929 67.6429795,103.819892 65.4985828,92.5147292 C64.7088616,88.259347 63.9282526,73.8408605 60.0646935,71.5537064 C58.7798779,70.7913217 57.789689,70.4723958 57.0607156,70.4723958 C53.1789322,70.4723958 56.0553397,79.4661052 56.8086123,82.5551301 C54.7128137,79.0773194 54.6763651,64.8593006 49.0997185,64.8593006 C48.7959796,64.8593006 48.5013528,64.8957493 48.1702774,64.9777588 C43.5504084,66.1319667 43.3134921,67.7600073 44.7046163,71.7572115 C45.2726081,73.4308129 46.6394332,80.2315273 47.5688743,81.0212485 L47.5810239,81.0212485 L47.5688743,81.0212485 C45.1754116,79.0530203 43.8936334,69.7768337 43.0097531,66.7576688 C41.9831156,63.176587 40.355075,61.818874 38.4567067,61.818874 C36.4641794,61.818874 34.1436141,63.2950452 31.8321609,65.2723855 C31.2337952,65.8039286 30.2891672,67.5352405 30.3711767,67.960475 C31.7167401,70.9917894 34.2256236,76.38923 34.899924,78.1569905 C35.4375419,78.6065241 35.8415146,78.7918048 36.1118423,78.7918048 C36.8286661,78.7918048 36.6312358,77.3794189 36.0875432,75.7058174 C37.3359101,78.8039544 38.6207258,82.5551301 37.7611446,82.9773272 C37.7368455,82.9894767 37.7125464,82.9894767 37.7003968,82.9894767 C36.2910482,82.9894767 27.4826196,61.1931718 26.1643927,58.7784474 C24.6760719,56.0690963 22.2734971,49.2076341 18.3947511,49.2076341 C17.8753575,49.2076341 17.3225527,49.3382418 16.7697479,49.5964199 C11.3358586,52.1903502 17.4987213,62.490137 18.9840046,66.0772937 C23.1573773,76.0946032 26.7171975,85.1338735 27.8592558,95.9591286 C27.977714,97.1011869 27.8349567,104.606576 26.0459345,104.606576 C25.6207,104.606576 25.1256055,104.20564 24.5150903,103.2519 C21.8938234,99.1392751 21.5657854,96.7245507 18.6316674,92.7030474 C17.6536281,91.3605213 12.5963751,87.2934572 9.56809807,87.2934572 C8.41085279,87.2934572 7.52697253,87.9039724 7.3386544,89.4986018 C6.94683119,92.3385607 9.99029517,94.659126 10.6251095,95.9773529 C11.2994099,98.6806293 12.2197388,100.989045 13.586564,103.382508" id="Fill-137-Copy-2" fill="#1A171B" sketch:type="MSShapeGroup"></path>
                <path d="M47.5673556,81.0172999 L47.5795052,81.0172999" id="Stroke-138-Copy" stroke-linecap="round" stroke-linejoin="round" sketch:type="MSShapeGroup"></path>
            </g>
            <path d="M757.487224,296.182259 L757.487224,179.084831 L960.658187,179.084831 L960.658187,281.059099 L960.658187,282.720551 L960.658187,296.182259 L757.487224,296.182259 Z M834.776629,323 L834.776629,322.692592 L754.176469,322.692592 C751.120856,322.692592 748.645384,320.21712 748.645384,317.176694 L748.693982,175.360992 C748.906599,172.505846 751.263613,170.242991 754.176469,170.242991 L963.968941,170.242991 C966.87876,170.242991 969.238812,172.505846 969.436242,175.360992 L969.460541,240.579813 L969.460541,247.948519 L969.472691,270.039451 L969.472691,277.402082 L969.48484,317.176694 C969.48484,320.21712 967.009368,322.692592 963.968941,322.692592 L883.365744,322.692592 L883.365744,323 L834.776629,323 Z" id="Fill-29-Copy" fill="#1A171B" sketch:type="MSShapeGroup"></path>
            <g id="Fill-43-Copy-+-Fill-43-Copy-2" sketch:type="MSLayerGroup" transform="translate(788.000000, 227.000000)">
                <path d="M26.8422954,10.4563154 C17.8819973,10.4563154 10.6195997,17.718713 10.6195997,26.6759737 C10.6195997,35.6332344 17.8819973,42.895632 26.8422954,42.895632 C35.7995561,42.895632 43.0619537,35.6332344 43.0619537,26.6759737 C43.0619537,17.718713 35.7995561,10.4563154 26.8422954,10.4563154" id="Fill-43-Copy" fill="#E3E2E0" sketch:type="MSShapeGroup"></path>
                <path d="M26.8432404,0.364078847 C12.307643,0.364078847 0.52641819,12.1453037 0.52641819,26.6759737 C0.52641819,41.2066437 12.307643,52.9878686 26.8432404,52.9878686 C41.3739104,52.9878686 53.1551352,41.2066437 53.1551352,26.6759737 C53.1551352,12.1453037 41.3739104,0.364078847 26.8432404,0.364078847" id="Fill-43-Copy-2" stroke="#E2E2DF" stroke-width="6" sketch:type="MSShapeGroup"></path>
            </g>
            <path d="M455,96 L139,96 L139,193.252249" id="Path-160" stroke="#DD1166" stroke-width="2" stroke-dasharray="2" sketch:type="MSShapeGroup"></path>
            <path d="M455,100 L143,100 L143,196.25" id="Path-160-Copy-2" stroke="#77CC00" stroke-dasharray="2" sketch:type="MSShapeGroup"></path>
            <path d="M865,96 L549,96 L549,170.242991" id="Path-160-Copy" stroke="#77CC00" stroke-width="2" stroke-dasharray="2" sketch:type="MSShapeGroup" transform="translate(707.000000, 133.121496) scale(-1, 1) translate(-707.000000, -133.121496) "></path>
        </g>
    </g>
</svg>