<?xml version="1.0" encoding="utf-8"?>
<!-- Generator: Adobe Illustrator 16.0.4, SVG Export Plug-In . SVG Version: 6.00 Build 0)  -->
<!DOCTYPE svg PUBLIC "-//W3C//DTD SVG 1.1//EN" "http://www.w3.org/Graphics/SVG/1.1/DTD/svg11.dtd">
<svg version="1.1" id="Ebene_1" xmlns="http://www.w3.org/2000/svg" xmlns:xlink="http://www.w3.org/1999/xlink" x="0px" y="0px"
	 width="161.98px" height="30px" viewBox="0 0 161.98 30" enable-background="new 0 0 161.98 30" xml:space="preserve">
<g>
	<path fill="#FFFFFF" d="M61.85,6.079c-0.063-1.212-0.142-2.669-0.129-3.752h-0.039c-0.296,1.019-0.657,2.102-1.096,3.301
		l-1.535,4.216H58.2l-1.406-4.139c-0.413-1.225-0.761-2.347-1.005-3.378h-0.026c-0.026,1.083-0.09,2.54-0.167,3.842l-0.232,3.726
		h-1.069l0.605-8.69h1.432l1.481,4.204c0.361,1.07,0.658,2.024,0.877,2.927h0.039c0.219-0.877,0.529-1.831,0.916-2.927l1.547-4.204
		h1.432l0.542,8.69h-1.097L61.85,6.079z"/>
	<path fill="#FFFFFF" d="M68.663,9.896l-0.09-0.787h-0.039c-0.349,0.49-1.02,0.928-1.908,0.928c-1.264,0-1.908-0.89-1.908-1.792
		c0-1.509,1.341-2.334,3.752-2.321V5.795c0-0.516-0.142-1.444-1.418-1.444c-0.581,0-1.187,0.181-1.625,0.464l-0.258-0.748
		c0.516-0.335,1.264-0.554,2.05-0.554c1.908,0,2.373,1.302,2.373,2.553V8.4c0,0.542,0.026,1.07,0.103,1.496H68.663z M68.495,6.711
		c-1.238-0.026-2.644,0.193-2.644,1.405c0,0.735,0.49,1.083,1.07,1.083c0.812,0,1.328-0.516,1.508-1.044
		c0.039-0.116,0.064-0.245,0.064-0.361L68.495,6.711L68.495,6.711z"/>
	<path fill="#FFFFFF" d="M71.541,8.735c0.335,0.219,0.928,0.452,1.496,0.452c0.824,0,1.212-0.413,1.212-0.929
		c0-0.542-0.322-0.838-1.16-1.147c-1.122-0.399-1.65-1.019-1.65-1.766c0-1.006,0.812-1.831,2.153-1.831
		c0.632,0,1.187,0.181,1.535,0.387l-0.284,0.825c-0.245-0.155-0.696-0.361-1.276-0.361c-0.671,0-1.044,0.387-1.044,0.851
		c0,0.516,0.374,0.748,1.187,1.057c1.083,0.413,1.638,0.954,1.638,1.882c0,1.096-0.851,1.87-2.334,1.87
		c-0.683,0-1.314-0.167-1.753-0.425L71.541,8.735z"/>
	<path fill="#FFFFFF" d="M78.441,1.863v1.792h1.625v0.864h-1.625v3.365c0,0.773,0.22,1.212,0.852,1.212
		c0.296,0,0.516-0.039,0.657-0.078l0.052,0.851c-0.219,0.09-0.567,0.155-1.006,0.155c-0.528,0-0.954-0.167-1.226-0.477
		c-0.323-0.335-0.438-0.89-0.438-1.625V4.519h-0.967V3.655h0.967V2.159L78.441,1.863z"/>
	<path fill="#FFFFFF" d="M82.17,6.981c0.024,1.535,1.005,2.166,2.14,2.166c0.812,0,1.302-0.142,1.729-0.322l0.193,0.812
		c-0.399,0.181-1.083,0.387-2.076,0.387c-1.921,0-3.068-1.264-3.068-3.146s1.108-3.365,2.927-3.365c2.037,0,2.579,1.792,2.579,2.94
		c0,0.232-0.026,0.413-0.039,0.528H82.17z M85.497,6.169c0.013-0.722-0.296-1.844-1.573-1.844c-1.147,0-1.65,1.058-1.741,1.844
		H85.497z"/>
	<path fill="#FFFFFF" d="M88.272,5.602c0-0.735-0.013-1.367-0.052-1.947h0.993l0.039,1.225h0.051
		c0.284-0.838,0.967-1.367,1.728-1.367c0.13,0,0.22,0.013,0.322,0.039v1.07c-0.116-0.026-0.231-0.039-0.387-0.039
		c-0.8,0-1.367,0.606-1.521,1.457c-0.025,0.154-0.052,0.335-0.052,0.528v3.327h-1.122L88.272,5.602L88.272,5.602z"/>
	<path fill="#FFFFFF" d="M95.806,1.308c0.542-0.09,1.25-0.167,2.153-0.167c1.108,0,1.921,0.258,2.437,0.722
		c0.478,0.413,0.76,1.044,0.76,1.818c0,0.787-0.231,1.405-0.67,1.857c-0.593,0.632-1.56,0.954-2.655,0.954
		c-0.335,0-0.646-0.013-0.903-0.078v3.481h-1.122L95.806,1.308L95.806,1.308z M96.928,5.499c0.245,0.065,0.555,0.09,0.928,0.09
		c1.354,0,2.18-0.657,2.18-1.856c0-1.147-0.812-1.702-2.051-1.702c-0.489,0-0.863,0.039-1.058,0.09L96.928,5.499L96.928,5.499z"/>
	<path fill="#FFFFFF" d="M102.695,5.602c0-0.735-0.013-1.367-0.052-1.947h0.993l0.039,1.225h0.051
		c0.284-0.838,0.967-1.367,1.729-1.367c0.129,0,0.219,0.013,0.321,0.039v1.07c-0.115-0.026-0.231-0.039-0.387-0.039
		c-0.8,0-1.367,0.606-1.521,1.457c-0.026,0.154-0.053,0.335-0.053,0.528v3.327h-1.122L102.695,5.602L102.695,5.602z"/>
	<path fill="#FFFFFF" d="M112.703,6.724c0,2.308-1.6,3.313-3.107,3.313c-1.688,0-2.992-1.238-2.992-3.21
		c0-2.088,1.367-3.313,3.096-3.313C111.49,3.513,112.703,4.815,112.703,6.724z M107.751,6.788c0,1.367,0.786,2.398,1.895,2.398
		c1.083,0,1.896-1.019,1.896-2.424c0-1.057-0.529-2.398-1.87-2.398S107.751,5.602,107.751,6.788z"/>
	<path fill="#FFFFFF" d="M119.786,3.655c-0.026,0.452-0.053,0.954-0.053,1.715v3.624c0,1.431-0.283,2.308-0.89,2.849
		c-0.606,0.567-1.483,0.748-2.27,0.748c-0.748,0-1.574-0.181-2.077-0.516l0.283-0.864c0.413,0.258,1.059,0.49,1.831,0.49
		c1.161,0,2.013-0.606,2.013-2.179V8.825h-0.025c-0.349,0.581-1.019,1.044-1.986,1.044c-1.547,0-2.655-1.315-2.655-3.043
		c0-2.114,1.38-3.313,2.812-3.313c1.083,0,1.676,0.567,1.947,1.083h0.025l0.052-0.941H119.786z M118.612,6.118
		c0-0.193-0.013-0.361-0.063-0.516c-0.206-0.658-0.761-1.199-1.586-1.199c-1.083,0-1.857,0.916-1.857,2.359
		c0,1.225,0.619,2.244,1.845,2.244c0.695,0,1.327-0.438,1.572-1.161c0.064-0.193,0.09-0.413,0.09-0.605V6.118z"/>
	<path fill="#FFFFFF" d="M121.813,5.602c0-0.735-0.013-1.367-0.052-1.947h0.993l0.038,1.225h0.052
		c0.284-0.838,0.967-1.367,1.728-1.367c0.13,0,0.221,0.013,0.322,0.039v1.07c-0.115-0.026-0.23-0.039-0.387-0.039
		c-0.799,0-1.366,0.606-1.521,1.457c-0.024,0.154-0.052,0.335-0.052,0.528v3.327h-1.121V5.602L121.813,5.602z"/>
	<path fill="#FFFFFF" d="M129.693,9.896l-0.09-0.787h-0.039c-0.348,0.49-1.019,0.928-1.908,0.928c-1.264,0-1.907-0.89-1.907-1.792
		c0-1.509,1.341-2.334,3.752-2.321V5.795c0-0.516-0.143-1.444-1.418-1.444c-0.58,0-1.188,0.181-1.625,0.464l-0.258-0.748
		c0.516-0.335,1.264-0.554,2.051-0.554c1.908,0,2.372,1.302,2.372,2.553V8.4c0,0.542,0.024,1.07,0.104,1.496H129.693z
		 M129.526,6.711c-1.237-0.026-2.644,0.193-2.644,1.405c0,0.735,0.49,1.083,1.07,1.083c0.812,0,1.327-0.516,1.509-1.044
		c0.038-0.116,0.063-0.245,0.063-0.361L129.526,6.711L129.526,6.711z"/>
	<path fill="#FFFFFF" d="M132.726,5.344c0-0.645-0.013-1.173-0.052-1.688h0.993l0.051,1.006h0.039
		c0.349-0.593,0.929-1.147,1.96-1.147c0.851,0,1.496,0.516,1.767,1.25h0.025c0.193-0.348,0.438-0.619,0.696-0.812
		c0.374-0.284,0.787-0.438,1.38-0.438c0.825,0,2.05,0.542,2.05,2.708v3.675h-1.108V6.363c0-1.199-0.438-1.921-1.354-1.921
		c-0.646,0-1.147,0.477-1.341,1.032c-0.053,0.155-0.09,0.361-0.09,0.567v3.855h-1.109v-3.74c0-0.993-0.438-1.715-1.302-1.715
		c-0.709,0-1.226,0.567-1.405,1.135c-0.064,0.167-0.091,0.361-0.091,0.554v3.765h-1.108L132.726,5.344L132.726,5.344z"/>
	<path fill="#FFFFFF" d="M143.756,5.344c0-0.645-0.013-1.173-0.052-1.688h0.992l0.052,1.006h0.039
		c0.349-0.593,0.929-1.147,1.96-1.147c0.851,0,1.496,0.516,1.767,1.25h0.025c0.192-0.348,0.438-0.619,0.695-0.812
		c0.374-0.284,0.787-0.438,1.381-0.438c0.824,0,2.05,0.542,2.05,2.708v3.675h-1.108V6.363c0-1.199-0.438-1.921-1.354-1.921
		c-0.646,0-1.147,0.477-1.342,1.032c-0.052,0.155-0.09,0.361-0.09,0.567v3.855h-1.108v-3.74c0-0.993-0.438-1.715-1.303-1.715
		c-0.709,0-1.225,0.567-1.404,1.135c-0.064,0.167-0.091,0.361-0.091,0.554v3.765h-1.108L143.756,5.344L143.756,5.344z"/>
	<path fill="#FFFFFF" d="M155.417,6.981c0.024,1.535,1.006,2.166,2.14,2.166c0.812,0,1.303-0.142,1.729-0.322l0.192,0.812
		c-0.399,0.181-1.083,0.387-2.076,0.387c-1.921,0-3.067-1.264-3.067-3.146s1.107-3.365,2.927-3.365c2.037,0,2.578,1.792,2.578,2.94
		c0,0.232-0.025,0.413-0.038,0.528H155.417z M158.744,6.169c0.013-0.722-0.296-1.844-1.573-1.844c-1.147,0-1.65,1.058-1.74,1.844
		H158.744z"/>
</g>
<g>
	<path fill="#FFFFFF" d="M55.946,23.595l-2.204-8.689h1.186l1.032,4.396c0.258,1.083,0.49,2.166,0.645,3.004h0.026
		c0.142-0.863,0.413-1.895,0.709-3.017l1.161-4.384h1.173l1.057,4.409c0.245,1.032,0.478,2.063,0.606,2.979h0.025
		c0.182-0.954,0.427-1.921,0.696-3.004l1.147-4.384h1.146l-2.462,8.69h-1.173l-1.096-4.525c-0.271-1.108-0.451-1.959-0.567-2.836
		h-0.025c-0.154,0.862-0.348,1.715-0.67,2.836l-1.237,4.525L55.946,23.595L55.946,23.595z"/>
	<path fill="#FFFFFF" d="M65.879,20.682c0.024,1.533,1.005,2.166,2.14,2.166c0.812,0,1.302-0.143,1.729-0.322l0.193,0.812
		c-0.399,0.181-1.083,0.388-2.075,0.388c-1.922,0-3.069-1.265-3.069-3.146c0-1.883,1.108-3.365,2.927-3.365
		c2.037,0,2.579,1.792,2.579,2.939c0,0.231-0.026,0.412-0.039,0.529H65.879z M69.206,19.869c0.013-0.723-0.296-1.844-1.573-1.844
		c-1.147,0-1.65,1.058-1.741,1.844H69.206z"/>
	<path fill="#FFFFFF" d="M71.93,23.595c0.026-0.426,0.052-1.058,0.052-1.612v-7.542h1.122v3.918h0.026
		c0.398-0.695,1.122-1.146,2.127-1.146c1.547,0,2.643,1.29,2.63,3.186c0,2.23-1.406,3.34-2.798,3.34
		c-0.903,0-1.625-0.35-2.089-1.174h-0.039l-0.052,1.031L71.93,23.595L71.93,23.595z M73.103,21.093c0,0.144,0.026,0.284,0.052,0.413
		c0.22,0.786,0.876,1.328,1.702,1.328c1.188,0,1.896-0.967,1.896-2.398c0-1.25-0.646-2.32-1.857-2.32
		c-0.772,0-1.496,0.529-1.728,1.393c-0.026,0.129-0.064,0.284-0.064,0.465L73.103,21.093L73.103,21.093z"/>
	<path fill="#FFFFFF" d="M79.566,21.57c0.529,0.271,1.342,0.541,2.18,0.541c0.901,0,1.379-0.373,1.379-0.939
		c0-0.542-0.413-0.852-1.457-1.227c-1.444-0.502-2.385-1.301-2.385-2.564c0-1.482,1.237-2.617,3.287-2.617
		c0.979,0,1.702,0.206,2.218,0.438l-0.438,1.585c-0.348-0.167-0.967-0.412-1.818-0.412c-0.851,0-1.264,0.387-1.264,0.838
		c0,0.555,0.49,0.801,1.612,1.225c1.535,0.567,2.256,1.367,2.256,2.593c0,1.456-1.122,2.694-3.507,2.694
		c-0.993,0-1.974-0.258-2.463-0.529L79.566,21.57z"/>
	<path fill="#FFFFFF" d="M91.496,23.439c-0.349,0.155-1.006,0.285-1.753,0.285c-2.038,0-3.341-1.238-3.341-3.225
		c0-1.844,1.265-3.354,3.61-3.354c0.516,0,1.083,0.092,1.496,0.246L91.2,18.85c-0.232-0.104-0.581-0.192-1.097-0.192
		c-1.03,0-1.702,0.735-1.688,1.767c0,1.16,0.772,1.768,1.728,1.768c0.464,0,0.825-0.078,1.122-0.193L91.496,23.439z"/>
	<path fill="#FFFFFF" d="M94.877,15.537c0,0.541-0.413,0.979-1.059,0.979c-0.618,0-1.03-0.438-1.019-0.979
		c-0.013-0.567,0.4-0.993,1.032-0.993S94.864,14.969,94.877,15.537z M92.853,23.595V17.29h1.96v6.306L92.853,23.595L92.853,23.595z"
		/>
	<path fill="#FFFFFF" d="M98.167,21.068c0.063,0.812,0.863,1.199,1.778,1.199c0.671,0,1.213-0.092,1.741-0.259l0.258,1.328
		c-0.645,0.258-1.431,0.388-2.281,0.388c-2.141,0-3.365-1.238-3.365-3.211c0-1.6,0.993-3.365,3.185-3.365
		c2.037,0,2.812,1.586,2.812,3.146c0,0.335-0.039,0.632-0.064,0.772h-4.062V21.068z M100.475,19.727
		c0-0.478-0.206-1.275-1.108-1.275c-0.825,0-1.16,0.747-1.213,1.275H100.475z"/>
	<path fill="#FFFFFF" d="M103.74,19.301c0-0.785-0.026-1.457-0.053-2.012h1.702l0.09,0.863h0.039
		c0.258-0.398,0.902-1.006,1.947-1.006c1.29,0,2.256,0.853,2.256,2.709v3.738h-1.959V20.1c0-0.812-0.284-1.367-0.993-1.367
		c-0.542,0-0.864,0.375-0.993,0.735c-0.052,0.116-0.076,0.31-0.076,0.489v3.637h-1.96V19.301z"/>
	<path fill="#FFFFFF" d="M116.303,23.439c-0.349,0.155-1.006,0.285-1.754,0.285c-2.038,0-3.34-1.238-3.34-3.225
		c0-1.844,1.264-3.354,3.609-3.354c0.517,0,1.083,0.092,1.496,0.246l-0.31,1.457c-0.232-0.104-0.581-0.193-1.096-0.193
		c-1.031,0-1.702,0.734-1.689,1.767c0,1.16,0.773,1.767,1.729,1.767c0.464,0,0.824-0.078,1.121-0.192L116.303,23.439z"/>
	<path fill="#FFFFFF" d="M119.027,21.068c0.064,0.812,0.863,1.199,1.779,1.199c0.67,0,1.212-0.092,1.74-0.259l0.258,1.328
		c-0.645,0.258-1.431,0.388-2.282,0.388c-2.141,0-3.364-1.238-3.364-3.211c0-1.6,0.992-3.365,3.185-3.365
		c2.037,0,2.812,1.586,2.812,3.146c0,0.335-0.038,0.632-0.063,0.772h-4.063V21.068z M121.334,19.727
		c0-0.478-0.206-1.275-1.108-1.275c-0.825,0-1.161,0.747-1.213,1.275H121.334z"/>
</g>
</svg>
