<?xml version="1.0" encoding="UTF-8" standalone="no"?><svg xmlns="http://www.w3.org/2000/svg" xmlns:xlink="http://www.w3.org/1999/xlink" clip-rule="evenodd" stroke-miterlimit="4.00" viewBox="0 0 1654 703"><desc>SVG generated by Keynote</desc><defs></defs><g transform="matrix(1.00, 0.00, -0.00, -1.00, 0.0, 703.0)"><g><clipPath id="clip-424"><path d="M 0.3 675.0 L 59.9 675.0 L 59.9 702.5 L 0.3 702.5 Z M 0.3 675.0 "></path></clipPath><g clip-path="url(#clip-424)"><image xlink:href="../../2D20B215-3A98-43C9-B9B6-3ADB229E98B7/assets/2C966A8E9097A0643398217F6E3B9386.png" width="58.00" height="26.00" transform="matrix(0.99, 0.00, -0.00, -0.98, 1.3, 701.5)" opacity="0.71"></image></g></g><g><clipPath id="clip-425"><path d="M 1.0 671.2 L 59.2 671.2 L 59.2 701.8 L 1.0 701.8 Z M 1.0 671.2 "></path></clipPath><g clip-path="url(#clip-425)"><text xml:space="preserve" font-family="DBSans-Regular" font-size="18.0" fill="#FEFFFE" transform="matrix(1.00, 0.00, -0.00, -1.00, 6.0, 684.0)">0</text><text xml:space="preserve" font-family="DBSans-Regular" font-size="18.0" fill="#FEFFFE" transform="matrix(1.00, 0.00, -0.00, -1.00, 16.8, 684.0)">9</text><text xml:space="preserve" font-family="DBSans-Regular" font-size="18.0" fill="#FEFFFE" transform="matrix(1.00, 0.00, -0.00, -1.00, 27.6, 684.0)">:</text><text xml:space="preserve" font-family="DBSans-Regular" font-size="18.0" fill="#FEFFFE" transform="matrix(1.00, 0.00, -0.00, -1.00, 33.0, 684.0)">0</text><text xml:space="preserve" font-family="DBSans-Regular" font-size="18.0" fill="#FEFFFE" transform="matrix(1.00, 0.00, -0.00, -1.00, 43.8, 684.0)">0</text></g></g><g><clipPath id="clip-426"><path d="M 239.1 675.0 L 298.7 675.0 L 298.7 702.5 L 239.1 702.5 Z M 239.1 675.0 "></path></clipPath><g clip-path="url(#clip-426)"><image xlink:href="../../2D20B215-3A98-43C9-B9B6-3ADB229E98B7/assets/6C43E39852F6C4FAD2196F026730DCF2.png" width="58.00" height="26.00" transform="matrix(0.99, 0.00, -0.00, -0.98, 240.1, 701.5)" opacity="0.71"></image></g></g><g><clipPath id="clip-427"><path d="M 239.8 671.2 L 298.0 671.2 L 298.0 701.8 L 239.8 701.8 Z M 239.8 671.2 "></path></clipPath><g clip-path="url(#clip-427)"><text xml:space="preserve" font-family="DBSans-Regular" font-size="18.0" fill="#FEFFFE" transform="matrix(1.00, 0.00, -0.00, -1.00, 245.0, 684.0)">1</text><text xml:space="preserve" font-family="DBSans-Regular" font-size="18.0" fill="#FEFFFE" transform="matrix(1.00, 0.00, -0.00, -1.00, 255.8, 684.0)">0</text><text xml:space="preserve" font-family="DBSans-Regular" font-size="18.0" fill="#FEFFFE" transform="matrix(1.00, 0.00, -0.00, -1.00, 266.6, 684.0)">:</text><text xml:space="preserve" font-family="DBSans-Regular" font-size="18.0" fill="#FEFFFE" transform="matrix(1.00, 0.00, -0.00, -1.00, 272.0, 684.0)">0</text><text xml:space="preserve" font-family="DBSans-Regular" font-size="18.0" fill="#FEFFFE" transform="matrix(1.00, 0.00, -0.00, -1.00, 282.8, 684.0)">0</text></g></g><g><clipPath id="clip-428"><path d="M 467.5 675.0 L 527.1 675.0 L 527.1 702.5 L 467.5 702.5 Z M 467.5 675.0 "></path></clipPath><g clip-path="url(#clip-428)"><image xlink:href="../../2D20B215-3A98-43C9-B9B6-3ADB229E98B7/assets/F4A37AC86F086D5BCAF49AB207FE8564.png" width="58.00" height="26.00" transform="matrix(0.99, 0.00, -0.00, -0.98, 468.5, 701.5)" opacity="0.71"></image></g></g><g><clipPath id="clip-429"><path d="M 468.2 671.2 L 526.4 671.2 L 526.4 701.8 L 468.2 701.8 Z M 468.2 671.2 "></path></clipPath><g clip-path="url(#clip-429)"><text xml:space="preserve" font-family="DBSans-Regular" font-size="18.0" fill="#FEFFFE" transform="matrix(1.00, 0.00, -0.00, -1.00, 473.0, 684.0)">1</text><text xml:space="preserve" font-family="DBSans-Regular" font-size="18.0" fill="#FEFFFE" transform="matrix(1.00, 0.00, -0.00, -1.00, 483.8, 684.0)">1</text><text xml:space="preserve" font-family="DBSans-Regular" font-size="18.0" fill="#FEFFFE" transform="matrix(1.00, 0.00, -0.00, -1.00, 494.6, 684.0)">:</text><text xml:space="preserve" font-family="DBSans-Regular" font-size="18.0" fill="#FEFFFE" transform="matrix(1.00, 0.00, -0.00, -1.00, 500.0, 684.0)">0</text><text xml:space="preserve" font-family="DBSans-Regular" font-size="18.0" fill="#FEFFFE" transform="matrix(1.00, 0.00, -0.00, -1.00, 510.8, 684.0)">0</text></g></g><g><clipPath id="clip-430"><path d="M 28.1 0.7 L 28.1 668.3 L 33.1 668.3 L 33.1 0.7 Z M 28.1 0.7 "></path></clipPath><g clip-path="url(#clip-430)"><image xlink:href="../../2D20B215-3A98-43C9-B9B6-3ADB229E98B7/assets/F4E992F9A491846451E2505F8E81089A.png" width="665.00" height="1.00" transform="matrix(0.00, 1.00, 1.00, -0.00, 31.1, 1.8)" opacity="0.30"></image><path d="M 0.0 0.0 L 665.5 0.0 " fill="none" stroke="#FEFFFE" stroke-opacity="0.30" stroke-width="1.00" transform="matrix(0.00, 1.00, 1.00, 0.00, 29.6, 1.7)"></path></g></g><g><clipPath id="clip-431"><path d="M 266.4 0.7 L 266.4 668.3 L 271.4 668.3 L 271.4 0.7 Z M 266.4 0.7 "></path></clipPath><g clip-path="url(#clip-431)"><image xlink:href="../../2D20B215-3A98-43C9-B9B6-3ADB229E98B7/assets/F4E992F9A491846451E2505F8E81089A.png" width="665.00" height="1.00" transform="matrix(0.00, 1.00, 1.00, -0.00, 269.4, 1.8)" opacity="0.30"></image><path d="M 0.0 0.0 L 665.5 0.0 " fill="none" stroke="#FEFFFE" stroke-opacity="0.30" stroke-width="1.00" transform="matrix(0.00, 1.00, 1.00, 0.00, 267.9, 1.7)"></path></g></g><g><clipPath id="clip-432"><path d="M 496.8 0.7 L 496.8 668.3 L 501.8 668.3 L 501.8 0.7 Z M 496.8 0.7 "></path></clipPath><g clip-path="url(#clip-432)"><image xlink:href="../../2D20B215-3A98-43C9-B9B6-3ADB229E98B7/assets/F4E992F9A491846451E2505F8E81089A.png" width="665.00" height="1.00" transform="matrix(0.00, 1.00, 1.00, -0.00, 499.8, 1.8)" opacity="0.30"></image><path d="M 0.0 0.0 L 665.5 0.0 " fill="none" stroke="#FEFFFE" stroke-opacity="0.30" stroke-width="1.00" transform="matrix(0.00, 1.00, 1.00, 0.00, 498.3, 1.7)"></path></g></g><g><clipPath id="clip-433"><path d="M 68.0 631.2 L 853.2 631.2 L 853.2 658.2 L 68.0 658.2 Z M 68.0 631.2 "></path></clipPath><g clip-path="url(#clip-433)"><path d="M 69.0 657.2 L 852.2 657.2 L 852.2 632.2 L 69.0 632.2 Z M 69.0 657.2 " fill="#FEFFFE" fill-opacity="0.80"></path></g></g><g opacity="0.80"><g><clipPath id="clip-434"><path d="M 69.0 632.0 L 852.2 632.0 L 852.2 657.2 L 69.0 657.2 Z M 69.0 632.0 "></path></clipPath><g clip-path="url(#clip-434)"><text xml:space="preserve" font-family="DBSans-Regular" font-size="14.0" fill="#000000" transform="matrix(1.00, 0.00, -0.00, -1.00, 73.0, 640.0)">i</text><text xml:space="preserve" font-family="DBSans-Regular" font-size="14.0" fill="#000000" transform="matrix(1.00, 0.00, -0.00, -1.00, 77.1, 640.0)">m</text><text xml:space="preserve" font-family="DBSans-Regular" font-size="14.0" fill="#000000" transform="matrix(1.00, 0.00, -0.00, -1.00, 89.4, 640.0)"> </text><text xml:space="preserve" font-family="DBSans-Regular" font-size="14.0" fill="#000000" transform="matrix(1.00, 0.00, -0.00, -1.00, 93.6, 640.0)">I</text><text xml:space="preserve" font-family="DBSans-Regular" font-size="14.0" fill="#000000" transform="matrix(1.00, 0.00, -0.00, -1.00, 99.0, 640.0)">C</text><text xml:space="preserve" font-family="DBSans-Regular" font-size="14.0" fill="#000000" transform="matrix(1.00, 0.00, -0.00, -1.00, 108.0, 640.0)">E</text><text xml:space="preserve" font-family="DBSans-Regular" font-size="14.0" fill="#000000" transform="matrix(1.00, 0.00, -0.00, -1.00, 116.6, 640.0)"> </text><text xml:space="preserve" font-family="DBSans-Regular" font-size="14.0" fill="#000000" transform="matrix(1.00, 0.00, -0.00, -1.00, 120.8, 640.0)">6</text><text xml:space="preserve" font-family="DBSans-Regular" font-size="14.0" fill="#000000" transform="matrix(1.00, 0.00, -0.00, -1.00, 129.2, 640.0)">9</text><text xml:space="preserve" font-family="DBSans-Regular" font-size="14.0" fill="#000000" transform="matrix(1.00, 0.00, -0.00, -1.00, 137.6, 640.0)">0</text></g></g></g><g><clipPath id="clip-435"><path d="M 853.2 631.2 L 867.9 631.2 L 867.9 658.2 L 853.2 658.2 Z M 853.2 631.2 "></path></clipPath><g clip-path="url(#clip-435)"><path d="M 854.2 657.2 L 866.9 657.2 L 866.9 632.2 L 854.2 632.2 Z M 854.2 657.2 " fill="#C82505" fill-opacity="0.80"></path></g></g><g><clipPath id="clip-436"><path d="M 697.5 675.0 L 757.1 675.0 L 757.1 702.5 L 697.5 702.5 Z M 697.5 675.0 "></path></clipPath><g clip-path="url(#clip-436)"><image xlink:href="../../2D20B215-3A98-43C9-B9B6-3ADB229E98B7/assets/01867461BABCEBA048C7BA099AA33BAF.png" width="58.00" height="26.00" transform="matrix(0.99, 0.00, -0.00, -0.98, 698.5, 701.5)" opacity="0.71"></image></g></g><g><clipPath id="clip-437"><path d="M 698.2 671.2 L 756.4 671.2 L 756.4 701.8 L 698.2 701.8 Z M 698.2 671.2 "></path></clipPath><g clip-path="url(#clip-437)"><text xml:space="preserve" font-family="DBSans-Regular" font-size="18.0" fill="#FEFFFE" transform="matrix(1.00, 0.00, -0.00, -1.00, 703.0, 684.0)">1</text><text xml:space="preserve" font-family="DBSans-Regular" font-size="18.0" fill="#FEFFFE" transform="matrix(1.00, 0.00, -0.00, -1.00, 713.8, 684.0)">2</text><text xml:space="preserve" font-family="DBSans-Regular" font-size="18.0" fill="#FEFFFE" transform="matrix(1.00, 0.00, -0.00, -1.00, 724.6, 684.0)">:</text><text xml:space="preserve" font-family="DBSans-Regular" font-size="18.0" fill="#FEFFFE" transform="matrix(1.00, 0.00, -0.00, -1.00, 730.0, 684.0)">0</text><text xml:space="preserve" font-family="DBSans-Regular" font-size="18.0" fill="#FEFFFE" transform="matrix(1.00, 0.00, -0.00, -1.00, 740.8, 684.0)">0</text></g></g><g><clipPath id="clip-438"><path d="M 726.8 0.7 L 726.8 668.3 L 731.8 668.3 L 731.8 0.7 Z M 726.8 0.7 "></path></clipPath><g clip-path="url(#clip-438)"><image xlink:href="../../2D20B215-3A98-43C9-B9B6-3ADB229E98B7/assets/F4E992F9A491846451E2505F8E81089A.png" width="665.00" height="1.00" transform="matrix(0.00, 1.00, 1.00, -0.00, 729.8, 1.8)" opacity="0.30"></image><path d="M 0.0 0.0 L 665.5 0.0 " fill="none" stroke="#FEFFFE" stroke-opacity="0.30" stroke-width="1.00" transform="matrix(0.00, 1.00, 1.00, 0.00, 728.3, 1.7)"></path></g></g><g><clipPath id="clip-439"><path d="M 927.5 675.0 L 987.1 675.0 L 987.1 702.5 L 927.5 702.5 Z M 927.5 675.0 "></path></clipPath><g clip-path="url(#clip-439)"><image xlink:href="../../2D20B215-3A98-43C9-B9B6-3ADB229E98B7/assets/1F5C5963B00FEC22487B38DF57D42404.png" width="58.00" height="26.00" transform="matrix(0.99, 0.00, -0.00, -0.98, 928.5, 701.5)" opacity="0.71"></image></g></g><g><clipPath id="clip-440"><path d="M 928.2 671.2 L 986.4 671.2 L 986.4 701.8 L 928.2 701.8 Z M 928.2 671.2 "></path></clipPath><g clip-path="url(#clip-440)"><text xml:space="preserve" font-family="DBSans-Regular" font-size="18.0" fill="#FEFFFE" transform="matrix(1.00, 0.00, -0.00, -1.00, 933.0, 684.0)">1</text><text xml:space="preserve" font-family="DBSans-Regular" font-size="18.0" fill="#FEFFFE" transform="matrix(1.00, 0.00, -0.00, -1.00, 943.8, 684.0)">3</text><text xml:space="preserve" font-family="DBSans-Regular" font-size="18.0" fill="#FEFFFE" transform="matrix(1.00, 0.00, -0.00, -1.00, 954.6, 684.0)">:</text><text xml:space="preserve" font-family="DBSans-Regular" font-size="18.0" fill="#FEFFFE" transform="matrix(1.00, 0.00, -0.00, -1.00, 960.0, 684.0)">0</text><text xml:space="preserve" font-family="DBSans-Regular" font-size="18.0" fill="#FEFFFE" transform="matrix(1.00, 0.00, -0.00, -1.00, 970.8, 684.0)">0</text></g></g><g><clipPath id="clip-441"><path d="M 956.8 0.7 L 956.8 668.3 L 961.8 668.3 L 961.8 0.7 Z M 956.8 0.7 "></path></clipPath><g clip-path="url(#clip-441)"><image xlink:href="../../2D20B215-3A98-43C9-B9B6-3ADB229E98B7/assets/F4E992F9A491846451E2505F8E81089A.png" width="665.00" height="1.00" transform="matrix(0.00, 1.00, 1.00, -0.00, 959.8, 1.8)" opacity="0.30"></image><path d="M 0.0 0.0 L 665.5 0.0 " fill="none" stroke="#FEFFFE" stroke-opacity="0.30" stroke-width="1.00" transform="matrix(0.00, 1.00, 1.00, 0.00, 958.3, 1.7)"></path></g></g><g><clipPath id="clip-442"><path d="M 868.0 631.2 L 1653.2 631.2 L 1653.2 658.2 L 868.0 658.2 Z M 868.0 631.2 "></path></clipPath><g clip-path="url(#clip-442)"><path d="M 869.0 657.2 L 1652.2 657.2 L 1652.2 632.2 L 869.0 632.2 Z M 869.0 657.2 " fill="#FEFFFE" fill-opacity="0.80"></path></g></g><g opacity="0.80"><g><clipPath id="clip-443"><path d="M 869.0 632.0 L 1652.2 632.0 L 1652.2 657.2 L 869.0 657.2 Z M 869.0 632.0 "></path></clipPath><g clip-path="url(#clip-443)"><text xml:space="preserve" font-family="DBSans-Regular" font-size="14.0" fill="#000000" transform="matrix(1.00, 0.00, -0.00, -1.00, 873.0, 640.0)">i</text><text xml:space="preserve" font-family="DBSans-Regular" font-size="14.0" fill="#000000" transform="matrix(1.00, 0.00, -0.00, -1.00, 877.1, 640.0)">m</text><text xml:space="preserve" font-family="DBSans-Regular" font-size="14.0" fill="#000000" transform="matrix(1.00, 0.00, -0.00, -1.00, 889.4, 640.0)"> </text><text xml:space="preserve" font-family="DBSans-Regular" font-size="14.0" fill="#000000" transform="matrix(1.00, 0.00, -0.00, -1.00, 893.6, 640.0)">I</text><text xml:space="preserve" font-family="DBSans-Regular" font-size="14.0" fill="#000000" transform="matrix(1.00, 0.00, -0.00, -1.00, 899.0, 640.0)">C</text><text xml:space="preserve" font-family="DBSans-Regular" font-size="14.0" fill="#000000" transform="matrix(1.00, 0.00, -0.00, -1.00, 908.0, 640.0)">E</text><text xml:space="preserve" font-family="DBSans-Regular" font-size="14.0" fill="#000000" transform="matrix(1.00, 0.00, -0.00, -1.00, 916.6, 640.0)"> </text><text xml:space="preserve" font-family="DBSans-Regular" font-size="14.0" fill="#000000" transform="matrix(1.00, 0.00, -0.00, -1.00, 920.8, 640.0)">7</text><text xml:space="preserve" font-family="DBSans-Regular" font-size="14.0" fill="#000000" transform="matrix(1.00, 0.00, -0.00, -1.00, 929.2, 640.0)">2</text><text xml:space="preserve" font-family="DBSans-Regular" font-size="14.0" fill="#000000" transform="matrix(1.00, 0.00, -0.00, -1.00, 937.6, 640.0)">4</text></g></g></g></g></svg>