<?xml version="1.0" encoding="UTF-8" standalone="no"?>
<svg width="1149px" height="872px" viewBox="0 0 1149 872" version="1.1" xmlns="http://www.w3.org/2000/svg" xmlns:xlink="http://www.w3.org/1999/xlink" xmlns:sketch="http://www.bohemiancoding.com/sketch/ns">
    <!-- Generator: Sketch 3.3.3 (12081) - http://www.bohemiancoding.com/sketch -->
    <title>Slice 1</title>
    <desc>Created with Sketch.</desc>
    <defs></defs>
    <g id="Page-1" stroke="none" stroke-width="1" fill="none" fill-rule="evenodd" sketch:type="MSPage">
        <g id="04_Showcase2015_Veranstaltung" sketch:type="MSLayerGroup">
            <rect id="Rectangle-path" fill="#DD1077" sketch:type="MSShapeGroup" x="0" y="744.654" width="986.336" height="127.273"></rect>
            <g id="Group" transform="translate(33.000000, 788.000000)" fill="#FFFFFF" sketch:type="MSShapeGroup">
                <path d="M0.016,34.383 L0.016,29.967 L4.048,26.319 C10.865,20.222 14.177,16.718 14.273,13.07 C14.273,10.525 12.737,8.509 9.136,8.509 C6.448,8.509 4.096,9.853 2.464,11.101 L0.4,5.869 C2.752,4.093 6.4,2.653 10.625,2.653 C17.682,2.653 21.57,6.781 21.57,12.446 C21.57,17.678 17.778,21.854 13.265,25.886 L10.385,28.286 L10.385,28.382 L22.146,28.382 L22.146,34.383 L0.016,34.383 L0.016,34.383 Z" id="Shape"></path>
                <path d="M35.969,9.661 L35.873,9.661 L29.92,12.493 L28.72,7.02 L36.976,3.179 L43.025,3.179 L43.025,34.382 L35.968,34.382 L35.968,9.661 L35.969,9.661 Z" id="Shape"></path>
                <path d="M57.904,34.911 C55.456,34.911 53.68,33.039 53.68,30.494 C53.68,27.902 55.456,26.03 58,26.03 C60.544,26.03 62.272,27.854 62.272,30.494 C62.272,33.039 60.543,34.911 57.951,34.911 L57.904,34.911 L57.904,34.911 Z" id="Shape"></path>
                <path d="M96.545,17.869 C96.545,28.478 90.113,34.911 80.656,34.911 C71.055,34.911 65.439,27.662 65.439,18.445 C65.439,8.749 71.631,1.5 81.184,1.5 C91.121,1.5 96.545,8.94 96.545,17.869 L96.545,17.869 Z M73.167,18.302 C73.167,24.638 76.144,29.103 81.04,29.103 C85.985,29.103 88.817,24.398 88.817,18.11 C88.817,12.301 86.033,7.309 80.992,7.309 C76.048,7.309 73.167,12.013 73.167,18.302 L73.167,18.302 Z" id="Shape"></path>
                <path d="M108.496,20.798 L108.592,20.798 C109.12,19.838 109.696,18.878 110.272,17.966 L115.024,10.909 L123.809,10.909 L115.409,20.414 L125.01,34.383 L116.033,34.383 L110.368,24.735 L108.496,27.039 L108.496,34.384 L101.199,34.384 L101.199,0.3 L108.496,0.3 L108.496,20.798 L108.496,20.798 Z" id="Shape"></path>
                <path d="M135.375,4.524 L135.375,10.909 L140.607,10.909 L140.607,16.285 L135.375,16.285 L135.375,24.782 C135.375,27.614 136.047,28.91 138.255,28.91 C139.263,28.91 139.695,28.862 140.415,28.719 L140.463,34.24 C139.503,34.624 137.775,34.912 135.711,34.912 C133.359,34.912 131.391,34.048 130.239,32.848 C128.895,31.455 128.223,29.2 128.223,25.887 L128.223,16.286 L125.102,16.286 L125.102,10.91 L128.223,10.91 L128.223,6.493 L135.375,4.524 L135.375,4.524 Z" id="Shape"></path>
                <path d="M167.824,22.382 C167.824,30.975 161.727,34.911 155.439,34.911 C148.575,34.911 143.294,30.398 143.294,22.813 C143.294,15.229 148.287,10.38 155.823,10.38 C163.024,10.381 167.824,15.325 167.824,22.382 L167.824,22.382 Z M150.831,22.622 C150.831,26.654 152.511,29.679 155.632,29.679 C158.464,29.679 160.288,26.846 160.288,22.622 C160.288,19.117 158.944,15.565 155.632,15.565 C152.127,15.565 150.831,19.165 150.831,22.622 L150.831,22.622 Z" id="Shape"></path>
                <path d="M172.334,0.3 L179.631,0.3 L179.631,13.694 L179.727,13.694 C181.119,11.677 183.567,10.382 186.831,10.382 C192.448,10.382 196.576,15.038 196.528,22.238 C196.528,30.687 191.152,34.912 185.775,34.912 C183.039,34.912 180.399,33.903 178.718,31.119 L178.622,31.119 L178.334,34.384 L172.142,34.384 C172.238,32.848 172.334,30.016 172.334,27.375 L172.334,0.3 L172.334,0.3 Z M179.631,24.397 C179.631,24.877 179.679,25.309 179.775,25.694 C180.255,27.662 181.936,29.15 184.047,29.15 C187.168,29.15 189.088,26.75 189.088,22.525 C189.088,18.878 187.456,15.997 184.047,15.997 C182.079,15.997 180.255,17.485 179.775,19.598 C179.679,20.03 179.631,20.462 179.631,20.942 L179.631,24.397 L179.631,24.397 Z" id="Shape"></path>
                <path d="M206.75,24.974 C206.99,27.998 209.966,29.439 213.375,29.439 C215.871,29.439 217.887,29.103 219.855,28.479 L220.815,33.423 C218.415,34.383 215.486,34.911 212.318,34.911 C204.349,34.911 199.789,30.255 199.789,22.91 C199.789,16.957 203.485,10.381 211.646,10.381 C219.23,10.381 222.111,16.285 222.111,22.094 C222.111,23.342 221.967,24.447 221.871,24.974 L206.75,24.974 L206.75,24.974 Z M215.343,19.981 C215.343,18.205 214.575,15.229 211.215,15.229 C208.143,15.229 206.895,18.013 206.702,19.981 L215.343,19.981 L215.343,19.981 Z" id="Shape"></path>
                <path d="M226.478,18.638 C226.478,15.181 226.382,12.925 226.286,10.909 L232.575,10.909 L232.815,15.229 L233.007,15.229 C234.207,11.821 237.087,10.38 239.343,10.38 C240.015,10.38 240.351,10.38 240.879,10.476 L240.879,17.389 C240.351,17.244 239.727,17.149 238.911,17.149 C236.223,17.149 234.399,18.589 233.918,20.845 C233.822,21.324 233.774,21.901 233.774,22.477 L233.774,34.382 L226.477,34.382 L226.477,18.638 L226.478,18.638 Z" id="Shape"></path>
                <path d="M253.5,34.383 L253.5,29.967 L257.532,26.319 C264.349,20.222 267.661,16.718 267.757,13.07 C267.757,10.525 266.221,8.509 262.62,8.509 C259.932,8.509 257.58,9.853 255.948,11.101 L253.884,5.869 C256.236,4.093 259.884,2.653 264.109,2.653 C271.166,2.653 275.054,6.781 275.054,12.446 C275.054,17.678 271.262,21.854 266.749,25.886 L263.869,28.286 L263.869,28.382 L275.63,28.382 L275.63,34.383 L253.5,34.383 L253.5,34.383 Z" id="Shape"></path>
                <path d="M303.182,18.638 C303.182,28.286 299.294,34.911 291.325,34.911 C283.26,34.911 279.708,27.662 279.66,18.829 C279.66,9.805 283.5,2.652 291.565,2.652 C299.918,2.652 303.182,10.093 303.182,18.638 L303.182,18.638 Z M287.005,18.829 C286.957,25.982 288.685,29.391 291.517,29.391 C294.35,29.391 295.886,25.838 295.886,18.734 C295.886,11.822 294.398,8.173 291.469,8.173 C288.781,8.173 286.957,11.581 287.005,18.829 L287.005,18.829 Z" id="Shape"></path>
                <path d="M316.093,9.661 L315.997,9.661 L310.044,12.493 L308.844,7.02 L317.1,3.179 L323.149,3.179 L323.149,34.382 L316.092,34.382 L316.092,9.661 L316.093,9.661 Z" id="Shape"></path>
                <path d="M354.253,9.181 L342.156,9.181 L341.484,13.982 C342.156,13.885 342.732,13.885 343.5,13.885 C346.476,13.885 349.5,14.557 351.708,16.142 C354.061,17.726 355.5,20.318 355.5,23.966 C355.5,29.775 350.507,34.911 342.107,34.911 C338.315,34.911 335.146,34.047 333.418,33.135 L334.714,27.662 C336.106,28.334 338.938,29.198 341.771,29.198 C344.795,29.198 348.011,27.758 348.011,24.446 C348.011,21.229 345.467,19.261 339.226,19.261 C337.498,19.261 336.298,19.357 335.001,19.549 L337.065,3.179 L354.251,3.179 L354.251,9.181 L354.253,9.181 Z" id="Shape"></path>
                <path d="M358.139,40.096 C359.627,35.824 360.923,30.83 361.595,26.462 L369.036,25.983 C367.452,30.879 365.291,35.92 362.987,39.664 L358.139,40.096 L358.139,40.096 Z" id="Shape"></path>
                <path d="M402.733,28.67 C402.733,30.927 402.829,33.087 403.069,34.383 L396.492,34.383 L396.06,32.03 L395.916,32.03 C394.38,33.902 391.98,34.911 389.195,34.911 C384.443,34.911 381.611,31.454 381.611,27.71 C381.611,21.613 387.084,18.686 395.388,18.733 L395.388,18.397 C395.388,17.149 394.716,15.373 391.116,15.373 C388.716,15.373 386.172,16.189 384.636,17.149 L383.292,12.445 C384.924,11.533 388.141,10.381 392.413,10.381 C400.238,10.381 402.734,14.989 402.734,20.51 L402.734,28.67 L402.733,28.67 Z M395.628,23.294 C391.788,23.246 388.812,24.158 388.812,26.99 C388.812,28.862 390.06,29.774 391.692,29.774 C393.516,29.774 395.004,28.574 395.484,27.086 C395.58,26.702 395.628,26.271 395.628,25.838 L395.628,23.294 L395.628,23.294 Z" id="Shape"></path>
                <path d="M408.491,0.3 L415.788,0.3 L415.788,13.694 L415.884,13.694 C417.276,11.677 419.724,10.382 422.988,10.382 C428.605,10.382 432.733,15.038 432.685,22.238 C432.685,30.687 427.309,34.912 421.932,34.912 C419.196,34.912 416.556,33.903 414.875,31.119 L414.779,31.119 L414.491,34.384 L408.299,34.384 C408.395,32.848 408.491,30.016 408.491,27.375 L408.491,0.3 L408.491,0.3 Z M415.788,24.397 C415.788,24.877 415.836,25.309 415.932,25.694 C416.412,27.662 418.092,29.15 420.204,29.15 C423.325,29.15 425.245,26.75 425.245,22.525 C425.245,18.878 423.613,15.997 420.204,15.997 C418.236,15.997 416.412,17.485 415.932,19.598 C415.836,20.03 415.788,20.462 415.788,20.942 L415.788,24.397 L415.788,24.397 Z" id="Shape"></path>
                <path d="M455.291,9.661 L455.195,9.661 L449.242,12.493 L448.042,7.02 L456.298,3.179 L462.347,3.179 L462.347,34.382 L455.29,34.382 L455.29,9.661 L455.291,9.661 Z" id="Shape"></path>
                <path d="M485.531,34.383 L485.531,26.943 L471.706,26.943 L471.706,22.19 L483.515,3.18 L492.444,3.18 L492.444,21.47 L496.189,21.47 L496.189,26.943 L492.444,26.943 L492.444,34.383 L485.531,34.383 L485.531,34.383 Z M485.531,21.47 L485.531,14.557 C485.531,12.685 485.627,10.765 485.771,8.749 L485.579,8.749 C484.571,10.765 483.755,12.589 482.699,14.557 L478.523,21.374 L478.523,21.47 L485.531,21.47 L485.531,21.47 Z" id="Shape"></path>
                <path d="M503.866,19.405 C501.418,19.405 499.642,17.533 499.642,15.037 C499.642,12.445 501.418,10.621 503.962,10.621 C506.506,10.621 508.186,12.396 508.234,15.037 C508.234,17.533 506.505,19.405 503.913,19.405 L503.866,19.405 L503.866,19.405 Z M503.866,34.911 C501.418,34.911 499.642,33.039 499.642,30.542 C499.642,27.95 501.418,26.126 503.962,26.126 C506.506,26.126 508.186,27.902 508.234,30.542 C508.234,33.039 506.505,34.911 503.913,34.911 L503.866,34.911 L503.866,34.911 Z" id="Shape"></path>
                <path d="M534.779,18.638 C534.779,28.286 530.891,34.911 522.922,34.911 C514.857,34.911 511.305,27.662 511.257,18.829 C511.257,9.805 515.097,2.652 523.162,2.652 C531.515,2.652 534.779,10.093 534.779,18.638 L534.779,18.638 Z M518.602,18.829 C518.554,25.982 520.282,29.391 523.114,29.391 C525.947,29.391 527.483,25.838 527.483,18.734 C527.483,11.822 525.995,8.173 523.066,8.173 C520.378,8.173 518.554,11.581 518.602,18.829 L518.602,18.829 Z" id="Shape"></path>
                <path d="M561.419,18.638 C561.419,28.286 557.531,34.911 549.562,34.911 C541.497,34.911 537.945,27.662 537.897,18.829 C537.897,9.805 541.737,2.652 549.802,2.652 C558.155,2.652 561.419,10.093 561.419,18.638 L561.419,18.638 Z M545.242,18.829 C545.194,25.982 546.922,29.391 549.754,29.391 C552.587,29.391 554.123,25.838 554.123,18.734 C554.123,11.822 552.635,8.173 549.706,8.173 C547.018,8.173 545.193,11.581 545.242,18.829 L545.242,18.829 Z" id="Shape"></path>
                <path d="M583.161,2.028 L583.161,20.653 C583.161,26.221 585.273,29.054 589.017,29.054 C592.858,29.054 594.97,26.366 594.97,20.653 L594.97,2.028 L602.266,2.028 L602.266,20.174 C602.266,30.158 597.226,34.911 588.777,34.911 C580.617,34.911 575.816,30.398 575.816,20.077 L575.816,2.028 L583.161,2.028 L583.161,2.028 Z" id="Shape"></path>
                <path d="M608.36,0.3 L615.656,0.3 L615.656,13.694 L615.753,13.694 C616.521,12.685 617.481,11.87 618.633,11.294 C619.737,10.718 621.081,10.382 622.425,10.382 C627.081,10.382 630.634,13.598 630.634,20.654 L630.634,34.383 L623.337,34.383 L623.337,21.47 C623.337,18.398 622.281,16.285 619.545,16.285 C617.625,16.285 616.425,17.533 615.897,18.829 C615.705,19.309 615.657,19.933 615.657,20.462 L615.657,34.383 L608.361,34.383 L608.361,0.3 L608.36,0.3 Z" id="Shape"></path>
                <path d="M636.488,18.638 C636.488,15.181 636.391,12.925 636.296,10.909 L642.584,10.909 L642.824,15.229 L643.016,15.229 C644.216,11.821 647.096,10.38 649.352,10.38 C650.025,10.38 650.361,10.38 650.888,10.476 L650.888,17.389 C650.361,17.244 649.737,17.149 648.92,17.149 C646.232,17.149 644.407,18.589 643.928,20.845 C643.831,21.324 643.783,21.901 643.783,22.477 L643.783,34.382 L636.487,34.382 L636.487,18.638 L636.488,18.638 Z" id="Shape"></path>
                <path d="M648.823,40.096 C650.311,35.824 651.607,30.83 652.28,26.462 L659.72,25.983 C658.136,30.879 655.976,35.92 653.671,39.664 L648.823,40.096 L648.823,40.096 Z" id="Shape"></path>
                <path d="M674.07,2.46 C676.423,2.076 679.926,1.788 683.815,1.788 C688.616,1.788 691.976,2.508 694.28,4.332 C696.2,5.868 697.257,8.125 697.257,11.101 C697.257,15.23 694.328,18.062 691.544,19.07 L691.544,19.215 C693.801,20.127 695.049,22.287 695.864,25.263 C696.873,28.911 697.881,33.136 698.505,34.384 L691.016,34.384 C690.489,33.424 689.72,30.831 688.76,26.847 C687.896,22.815 686.504,21.711 683.528,21.663 L681.32,21.663 L681.32,34.384 L674.071,34.384 L674.071,2.46 L674.07,2.46 Z M681.319,16.381 L684.199,16.381 C687.847,16.381 690.008,14.557 690.008,11.725 C690.008,8.749 687.992,7.261 684.632,7.213 C682.856,7.213 681.848,7.357 681.32,7.452 L681.32,16.381 L681.319,16.381 Z" id="Shape"></path>
                <path d="M722.312,28.67 C722.312,30.927 722.409,33.087 722.648,34.383 L716.072,34.383 L715.64,32.03 L715.495,32.03 C713.959,33.902 711.558,34.911 708.774,34.911 C704.022,34.911 701.19,31.454 701.19,27.71 C701.19,21.613 706.662,18.686 714.966,18.733 L714.966,18.397 C714.966,17.149 714.294,15.373 710.694,15.373 C708.295,15.373 705.75,16.189 704.214,17.149 L702.87,12.445 C704.502,11.533 707.719,10.381 711.991,10.381 C719.815,10.381 722.311,14.989 722.311,20.51 L722.311,28.67 L722.312,28.67 Z M715.207,23.294 C711.367,23.246 708.391,24.158 708.391,26.99 C708.391,28.862 709.639,29.774 711.271,29.774 C713.095,29.774 714.583,28.574 715.064,27.086 C715.16,26.702 715.208,26.271 715.208,25.838 L715.208,23.294 L715.207,23.294 Z" id="Shape"></path>
                <path d="M750.201,26.846 C750.201,29.918 750.297,32.415 750.392,34.383 L744.056,34.383 L743.719,31.071 L743.575,31.071 C742.663,32.511 740.455,34.912 736.23,34.912 C731.478,34.912 727.973,31.935 727.973,24.686 L727.973,10.91 L735.318,10.91 L735.318,23.535 C735.318,26.943 736.422,29.008 738.966,29.008 C740.983,29.008 742.134,27.615 742.614,26.463 C742.806,26.031 742.854,25.455 742.854,24.879 L742.854,10.91 L750.199,10.91 L750.199,26.846 L750.201,26.846 Z" id="Shape"></path>
                <path d="M756.055,18.397 C756.055,15.468 755.958,12.972 755.863,10.909 L762.008,10.909 L762.344,14.077 L762.488,14.077 C763.497,12.589 765.56,10.381 769.593,10.381 C772.616,10.381 775.017,11.917 776.026,14.365 L776.122,14.365 C776.986,13.117 778.042,12.205 779.146,11.533 C780.442,10.764 781.882,10.381 783.61,10.381 C788.123,10.381 791.531,13.549 791.531,20.558 L791.531,34.383 L784.427,34.383 L784.427,21.613 C784.427,18.205 783.323,16.237 780.971,16.237 C779.29,16.237 778.09,17.389 777.611,18.781 C777.419,19.309 777.323,20.077 777.323,20.653 L777.323,34.382 L770.219,34.382 L770.219,21.229 C770.219,18.252 769.162,16.237 766.859,16.237 C764.987,16.237 763.882,17.677 763.451,18.878 C763.211,19.453 763.163,20.126 763.163,20.701 L763.163,34.383 L756.059,34.383 L756.059,18.397 L756.055,18.397 Z" id="Shape"></path>
                <path d="M815.43,9.661 L815.334,9.661 L809.381,12.493 L808.181,7.02 L816.438,3.179 L822.487,3.179 L822.487,34.382 L815.43,34.382 L815.43,9.661 L815.43,9.661 Z" id="Shape"></path>
                <path d="M837.365,34.911 C834.917,34.911 833.14,33.039 833.14,30.494 C833.14,27.902 834.916,26.03 837.46,26.03 C840.004,26.03 841.732,27.854 841.732,30.494 C841.732,33.039 840.003,34.911 837.412,34.911 L837.365,34.911 L837.365,34.911 Z" id="Shape"></path>
                <path d="M858.15,34.383 L858.15,26.943 L844.325,26.943 L844.325,22.19 L856.134,3.18 L865.063,3.18 L865.063,21.47 L868.807,21.47 L868.807,26.943 L865.063,26.943 L865.063,34.383 L858.15,34.383 L858.15,34.383 Z M858.15,21.47 L858.15,14.557 C858.15,12.685 858.246,10.765 858.389,8.749 L858.198,8.749 C857.189,10.765 856.374,12.589 855.317,14.557 L851.141,21.374 L851.141,21.47 L858.15,21.47 L858.15,21.47 Z" id="Shape"></path>
                <path d="M894.919,18.638 C894.919,28.286 891.03,34.911 883.062,34.911 C874.998,34.911 871.445,27.662 871.397,18.829 C871.397,9.805 875.237,2.652 883.302,2.652 C891.654,2.652 894.919,10.093 894.919,18.638 L894.919,18.638 Z M878.741,18.829 C878.693,25.982 880.421,29.391 883.254,29.391 C886.086,29.391 887.622,25.838 887.622,18.734 C887.622,11.822 886.134,8.173 883.205,8.173 C880.518,8.173 878.693,11.581 878.741,18.829 L878.741,18.829 Z" id="Shape"></path>
                <path d="M921.559,18.638 C921.559,28.286 917.67,34.911 909.702,34.911 C901.638,34.911 898.085,27.662 898.037,18.829 C898.037,9.805 901.878,2.652 909.942,2.652 C918.294,2.652 921.559,10.093 921.559,18.638 L921.559,18.638 Z M905.381,18.829 C905.333,25.982 907.061,29.391 909.894,29.391 C912.726,29.391 914.262,25.838 914.262,18.734 C914.262,11.822 912.774,8.173 909.845,8.173 C907.157,8.173 905.333,11.581 905.381,18.829 L905.381,18.829 Z" id="Shape"></path>
            </g>
            <g id="Group" transform="translate(544.000000, 0.000000)" fill="#DD1077" sketch:type="MSShapeGroup">
                <path d="M4.94,78.023 C10.68,80.963 19.5,83.903 28.6,83.903 C38.4,83.903 43.58,79.843 43.58,73.683 C43.58,67.803 39.1,64.443 27.76,60.383 C12.08,54.923 1.86,46.243 1.86,32.523 C1.86,16.423 15.3,4.103 37.56,4.103 C48.2,4.103 56.04,6.343 61.64,8.863 L56.88,26.083 C53.1,24.263 46.38,21.604 37.14,21.604 C27.9,21.604 23.42,25.804 23.42,30.704 C23.42,36.724 28.74,39.384 40.92,44.004 C57.58,50.164 65.42,58.844 65.42,72.144 C65.42,87.964 53.24,101.544 27.34,101.544 C16.56,101.544 5.92,98.604 0.6,95.664 L4.94,78.023 L4.94,78.023 Z" id="Shape"></path>
                <path d="M78.719,0.604 L99.999,0.604 L99.999,39.664 L100.278,39.664 C102.518,36.724 105.318,34.344 108.678,32.664 C111.898,30.984 115.818,30.004 119.738,30.004 C133.318,30.004 143.678,39.384 143.678,59.963 L143.678,100.003 L122.398,100.003 L122.398,62.343 C122.398,53.383 119.318,47.223 111.338,47.223 C105.737,47.223 102.237,50.863 100.697,54.643 C100.137,56.043 99.998,57.863 99.998,59.403 L99.998,100.003 L78.718,100.003 L78.718,0.604 L78.719,0.604 Z" id="Shape"></path>
                <path d="M228.379,65.003 C228.379,90.063 210.599,101.543 192.259,101.543 C172.238,101.543 156.839,88.383 156.839,66.263 C156.839,44.143 171.399,30.003 193.379,30.003 C214.379,30.003 228.379,44.423 228.379,65.003 L228.379,65.003 Z M178.818,65.703 C178.818,77.463 183.718,86.283 192.818,86.283 C201.078,86.283 206.398,78.023 206.398,65.703 C206.398,55.483 202.478,45.123 192.818,45.123 C182.599,45.123 178.818,55.623 178.818,65.703 L178.818,65.703 Z" id="Shape"></path>
                <path d="M254.979,31.543 L260.439,59.543 C261.838,66.543 263.239,74.243 264.359,82.083 L264.638,82.083 C266.038,74.243 267.998,66.403 269.678,59.683 L276.958,31.543 L293.758,31.543 L300.618,58.843 C302.437,66.543 304.258,74.243 305.658,82.083 L305.937,82.083 C306.917,74.243 308.318,66.543 309.858,58.703 L315.738,31.543 L336.597,31.543 L315.597,100.002 L295.577,100.002 L289.137,75.922 C287.457,69.202 286.198,63.182 284.797,54.642 L284.517,54.642 C283.257,63.182 281.858,69.622 280.038,75.922 L273.178,100.002 L253.158,100.002 L233.278,31.543 L254.979,31.543 L254.979,31.543 Z" id="Shape"></path>
                <path d="M395.956,98.323 C392.176,100.003 385.036,101.543 376.916,101.543 C354.796,101.543 340.656,87.963 340.656,66.403 C340.656,46.383 354.376,30.003 379.855,30.003 C385.456,30.003 391.616,30.983 396.095,32.663 L392.736,48.483 C390.215,47.363 386.435,46.383 380.836,46.383 C369.636,46.383 362.357,54.363 362.496,65.563 C362.496,78.163 370.895,84.743 381.256,84.743 C386.296,84.743 390.216,83.903 393.436,82.503 L395.956,98.323 L395.956,98.323 Z" id="Shape"></path>
                <path d="M465.396,83.343 C465.396,89.923 465.675,96.223 466.375,100.003 L447.195,100.003 L445.935,93.143 L445.515,93.143 C441.035,98.603 434.035,101.543 425.914,101.543 C412.055,101.543 403.794,91.463 403.794,80.543 C403.794,62.763 419.754,54.223 443.975,54.363 L443.975,53.383 C443.975,49.743 442.015,44.563 431.515,44.563 C424.515,44.563 417.095,46.943 412.615,49.743 L408.695,36.023 C413.455,33.363 422.835,30.003 435.295,30.003 C458.115,30.003 465.396,43.443 465.396,59.543 L465.396,83.343 L465.396,83.343 Z M444.675,67.663 C433.476,67.523 424.795,70.183 424.795,78.443 C424.795,83.903 428.436,86.563 433.195,86.563 C438.515,86.563 442.855,83.063 444.255,78.723 C444.535,77.603 444.675,76.343 444.675,75.083 L444.675,67.663 L444.675,67.663 Z" id="Shape"></path>
                <path d="M482.056,81.383 C485.976,83.763 494.095,86.563 500.396,86.563 C506.835,86.563 509.496,84.323 509.496,80.823 C509.496,77.323 507.396,75.643 499.416,72.983 C485.276,68.223 479.816,60.523 479.956,52.543 C479.956,39.663 490.876,30.003 507.816,30.003 C515.795,30.003 522.936,31.823 527.135,33.923 L523.356,48.623 C520.276,46.943 514.396,44.703 508.515,44.703 C503.335,44.703 500.396,46.803 500.396,50.303 C500.396,53.523 503.055,55.203 511.456,58.143 C524.476,62.623 529.935,69.203 530.076,79.283 C530.076,92.023 519.996,101.543 500.396,101.543 C491.436,101.543 483.456,99.443 478.276,96.643 L482.056,81.383 L482.056,81.383 Z" id="Shape"></path>
                <path d="M559.334,72.563 C560.034,81.383 568.714,85.583 578.654,85.583 C585.933,85.583 591.813,84.603 597.553,82.783 L600.353,97.203 C593.353,100.003 584.813,101.543 575.574,101.543 C552.334,101.543 539.034,87.963 539.034,66.543 C539.034,49.183 549.814,30.003 573.614,30.003 C595.733,30.003 604.134,47.223 604.134,64.163 C604.134,67.803 603.714,71.023 603.434,72.563 L559.334,72.563 L559.334,72.563 Z M584.394,58.003 C584.394,52.823 582.155,44.143 572.354,44.143 C563.394,44.143 559.754,52.263 559.195,58.003 L584.394,58.003 L584.394,58.003 Z" id="Shape"></path>
            </g>
            <g id="Group" transform="translate(684.000000, 122.000000)" fill="#231F20" sketch:type="MSShapeGroup">
                <path d="M0.605,31.066 L16.014,8.888 L16.014,8.696 L2.044,8.696 L2.044,2.647 L25.519,2.647 L25.519,6.872 L10.446,28.762 L10.446,28.954 L25.758,28.954 L25.758,35.002 L0.605,35.002 L0.605,31.066 L0.605,31.066 Z" id="Shape"></path>
                <path d="M34.397,11.529 L36.269,21.13 C36.749,23.53 37.229,26.17 37.613,28.859 L37.71,28.859 C38.189,26.171 38.861,23.483 39.438,21.178 L41.934,11.529 L47.695,11.529 L50.048,20.89 C50.672,23.53 51.296,26.17 51.777,28.859 L51.873,28.859 C52.209,26.171 52.688,23.53 53.217,20.842 L55.234,11.529 L62.386,11.529 L55.186,35.003 L48.321,35.003 L46.113,26.746 C45.537,24.442 45.105,22.378 44.625,19.45 L44.529,19.45 C44.096,22.378 43.617,24.586 42.993,26.746 L40.64,35.003 L33.776,35.003 L26.96,11.529 L34.397,11.529 L34.397,11.529 Z" id="Shape"></path>
                <path d="M70.733,25.594 C70.973,28.618 73.949,30.058 77.357,30.058 C79.853,30.058 81.87,29.722 83.837,29.098 L84.798,34.042 C82.398,35.002 79.469,35.53 76.301,35.53 C68.332,35.53 63.772,30.874 63.772,23.529 C63.772,17.577 67.468,11 75.629,11 C83.213,11 86.094,16.904 86.094,22.713 C86.094,23.961 85.949,25.065 85.854,25.593 L70.733,25.593 L70.733,25.594 Z M79.326,20.602 C79.326,18.826 78.557,15.85 75.197,15.85 C72.125,15.85 70.877,18.634 70.685,20.602 L79.326,20.602 L79.326,20.602 Z" id="Shape"></path>
                <path d="M97.997,5 C97.997,7.016 96.461,8.648 94.06,8.648 C91.756,8.648 90.22,7.016 90.268,5 C90.22,2.888 91.756,1.304 94.108,1.304 C96.461,1.304 97.949,2.888 97.997,5 L97.997,5 Z M90.461,35.003 L90.461,11.529 L97.757,11.529 L97.757,35.003 L90.461,35.003 L90.461,35.003 Z" id="Shape"></path>
                <path d="M111.772,5.145 L111.772,11.529 L117.004,11.529 L117.004,16.905 L111.772,16.905 L111.772,25.402 C111.772,28.234 112.444,29.53 114.652,29.53 C115.661,29.53 116.092,29.482 116.812,29.338 L116.861,34.859 C115.901,35.243 114.173,35.531 112.108,35.531 C109.756,35.531 107.788,34.667 106.635,33.467 C105.291,32.075 104.619,29.819 104.619,26.507 L104.619,16.906 L101.499,16.906 L101.499,11.53 L104.619,11.53 L104.619,7.113 L111.772,5.145 L111.772,5.145 Z" id="Shape"></path>
                <path d="M140.812,29.291 C140.812,31.547 140.909,33.708 141.148,35.003 L134.572,35.003 L134.14,32.651 L133.995,32.651 C132.459,34.523 130.058,35.531 127.274,35.531 C122.522,35.531 119.69,32.075 119.69,28.331 C119.69,22.234 125.162,19.306 133.466,19.354 L133.466,19.018 C133.466,17.77 132.794,15.994 129.194,15.994 C126.795,15.994 124.25,16.81 122.714,17.77 L121.37,13.065 C123.002,12.153 126.219,11.001 130.491,11.001 C138.315,11.001 140.811,15.609 140.811,21.13 L140.811,29.291 L140.812,29.291 Z M133.708,23.914 C129.868,23.866 126.892,24.778 126.892,27.61 C126.892,29.482 128.14,30.394 129.772,30.394 C131.596,30.394 133.084,29.194 133.565,27.706 C133.661,27.322 133.709,26.89 133.709,26.458 L133.709,23.914 L133.708,23.914 Z" id="Shape"></path>
                <path d="M168.701,27.466 C168.701,30.538 168.797,33.034 168.892,35.003 L162.556,35.003 L162.219,31.691 L162.075,31.691 C161.163,33.131 158.955,35.531 154.73,35.531 C149.978,35.531 146.473,32.555 146.473,25.306 L146.473,11.529 L153.818,11.529 L153.818,24.154 C153.818,27.563 154.922,29.627 157.466,29.627 C159.483,29.627 160.634,28.235 161.114,27.083 C161.306,26.651 161.354,26.075 161.354,25.499 L161.354,11.53 L168.699,11.53 L168.699,27.466 L168.701,27.466 Z" id="Shape"></path>
                <path d="M174.507,28.618 C175.852,29.434 178.636,30.394 180.796,30.394 C183.004,30.394 183.916,29.626 183.916,28.426 C183.916,27.226 183.196,26.65 180.46,25.738 C175.611,24.106 173.739,21.466 173.787,18.729 C173.787,14.312 177.531,11 183.34,11 C186.076,11 188.525,11.624 189.965,12.344 L188.668,17.385 C187.612,16.809 185.596,16.041 183.58,16.041 C181.804,16.041 180.796,16.761 180.796,17.961 C180.796,19.065 181.708,19.641 184.588,20.649 C189.053,22.185 190.925,24.441 190.973,27.898 C190.973,32.266 187.517,35.53 180.796,35.53 C177.724,35.53 174.987,34.81 173.211,33.85 L174.507,28.618 L174.507,28.618 Z" id="Shape"></path>
                <path d="M201.003,25.594 C201.243,28.618 204.219,30.058 207.627,30.058 C210.123,30.058 212.14,29.722 214.107,29.098 L215.068,34.042 C212.668,35.002 209.739,35.53 206.571,35.53 C198.602,35.53 194.042,30.874 194.042,23.529 C194.042,17.577 197.738,11 205.899,11 C213.483,11 216.364,16.904 216.364,22.713 C216.364,23.961 216.219,25.065 216.124,25.593 L201.003,25.593 L201.003,25.594 Z M209.596,20.602 C209.596,18.826 208.827,15.85 205.467,15.85 C202.395,15.85 201.147,18.634 200.955,20.602 L209.596,20.602 L209.596,20.602 Z" id="Shape"></path>
                <path d="M220.73,19.018 C220.73,16.09 220.633,13.594 220.538,11.529 L226.875,11.529 L227.211,14.745 L227.355,14.745 C228.315,13.257 230.715,11.001 234.604,11.001 C239.404,11.001 243.004,14.169 243.004,21.082 L243.004,35.003 L235.707,35.003 L235.707,21.994 C235.707,18.97 234.651,16.906 232.011,16.906 C229.995,16.906 228.795,18.298 228.315,19.642 C228.124,20.122 228.027,20.794 228.027,21.466 L228.027,35.003 L220.731,35.003 L220.731,19.018 L220.73,19.018 Z" id="Shape"></path>
                <path d="M271.612,0.92 L271.612,27.994 C271.612,30.635 271.708,33.419 271.803,35.003 L265.323,35.003 L264.987,31.547 L264.891,31.547 C263.403,34.187 260.571,35.531 257.546,35.531 C251.978,35.531 247.513,30.779 247.513,23.482 C247.465,15.561 252.409,11.001 258.026,11.001 C260.907,11.001 263.163,12.009 264.219,13.641 L264.315,13.641 L264.315,0.92 L271.612,0.92 L271.612,0.92 Z M264.315,21.466 C264.315,21.082 264.267,20.554 264.219,20.17 C263.786,18.202 262.202,16.57 259.947,16.57 C256.635,16.57 254.906,19.546 254.906,23.242 C254.906,27.226 256.875,29.723 259.898,29.723 C262.01,29.723 263.691,28.283 264.123,26.219 C264.268,25.691 264.315,25.163 264.315,24.539 L264.315,21.466 L264.315,21.466 Z" id="Shape"></path>
                <path d="M278.282,35.003 L278.282,16.905 L275.21,16.905 L275.21,11.529 L278.282,11.529 L278.282,10.617 C278.282,7.785 279.146,4.664 281.259,2.744 C283.083,1.016 285.627,0.392 287.739,0.392 C289.371,0.392 290.619,0.584 291.628,0.872 L291.34,6.488 C290.716,6.296 289.947,6.152 288.987,6.152 C286.587,6.152 285.579,8.024 285.579,10.328 L285.579,11.528 L290.283,11.528 L290.283,16.904 L285.627,16.904 L285.627,35.002 L278.282,35.002 L278.282,35.003 Z" id="Shape"></path>
                <path d="M315.964,27.466 C315.964,30.538 316.06,33.034 316.155,35.003 L309.819,35.003 L309.482,31.691 L309.338,31.691 C308.426,33.131 306.218,35.531 301.993,35.531 C297.241,35.531 293.736,32.555 293.736,25.306 L293.736,11.529 L301.081,11.529 L301.081,24.154 C301.081,27.563 302.185,29.627 304.729,29.627 C306.746,29.627 307.897,28.235 308.377,27.083 C308.568,26.651 308.617,26.075 308.617,25.499 L308.617,11.53 L315.962,11.53 L315.962,27.466 L315.964,27.466 Z M300.026,8.265 C298.105,8.265 296.618,6.729 296.618,4.905 C296.618,2.937 298.154,1.497 300.074,1.497 C301.898,1.497 303.338,2.937 303.338,4.905 C303.338,6.729 301.946,8.265 300.074,8.265 L300.026,8.265 L300.026,8.265 Z M310.059,8.265 C308.187,8.265 306.747,6.729 306.747,4.905 C306.747,2.937 308.234,1.497 310.155,1.497 C312.027,1.497 313.467,2.937 313.467,4.905 C313.467,6.729 312.075,8.265 310.155,8.265 L310.059,8.265 L310.059,8.265 Z" id="Shape"></path>
                <path d="M321.817,19.018 C321.817,16.09 321.72,13.594 321.625,11.529 L327.962,11.529 L328.298,14.745 L328.442,14.745 C329.402,13.257 331.802,11.001 335.691,11.001 C340.491,11.001 344.091,14.169 344.091,21.082 L344.091,35.003 L336.794,35.003 L336.794,21.994 C336.794,18.97 335.738,16.906 333.098,16.906 C331.082,16.906 329.882,18.298 329.402,19.642 C329.211,20.122 329.114,20.794 329.114,21.466 L329.114,35.003 L321.818,35.003 L321.818,19.018 L321.817,19.018 Z" id="Shape"></path>
                <path d="M350.761,35.003 L350.761,16.905 L347.689,16.905 L347.689,11.529 L350.761,11.529 L350.761,10.617 C350.761,7.785 351.625,4.664 353.738,2.744 C355.562,1.016 358.106,0.392 360.218,0.392 C361.85,0.392 363.098,0.584 364.107,0.872 L363.819,6.488 C363.195,6.296 362.426,6.152 361.466,6.152 C359.066,6.152 358.058,8.024 358.058,10.328 L358.058,11.528 L362.762,11.528 L362.762,16.904 L358.106,16.904 L358.106,35.002 L350.761,35.002 L350.761,35.003 Z" id="Shape"></path>
                <path d="M364.439,30.827 L371.832,21.562 C373.177,19.978 374.232,18.826 375.577,17.386 L375.577,17.29 L365.256,17.29 L365.256,11.529 L384.458,11.529 L384.458,15.898 L377.401,24.778 C376.104,26.314 374.904,27.802 373.56,29.099 L373.56,29.195 L384.841,29.195 L384.841,35.004 L364.439,35.004 L364.439,30.827 L364.439,30.827 Z" id="Shape"></path>
                <path d="M394.153,25.594 C394.393,28.618 397.369,30.058 400.777,30.058 C403.273,30.058 405.29,29.722 407.257,29.098 L408.218,34.042 C405.818,35.002 402.889,35.53 399.721,35.53 C391.752,35.53 387.192,30.874 387.192,23.529 C387.192,17.577 390.888,11 399.049,11 C406.633,11 409.514,16.904 409.514,22.713 C409.514,23.961 409.369,25.065 409.274,25.593 L394.153,25.593 L394.153,25.594 Z M402.746,20.602 C402.746,18.826 401.977,15.85 398.617,15.85 C395.545,15.85 394.297,18.634 394.105,20.602 L402.746,20.602 L402.746,20.602 Z" id="Shape"></path>
                <path d="M413.881,0.92 L421.177,0.92 L421.177,14.313 L421.274,14.313 C422.042,13.305 423.002,12.489 424.154,11.913 C425.258,11.337 426.602,11.001 427.946,11.001 C432.602,11.001 436.155,14.217 436.155,21.274 L436.155,35.003 L428.858,35.003 L428.858,22.09 C428.858,19.018 427.802,16.905 425.066,16.905 C423.146,16.905 421.946,18.153 421.418,19.449 C421.226,19.929 421.178,20.553 421.178,21.081 L421.178,35.002 L413.882,35.002 L413.882,0.92 L413.881,0.92 Z" id="Shape"></path>
                <path d="M442.009,19.018 C442.009,16.09 441.912,13.594 441.817,11.529 L448.154,11.529 L448.49,14.745 L448.634,14.745 C449.594,13.257 451.994,11.001 455.883,11.001 C460.683,11.001 464.283,14.169 464.283,21.082 L464.283,35.003 L456.986,35.003 L456.986,21.994 C456.986,18.97 455.93,16.906 453.29,16.906 C451.274,16.906 450.074,18.298 449.594,19.642 C449.403,20.122 449.306,20.794 449.306,21.466 L449.306,35.003 L442.01,35.003 L442.01,19.018 L442.009,19.018 Z" id="Shape"></path>
            </g>
            <path d="M653.229,483.115 L795.6,394.435 L594.956,267.712 L594.956,267.84 L594.066,269.621 L594.066,445.328 L594.066,445.454 L653.229,483.115 Z" id="Shape" fill="#FFFFFF" sketch:type="MSShapeGroup"></path>
            <path d="M653.229,483.115 L795.6,394.435 L594.956,267.712 L594.956,267.84 L594.066,269.621 L594.066,445.328 L594.066,445.454 L653.229,483.115 Z" id="Shape" stroke="#000000" stroke-width="5" sketch:type="MSShapeGroup"></path>
            <path d="M884.789,339.089 L684.399,212.239 L594.956,267.712 L795.601,394.435 L884.789,339.089 Z" id="Shape" fill="#FFFFFF" sketch:type="MSShapeGroup"></path>
            <path d="M884.789,339.089 L684.399,212.239 L594.956,267.712 L795.601,394.435 L884.789,339.089 Z" id="Shape" stroke="#000000" stroke-width="5" sketch:type="MSShapeGroup"></path>
            <path d="M594.066,269.621 L594.956,267.84 L394.567,392.653 L535.54,481.843 L594.066,445.328 L594.066,269.621 Z" id="Shape" fill="#FFFFFF" sketch:type="MSShapeGroup"></path>
            <path d="M594.066,269.621 L594.956,267.84 L394.567,392.653 L535.54,481.843 L594.066,445.328 L594.066,269.621 Z" id="Shape" stroke="#000000" stroke-width="5" sketch:type="MSShapeGroup"></path>
            <path d="M594.956,267.839 L594.956,267.712 L510.093,214.021 L309.576,339.089 L394.566,392.653 L594.956,267.839 Z" id="Shape" fill="#FFFFFF" sketch:type="MSShapeGroup"></path>
            <path d="M594.956,267.839 L594.956,267.712 L510.093,214.021 L309.576,339.089 L394.566,392.653 L594.956,267.839 Z" id="Shape" stroke="#000000" stroke-width="5" sketch:type="MSShapeGroup"></path>
            <path d="M394.567,392.653 L300.925,450.925 L394.439,509.833 L501.569,577.649 L594.065,520.139 L594.065,518.993 L535.54,481.842 L394.567,392.653 Z" id="Shape" fill="#FFFFFF" sketch:type="MSShapeGroup"></path>
            <path d="M394.567,392.653 L300.925,450.925 L394.439,509.833 L501.569,577.649 L594.065,520.139 L594.065,518.993 L535.54,481.842 L394.567,392.653 Z" id="Shape" stroke="#000000" stroke-width="5" sketch:type="MSShapeGroup"></path>
            <path d="M594.066,445.454 L594.066,445.327 L535.54,481.842 L594.066,518.993 L594.066,518.104 L594.066,518.993 L594.956,519.629 L653.228,483.115 L594.066,445.454 Z" id="Shape" fill="#FFFFFF" sketch:type="MSShapeGroup"></path>
            <path d="M594.066,445.454 L594.066,445.327 L535.54,481.842 L594.066,518.993 L594.066,518.104 L594.066,518.993 L594.956,519.629 L653.228,483.115 L594.066,445.454 Z" id="Shape" stroke="#000000" stroke-width="5" sketch:type="MSShapeGroup"></path>
            <path d="M394.567,572.05 L594.065,698.136 L594.065,520.139 L501.569,577.649 L394.439,509.833 L394.567,572.05 Z" id="Shape" fill="#FFFFFF" sketch:type="MSShapeGroup"></path>
            <path d="M394.567,572.05 L594.065,698.136 L594.065,520.139 L501.569,577.649 L394.439,509.833 L394.567,572.05 Z" id="Shape" stroke="#000000" stroke-width="5" sketch:type="MSShapeGroup"></path>
            <path id="Shape" fill="#FFFFFF" sketch:type="MSShapeGroup" d="M795.091,513.523 L795.727,513.523 L795.727,513.268 L795.091,513.523 Z"></path>
            <path id="Shape" stroke="#000000" stroke-width="5" sketch:type="MSShapeGroup" d="M795.091,513.523 L795.727,513.523 L795.727,513.268 L795.091,513.523 Z"></path>
            <path d="M795.728,513.523 L795.091,513.523 L689.235,579.302 L594.956,519.63 L594.066,520.139 L594.066,698.136 L594.956,698.646 L795.728,573.831 L795.728,573.195 L795.728,513.523 Z" id="Shape" fill="#FFFFFF" sketch:type="MSShapeGroup"></path>
            <path d="M795.728,513.523 L795.091,513.523 L689.235,579.302 L594.956,519.63 L594.066,520.139 L594.066,698.136 L594.956,698.646 L795.728,573.831 L795.728,573.195 L795.728,513.523 Z" id="Shape" stroke="#000000" stroke-width="5" sketch:type="MSShapeGroup"></path>
            <path d="M795.091,513.523 L795.727,512.632 L889.625,454.105 L795.6,394.435 L653.228,483.114 L594.956,519.63 L689.235,579.302 L795.091,513.523 Z" id="Shape" fill="#FFFFFF" sketch:type="MSShapeGroup"></path>
            <path d="M795.091,513.523 L795.727,512.632 L889.625,454.105 L795.6,394.435 L653.228,483.114 L594.956,519.63 L689.235,579.302 L795.091,513.523 Z" id="Shape" stroke="#000000" stroke-width="5" sketch:type="MSShapeGroup"></path>
            <path d="M394.44,509.833 L501.569,577.648 L594.066,520.139" id="Shape" fill="#FFFFFF" sketch:type="MSShapeGroup"></path>
            <path d="M394.44,509.833 L501.569,577.648 L594.066,520.139" id="Shape" stroke="#000000" stroke-width="5" sketch:type="MSShapeGroup"></path>
            <path id="Shape" fill="#FFFFFF" sketch:type="MSShapeGroup" d="M795.091,513.523 L795.727,513.267 L795.091,513.523 L795.091,513.523 Z"></path>
            <path d="M795.091,513.523 L795.727,513.268" id="Shape" stroke="#000000" stroke-width="5" sketch:type="MSShapeGroup"></path>
            <path d="M795.091,513.523 L795.727,512.63 L795.091,513.523 L795.091,513.523 Z" id="Shape" fill="#FFFFFF" sketch:type="MSShapeGroup"></path>
            <path d="M795.091,513.523 L795.727,512.632" id="Shape" stroke="#000000" stroke-width="5" sketch:type="MSShapeGroup"></path>
            <path id="Shape" fill="#FFFFFF" sketch:type="MSShapeGroup" d="M795.727,513.268 L795.727,512.632 L795.727,513.268 L795.727,513.268 Z"></path>
            <path d="M795.728,512.632 L795.728,513.268" id="Shape" stroke="#000000" stroke-width="5" sketch:type="MSShapeGroup"></path>
            <path d="M653.229,483.115 L795.6,394.435" id="Shape" fill="#FFFFFF" sketch:type="MSShapeGroup"></path>
            <path d="M653.229,483.115 L795.6,394.435" id="Shape" stroke="#000000" stroke-width="5" sketch:type="MSShapeGroup"></path>
            <path d="M795.601,394.435 L884.789,339.089 L684.399,212.239 L594.957,267.712" id="Shape" fill="#FFFFFF" sketch:type="MSShapeGroup"></path>
            <path d="M795.601,394.435 L884.789,339.089 L684.399,212.239 L594.957,267.712" id="Shape" stroke="#000000" stroke-width="5" sketch:type="MSShapeGroup"></path>
            <path d="M795.601,394.435 L889.625,454.106 L795.728,512.632" id="Shape" fill="#FFFFFF" sketch:type="MSShapeGroup"></path>
            <path d="M795.601,394.435 L889.625,454.106 L795.728,512.632" id="Shape" stroke="#000000" stroke-width="5" sketch:type="MSShapeGroup"></path>
            <path d="M594.065,269.62 L594.065,445.327 L594.956,267.839 L594.065,269.62 Z" id="Shape" fill="#FFFFFF" sketch:type="MSShapeGroup"></path>
            <path d="M594.066,445.327 L594.066,269.621 L594.956,267.839" id="Shape" stroke="#000000" stroke-width="5" sketch:type="MSShapeGroup"></path>
            <path id="Shape" fill="#FFFFFF" sketch:type="MSShapeGroup" d="M594.956,267.839 L594.956,267.712 L594.956,267.839 L594.956,267.839 Z"></path>
            <path d="M594.956,267.839 L594.956,267.712" id="Shape" stroke="#000000" stroke-width="5" sketch:type="MSShapeGroup"></path>
            <path d="M394.567,392.653 L309.577,339.089 L510.094,214.02 L594.957,267.712" id="Shape" fill="#FFFFFF" sketch:type="MSShapeGroup"></path>
            <path d="M394.567,392.653 L309.577,339.089 L510.094,214.02 L594.957,267.712" id="Shape" stroke="#000000" stroke-width="5" sketch:type="MSShapeGroup"></path>
            <path d="M394.567,392.653 L300.925,450.925 L394.439,509.833" id="Shape" fill="#FFFFFF" sketch:type="MSShapeGroup"></path>
            <path d="M394.567,392.653 L300.925,450.925 L394.439,509.833" id="Shape" stroke="#000000" stroke-width="5" sketch:type="MSShapeGroup"></path>
            <path d="M594.066,445.327 L594.066,445.455 L653.228,483.114" id="Shape" fill="#FFFFFF" sketch:type="MSShapeGroup"></path>
            <path d="M594.066,445.327 L594.066,445.455 L653.228,483.114" id="Shape" stroke="#000000" stroke-width="5" sketch:type="MSShapeGroup"></path>
            <path d="M594.956,519.63 L594.066,518.993 L594.956,519.63 L594.956,519.63 Z" id="Shape" fill="#FFFFFF" sketch:type="MSShapeGroup"></path>
            <path d="M594.066,518.993 L594.956,519.629" id="Shape" stroke="#000000" stroke-width="5" sketch:type="MSShapeGroup"></path>
            <path id="Shape" fill="#FFFFFF" sketch:type="MSShapeGroup" d="M594.065,518.993 L594.065,518.103 L594.065,518.993 L594.065,518.993 Z"></path>
            <path d="M594.066,518.104 L594.066,518.993" id="Shape" stroke="#000000" stroke-width="5" sketch:type="MSShapeGroup"></path>
            <path d="M594.065,520.139 L594.955,519.63 L594.065,520.139 L594.065,520.139 Z" id="Shape" fill="#FFFFFF" sketch:type="MSShapeGroup"></path>
            <path d="M594.066,520.139 L594.956,519.63" id="Shape" stroke="#000000" stroke-width="5" sketch:type="MSShapeGroup"></path>
            <path id="Shape" fill="#FFFFFF" sketch:type="MSShapeGroup" d="M594.065,520.139 L594.065,518.993 L594.065,520.139 L594.065,520.139 Z"></path>
            <path d="M594.066,518.993 L594.066,520.139" id="Shape" stroke="#000000" stroke-width="5" sketch:type="MSShapeGroup"></path>
            <path d="M535.54,481.842 L594.065,518.993" id="Shape" fill="#FFFFFF" sketch:type="MSShapeGroup"></path>
            <path d="M535.54,481.842 L594.065,518.993" id="Shape" stroke="#000000" stroke-width="5" sketch:type="MSShapeGroup"></path>
            <path d="M535.54,481.842 L594.065,445.327" id="Shape" fill="#FFFFFF" sketch:type="MSShapeGroup"></path>
            <path d="M535.54,481.842 L594.065,445.327" id="Shape" stroke="#000000" stroke-width="5" sketch:type="MSShapeGroup"></path>
            <path d="M394.567,392.653 L535.54,481.842" id="Shape" fill="#FFFFFF" sketch:type="MSShapeGroup"></path>
            <path d="M394.567,392.653 L535.54,481.842" id="Shape" stroke="#000000" stroke-width="5" sketch:type="MSShapeGroup"></path>
            <path d="M394.567,392.653 L594.957,267.839" id="Shape" fill="#FFFFFF" sketch:type="MSShapeGroup"></path>
            <path d="M394.567,392.653 L594.957,267.839" id="Shape" stroke="#000000" stroke-width="5" sketch:type="MSShapeGroup"></path>
            <path d="M594.956,698.645 L594.066,698.136 L594.956,698.645 L594.956,698.645 Z" id="Shape" fill="#FFFFFF" sketch:type="MSShapeGroup"></path>
            <path d="M594.066,698.136 L594.956,698.645" id="Shape" stroke="#000000" stroke-width="5" sketch:type="MSShapeGroup"></path>
            <path d="M594.065,699.281 L594.956,698.646 L594.065,698.135 L594.065,699.281 Z" id="Shape" fill="#FFFFFF" sketch:type="MSShapeGroup"></path>
            <path d="M594.066,698.136 L594.066,699.282 L594.956,698.645" id="Shape" stroke="#000000" stroke-width="5" sketch:type="MSShapeGroup"></path>
            <path d="M394.44,509.833 L394.567,572.05 L594.066,698.137" id="Shape" fill="#FFFFFF" sketch:type="MSShapeGroup"></path>
            <path d="M394.44,509.833 L394.567,572.05 L594.066,698.137" id="Shape" stroke="#000000" stroke-width="5" sketch:type="MSShapeGroup"></path>
            <path id="Shape" fill="#FFFFFF" sketch:type="MSShapeGroup" d="M795.727,573.832 L795.727,573.196 L795.727,573.832 L795.727,573.832 Z"></path>
            <path d="M795.728,573.195 L795.728,573.832" id="Shape" stroke="#000000" stroke-width="5" sketch:type="MSShapeGroup"></path>
            <path id="Shape" fill="#FFFFFF" sketch:type="MSShapeGroup" d="M795.727,573.832 L796.11,573.576 L795.727,573.196 L795.727,573.832 Z"></path>
            <path id="Shape" stroke="#000000" stroke-width="5" sketch:type="MSShapeGroup" d="M795.728,573.832 L796.11,573.576 L795.728,573.196"></path>
            <path d="M594.956,267.712 L795.601,394.435" id="Shape" fill="#FFFFFF" sketch:type="MSShapeGroup"></path>
            <path d="M594.956,267.712 L795.601,394.435" id="Shape" stroke="#000000" stroke-width="5" sketch:type="MSShapeGroup"></path>
            <path d="M594.956,698.646 L795.728,573.831" id="Shape" fill="#FFFFFF" sketch:type="MSShapeGroup"></path>
            <path d="M594.956,698.646 L795.728,573.831" id="Shape" stroke="#000000" stroke-width="5" sketch:type="MSShapeGroup"></path>
            <path id="Shape" fill="#FFFFFF" sketch:type="MSShapeGroup" d="M594.065,698.136 L594.065,520.139 L594.065,698.136 L594.065,698.136 Z"></path>
            <path d="M594.066,520.139 L594.066,698.136" id="Shape" stroke="#000000" stroke-width="5" sketch:type="MSShapeGroup"></path>
            <path d="M594.956,519.629 L689.235,579.301 L795.091,513.523" id="Shape" fill="#FFFFFF" sketch:type="MSShapeGroup"></path>
            <path d="M594.956,519.629 L689.235,579.301 L795.091,513.523" id="Shape" stroke="#000000" stroke-width="5" sketch:type="MSShapeGroup"></path>
            <path d="M594.956,519.629 L653.229,483.115" id="Shape" fill="#FFFFFF" sketch:type="MSShapeGroup"></path>
            <path d="M594.956,519.629 L653.229,483.115" id="Shape" stroke="#000000" stroke-width="5" sketch:type="MSShapeGroup"></path>
            <path id="Shape" fill="#FFFFFF" sketch:type="MSShapeGroup" d="M795.727,513.523 L795.727,573.196 L795.727,513.268 L795.727,513.523 Z"></path>
            <path id="Shape" stroke="#000000" stroke-width="5" sketch:type="MSShapeGroup" d="M795.728,513.268 L795.728,513.523 L795.728,573.195"></path>
            <path id="Shape" fill="#FFFFFF" sketch:type="MSShapeGroup" d="M795.727,573.195 L795.727,513.523 L795.727,573.195 L795.727,573.195 Z"></path>
            <path d="M795.728,573.195 L795.728,513.523" id="Shape" stroke="#000000" stroke-width="5" sketch:type="MSShapeGroup"></path>
            <path id="Shape" fill="#FFFFFF" sketch:type="MSShapeGroup" d="M795.727,513.523 L795.727,513.267 L795.727,513.523 L795.727,513.523 Z"></path>
            <path d="M795.728,513.523 L795.728,513.268" id="Shape" stroke="#000000" stroke-width="5" sketch:type="MSShapeGroup"></path>
            <path d="M681.2,454.445 L681.2,383.236 L641.323,408.05 L641.323,479.259 L681.2,454.445 Z" id="Shape" fill="#FFFFFF" sketch:type="MSShapeGroup"></path>
            <path d="M681.2,454.445 L681.2,383.236 L641.323,408.05 L641.323,479.259 L681.2,454.445 Z" id="Shape" stroke="#783B8C" stroke-width="5" sketch:type="MSShapeGroup"></path>
            <path d="M641.324,479.259 L641.324,408.05 L554.942,353.493 L554.942,424.702 L641.324,479.259 Z" id="Shape" fill="#FFFFFF" sketch:type="MSShapeGroup"></path>
            <path d="M641.324,479.259 L641.324,408.05 L554.942,353.493 L554.942,424.702 L641.324,479.259 Z" id="Shape" stroke="#783B8C" stroke-width="5" sketch:type="MSShapeGroup"></path>
            <path d="M681.2,383.236 L681.2,382.798 L595.257,328.351 L554.941,353.493 L641.323,408.05 L681.2,383.236 Z" id="Shape" fill="#FFFFFF" sketch:type="MSShapeGroup"></path>
            <path d="M681.2,383.236 L681.2,382.798 L595.257,328.351 L554.941,353.493 L641.323,408.05 L681.2,383.236 Z" id="Shape" stroke="#783B8C" stroke-width="5" sketch:type="MSShapeGroup"></path>
            <path d="M554.942,353.493 L595.257,328.352 L681.201,382.798 L681.201,383.236" id="Shape" fill="#FFFFFF" sketch:type="MSShapeGroup"></path>
            <path d="M554.942,353.493 L595.257,328.352 L681.201,382.798 L681.201,383.236" id="Shape" stroke="#783B8C" stroke-width="5" sketch:type="MSShapeGroup"></path>
            <path d="M641.324,479.259 L681.201,454.445 L681.201,383.236" id="Shape" fill="#FFFFFF" sketch:type="MSShapeGroup"></path>
            <path d="M641.324,479.259 L681.201,454.445 L681.201,383.236" id="Shape" stroke="#783B8C" stroke-width="5" sketch:type="MSShapeGroup"></path>
            <path id="Shape" fill="#FFFFFF" sketch:type="MSShapeGroup" d="M641.324,479.259 L641.324,408.05 L641.324,479.259 L641.324,479.259 Z"></path>
            <path d="M641.324,479.259 L641.324,408.05" id="Shape" stroke="#783B8C" stroke-width="5" sketch:type="MSShapeGroup"></path>
            <path d="M554.942,353.493 L554.942,424.702 L641.323,479.259" id="Shape" fill="#FFFFFF" sketch:type="MSShapeGroup"></path>
            <path d="M554.942,353.493 L554.942,424.702 L641.323,479.259" id="Shape" stroke="#783B8C" stroke-width="5" sketch:type="MSShapeGroup"></path>
            <path d="M641.324,408.05 L554.942,353.493" id="Shape" fill="#FFFFFF" sketch:type="MSShapeGroup"></path>
            <path d="M641.324,408.05 L554.942,353.493" id="Shape" stroke="#783B8C" stroke-width="5" sketch:type="MSShapeGroup"></path>
            <path d="M681.2,383.236 L641.323,408.05" id="Shape" fill="#FFFFFF" sketch:type="MSShapeGroup"></path>
            <path d="M681.2,383.236 L641.323,408.05" id="Shape" stroke="#783B8C" stroke-width="5" sketch:type="MSShapeGroup"></path>
            <path d="M788.032,549.167 L788.032,463.015 L739.786,493.036 L739.786,579.188 L788.032,549.167 Z" id="Shape" fill="#FFFFFF" sketch:type="MSShapeGroup"></path>
            <path d="M788.032,549.167 L788.032,463.015 L739.786,493.036 L739.786,579.188 L788.032,549.167 Z" id="Shape" stroke="#783B8C" stroke-width="5" sketch:type="MSShapeGroup"></path>
            <path d="M739.787,579.188 L739.787,493.036 L635.278,427.03 L635.278,513.182 L739.787,579.188 Z" id="Shape" fill="#FFFFFF" sketch:type="MSShapeGroup"></path>
            <path d="M739.787,579.188 L739.787,493.036 L635.278,427.03 L635.278,513.182 L739.787,579.188 Z" id="Shape" stroke="#783B8C" stroke-width="5" sketch:type="MSShapeGroup"></path>
            <path d="M788.032,463.015 L788.032,462.485 L684.053,396.611 L635.277,427.03 L739.786,493.036 L788.032,463.015 Z" id="Shape" fill="#FFFFFF" sketch:type="MSShapeGroup"></path>
            <path d="M788.032,463.015 L788.032,462.485 L684.053,396.611 L635.277,427.03 L739.786,493.036 L788.032,463.015 Z" id="Shape" stroke="#783B8C" stroke-width="5" sketch:type="MSShapeGroup"></path>
            <path id="Shape" fill="#FFFFFF" sketch:type="MSShapeGroup" d="M739.786,579.188 L739.786,493.037 L739.786,579.188 L739.786,579.188 Z"></path>
            <path d="M739.787,579.188 L739.787,493.036" id="Shape" stroke="#783B8C" stroke-width="5" sketch:type="MSShapeGroup"></path>
            <path d="M635.277,427.03 L635.277,513.182 L739.786,579.188" id="Shape" fill="#FFFFFF" sketch:type="MSShapeGroup"></path>
            <path d="M635.277,427.03 L635.277,513.182 L739.786,579.188" id="Shape" stroke="#783B8C" stroke-width="5" sketch:type="MSShapeGroup"></path>
            <path d="M739.787,493.036 L635.278,427.03" id="Shape" fill="#FFFFFF" sketch:type="MSShapeGroup"></path>
            <path d="M739.787,493.036 L635.278,427.03" id="Shape" stroke="#783B8C" stroke-width="5" sketch:type="MSShapeGroup"></path>
            <path d="M788.032,463.015 L739.786,493.036" id="Shape" fill="#FFFFFF" sketch:type="MSShapeGroup"></path>
            <path d="M788.032,463.015 L739.786,493.036" id="Shape" stroke="#783B8C" stroke-width="5" sketch:type="MSShapeGroup"></path>
            <path d="M619.598,475.883 L619.598,400.09 L577.153,426.501 L577.153,502.295 L619.598,475.883 Z" id="Shape" fill="#FFFFFF" sketch:type="MSShapeGroup"></path>
            <path d="M619.598,475.883 L619.598,400.09 L577.153,426.501 L577.153,502.295 L619.598,475.883 Z" id="Shape" stroke="#783B8C" stroke-width="5" sketch:type="MSShapeGroup"></path>
            <path d="M577.153,502.295 L577.153,426.502 L485.21,368.432 L485.21,444.226 L577.153,502.295 Z" id="Shape" fill="#FFFFFF" sketch:type="MSShapeGroup"></path>
            <path d="M577.153,502.295 L577.153,426.502 L485.21,368.432 L485.21,444.226 L577.153,502.295 Z" id="Shape" stroke="#783B8C" stroke-width="5" sketch:type="MSShapeGroup"></path>
            <path d="M619.598,400.091 L619.598,399.625 L528.12,341.672 L485.21,368.433 L577.153,426.501 L619.598,400.091 Z" id="Shape" fill="#FFFFFF" sketch:type="MSShapeGroup"></path>
            <path d="M619.598,400.091 L619.598,399.625 L528.12,341.672 L485.21,368.433 L577.153,426.501 L619.598,400.091 Z" id="Shape" stroke="#783B8C" stroke-width="5" sketch:type="MSShapeGroup"></path>
            <path id="Shape" fill="#FFFFFF" sketch:type="MSShapeGroup" d="M577.153,502.295 L577.153,426.501 L577.153,502.295 L577.153,502.295 Z"></path>
            <path d="M577.153,502.295 L577.153,426.502" id="Shape" stroke="#783B8C" stroke-width="5" sketch:type="MSShapeGroup"></path>
            <path d="M577.153,426.501 L485.21,368.433" id="Shape" fill="#FFFFFF" sketch:type="MSShapeGroup"></path>
            <path d="M577.153,426.501 L485.21,368.433" id="Shape" stroke="#783B8C" stroke-width="5" sketch:type="MSShapeGroup"></path>
            <path d="M619.598,400.091 L577.153,426.501" id="Shape" fill="#FFFFFF" sketch:type="MSShapeGroup"></path>
            <path d="M619.598,400.091 L577.153,426.501" id="Shape" stroke="#783B8C" stroke-width="5" sketch:type="MSShapeGroup"></path>
            <path d="M792.992,528.063 L792.992,455.158 L752.165,480.562 L752.165,553.468 L792.992,528.063 Z" id="Shape" fill="#FFFFFF" sketch:type="MSShapeGroup"></path>
            <path d="M792.992,528.063 L792.992,455.158 L752.165,480.562 L752.165,553.468 L792.992,528.063 Z" id="Shape" stroke="#783B8C" stroke-width="5" sketch:type="MSShapeGroup"></path>
            <path d="M752.165,553.469 L752.165,480.562 L663.725,424.706 L663.725,497.612 L752.165,553.469 Z" id="Shape" fill="#FFFFFF" sketch:type="MSShapeGroup"></path>
            <path d="M752.165,553.469 L752.165,480.562 L663.725,424.706 L663.725,497.612 L752.165,553.469 Z" id="Shape" stroke="#783B8C" stroke-width="5" sketch:type="MSShapeGroup"></path>
            <path d="M792.992,455.158 L792.992,454.71 L705,398.964 L663.725,424.706 L752.165,480.562 L792.992,455.158 Z" id="Shape" fill="#FFFFFF" sketch:type="MSShapeGroup"></path>
            <path d="M792.992,455.158 L792.992,454.71 L705,398.964 L663.725,424.706 L752.165,480.562 L792.992,455.158 Z" id="Shape" stroke="#783B8C" stroke-width="5" sketch:type="MSShapeGroup"></path>
            <path id="Shape" fill="#FFFFFF" sketch:type="MSShapeGroup" d="M752.165,553.469 L752.165,480.563 L752.165,553.469 L752.165,553.469 Z"></path>
            <path d="M752.165,553.469 L752.165,480.562" id="Shape" stroke="#783B8C" stroke-width="5" sketch:type="MSShapeGroup"></path>
            <path d="M752.165,480.562 L663.725,424.706" id="Shape" fill="#FFFFFF" sketch:type="MSShapeGroup"></path>
            <path d="M752.165,480.562 L663.725,424.706" id="Shape" stroke="#783B8C" stroke-width="5" sketch:type="MSShapeGroup"></path>
            <path d="M792.992,455.158 L752.165,480.562" id="Shape" fill="#FFFFFF" sketch:type="MSShapeGroup"></path>
            <path d="M792.992,455.158 L752.165,480.562" id="Shape" stroke="#783B8C" stroke-width="5" sketch:type="MSShapeGroup"></path>
            <path d="M717.798,578.798 L717.798,492.329 L669.376,522.461 L669.376,608.928 L717.798,578.798 Z" id="Shape" fill="#FFFFFF" sketch:type="MSShapeGroup"></path>
            <path d="M717.798,578.798 L717.798,492.329 L669.376,522.461 L669.376,608.928 L717.798,578.798 Z" id="Shape" stroke="#783B8C" stroke-width="5" sketch:type="MSShapeGroup"></path>
            <path d="M669.376,608.929 L669.376,522.46 L564.484,456.213 L564.484,542.68 L669.376,608.929 Z" id="Shape" fill="#FFFFFF" sketch:type="MSShapeGroup"></path>
            <path d="M669.376,608.929 L669.376,522.46 L564.484,456.213 L564.484,542.68 L669.376,608.929 Z" id="Shape" stroke="#783B8C" stroke-width="5" sketch:type="MSShapeGroup"></path>
            <path d="M717.798,492.329 L717.798,491.797 L613.438,425.683 L564.484,456.213 L669.376,522.461 L717.798,492.329 Z" id="Shape" fill="#FFFFFF" sketch:type="MSShapeGroup"></path>
            <path d="M717.798,492.329 L717.798,491.797 L613.438,425.683 L564.484,456.213 L669.376,522.461 L717.798,492.329 Z" id="Shape" stroke="#783B8C" stroke-width="5" sketch:type="MSShapeGroup"></path>
            <path id="Shape" fill="#FFFFFF" sketch:type="MSShapeGroup" d="M669.376,608.929 L669.376,522.46 L669.376,608.929 L669.376,608.929 Z"></path>
            <path d="M669.376,608.929 L669.376,522.46" id="Shape" stroke="#783B8C" stroke-width="5" sketch:type="MSShapeGroup"></path>
            <path d="M669.376,522.461 L564.484,456.214" id="Shape" fill="#FFFFFF" sketch:type="MSShapeGroup"></path>
            <path d="M669.376,522.461 L564.484,456.214" id="Shape" stroke="#783B8C" stroke-width="5" sketch:type="MSShapeGroup"></path>
            <path d="M717.798,492.329 L669.376,522.461" id="Shape" fill="#FFFFFF" sketch:type="MSShapeGroup"></path>
            <path d="M717.798,492.329 L669.376,522.461" id="Shape" stroke="#783B8C" stroke-width="5" sketch:type="MSShapeGroup"></path>
            <path d="M551.375,519.693 L551.375,448.551 L511.534,473.343 L511.534,544.485 L551.375,519.693 Z" id="Shape" fill="#FFFFFF" sketch:type="MSShapeGroup"></path>
            <path d="M551.375,519.693 L551.375,448.551 L511.534,473.343 L511.534,544.485 L551.375,519.693 Z" id="Shape" stroke="#783B8C" stroke-width="5" sketch:type="MSShapeGroup"></path>
            <path d="M511.534,544.485 L511.534,473.342 L425.232,418.835 L425.232,489.979 L511.534,544.485 Z" id="Shape" fill="#FFFFFF" sketch:type="MSShapeGroup"></path>
            <path d="M511.534,544.485 L511.534,473.342 L425.232,418.835 L425.232,489.979 L511.534,544.485 Z" id="Shape" stroke="#783B8C" stroke-width="5" sketch:type="MSShapeGroup"></path>
            <path d="M551.375,448.551 L551.375,448.114 L465.511,393.716 L425.232,418.835 L511.534,473.342 L551.375,448.551 Z" id="Shape" fill="#FFFFFF" sketch:type="MSShapeGroup"></path>
            <path d="M551.375,448.551 L551.375,448.114 L465.511,393.716 L425.232,418.835 L511.534,473.342 L551.375,448.551 Z" id="Shape" stroke="#783B8C" stroke-width="5" sketch:type="MSShapeGroup"></path>
            <path id="Shape" fill="#FFFFFF" sketch:type="MSShapeGroup" d="M511.534,544.485 L511.534,473.342 L511.534,544.485 L511.534,544.485 Z"></path>
            <path d="M511.534,544.485 L511.534,473.342" id="Shape" stroke="#783B8C" stroke-width="5" sketch:type="MSShapeGroup"></path>
            <path d="M425.232,418.835 L425.232,489.979 L511.534,544.485" id="Shape" fill="#FFFFFF" sketch:type="MSShapeGroup"></path>
            <path d="M425.232,418.835 L425.232,489.979 L511.534,544.485" id="Shape" stroke="#783B8C" stroke-width="5" sketch:type="MSShapeGroup"></path>
            <path d="M511.534,473.342 L425.232,418.835" id="Shape" fill="#FFFFFF" sketch:type="MSShapeGroup"></path>
            <path d="M511.534,473.342 L425.232,418.835" id="Shape" stroke="#783B8C" stroke-width="5" sketch:type="MSShapeGroup"></path>
            <path d="M551.375,448.551 L511.534,473.342" id="Shape" fill="#FFFFFF" sketch:type="MSShapeGroup"></path>
            <path d="M551.375,448.551 L511.534,473.342" id="Shape" stroke="#783B8C" stroke-width="5" sketch:type="MSShapeGroup"></path>
            <path d="M650.777,599.312 L650.777,528.104 L610.9,552.917 L610.9,624.126 L650.777,599.312 Z" id="Shape" fill="#FFFFFF" sketch:type="MSShapeGroup"></path>
            <path d="M650.777,599.312 L650.777,528.104 L610.9,552.917 L610.9,624.126 L650.777,599.312 Z" id="Shape" stroke="#783B8C" stroke-width="5" sketch:type="MSShapeGroup"></path>
            <path d="M610.9,624.126 L610.9,552.917 L524.519,498.36 L524.519,569.568 L610.9,624.126 Z" id="Shape" fill="#FFFFFF" sketch:type="MSShapeGroup"></path>
            <path d="M610.9,624.126 L610.9,552.917 L524.519,498.36 L524.519,569.568 L610.9,624.126 Z" id="Shape" stroke="#783B8C" stroke-width="5" sketch:type="MSShapeGroup"></path>
            <path d="M650.777,528.103 L650.777,527.664 L564.834,473.217 L524.518,498.36 L610.9,552.917 L650.777,528.103 Z" id="Shape" fill="#FFFFFF" sketch:type="MSShapeGroup"></path>
            <path d="M650.777,528.103 L650.777,527.664 L564.834,473.217 L524.518,498.36 L610.9,552.917 L650.777,528.103 Z" id="Shape" stroke="#783B8C" stroke-width="5" sketch:type="MSShapeGroup"></path>
            <path d="M524.519,498.36 L564.833,473.217 L650.777,527.664 L650.777,528.104" id="Shape" fill="#FFFFFF" sketch:type="MSShapeGroup"></path>
            <path d="M524.519,498.36 L564.833,473.217 L650.777,527.664 L650.777,528.104" id="Shape" stroke="#783B8C" stroke-width="5" sketch:type="MSShapeGroup"></path>
            <path d="M610.9,624.126 L650.777,599.312 L650.777,528.104" id="Shape" fill="#FFFFFF" sketch:type="MSShapeGroup"></path>
            <path d="M610.9,624.126 L650.777,599.312 L650.777,528.104" id="Shape" stroke="#783B8C" stroke-width="5" sketch:type="MSShapeGroup"></path>
            <path id="Shape" fill="#FFFFFF" sketch:type="MSShapeGroup" d="M610.9,624.126 L610.9,552.917 L610.9,624.126 L610.9,624.126 Z"></path>
            <path d="M610.9,624.126 L610.9,552.917" id="Shape" stroke="#783B8C" stroke-width="5" sketch:type="MSShapeGroup"></path>
            <path d="M524.519,498.36 L524.519,569.569 L610.9,624.125" id="Shape" fill="#FFFFFF" sketch:type="MSShapeGroup"></path>
            <path d="M524.519,498.36 L524.519,569.569 L610.9,624.125" id="Shape" stroke="#783B8C" stroke-width="5" sketch:type="MSShapeGroup"></path>
            <path d="M610.9,552.917 L524.519,498.36" id="Shape" fill="#FFFFFF" sketch:type="MSShapeGroup"></path>
            <path d="M610.9,552.917 L524.519,498.36" id="Shape" stroke="#783B8C" stroke-width="5" sketch:type="MSShapeGroup"></path>
            <path d="M650.777,528.103 L610.9,552.917" id="Shape" fill="#FFFFFF" sketch:type="MSShapeGroup"></path>
            <path d="M650.777,528.103 L610.9,552.917" id="Shape" stroke="#783B8C" stroke-width="5" sketch:type="MSShapeGroup"></path>
            <path d="M884.789,339.089 L684.399,212.239 L594.956,267.712 L795.601,394.435 L884.789,339.089 Z" id="Shape" fill="#FFFFFF" sketch:type="MSShapeGroup"></path>
            <path d="M594.956,267.839 L594.956,267.712 L510.093,214.021 L309.576,339.089 L394.566,392.653 L594.956,267.839 Z" id="Shape" fill="#FFFFFF" sketch:type="MSShapeGroup"></path>
            <path d="M394.567,392.653 L300.925,450.925 L394.439,509.833 L501.569,577.649 L594.065,520.139 L594.065,518.993 L535.54,481.842 L394.567,392.653 Z" id="Shape" fill="#FFFFFF" sketch:type="MSShapeGroup"></path>
            <path d="M394.567,572.05 L594.065,698.136 L594.065,520.139 L501.569,577.649 L394.439,509.833 L394.567,572.05 Z" id="Shape" fill="#FFFFFF" sketch:type="MSShapeGroup"></path>
            <path id="Shape" fill="#FFFFFF" sketch:type="MSShapeGroup" d="M795.091,513.523 L795.727,513.523 L795.727,513.268 L795.091,513.523 Z"></path>
            <path d="M795.728,513.523 L795.091,513.523 L689.235,579.302 L594.956,519.63 L594.066,520.139 L594.066,698.136 L594.956,698.646 L795.728,573.831 L795.728,573.195 L795.728,513.523 Z" id="Shape" fill="#FFFFFF" sketch:type="MSShapeGroup"></path>
            <path d="M795.091,513.523 L795.727,512.632 L889.625,454.105 L795.6,394.435 L653.228,483.114 L594.956,519.63 L689.235,579.302 L795.091,513.523 Z" id="Shape" fill="#FFFFFF" sketch:type="MSShapeGroup"></path>
            <path d="M394.44,509.833 L501.569,577.648 L594.066,520.139" id="Shape" fill="#FFFFFF" sketch:type="MSShapeGroup"></path>
            <path d="M394.44,509.833 L501.569,577.648 L594.066,520.139" id="Shape" stroke="#000000" stroke-width="5" sketch:type="MSShapeGroup"></path>
            <path id="Shape" fill="#FFFFFF" sketch:type="MSShapeGroup" d="M795.091,513.523 L795.727,513.267 L795.091,513.523 L795.091,513.523 Z"></path>
            <path d="M795.091,513.523 L795.727,513.268" id="Shape" stroke="#000000" stroke-width="5" sketch:type="MSShapeGroup"></path>
            <path d="M795.091,513.523 L795.727,512.63 L795.091,513.523 L795.091,513.523 Z" id="Shape" fill="#FFFFFF" sketch:type="MSShapeGroup"></path>
            <path d="M795.091,513.523 L795.727,512.632" id="Shape" stroke="#000000" stroke-width="5" sketch:type="MSShapeGroup"></path>
            <path id="Shape" fill="#FFFFFF" sketch:type="MSShapeGroup" d="M795.727,513.268 L795.727,512.632 L795.727,513.268 L795.727,513.268 Z"></path>
            <path d="M795.728,512.632 L795.728,513.268" id="Shape" stroke="#000000" stroke-width="5" sketch:type="MSShapeGroup"></path>
            <path d="M653.229,483.115 L795.6,394.435" id="Shape" fill="#FFFFFF" sketch:type="MSShapeGroup"></path>
            <path d="M653.229,483.115 L795.6,394.435" id="Shape" stroke="#000000" stroke-width="5" sketch:type="MSShapeGroup"></path>
            <path d="M795.601,394.435 L884.789,339.089 L684.399,212.239 L594.957,267.712" id="Shape" fill="#FFFFFF" sketch:type="MSShapeGroup"></path>
            <path d="M795.601,394.435 L884.789,339.089 L684.399,212.239 L594.957,267.712" id="Shape" stroke="#000000" stroke-width="5" sketch:type="MSShapeGroup"></path>
            <path d="M795.601,394.435 L889.625,454.106 L795.728,512.632" id="Shape" fill="#FFFFFF" sketch:type="MSShapeGroup"></path>
            <path d="M795.601,394.435 L889.625,454.106 L795.728,512.632" id="Shape" stroke="#000000" stroke-width="5" sketch:type="MSShapeGroup"></path>
            <path d="M594.065,269.62 L594.955,267.839 L594.065,269.62 L594.065,269.62 Z" id="Shape" fill="#FFFFFF" sketch:type="MSShapeGroup"></path>
            <path d="M594.066,269.621 L594.956,267.84" id="Shape" stroke="#000000" stroke-width="5" sketch:type="MSShapeGroup"></path>
            <path id="Shape" fill="#FFFFFF" sketch:type="MSShapeGroup" d="M594.956,267.839 L594.956,267.712 L594.956,267.839 L594.956,267.839 Z"></path>
            <path d="M594.956,267.839 L594.956,267.712" id="Shape" stroke="#000000" stroke-width="5" sketch:type="MSShapeGroup"></path>
            <path d="M394.567,392.653 L309.577,339.089 L510.094,214.02 L594.957,267.712" id="Shape" fill="#FFFFFF" sketch:type="MSShapeGroup"></path>
            <path d="M394.567,392.653 L309.577,339.089 L510.094,214.02 L594.957,267.712" id="Shape" stroke="#000000" stroke-width="5" sketch:type="MSShapeGroup"></path>
            <path d="M394.567,392.653 L300.925,450.925 L394.439,509.833" id="Shape" fill="#FFFFFF" sketch:type="MSShapeGroup"></path>
            <path d="M394.567,392.653 L300.925,450.925 L394.439,509.833" id="Shape" stroke="#000000" stroke-width="5" sketch:type="MSShapeGroup"></path>
            <path d="M594.956,519.63 L594.066,518.993 L594.956,519.63 L594.956,519.63 Z" id="Shape" fill="#FFFFFF" sketch:type="MSShapeGroup"></path>
            <path d="M594.066,518.993 L594.956,519.629" id="Shape" stroke="#000000" stroke-width="5" sketch:type="MSShapeGroup"></path>
            <path id="Shape" fill="#FFFFFF" sketch:type="MSShapeGroup" d="M594.065,518.993 L594.065,518.103 L594.065,518.993 L594.065,518.993 Z"></path>
            <path d="M594.066,518.104 L594.066,518.993" id="Shape" stroke="#000000" stroke-width="5" sketch:type="MSShapeGroup"></path>
            <path d="M594.065,520.139 L594.955,519.63 L594.065,520.139 L594.065,520.139 Z" id="Shape" fill="#FFFFFF" sketch:type="MSShapeGroup"></path>
            <path d="M594.066,520.139 L594.956,519.63" id="Shape" stroke="#000000" stroke-width="5" sketch:type="MSShapeGroup"></path>
            <path id="Shape" fill="#FFFFFF" sketch:type="MSShapeGroup" d="M594.065,520.139 L594.065,518.993 L594.065,520.139 L594.065,520.139 Z"></path>
            <path d="M594.066,518.993 L594.066,520.139" id="Shape" stroke="#000000" stroke-width="5" sketch:type="MSShapeGroup"></path>
            <path d="M535.54,481.842 L594.065,518.993" id="Shape" fill="#FFFFFF" sketch:type="MSShapeGroup"></path>
            <path d="M535.54,481.842 L594.065,518.993" id="Shape" stroke="#000000" stroke-width="5" sketch:type="MSShapeGroup"></path>
            <path d="M394.567,392.653 L535.54,481.842" id="Shape" fill="#FFFFFF" sketch:type="MSShapeGroup"></path>
            <path d="M394.567,392.653 L535.54,481.842" id="Shape" stroke="#000000" stroke-width="5" sketch:type="MSShapeGroup"></path>
            <path d="M394.567,392.653 L594.957,267.839" id="Shape" fill="#FFFFFF" sketch:type="MSShapeGroup"></path>
            <path d="M394.567,392.653 L594.957,267.839" id="Shape" stroke="#000000" stroke-width="5" sketch:type="MSShapeGroup"></path>
            <path d="M594.956,698.645 L594.066,698.136 L594.956,698.645 L594.956,698.645 Z" id="Shape" fill="#FFFFFF" sketch:type="MSShapeGroup"></path>
            <path d="M594.066,698.136 L594.956,698.645" id="Shape" stroke="#000000" stroke-width="5" sketch:type="MSShapeGroup"></path>
            <path d="M594.065,699.281 L594.956,698.646 L594.065,698.135 L594.065,699.281 Z" id="Shape" fill="#FFFFFF" sketch:type="MSShapeGroup"></path>
            <path d="M594.066,698.136 L594.066,699.282 L594.956,698.645" id="Shape" stroke="#000000" stroke-width="5" sketch:type="MSShapeGroup"></path>
            <path d="M394.44,509.833 L394.567,572.05 L594.066,698.137" id="Shape" fill="#FFFFFF" sketch:type="MSShapeGroup"></path>
            <path d="M394.44,509.833 L394.567,572.05 L594.066,698.137" id="Shape" stroke="#000000" stroke-width="5" sketch:type="MSShapeGroup"></path>
            <path id="Shape" fill="#FFFFFF" sketch:type="MSShapeGroup" d="M795.727,573.832 L795.727,573.196 L795.727,573.832 L795.727,573.832 Z"></path>
            <path d="M795.728,573.195 L795.728,573.832" id="Shape" stroke="#000000" stroke-width="5" sketch:type="MSShapeGroup"></path>
            <path id="Shape" fill="#FFFFFF" sketch:type="MSShapeGroup" d="M795.727,573.832 L796.11,573.576 L795.727,573.196 L795.727,573.832 Z"></path>
            <path id="Shape" stroke="#000000" stroke-width="5" sketch:type="MSShapeGroup" d="M795.728,573.832 L796.11,573.576 L795.728,573.196"></path>
            <path d="M594.956,267.712 L795.601,394.435" id="Shape" fill="#FFFFFF" sketch:type="MSShapeGroup"></path>
            <path d="M594.956,267.712 L795.601,394.435" id="Shape" stroke="#000000" stroke-width="5" sketch:type="MSShapeGroup"></path>
            <path d="M594.956,698.646 L795.728,573.831" id="Shape" fill="#FFFFFF" sketch:type="MSShapeGroup"></path>
            <path d="M594.956,698.646 L795.728,573.831" id="Shape" stroke="#000000" stroke-width="5" sketch:type="MSShapeGroup"></path>
            <path id="Shape" fill="#FFFFFF" sketch:type="MSShapeGroup" d="M594.065,698.136 L594.065,520.139 L594.065,698.136 L594.065,698.136 Z"></path>
            <path d="M594.066,520.139 L594.066,698.136" id="Shape" stroke="#000000" stroke-width="5" sketch:type="MSShapeGroup"></path>
            <path d="M594.956,519.629 L689.235,579.301 L795.091,513.523" id="Shape" fill="#FFFFFF" sketch:type="MSShapeGroup"></path>
            <path d="M594.956,519.629 L689.235,579.301 L795.091,513.523" id="Shape" stroke="#000000" stroke-width="5" sketch:type="MSShapeGroup"></path>
            <path d="M594.956,519.629 L653.229,483.115" id="Shape" fill="#FFFFFF" sketch:type="MSShapeGroup"></path>
            <path d="M594.956,519.629 L653.229,483.115" id="Shape" stroke="#000000" stroke-width="5" sketch:type="MSShapeGroup"></path>
            <path id="Shape" fill="#FFFFFF" sketch:type="MSShapeGroup" d="M795.727,513.523 L795.727,573.196 L795.727,513.268 L795.727,513.523 Z"></path>
            <path id="Shape" stroke="#000000" stroke-width="5" sketch:type="MSShapeGroup" d="M795.728,513.268 L795.728,513.523 L795.728,573.195"></path>
            <path id="Shape" fill="#FFFFFF" sketch:type="MSShapeGroup" d="M795.727,573.195 L795.727,513.523 L795.727,573.195 L795.727,573.195 Z"></path>
            <path d="M795.728,573.195 L795.728,513.523" id="Shape" stroke="#192C80" stroke-width="5" sketch:type="MSShapeGroup"></path>
            <path id="Shape" fill="#FFFFFF" sketch:type="MSShapeGroup" d="M795.727,513.523 L795.727,513.267 L795.727,513.523 L795.727,513.523 Z"></path>
            <path d="M795.728,513.523 L795.728,513.268" id="Shape" stroke="#192C80" stroke-width="5" sketch:type="MSShapeGroup"></path>
        </g>
    </g>
</svg>