<?xml version="1.0" encoding="UTF-8" standalone="no"?><svg xmlns="http://www.w3.org/2000/svg" xmlns:xlink="http://www.w3.org/1999/xlink" clip-rule="evenodd" stroke-miterlimit="4.00" viewBox="0 0 1920 1080"><desc>SVG generated by Keynote</desc><defs></defs><g transform="matrix(1.00, 0.00, -0.00, -1.00, 0.0, 1080.0)"><path d="M 0.0 1080.0 L 1920.0 1080.0 L 1920.0 0.0 L 0.0 0.0 Z M 0.0 1080.0 " fill="#000000"></path><image xlink:href="../../2D20B215-3A98-43C9-B9B6-3ADB229E98B7/assets/E7B9E493247FDFCD3C9265456FE14322.jpeg" width="1025.00" height="768.00" transform="matrix(1.87, 0.00, -0.00, -1.88, 0.0, 1270.0)"></image><g opacity="0.32"><g><clipPath id="clip-633"><path d="M 0.0 0.0 L 1920.0 0.0 L 1920.0 171.0 L 0.0 171.0 Z M 0.0 0.0 "></path></clipPath><g clip-path="url(#clip-633)"><image xlink:href="../../2D20B215-3A98-43C9-B9B6-3ADB229E98B7/assets/9CF28785C52FA99EB8CB44F905CD7564.png" width="2088.00" height="171.00" transform="matrix(1.00, 0.00, -0.00, -1.00, -101.0, 169.5)" opacity="0.50"></image></g></g><g><clipPath id="clip-634"><path d="M -100.0 168.5 L 1986.2 168.5 L 1986.2 0.0 L -100.0 0.0 Z M -100.0 168.5 "></path></clipPath><g clip-path="url(#clip-634)"><g><clipPath id="clip-635"><path d="M 0.0 0.0 L 1920.0 0.0 L 1920.0 171.0 L 0.0 171.0 Z M 0.0 0.0 "></path></clipPath><g clip-path="url(#clip-635)"><image xlink:href="../../2D20B215-3A98-43C9-B9B6-3ADB229E98B7/assets/5A185A87FA3A65F11D94052D4E639515.png" width="960.00" height="85.00" transform="matrix(2.00, 0.00, -0.00, 1.99, 0.0, -0.5)"></image></g></g></g></g></g><image xlink:href="../../2D20B215-3A98-43C9-B9B6-3ADB229E98B7/assets/B5A47B7D1AFB838CFCB033843A2C9641.png" width="30.00" height="30.00" transform="matrix(0.71, 0.71, 0.71, -0.71, 938.8, 78.0)" opacity="0.50"></image><path d="M 943.1 77.0 L 960.0 60.1 L 976.9 77.0 Z M 943.1 77.0 " fill="#FEFFFE"></path><g><clipPath id="clip-636"><path d="M 304.3 80.0 L 363.9 80.0 L 363.9 107.5 L 304.3 107.5 Z M 304.3 80.0 "></path></clipPath><g clip-path="url(#clip-636)"><image xlink:href="../../2D20B215-3A98-43C9-B9B6-3ADB229E98B7/assets/2C966A8E9097A0643398217F6E3B9386.png" width="58.00" height="26.00" transform="matrix(0.99, 0.00, -0.00, -0.98, 305.3, 106.5)" opacity="0.71"></image></g></g><g><clipPath id="clip-637"><path d="M 305.0 76.2 L 363.2 76.2 L 363.2 106.8 L 305.0 106.8 Z M 305.0 76.2 "></path></clipPath><g clip-path="url(#clip-637)"><text xml:space="preserve" font-family="DBSans-Regular" font-size="18.0" fill="#FEFFFE" transform="matrix(1.00, 0.00, -0.00, -1.00, 310.0, 89.0)">0</text><text xml:space="preserve" font-family="DBSans-Regular" font-size="18.0" fill="#FEFFFE" transform="matrix(1.00, 0.00, -0.00, -1.00, 320.8, 89.0)">9</text><text xml:space="preserve" font-family="DBSans-Regular" font-size="18.0" fill="#FEFFFE" transform="matrix(1.00, 0.00, -0.00, -1.00, 331.6, 89.0)">:</text><text xml:space="preserve" font-family="DBSans-Regular" font-size="18.0" fill="#FEFFFE" transform="matrix(1.00, 0.00, -0.00, -1.00, 337.0, 89.0)">0</text><text xml:space="preserve" font-family="DBSans-Regular" font-size="18.0" fill="#FEFFFE" transform="matrix(1.00, 0.00, -0.00, -1.00, 347.8, 89.0)">0</text></g></g><g><clipPath id="clip-638"><path d="M 543.1 80.0 L 602.7 80.0 L 602.7 107.5 L 543.1 107.5 Z M 543.1 80.0 "></path></clipPath><g clip-path="url(#clip-638)"><image xlink:href="../../2D20B215-3A98-43C9-B9B6-3ADB229E98B7/assets/6C43E39852F6C4FAD2196F026730DCF2.png" width="58.00" height="26.00" transform="matrix(0.99, 0.00, -0.00, -0.98, 544.1, 106.5)" opacity="0.71"></image></g></g><g><clipPath id="clip-639"><path d="M 543.8 76.2 L 602.0 76.2 L 602.0 106.8 L 543.8 106.8 Z M 543.8 76.2 "></path></clipPath><g clip-path="url(#clip-639)"><text xml:space="preserve" font-family="DBSans-Regular" font-size="18.0" fill="#FEFFFE" transform="matrix(1.00, 0.00, -0.00, -1.00, 549.0, 89.0)">1</text><text xml:space="preserve" font-family="DBSans-Regular" font-size="18.0" fill="#FEFFFE" transform="matrix(1.00, 0.00, -0.00, -1.00, 559.8, 89.0)">0</text><text xml:space="preserve" font-family="DBSans-Regular" font-size="18.0" fill="#FEFFFE" transform="matrix(1.00, 0.00, -0.00, -1.00, 570.6, 89.0)">:</text><text xml:space="preserve" font-family="DBSans-Regular" font-size="18.0" fill="#FEFFFE" transform="matrix(1.00, 0.00, -0.00, -1.00, 576.0, 89.0)">0</text><text xml:space="preserve" font-family="DBSans-Regular" font-size="18.0" fill="#FEFFFE" transform="matrix(1.00, 0.00, -0.00, -1.00, 586.8, 89.0)">0</text></g></g><g><clipPath id="clip-640"><path d="M 771.5 80.0 L 831.1 80.0 L 831.1 107.5 L 771.5 107.5 Z M 771.5 80.0 "></path></clipPath><g clip-path="url(#clip-640)"><image xlink:href="../../2D20B215-3A98-43C9-B9B6-3ADB229E98B7/assets/F4A37AC86F086D5BCAF49AB207FE8564.png" width="58.00" height="26.00" transform="matrix(0.99, 0.00, -0.00, -0.98, 772.5, 106.5)" opacity="0.71"></image></g></g><g><clipPath id="clip-641"><path d="M 772.2 76.2 L 830.4 76.2 L 830.4 106.8 L 772.2 106.8 Z M 772.2 76.2 "></path></clipPath><g clip-path="url(#clip-641)"><text xml:space="preserve" font-family="DBSans-Regular" font-size="18.0" fill="#FEFFFE" transform="matrix(1.00, 0.00, -0.00, -1.00, 777.0, 89.0)">1</text><text xml:space="preserve" font-family="DBSans-Regular" font-size="18.0" fill="#FEFFFE" transform="matrix(1.00, 0.00, -0.00, -1.00, 787.8, 89.0)">1</text><text xml:space="preserve" font-family="DBSans-Regular" font-size="18.0" fill="#FEFFFE" transform="matrix(1.00, 0.00, -0.00, -1.00, 798.6, 89.0)">:</text><text xml:space="preserve" font-family="DBSans-Regular" font-size="18.0" fill="#FEFFFE" transform="matrix(1.00, 0.00, -0.00, -1.00, 804.0, 89.0)">0</text><text xml:space="preserve" font-family="DBSans-Regular" font-size="18.0" fill="#FEFFFE" transform="matrix(1.00, 0.00, -0.00, -1.00, 814.8, 89.0)">0</text></g></g><g><clipPath id="clip-642"><path d="M 332.1 -594.3 L 332.1 73.3 L 337.1 73.3 L 337.1 -594.3 Z M 332.1 -594.3 "></path></clipPath><g clip-path="url(#clip-642)"><image xlink:href="../../2D20B215-3A98-43C9-B9B6-3ADB229E98B7/assets/F4E992F9A491846451E2505F8E81089A.png" width="665.00" height="1.00" transform="matrix(0.00, 1.00, 1.00, -0.00, 335.1, -593.2)" opacity="0.30"></image><path d="M 0.0 0.0 L 665.5 0.0 " fill="none" stroke="#FEFFFE" stroke-opacity="0.30" stroke-width="1.00" transform="matrix(0.00, 1.00, 1.00, 0.00, 333.6, -593.3)"></path></g></g><g><clipPath id="clip-643"><path d="M 570.4 -594.3 L 570.4 73.3 L 575.4 73.3 L 575.4 -594.3 Z M 570.4 -594.3 "></path></clipPath><g clip-path="url(#clip-643)"><image xlink:href="../../2D20B215-3A98-43C9-B9B6-3ADB229E98B7/assets/F4E992F9A491846451E2505F8E81089A.png" width="665.00" height="1.00" transform="matrix(0.00, 1.00, 1.00, -0.00, 573.4, -593.2)" opacity="0.30"></image><path d="M 0.0 0.0 L 665.5 0.0 " fill="none" stroke="#FEFFFE" stroke-opacity="0.30" stroke-width="1.00" transform="matrix(0.00, 1.00, 1.00, 0.00, 571.9, -593.3)"></path></g></g><g><clipPath id="clip-644"><path d="M 800.8 -594.3 L 800.8 73.3 L 805.8 73.3 L 805.8 -594.3 Z M 800.8 -594.3 "></path></clipPath><g clip-path="url(#clip-644)"><image xlink:href="../../2D20B215-3A98-43C9-B9B6-3ADB229E98B7/assets/F4E992F9A491846451E2505F8E81089A.png" width="665.00" height="1.00" transform="matrix(0.00, 1.00, 1.00, -0.00, 803.8, -593.2)" opacity="0.30"></image><path d="M 0.0 0.0 L 665.5 0.0 " fill="none" stroke="#FEFFFE" stroke-opacity="0.30" stroke-width="1.00" transform="matrix(0.00, 1.00, 1.00, 0.00, 802.3, -593.3)"></path></g></g><g><clipPath id="clip-645"><path d="M 372.0 36.2 L 1157.2 36.2 L 1157.2 63.2 L 372.0 63.2 Z M 372.0 36.2 "></path></clipPath><g clip-path="url(#clip-645)"><path d="M 373.0 62.2 L 1156.2 62.2 L 1156.2 37.2 L 373.0 37.2 Z M 373.0 62.2 " fill="#FEFFFE" fill-opacity="0.80"></path></g></g><g opacity="0.80"><g><clipPath id="clip-646"><path d="M 373.0 37.0 L 1156.2 37.0 L 1156.2 62.2 L 373.0 62.2 Z M 373.0 37.0 "></path></clipPath><g clip-path="url(#clip-646)"><text xml:space="preserve" font-family="DBSans-Regular" font-size="14.0" fill="#000000" transform="matrix(1.00, 0.00, -0.00, -1.00, 377.0, 45.0)">i</text><text xml:space="preserve" font-family="DBSans-Regular" font-size="14.0" fill="#000000" transform="matrix(1.00, 0.00, -0.00, -1.00, 381.1, 45.0)">m</text><text xml:space="preserve" font-family="DBSans-Regular" font-size="14.0" fill="#000000" transform="matrix(1.00, 0.00, -0.00, -1.00, 393.4, 45.0)"> </text><text xml:space="preserve" font-family="DBSans-Regular" font-size="14.0" fill="#000000" transform="matrix(1.00, 0.00, -0.00, -1.00, 397.6, 45.0)">I</text><text xml:space="preserve" font-family="DBSans-Regular" font-size="14.0" fill="#000000" transform="matrix(1.00, 0.00, -0.00, -1.00, 403.0, 45.0)">C</text><text xml:space="preserve" font-family="DBSans-Regular" font-size="14.0" fill="#000000" transform="matrix(1.00, 0.00, -0.00, -1.00, 412.0, 45.0)">E</text><text xml:space="preserve" font-family="DBSans-Regular" font-size="14.0" fill="#000000" transform="matrix(1.00, 0.00, -0.00, -1.00, 420.6, 45.0)"> </text><text xml:space="preserve" font-family="DBSans-Regular" font-size="14.0" fill="#000000" transform="matrix(1.00, 0.00, -0.00, -1.00, 424.8, 45.0)">6</text><text xml:space="preserve" font-family="DBSans-Regular" font-size="14.0" fill="#000000" transform="matrix(1.00, 0.00, -0.00, -1.00, 433.2, 45.0)">9</text><text xml:space="preserve" font-family="DBSans-Regular" font-size="14.0" fill="#000000" transform="matrix(1.00, 0.00, -0.00, -1.00, 441.6, 45.0)">0</text></g></g></g><g><clipPath id="clip-647"><path d="M 1157.2 36.2 L 1171.9 36.2 L 1171.9 63.2 L 1157.2 63.2 Z M 1157.2 36.2 "></path></clipPath><g clip-path="url(#clip-647)"><path d="M 1158.2 62.2 L 1170.9 62.2 L 1170.9 37.2 L 1158.2 37.2 Z M 1158.2 62.2 " fill="#C82505" fill-opacity="0.80"></path></g></g><g><clipPath id="clip-648"><path d="M 1001.5 80.0 L 1061.1 80.0 L 1061.1 107.5 L 1001.5 107.5 Z M 1001.5 80.0 "></path></clipPath><g clip-path="url(#clip-648)"><image xlink:href="../../2D20B215-3A98-43C9-B9B6-3ADB229E98B7/assets/01867461BABCEBA048C7BA099AA33BAF.png" width="58.00" height="26.00" transform="matrix(0.99, 0.00, -0.00, -0.98, 1002.5, 106.5)" opacity="0.71"></image></g></g><g><clipPath id="clip-649"><path d="M 1002.2 76.2 L 1060.4 76.2 L 1060.4 106.8 L 1002.2 106.8 Z M 1002.2 76.2 "></path></clipPath><g clip-path="url(#clip-649)"><text xml:space="preserve" font-family="DBSans-Regular" font-size="18.0" fill="#FEFFFE" transform="matrix(1.00, 0.00, -0.00, -1.00, 1007.0, 89.0)">1</text><text xml:space="preserve" font-family="DBSans-Regular" font-size="18.0" fill="#FEFFFE" transform="matrix(1.00, 0.00, -0.00, -1.00, 1017.8, 89.0)">2</text><text xml:space="preserve" font-family="DBSans-Regular" font-size="18.0" fill="#FEFFFE" transform="matrix(1.00, 0.00, -0.00, -1.00, 1028.6, 89.0)">:</text><text xml:space="preserve" font-family="DBSans-Regular" font-size="18.0" fill="#FEFFFE" transform="matrix(1.00, 0.00, -0.00, -1.00, 1034.0, 89.0)">0</text><text xml:space="preserve" font-family="DBSans-Regular" font-size="18.0" fill="#FEFFFE" transform="matrix(1.00, 0.00, -0.00, -1.00, 1044.8, 89.0)">0</text></g></g><g><clipPath id="clip-650"><path d="M 1030.8 -594.3 L 1030.8 73.3 L 1035.8 73.3 L 1035.8 -594.3 Z M 1030.8 -594.3 "></path></clipPath><g clip-path="url(#clip-650)"><image xlink:href="../../2D20B215-3A98-43C9-B9B6-3ADB229E98B7/assets/F4E992F9A491846451E2505F8E81089A.png" width="665.00" height="1.00" transform="matrix(0.00, 1.00, 1.00, -0.00, 1033.8, -593.2)" opacity="0.30"></image><path d="M 0.0 0.0 L 665.5 0.0 " fill="none" stroke="#FEFFFE" stroke-opacity="0.30" stroke-width="1.00" transform="matrix(0.00, 1.00, 1.00, 0.00, 1032.3, -593.3)"></path></g></g><g><clipPath id="clip-651"><path d="M 1231.5 80.0 L 1291.1 80.0 L 1291.1 107.5 L 1231.5 107.5 Z M 1231.5 80.0 "></path></clipPath><g clip-path="url(#clip-651)"><image xlink:href="../../2D20B215-3A98-43C9-B9B6-3ADB229E98B7/assets/1F5C5963B00FEC22487B38DF57D42404.png" width="58.00" height="26.00" transform="matrix(0.99, 0.00, -0.00, -0.98, 1232.5, 106.5)" opacity="0.71"></image></g></g><g><clipPath id="clip-652"><path d="M 1232.2 76.2 L 1290.4 76.2 L 1290.4 106.8 L 1232.2 106.8 Z M 1232.2 76.2 "></path></clipPath><g clip-path="url(#clip-652)"><text xml:space="preserve" font-family="DBSans-Regular" font-size="18.0" fill="#FEFFFE" transform="matrix(1.00, 0.00, -0.00, -1.00, 1237.0, 89.0)">1</text><text xml:space="preserve" font-family="DBSans-Regular" font-size="18.0" fill="#FEFFFE" transform="matrix(1.00, 0.00, -0.00, -1.00, 1247.8, 89.0)">3</text><text xml:space="preserve" font-family="DBSans-Regular" font-size="18.0" fill="#FEFFFE" transform="matrix(1.00, 0.00, -0.00, -1.00, 1258.6, 89.0)">:</text><text xml:space="preserve" font-family="DBSans-Regular" font-size="18.0" fill="#FEFFFE" transform="matrix(1.00, 0.00, -0.00, -1.00, 1264.0, 89.0)">0</text><text xml:space="preserve" font-family="DBSans-Regular" font-size="18.0" fill="#FEFFFE" transform="matrix(1.00, 0.00, -0.00, -1.00, 1274.8, 89.0)">0</text></g></g><g><clipPath id="clip-653"><path d="M 1260.8 -594.3 L 1260.8 73.3 L 1265.8 73.3 L 1265.8 -594.3 Z M 1260.8 -594.3 "></path></clipPath><g clip-path="url(#clip-653)"><image xlink:href="../../2D20B215-3A98-43C9-B9B6-3ADB229E98B7/assets/F4E992F9A491846451E2505F8E81089A.png" width="665.00" height="1.00" transform="matrix(0.00, 1.00, 1.00, -0.00, 1263.8, -593.2)" opacity="0.30"></image><path d="M 0.0 0.0 L 665.5 0.0 " fill="none" stroke="#FEFFFE" stroke-opacity="0.30" stroke-width="1.00" transform="matrix(0.00, 1.00, 1.00, 0.00, 1262.3, -593.3)"></path></g></g><g><clipPath id="clip-654"><path d="M 1172.0 36.2 L 1957.2 36.2 L 1957.2 63.2 L 1172.0 63.2 Z M 1172.0 36.2 "></path></clipPath><g clip-path="url(#clip-654)"><path d="M 1173.0 62.2 L 1956.2 62.2 L 1956.2 37.2 L 1173.0 37.2 Z M 1173.0 62.2 " fill="#FEFFFE" fill-opacity="0.80"></path></g></g><g opacity="0.80"><g><clipPath id="clip-655"><path d="M 1173.0 37.0 L 1920.0 37.0 L 1920.0 62.2 L 1173.0 62.2 Z M 1173.0 37.0 "></path></clipPath><g clip-path="url(#clip-655)"><text xml:space="preserve" font-family="DBSans-Regular" font-size="14.0" fill="#000000" transform="matrix(1.00, 0.00, -0.00, -1.00, 1177.0, 45.0)">i</text><text xml:space="preserve" font-family="DBSans-Regular" font-size="14.0" fill="#000000" transform="matrix(1.00, 0.00, -0.00, -1.00, 1181.1, 45.0)">m</text><text xml:space="preserve" font-family="DBSans-Regular" font-size="14.0" fill="#000000" transform="matrix(1.00, 0.00, -0.00, -1.00, 1193.4, 45.0)"> </text><text xml:space="preserve" font-family="DBSans-Regular" font-size="14.0" fill="#000000" transform="matrix(1.00, 0.00, -0.00, -1.00, 1197.6, 45.0)">I</text><text xml:space="preserve" font-family="DBSans-Regular" font-size="14.0" fill="#000000" transform="matrix(1.00, 0.00, -0.00, -1.00, 1203.0, 45.0)">C</text><text xml:space="preserve" font-family="DBSans-Regular" font-size="14.0" fill="#000000" transform="matrix(1.00, 0.00, -0.00, -1.00, 1212.0, 45.0)">E</text><text xml:space="preserve" font-family="DBSans-Regular" font-size="14.0" fill="#000000" transform="matrix(1.00, 0.00, -0.00, -1.00, 1220.6, 45.0)"> </text><text xml:space="preserve" font-family="DBSans-Regular" font-size="14.0" fill="#000000" transform="matrix(1.00, 0.00, -0.00, -1.00, 1224.8, 45.0)">7</text><text xml:space="preserve" font-family="DBSans-Regular" font-size="14.0" fill="#000000" transform="matrix(1.00, 0.00, -0.00, -1.00, 1233.2, 45.0)">2</text><text xml:space="preserve" font-family="DBSans-Regular" font-size="14.0" fill="#000000" transform="matrix(1.00, 0.00, -0.00, -1.00, 1241.6, 45.0)">4</text></g></g></g></g></svg>