<?xml version="1.0" encoding="UTF-8" standalone="no"?><svg xmlns="http://www.w3.org/2000/svg" xmlns:xlink="http://www.w3.org/1999/xlink" clip-rule="evenodd" stroke-miterlimit="4.00" viewBox="0 0 1920 1080"><desc>SVG generated by Keynote</desc><defs></defs><g transform="matrix(1.00, 0.00, -0.00, -1.00, 0.0, 1080.0)"><path d="M 0.0 1080.0 L 1920.0 1080.0 L 1920.0 0.0 L 0.0 0.0 Z M 0.0 1080.0 " fill="#000000"></path><image xlink:href="D5BD1ADD13F8B0BE899AF5E1DB769815.jpeg" width="1361.00" height="767.00" transform="matrix(1.43, 0.00, -0.00, -1.43, -11.0, 1088.0)"></image><g opacity="0.32"><g><clipPath id="clip-656"><path d="M 0.0 0.0 L 1920.0 0.0 L 1920.0 171.0 L 0.0 171.0 Z M 0.0 0.0 "></path></clipPath><g clip-path="url(#clip-656)"><image xlink:href="../../2D20B215-3A98-43C9-B9B6-3ADB229E98B7/assets/9CF28785C52FA99EB8CB44F905CD7564.png" width="2088.00" height="171.00" transform="matrix(1.00, 0.00, -0.00, -1.00, -101.0, 169.5)" opacity="0.50"></image></g></g><g><clipPath id="clip-657"><path d="M -100.0 168.5 L 1986.2 168.5 L 1986.2 0.0 L -100.0 0.0 Z M -100.0 168.5 "></path></clipPath><g clip-path="url(#clip-657)"><g><clipPath id="clip-658"><path d="M 0.0 0.0 L 1920.0 0.0 L 1920.0 171.0 L 0.0 171.0 Z M 0.0 0.0 "></path></clipPath><g clip-path="url(#clip-658)"><image xlink:href="../../2D20B215-3A98-43C9-B9B6-3ADB229E98B7/assets/5A185A87FA3A65F11D94052D4E639515.png" width="960.00" height="85.00" transform="matrix(2.00, 0.00, -0.00, 1.99, 0.0, -0.5)"></image></g></g></g></g></g><g><clipPath id="clip-659"><path d="M 94.3 80.0 L 153.9 80.0 L 153.9 107.5 L 94.3 107.5 Z M 94.3 80.0 "></path></clipPath><g clip-path="url(#clip-659)"><image xlink:href="../../2D20B215-3A98-43C9-B9B6-3ADB229E98B7/assets/2C966A8E9097A0643398217F6E3B9386.png" width="58.00" height="26.00" transform="matrix(0.99, 0.00, -0.00, -0.98, 95.3, 106.5)" opacity="0.71"></image></g></g><g><clipPath id="clip-660"><path d="M 95.0 76.2 L 153.2 76.2 L 153.2 106.8 L 95.0 106.8 Z M 95.0 76.2 "></path></clipPath><g clip-path="url(#clip-660)"><text xml:space="preserve" font-family="DBSans-Regular" font-size="18.0" fill="#FEFFFE" transform="matrix(1.00, 0.00, -0.00, -1.00, 100.0, 89.0)">0</text><text xml:space="preserve" font-family="DBSans-Regular" font-size="18.0" fill="#FEFFFE" transform="matrix(1.00, 0.00, -0.00, -1.00, 110.8, 89.0)">9</text><text xml:space="preserve" font-family="DBSans-Regular" font-size="18.0" fill="#FEFFFE" transform="matrix(1.00, 0.00, -0.00, -1.00, 121.6, 89.0)">:</text><text xml:space="preserve" font-family="DBSans-Regular" font-size="18.0" fill="#FEFFFE" transform="matrix(1.00, 0.00, -0.00, -1.00, 127.0, 89.0)">0</text><text xml:space="preserve" font-family="DBSans-Regular" font-size="18.0" fill="#FEFFFE" transform="matrix(1.00, 0.00, -0.00, -1.00, 137.8, 89.0)">0</text></g></g><g><clipPath id="clip-661"><path d="M 333.1 80.0 L 392.7 80.0 L 392.7 107.5 L 333.1 107.5 Z M 333.1 80.0 "></path></clipPath><g clip-path="url(#clip-661)"><image xlink:href="../../2D20B215-3A98-43C9-B9B6-3ADB229E98B7/assets/6C43E39852F6C4FAD2196F026730DCF2.png" width="58.00" height="26.00" transform="matrix(0.99, 0.00, -0.00, -0.98, 334.1, 106.5)" opacity="0.71"></image></g></g><g><clipPath id="clip-662"><path d="M 333.8 76.2 L 392.0 76.2 L 392.0 106.8 L 333.8 106.8 Z M 333.8 76.2 "></path></clipPath><g clip-path="url(#clip-662)"><text xml:space="preserve" font-family="DBSans-Regular" font-size="18.0" fill="#FEFFFE" transform="matrix(1.00, 0.00, -0.00, -1.00, 339.0, 89.0)">1</text><text xml:space="preserve" font-family="DBSans-Regular" font-size="18.0" fill="#FEFFFE" transform="matrix(1.00, 0.00, -0.00, -1.00, 349.8, 89.0)">0</text><text xml:space="preserve" font-family="DBSans-Regular" font-size="18.0" fill="#FEFFFE" transform="matrix(1.00, 0.00, -0.00, -1.00, 360.6, 89.0)">:</text><text xml:space="preserve" font-family="DBSans-Regular" font-size="18.0" fill="#FEFFFE" transform="matrix(1.00, 0.00, -0.00, -1.00, 366.0, 89.0)">0</text><text xml:space="preserve" font-family="DBSans-Regular" font-size="18.0" fill="#FEFFFE" transform="matrix(1.00, 0.00, -0.00, -1.00, 376.8, 89.0)">0</text></g></g><g><clipPath id="clip-663"><path d="M 561.5 80.0 L 621.1 80.0 L 621.1 107.5 L 561.5 107.5 Z M 561.5 80.0 "></path></clipPath><g clip-path="url(#clip-663)"><image xlink:href="../../2D20B215-3A98-43C9-B9B6-3ADB229E98B7/assets/F4A37AC86F086D5BCAF49AB207FE8564.png" width="58.00" height="26.00" transform="matrix(0.99, 0.00, -0.00, -0.98, 562.5, 106.5)" opacity="0.71"></image></g></g><g><clipPath id="clip-664"><path d="M 562.2 76.2 L 620.4 76.2 L 620.4 106.8 L 562.2 106.8 Z M 562.2 76.2 "></path></clipPath><g clip-path="url(#clip-664)"><text xml:space="preserve" font-family="DBSans-Regular" font-size="18.0" fill="#FEFFFE" transform="matrix(1.00, 0.00, -0.00, -1.00, 567.0, 89.0)">1</text><text xml:space="preserve" font-family="DBSans-Regular" font-size="18.0" fill="#FEFFFE" transform="matrix(1.00, 0.00, -0.00, -1.00, 577.8, 89.0)">1</text><text xml:space="preserve" font-family="DBSans-Regular" font-size="18.0" fill="#FEFFFE" transform="matrix(1.00, 0.00, -0.00, -1.00, 588.6, 89.0)">:</text><text xml:space="preserve" font-family="DBSans-Regular" font-size="18.0" fill="#FEFFFE" transform="matrix(1.00, 0.00, -0.00, -1.00, 594.0, 89.0)">0</text><text xml:space="preserve" font-family="DBSans-Regular" font-size="18.0" fill="#FEFFFE" transform="matrix(1.00, 0.00, -0.00, -1.00, 604.8, 89.0)">0</text></g></g><g><clipPath id="clip-665"><path d="M 122.1 -594.3 L 122.1 73.3 L 127.1 73.3 L 127.1 -594.3 Z M 122.1 -594.3 "></path></clipPath><g clip-path="url(#clip-665)"><image xlink:href="../../2D20B215-3A98-43C9-B9B6-3ADB229E98B7/assets/F4E992F9A491846451E2505F8E81089A.png" width="665.00" height="1.00" transform="matrix(0.00, 1.00, 1.00, -0.00, 125.1, -593.2)" opacity="0.30"></image><path d="M 0.0 0.0 L 665.5 0.0 " fill="none" stroke="#FEFFFE" stroke-opacity="0.30" stroke-width="1.00" transform="matrix(0.00, 1.00, 1.00, 0.00, 123.6, -593.3)"></path></g></g><g><clipPath id="clip-666"><path d="M 360.4 -594.3 L 360.4 73.3 L 365.4 73.3 L 365.4 -594.3 Z M 360.4 -594.3 "></path></clipPath><g clip-path="url(#clip-666)"><image xlink:href="../../2D20B215-3A98-43C9-B9B6-3ADB229E98B7/assets/F4E992F9A491846451E2505F8E81089A.png" width="665.00" height="1.00" transform="matrix(0.00, 1.00, 1.00, -0.00, 363.4, -593.2)" opacity="0.30"></image><path d="M 0.0 0.0 L 665.5 0.0 " fill="none" stroke="#FEFFFE" stroke-opacity="0.30" stroke-width="1.00" transform="matrix(0.00, 1.00, 1.00, 0.00, 361.9, -593.3)"></path></g></g><g><clipPath id="clip-667"><path d="M 590.8 -594.3 L 590.8 73.3 L 595.8 73.3 L 595.8 -594.3 Z M 590.8 -594.3 "></path></clipPath><g clip-path="url(#clip-667)"><image xlink:href="../../2D20B215-3A98-43C9-B9B6-3ADB229E98B7/assets/F4E992F9A491846451E2505F8E81089A.png" width="665.00" height="1.00" transform="matrix(0.00, 1.00, 1.00, -0.00, 593.8, -593.2)" opacity="0.30"></image><path d="M 0.0 0.0 L 665.5 0.0 " fill="none" stroke="#FEFFFE" stroke-opacity="0.30" stroke-width="1.00" transform="matrix(0.00, 1.00, 1.00, 0.00, 592.3, -593.3)"></path></g></g><g><clipPath id="clip-668"><path d="M 162.0 36.2 L 947.2 36.2 L 947.2 63.2 L 162.0 63.2 Z M 162.0 36.2 "></path></clipPath><g clip-path="url(#clip-668)"><path d="M 163.0 62.2 L 946.2 62.2 L 946.2 37.2 L 163.0 37.2 Z M 163.0 62.2 " fill="#FEFFFE" fill-opacity="0.80"></path></g></g><g opacity="0.80"><g><clipPath id="clip-669"><path d="M 163.0 37.0 L 946.2 37.0 L 946.2 62.2 L 163.0 62.2 Z M 163.0 37.0 "></path></clipPath><g clip-path="url(#clip-669)"><text xml:space="preserve" font-family="DBSans-Regular" font-size="14.0" fill="#000000" transform="matrix(1.00, 0.00, -0.00, -1.00, 167.0, 45.0)">i</text><text xml:space="preserve" font-family="DBSans-Regular" font-size="14.0" fill="#000000" transform="matrix(1.00, 0.00, -0.00, -1.00, 171.1, 45.0)">m</text><text xml:space="preserve" font-family="DBSans-Regular" font-size="14.0" fill="#000000" transform="matrix(1.00, 0.00, -0.00, -1.00, 183.4, 45.0)"> </text><text xml:space="preserve" font-family="DBSans-Regular" font-size="14.0" fill="#000000" transform="matrix(1.00, 0.00, -0.00, -1.00, 187.6, 45.0)">I</text><text xml:space="preserve" font-family="DBSans-Regular" font-size="14.0" fill="#000000" transform="matrix(1.00, 0.00, -0.00, -1.00, 193.0, 45.0)">C</text><text xml:space="preserve" font-family="DBSans-Regular" font-size="14.0" fill="#000000" transform="matrix(1.00, 0.00, -0.00, -1.00, 202.0, 45.0)">E</text><text xml:space="preserve" font-family="DBSans-Regular" font-size="14.0" fill="#000000" transform="matrix(1.00, 0.00, -0.00, -1.00, 210.6, 45.0)"> </text><text xml:space="preserve" font-family="DBSans-Regular" font-size="14.0" fill="#000000" transform="matrix(1.00, 0.00, -0.00, -1.00, 214.8, 45.0)">6</text><text xml:space="preserve" font-family="DBSans-Regular" font-size="14.0" fill="#000000" transform="matrix(1.00, 0.00, -0.00, -1.00, 223.2, 45.0)">9</text><text xml:space="preserve" font-family="DBSans-Regular" font-size="14.0" fill="#000000" transform="matrix(1.00, 0.00, -0.00, -1.00, 231.6, 45.0)">0</text></g></g></g><g><clipPath id="clip-670"><path d="M 947.2 36.2 L 961.9 36.2 L 961.9 63.2 L 947.2 63.2 Z M 947.2 36.2 "></path></clipPath><g clip-path="url(#clip-670)"><path d="M 948.2 62.2 L 960.9 62.2 L 960.9 37.2 L 948.2 37.2 Z M 948.2 62.2 " fill="#C82505" fill-opacity="0.80"></path></g></g><g><clipPath id="clip-671"><path d="M 791.5 80.0 L 851.1 80.0 L 851.1 107.5 L 791.5 107.5 Z M 791.5 80.0 "></path></clipPath><g clip-path="url(#clip-671)"><image xlink:href="../../2D20B215-3A98-43C9-B9B6-3ADB229E98B7/assets/01867461BABCEBA048C7BA099AA33BAF.png" width="58.00" height="26.00" transform="matrix(0.99, 0.00, -0.00, -0.98, 792.5, 106.5)" opacity="0.71"></image></g></g><g><clipPath id="clip-672"><path d="M 792.2 76.2 L 850.4 76.2 L 850.4 106.8 L 792.2 106.8 Z M 792.2 76.2 "></path></clipPath><g clip-path="url(#clip-672)"><text xml:space="preserve" font-family="DBSans-Regular" font-size="18.0" fill="#FEFFFE" transform="matrix(1.00, 0.00, -0.00, -1.00, 797.0, 89.0)">1</text><text xml:space="preserve" font-family="DBSans-Regular" font-size="18.0" fill="#FEFFFE" transform="matrix(1.00, 0.00, -0.00, -1.00, 807.8, 89.0)">2</text><text xml:space="preserve" font-family="DBSans-Regular" font-size="18.0" fill="#FEFFFE" transform="matrix(1.00, 0.00, -0.00, -1.00, 818.6, 89.0)">:</text><text xml:space="preserve" font-family="DBSans-Regular" font-size="18.0" fill="#FEFFFE" transform="matrix(1.00, 0.00, -0.00, -1.00, 824.0, 89.0)">0</text><text xml:space="preserve" font-family="DBSans-Regular" font-size="18.0" fill="#FEFFFE" transform="matrix(1.00, 0.00, -0.00, -1.00, 834.8, 89.0)">0</text></g></g><g><clipPath id="clip-673"><path d="M 820.8 -594.3 L 820.8 73.3 L 825.8 73.3 L 825.8 -594.3 Z M 820.8 -594.3 "></path></clipPath><g clip-path="url(#clip-673)"><image xlink:href="../../2D20B215-3A98-43C9-B9B6-3ADB229E98B7/assets/F4E992F9A491846451E2505F8E81089A.png" width="665.00" height="1.00" transform="matrix(0.00, 1.00, 1.00, -0.00, 823.8, -593.2)" opacity="0.30"></image><path d="M 0.0 0.0 L 665.5 0.0 " fill="none" stroke="#FEFFFE" stroke-opacity="0.30" stroke-width="1.00" transform="matrix(0.00, 1.00, 1.00, 0.00, 822.3, -593.3)"></path></g></g><g><clipPath id="clip-674"><path d="M 1021.5 80.0 L 1081.1 80.0 L 1081.1 107.5 L 1021.5 107.5 Z M 1021.5 80.0 "></path></clipPath><g clip-path="url(#clip-674)"><image xlink:href="../../2D20B215-3A98-43C9-B9B6-3ADB229E98B7/assets/1F5C5963B00FEC22487B38DF57D42404.png" width="58.00" height="26.00" transform="matrix(0.99, 0.00, -0.00, -0.98, 1022.5, 106.5)" opacity="0.71"></image></g></g><g><clipPath id="clip-675"><path d="M 1022.2 76.2 L 1080.4 76.2 L 1080.4 106.8 L 1022.2 106.8 Z M 1022.2 76.2 "></path></clipPath><g clip-path="url(#clip-675)"><text xml:space="preserve" font-family="DBSans-Regular" font-size="18.0" fill="#FEFFFE" transform="matrix(1.00, 0.00, -0.00, -1.00, 1027.0, 89.0)">1</text><text xml:space="preserve" font-family="DBSans-Regular" font-size="18.0" fill="#FEFFFE" transform="matrix(1.00, 0.00, -0.00, -1.00, 1037.8, 89.0)">3</text><text xml:space="preserve" font-family="DBSans-Regular" font-size="18.0" fill="#FEFFFE" transform="matrix(1.00, 0.00, -0.00, -1.00, 1048.6, 89.0)">:</text><text xml:space="preserve" font-family="DBSans-Regular" font-size="18.0" fill="#FEFFFE" transform="matrix(1.00, 0.00, -0.00, -1.00, 1054.0, 89.0)">0</text><text xml:space="preserve" font-family="DBSans-Regular" font-size="18.0" fill="#FEFFFE" transform="matrix(1.00, 0.00, -0.00, -1.00, 1064.8, 89.0)">0</text></g></g><g><clipPath id="clip-676"><path d="M 1050.8 -594.3 L 1050.8 73.3 L 1055.8 73.3 L 1055.8 -594.3 Z M 1050.8 -594.3 "></path></clipPath><g clip-path="url(#clip-676)"><image xlink:href="../../2D20B215-3A98-43C9-B9B6-3ADB229E98B7/assets/F4E992F9A491846451E2505F8E81089A.png" width="665.00" height="1.00" transform="matrix(0.00, 1.00, 1.00, -0.00, 1053.8, -593.2)" opacity="0.30"></image><path d="M 0.0 0.0 L 665.5 0.0 " fill="none" stroke="#FEFFFE" stroke-opacity="0.30" stroke-width="1.00" transform="matrix(0.00, 1.00, 1.00, 0.00, 1052.3, -593.3)"></path></g></g><g><clipPath id="clip-677"><path d="M 962.0 36.2 L 1747.2 36.2 L 1747.2 63.2 L 962.0 63.2 Z M 962.0 36.2 "></path></clipPath><g clip-path="url(#clip-677)"><path d="M 963.0 62.2 L 1746.2 62.2 L 1746.2 37.2 L 963.0 37.2 Z M 963.0 62.2 " fill="#FEFFFE" fill-opacity="0.80"></path></g></g><g opacity="0.80"><g><clipPath id="clip-678"><path d="M 963.0 37.0 L 1746.2 37.0 L 1746.2 62.2 L 963.0 62.2 Z M 963.0 37.0 "></path></clipPath><g clip-path="url(#clip-678)"><text xml:space="preserve" font-family="DBSans-Regular" font-size="14.0" fill="#000000" transform="matrix(1.00, 0.00, -0.00, -1.00, 967.0, 45.0)">i</text><text xml:space="preserve" font-family="DBSans-Regular" font-size="14.0" fill="#000000" transform="matrix(1.00, 0.00, -0.00, -1.00, 971.1, 45.0)">m</text><text xml:space="preserve" font-family="DBSans-Regular" font-size="14.0" fill="#000000" transform="matrix(1.00, 0.00, -0.00, -1.00, 983.4, 45.0)"> </text><text xml:space="preserve" font-family="DBSans-Regular" font-size="14.0" fill="#000000" transform="matrix(1.00, 0.00, -0.00, -1.00, 987.6, 45.0)">I</text><text xml:space="preserve" font-family="DBSans-Regular" font-size="14.0" fill="#000000" transform="matrix(1.00, 0.00, -0.00, -1.00, 993.0, 45.0)">C</text><text xml:space="preserve" font-family="DBSans-Regular" font-size="14.0" fill="#000000" transform="matrix(1.00, 0.00, -0.00, -1.00, 1002.0, 45.0)">E</text><text xml:space="preserve" font-family="DBSans-Regular" font-size="14.0" fill="#000000" transform="matrix(1.00, 0.00, -0.00, -1.00, 1010.6, 45.0)"> </text><text xml:space="preserve" font-family="DBSans-Regular" font-size="14.0" fill="#000000" transform="matrix(1.00, 0.00, -0.00, -1.00, 1014.8, 45.0)">7</text><text xml:space="preserve" font-family="DBSans-Regular" font-size="14.0" fill="#000000" transform="matrix(1.00, 0.00, -0.00, -1.00, 1023.2, 45.0)">2</text><text xml:space="preserve" font-family="DBSans-Regular" font-size="14.0" fill="#000000" transform="matrix(1.00, 0.00, -0.00, -1.00, 1031.6, 45.0)">4</text></g></g></g><image xlink:href="../../2D20B215-3A98-43C9-B9B6-3ADB229E98B7/assets/B5A47B7D1AFB838CFCB033843A2C9641.png" width="30.00" height="30.00" transform="matrix(0.71, 0.71, 0.71, -0.71, 938.8, 78.0)" opacity="0.50"></image><path d="M 943.1 77.0 L 960.0 60.1 L 976.9 77.0 Z M 943.1 77.0 " fill="#FEFFFE"></path></g></svg>