<?xml version="1.0" encoding="UTF-8" standalone="no"?>
<svg width="220px" height="220px" viewBox="0 0 220 220" version="1.1" xmlns="http://www.w3.org/2000/svg" xmlns:xlink="http://www.w3.org/1999/xlink" xmlns:sketch="http://www.bohemiancoding.com/sketch/ns">
    <title>07_story</title>
    <description>Created with Sketch (http://www.bohemiancoding.com/sketch)</description>
    <defs></defs>
    <g id="Page-1" stroke="none" stroke-width="1" fill="none" fill-rule="evenodd" sketch:type="MSPage">
        <g id="21_Hand-Zeit" sketch:type="MSLayerGroup" transform="translate(16.000000, 28.000000)">
            <rect id="Frame6" stroke="#333333" sketch:type="MSShapeGroup" x="140" y="70" width="50" height="50" rx="4"></rect>
            <g id="Frame2" transform="translate(70.000000, 0.000000)" stroke="#333333" sketch:type="MSShapeGroup">
                <rect id="Rectangle-46-copy" x="0" y="0" width="50" height="50" rx="4"></rect>
                <g id="Paper-copy" transform="translate(13.000000, 10.000000)">
                    <rect id="Rectangle-53" x="0" y="0" width="23" height="30" rx="2"></rect>
                    <path d="M4.88888889,6.5 L19.1111111,6.5" id="Line" stroke-linecap="square"></path>
                    <path d="M4.88888889,11.5 L19.1111111,11.5" id="Line-copy" stroke-linecap="square"></path>
                    <path d="M4.88888889,16.5 L19.1111111,16.5" id="Line-copy" stroke-linecap="square"></path>
                    <path d="M4.88888889,21.5 L19.1111111,21.5" id="Line-copy-2" stroke-linecap="square"></path>
                </g>
            </g>
            <g id="Frame1" stroke="#333333" sketch:type="MSShapeGroup">
                <rect id="Rectangle-46" x="0" y="0" width="50" height="50" rx="4"></rect>
                <g id="Paper" transform="translate(30.000000, 19.000000)">
                    <rect id="Rectangle-53" x="0" y="0" width="13" height="17" rx="2"></rect>
                    <path d="M2.5,3.5 L10.5,3.5" id="Line" stroke-linecap="square"></path>
                    <path d="M2.5,6.5 L10.5,6.5" id="Line-copy" stroke-linecap="square"></path>
                    <path d="M2.5,9.5 L10.5,9.5" id="Line-copy" stroke-linecap="square"></path>
                    <path d="M2.5,12.5 L10.5,12.5" id="Line-copy-2" stroke-linecap="square"></path>
                </g>
                <g id="Guy" transform="translate(3.000000, 19.000000)">
                    <path d="M19.4181966,12.0961751 C23.323411,15.3129521 26,21.8985407 26,29.5 C26,29.6671663 25.9987056,29.8338413 25.9961321,30 L25.9961321,30 L2.00386795,30 C2.00129445,29.8338413 2,29.6671663 2,29.5 C2,21.5242321 4.94667847,14.6668446 9.16746568,11.6457631 C10.3423154,13.0690049 12.2926671,14 14.5,14 C16.4649787,14 18.2263088,13.2622192 19.4181966,12.0961751 Z" id="Oval-72"></path>
                    <circle id="Oval-73-copy" cx="14.5" cy="5.5" r="5.5"></circle>
                </g>
            </g>
            <g id="Frame5" transform="translate(70.000000, 70.000000)" stroke="#333333" sketch:type="MSShapeGroup">
                <rect id="Rectangle-46-copy-2" x="0" y="0" width="50" height="50" rx="4"></rect>
                <g id="Guy-copy" transform="translate(13.000000, 19.000000)">
                    <path d="M19.4181966,12.0961751 C23.323411,15.3129521 26,21.8985407 26,29.5 C26,29.6671663 25.9987056,29.8338413 25.9961321,30 L25.9961321,30 L2.00386795,30 C2.00129445,29.8338413 2,29.6671663 2,29.5 C2,21.5242321 4.94667847,14.6668446 9.16746568,11.6457631 C10.3423154,13.0690049 12.2926671,14 14.5,14 C16.4649787,14 18.2263088,13.2622192 19.4181966,12.0961751 Z" id="Oval-72"></path>
                    <circle id="Oval-73-copy" cx="14.5" cy="5.5" r="5.5"></circle>
                </g>
            </g>
            <g id="Frame3" transform="translate(140.000000, 0.000000)" stroke="#333333" sketch:type="MSShapeGroup">
                <rect id="Rectangle-46-copy-2" x="0" y="0" width="50" height="50" rx="4"></rect>
                <g id="Paper-copy" transform="translate(30.000000, 19.000000)">
                    <rect id="Rectangle-53" x="0" y="0" width="13" height="17" rx="2"></rect>
                </g>
                <g id="Guy-copy" transform="translate(3.000000, 19.000000)">
                    <path d="M19.4181966,12.0961751 C23.323411,15.3129521 26,21.8985407 26,29.5 C26,29.6671663 25.9987056,29.8338413 25.9961321,30 L25.9961321,30 L2.00386795,30 C2.00129445,29.8338413 2,29.6671663 2,29.5 C2,21.5242321 4.94667847,14.6668446 9.16746568,11.6457631 C10.3423154,13.0690049 12.2926671,14 14.5,14 C16.4649787,14 18.2263088,13.2622192 19.4181966,12.0961751 Z" id="Oval-72"></path>
                    <circle id="Oval-73-copy" cx="14.5" cy="5.5" r="5.5"></circle>
                </g>
            </g>
            <g id="Frame4" transform="translate(0.000000, 70.000000)" sketch:type="MSShapeGroup">
                <rect id="Rectangle-46-copy" stroke="#333333" x="0" y="0" width="50" height="50" rx="4"></rect>
                <g id="Paper-copy-2" transform="translate(13.000000, 10.000000)" stroke="#333333">
                    <rect id="Rectangle-53" x="0" y="0" width="23" height="30" rx="2"></rect>
                    <path d="M4.88888889,6.5 L19.1111111,6.5" id="Line" stroke-linecap="square"></path>
                    <path d="M4.88888889,11.5 L19.1111111,11.5" id="Line-copy" stroke-linecap="square"></path>
                    <path d="M4.88888889,16.5 L19.1111111,16.5" id="Line-copy" stroke-linecap="square"></path>
                    <path d="M4.88888889,21.5 L19.1111111,21.5" id="Line-copy-2" stroke-linecap="square"></path>
                </g>
                <g id="Arrow" transform="translate(39.000000, 18.000000)">
                    <path d="M0.5,5 L40.5,5" id="Line" stroke="#333333" stroke-width="2" stroke-linecap="square"></path>
                    <path d="M35.6137563,10.7405235 L35.6137563,-0.259476475 L45.6137563,5.24052352 L35.6137563,10.7405235 Z" id="Triangle-1" fill="#333333"></path>
                </g>
            </g>
            <text id="Story-+-Flow" sketch:type="MSTextLayer" font-family="HanziPen SC" font-size="20" font-weight="normal" line-spacing="26" fill="#333333">
                <tspan x="43" y="159">Story + Flow</tspan>
            </text>
        </g>
    </g>
</svg>