<?xml version="1.0" encoding="UTF-8" standalone="no"?>
<svg width="220px" height="220px" viewBox="0 0 220 220" version="1.1" xmlns="http://www.w3.org/2000/svg" xmlns:xlink="http://www.w3.org/1999/xlink" xmlns:sketch="http://www.bohemiancoding.com/sketch/ns">
    <title>01_flowchart</title>
    <description>Created with Sketch (http://www.bohemiancoding.com/sketch)</description>
    <defs></defs>
    <g id="Page-1" stroke="none" stroke-width="1" fill="none" fill-rule="evenodd" sketch:type="MSPage">
        <g id="01_Kopf-Zeit" sketch:type="MSLayerGroup" transform="translate(14.000000, 42.000000)">
            <g id="Oval-1" sketch:type="MSShapeGroup">
                <rect id="Rectangle-8" fill="#333333" x="5" y="9" width="15" height="2"></rect>
                <rect id="Rectangle-8-copy" fill="#333333" x="5" y="14" width="15" height="2"></rect>
                <circle stroke="#333333" cx="12.5" cy="12.5" r="12.5"></circle>
            </g>
            <g id="Lines" transform="translate(27.000000, 10.000000)" sketch:type="MSShapeGroup">
                <g id="Horizontal">
                    <g id="Line-1">
                        <path d="M0.5,2.5 L17.6224856,2.5" id="Line" stroke="#333333" stroke-linecap="square"></path>
                        <path d="M16,5 L16,0 L21,2.5 L16,5 Z" id="Triangle-1" fill="#333333"></path>
                    </g>
                    <g id="Line-2" transform="translate(55.000000, 0.000000)">
                        <path d="M0.5,2.5 L17.6224856,2.5" id="Line" stroke="#333333" stroke-linecap="square"></path>
                        <path d="M16,5 L16,0 L21,2.5 L16,5 Z" id="Triangle-1" fill="#333333"></path>
                    </g>
                    <g id="Line-3" transform="translate(113.000000, 55.000000)">
                        <path d="M0.5,2.5 L17.6224856,2.5" id="Line" stroke="#333333" stroke-linecap="square"></path>
                        <path d="M16,5 L16,0 L21,2.5 L16,5 Z" id="Triangle-1" fill="#333333"></path>
                    </g>
                    <g id="Line-4" transform="translate(123.500000, 112.500000) rotate(-180.000000) translate(-123.500000, -112.500000) translate(113.000000, 110.000000)">
                        <path d="M0.5,2.5 L17.6224856,2.5" id="Line" stroke="#333333" stroke-linecap="square"></path>
                        <path d="M16,5 L16,0 L21,2.5 L16,5 Z" id="Triangle-1" fill="#333333"></path>
                    </g>
                </g>
                <g id="Vertical" transform="translate(91.000000, 17.000000)">
                    <g id="Line-1" transform="translate(2.500000, 10.500000) rotate(-270.000000) translate(-2.500000, -10.500000) translate(-8.000000, 8.000000)">
                        <path d="M0.5,2.5 L17.6224856,2.5" id="Line" stroke="#333333" stroke-linecap="square"></path>
                        <path d="M16,5 L16,0 L21,2.5 L16,5 Z" id="Triangle-1" fill="#333333"></path>
                    </g>
                    <g id="Line-2" transform="translate(2.500000, 70.500000) rotate(-270.000000) translate(-2.500000, -70.500000) translate(-8.000000, 68.000000)">
                        <path d="M0.5,2.5 L17.6224856,2.5" id="Line" stroke="#333333" stroke-linecap="square"></path>
                        <path d="M16,5 L16,0 L21,2.5 L16,5 Z" id="Triangle-1" fill="#333333"></path>
                    </g>
                    <g id="Line-3" transform="translate(60.500000, 68.500000) rotate(-270.000000) translate(-60.500000, -68.500000) translate(50.000000, 66.000000)">
                        <path d="M0.5,2.5 L17.6224856,2.5" id="Line" stroke="#333333" stroke-linecap="square"></path>
                        <path d="M16,5 L16,0 L21,2.5 L16,5 Z" id="Triangle-1" fill="#333333"></path>
                    </g>
                </g>
            </g>
            <g id="Oval-1-copy" transform="translate(166.000000, 110.000000)" sketch:type="MSShapeGroup">
                <rect id="Rectangle-8" fill="#333333" x="5" y="9" width="15" height="2"></rect>
                <rect id="Rectangle-8-copy" fill="#333333" x="5" y="14" width="15" height="2"></rect>
                <circle id="Oval-1" stroke="#333333" cx="12.5" cy="12.5" r="12.5"></circle>
            </g>
            <g id="Raute" transform="translate(103.000000, 50.000000)" sketch:type="MSShapeGroup">
                <rect stroke="#333333" transform="translate(17.677670, 17.500000) rotate(-315.000000) translate(-17.677670, -17.500000) " x="5.17766953" y="5" width="25" height="25" rx="4"></rect>
                <rect id="Rectangle-20" fill="#333333" x="9" y="14" width="17" height="2"></rect>
                <rect id="Rectangle-20-copy" fill="#333333" x="9" y="19" width="17" height="2"></rect>
            </g>
            <g id="Rectangle-1" transform="translate(50.000000, 0.000000)" sketch:type="MSShapeGroup">
                <rect id="Rectangle-10" fill="#333333" x="5" y="9" width="20" height="2"></rect>
                <rect id="Rectangle-10-copy" fill="#333333" x="5" y="14" width="20" height="2"></rect>
                <rect stroke="#333333" x="0" y="0" width="30" height="25" rx="4"></rect>
            </g>
            <g id="Rectangle-1-copy" transform="translate(105.000000, 0.000000)" sketch:type="MSShapeGroup">
                <rect id="Rectangle-10" fill="#333333" x="5" y="9" width="20" height="2"></rect>
                <rect id="Rectangle-10-copy" fill="#333333" x="5" y="14" width="20" height="2"></rect>
                <rect id="Rectangle-1" stroke="#333333" x="0" y="0" width="30" height="25" rx="4"></rect>
            </g>
            <g id="Rectangle-1-copy-2" transform="translate(163.000000, 55.000000)" sketch:type="MSShapeGroup">
                <rect id="Rectangle-10" fill="#333333" x="5" y="9" width="20" height="2"></rect>
                <rect id="Rectangle-10-copy" fill="#333333" x="5" y="14" width="20" height="2"></rect>
                <rect id="Rectangle-1" stroke="#333333" x="0" y="0" width="30" height="25" rx="4"></rect>
            </g>
            <g id="Rectangle-1-copy-3" transform="translate(105.000000, 110.000000)" sketch:type="MSShapeGroup">
                <rect id="Rectangle-10" fill="#333333" x="5" y="9" width="20" height="2"></rect>
                <rect id="Rectangle-10-copy" fill="#333333" x="5" y="14" width="20" height="2"></rect>
                <rect id="Rectangle-1" stroke="#333333" x="0" y="0" width="30" height="25" rx="4"></rect>
            </g>
        </g>
    </g>
</svg>