<?xml version="1.0" encoding="UTF-8" standalone="no"?><svg xmlns="http://www.w3.org/2000/svg" xmlns:xlink="http://www.w3.org/1999/xlink" clip-rule="evenodd" stroke-miterlimit="4.00" viewBox="0 0 1920 1080"><desc>SVG generated by Keynote</desc><defs></defs><g transform="matrix(1.00, 0.00, -0.00, -1.00, 0.0, 1080.0)"><path d="M 0.0 1080.0 L 1920.0 1080.0 L 1920.0 0.0 L 0.0 0.0 Z M 0.0 1080.0 " fill="#000000"></path><image xlink:href="09461FEE73249FC92C87880E2AAAAE50.png" width="1411.00" height="1090.00" transform="matrix(1.00, 0.00, -0.00, -1.00, 519.7, 1081.0)" opacity="0.50"></image><g><clipPath id="clip-351"><path d="M 520.7 1080.0 L 1929.3 1080.0 L 1929.3 -7.8 L 520.7 -7.8 Z M 520.7 1080.0 "></path></clipPath><g clip-path="url(#clip-351)"><image xlink:href="F6F00C50DDA2D2748DB54C6E8080F9DD.png" width="700.00" height="540.00" transform="matrix(2.00, 0.00, -0.00, 2.00, 520.7, 0.0)"></image></g></g><text xml:space="preserve" font-family="DBSans-Bold" font-weight="bold" font-size="50.0" fill="#FEFFFE" transform="matrix(1.00, 0.00, -0.00, -1.00, 1018.0, 712.0)">A</text><text xml:space="preserve" font-family="DBSans-Bold" font-weight="bold" font-size="50.0" fill="#FEFFFE" transform="matrix(1.00, 0.00, -0.00, -1.00, 1054.9, 712.0)">n</text><text xml:space="preserve" font-family="DBSans-Bold" font-weight="bold" font-size="50.0" fill="#FEFFFE" transform="matrix(1.00, 0.00, -0.00, -1.00, 1085.7, 712.0)">n</text><text xml:space="preserve" font-family="DBSans-Bold" font-weight="bold" font-size="50.0" fill="#FEFFFE" transform="matrix(1.00, 0.00, -0.00, -1.00, 1116.4, 712.0)">a</text><text xml:space="preserve" font-family="DBSans-Bold" font-weight="bold" font-size="50.0" fill="#FEFFFE" transform="matrix(1.00, 0.00, -0.00, -1.00, 1145.3, 712.0)"> </text><text xml:space="preserve" font-family="DBSans-Bold" font-weight="bold" font-size="50.0" fill="#FEFFFE" transform="matrix(1.00, 0.00, -0.00, -1.00, 1160.3, 712.0)">a</text><text xml:space="preserve" font-family="DBSans-Bold" font-weight="bold" font-size="50.0" fill="#FEFFFE" transform="matrix(1.00, 0.00, -0.00, -1.00, 1189.3, 712.0)">u</text><text xml:space="preserve" font-family="DBSans-Bold" font-weight="bold" font-size="50.0" fill="#FEFFFE" transform="matrix(1.00, 0.00, -0.00, -1.00, 1219.6, 712.0)">f</text><text xml:space="preserve" font-family="DBSans-Bold" font-weight="bold" font-size="50.0" fill="#FEFFFE" transform="matrix(1.00, 0.00, -0.00, -1.00, 1239.0, 712.0)"> </text><text xml:space="preserve" font-family="DBSans-Bold" font-weight="bold" font-size="50.0" fill="#FEFFFE" transform="matrix(1.00, 0.00, -0.00, -1.00, 1254.0, 712.0)">d</text><text xml:space="preserve" font-family="DBSans-Bold" font-weight="bold" font-size="50.0" fill="#FEFFFE" transform="matrix(1.00, 0.00, -0.00, -1.00, 1285.6, 712.0)">e</text><text xml:space="preserve" font-family="DBSans-Bold" font-weight="bold" font-size="50.0" fill="#FEFFFE" transform="matrix(1.00, 0.00, -0.00, -1.00, 1314.8, 712.0)">m</text><text xml:space="preserve" font-family="DBSans-Bold" font-weight="bold" font-size="50.0" fill="#FEFFFE" transform="matrix(1.00, 0.00, -0.00, -1.00, 1360.2, 712.0)"> </text><text xml:space="preserve" font-family="DBSans-Bold" font-weight="bold" font-size="50.0" fill="#FEFFFE" transform="matrix(1.00, 0.00, -0.00, -1.00, 1375.2, 712.0)">W</text><text xml:space="preserve" font-family="DBSans-Bold" font-weight="bold" font-size="50.0" fill="#FEFFFE" transform="matrix(1.00, 0.00, -0.00, -1.00, 1422.3, 712.0)">e</text><text xml:space="preserve" font-family="DBSans-Bold" font-weight="bold" font-size="50.0" fill="#FEFFFE" transform="matrix(1.00, 0.00, -0.00, -1.00, 1451.2, 712.0)">g</text><text xml:space="preserve" font-family="DBSans-Bold" font-weight="bold" font-size="50.0" fill="#FEFFFE" transform="matrix(1.00, 0.00, -0.00, -1.00, 1479.3, 712.0)"> </text><text xml:space="preserve" font-family="DBSans-Bold" font-weight="bold" font-size="50.0" fill="#FEFFFE" transform="matrix(1.00, 0.00, -0.00, -1.00, 1494.3, 712.0)">n</text><text xml:space="preserve" font-family="DBSans-Bold" font-weight="bold" font-size="50.0" fill="#FEFFFE" transform="matrix(1.00, 0.00, -0.00, -1.00, 1525.1, 712.0)">a</text><text xml:space="preserve" font-family="DBSans-Bold" font-weight="bold" font-size="50.0" fill="#FEFFFE" transform="matrix(1.00, 0.00, -0.00, -1.00, 1554.1, 712.0)">c</text><text xml:space="preserve" font-family="DBSans-Bold" font-weight="bold" font-size="50.0" fill="#FEFFFE" transform="matrix(1.00, 0.00, -0.00, -1.00, 1579.8, 712.0)">h</text><text xml:space="preserve" font-family="DBSans-Bold" font-weight="bold" font-size="50.0" fill="#FEFFFE" transform="matrix(1.00, 0.00, -0.00, -1.00, 1610.6, 712.0)"> </text><text xml:space="preserve" font-family="DBSans-Bold" font-weight="bold" font-size="50.0" fill="#FEFFFE" transform="matrix(1.00, 0.00, -0.00, -1.00, 1625.6, 712.0)">K</text><text xml:space="preserve" font-family="DBSans-Bold" font-weight="bold" font-size="50.0" fill="#FEFFFE" transform="matrix(1.00, 0.00, -0.00, -1.00, 1660.1, 712.0)">รถ</text><text xml:space="preserve" font-family="DBSans-Bold" font-weight="bold" font-size="50.0" fill="#FEFFFE" transform="matrix(1.00, 0.00, -0.00, -1.00, 1690.0, 712.0)">l</text><text xml:space="preserve" font-family="DBSans-Bold" font-weight="bold" font-size="50.0" fill="#FEFFFE" transform="matrix(1.00, 0.00, -0.00, -1.00, 1705.8, 712.0)">n</text><text xml:space="preserve" font-family="DBSans-Bold" font-weight="bold" font-size="50.0" fill="#FEFFFE" transform="matrix(1.00, 0.00, -0.00, -1.00, 1736.5, 712.0)"> </text><text xml:space="preserve" font-family="DBSans-Regular" font-size="50.0" fill="#FEFFFE" transform="matrix(1.00, 0.00, -0.00, -1.00, 1018.0, 651.0)">N</text><text xml:space="preserve" font-family="DBSans-Regular" font-size="50.0" fill="#FEFFFE" transform="matrix(1.00, 0.00, -0.00, -1.00, 1056.6, 651.0)">u</text><text xml:space="preserve" font-family="DBSans-Regular" font-size="50.0" fill="#FEFFFE" transform="matrix(1.00, 0.00, -0.00, -1.00, 1085.7, 651.0)">t</text><text xml:space="preserve" font-family="DBSans-Regular" font-size="50.0" fill="#FEFFFE" transform="matrix(1.00, 0.00, -0.00, -1.00, 1105.0, 651.0)">z</text><text xml:space="preserve" font-family="DBSans-Regular" font-size="50.0" fill="#FEFFFE" transform="matrix(1.00, 0.00, -0.00, -1.00, 1130.0, 651.0)">u</text><text xml:space="preserve" font-family="DBSans-Regular" font-size="50.0" fill="#FEFFFE" transform="matrix(1.00, 0.00, -0.00, -1.00, 1159.1, 651.0)">n</text><text xml:space="preserve" font-family="DBSans-Regular" font-size="50.0" fill="#FEFFFE" transform="matrix(1.00, 0.00, -0.00, -1.00, 1188.7, 651.0)">g</text><text xml:space="preserve" font-family="DBSans-Regular" font-size="50.0" fill="#FEFFFE" transform="matrix(1.00, 0.00, -0.00, -1.00, 1214.8, 651.0)"> </text><text xml:space="preserve" font-family="DBSans-Regular" font-size="50.0" fill="#FEFFFE" transform="matrix(1.00, 0.00, -0.00, -1.00, 1229.8, 651.0)">d</text><text xml:space="preserve" font-family="DBSans-Regular" font-size="50.0" fill="#FEFFFE" transform="matrix(1.00, 0.00, -0.00, -1.00, 1259.7, 651.0)">e</text><text xml:space="preserve" font-family="DBSans-Regular" font-size="50.0" fill="#FEFFFE" transform="matrix(1.00, 0.00, -0.00, -1.00, 1286.7, 651.0)">r</text><text xml:space="preserve" font-family="DBSans-Regular" font-size="50.0" fill="#FEFFFE" transform="matrix(1.00, 0.00, -0.00, -1.00, 1307.0, 651.0)"> </text><text xml:space="preserve" font-family="DBSans-Regular" font-size="50.0" fill="#FEFFFE" transform="matrix(1.00, 0.00, -0.00, -1.00, 1322.0, 651.0)">R</text><text xml:space="preserve" font-family="DBSans-Regular" font-size="50.0" fill="#FEFFFE" transform="matrix(1.00, 0.00, -0.00, -1.00, 1355.0, 651.0)">I</text><text xml:space="preserve" font-family="DBSans-Regular" font-size="50.0" fill="#FEFFFE" transform="matrix(1.00, 0.00, -0.00, -1.00, 1375.0, 651.0)"> </text><text xml:space="preserve" font-family="DBSans-Regular" font-size="50.0" fill="#FEFFFE" transform="matrix(1.00, 0.00, -0.00, -1.00, 1390.0, 651.0)">M</text><text xml:space="preserve" font-family="DBSans-Regular" font-size="50.0" fill="#FEFFFE" transform="matrix(1.00, 0.00, -0.00, -1.00, 1434.8, 651.0)">a</text><text xml:space="preserve" font-family="DBSans-Regular" font-size="50.0" fill="#FEFFFE" transform="matrix(1.00, 0.00, -0.00, -1.00, 1461.5, 651.0)">p</text><text xml:space="preserve" font-family="DBSans-Regular" font-size="50.0" fill="#FEFFFE" transform="matrix(1.00, 0.00, -0.00, -1.00, 1491.3, 651.0)">s</text><text xml:space="preserve" font-family="DBSans-Regular" font-size="50.0" fill="#FEFFFE" transform="matrix(1.00, 0.00, -0.00, -1.00, 1514.1, 651.0)"> </text><text xml:space="preserve" font-family="DBSans-Regular" font-size="50.0" fill="#FEFFFE" transform="matrix(1.00, 0.00, -0.00, -1.00, 1529.1, 651.0)">b</text><text xml:space="preserve" font-family="DBSans-Regular" font-size="50.0" fill="#FEFFFE" transform="matrix(1.00, 0.00, -0.00, -1.00, 1559.0, 651.0)">e</text><text xml:space="preserve" font-family="DBSans-Regular" font-size="50.0" fill="#FEFFFE" transform="matrix(1.00, 0.00, -0.00, -1.00, 1586.0, 651.0)">i</text><text xml:space="preserve" font-family="DBSans-Regular" font-size="50.0" fill="#FEFFFE" transform="matrix(1.00, 0.00, -0.00, -1.00, 1600.8, 651.0)">m</text><text xml:space="preserve" font-family="DBSans-Regular" font-size="50.0" fill="#FEFFFE" transform="matrix(1.00, 0.00, -0.00, -1.00, 1644.5, 651.0)"> </text><text xml:space="preserve" font-family="DBSans-Regular" font-size="50.0" fill="#FEFFFE" transform="matrix(1.00, 0.00, -0.00, -1.00, 1659.5, 651.0)">U</text><text xml:space="preserve" font-family="DBSans-Regular" font-size="50.0" fill="#FEFFFE" transform="matrix(1.00, 0.00, -0.00, -1.00, 1696.3, 651.0)">m</text><text xml:space="preserve" font-family="DBSans-Regular" font-size="50.0" fill="#FEFFFE" transform="matrix(1.00, 0.00, -0.00, -1.00, 1740.0, 651.0)">s</text><text xml:space="preserve" font-family="DBSans-Regular" font-size="50.0" fill="#FEFFFE" transform="matrix(1.00, 0.00, -0.00, -1.00, 1762.3, 651.0)">t</text><text xml:space="preserve" font-family="DBSans-Regular" font-size="50.0" fill="#FEFFFE" transform="matrix(1.00, 0.00, -0.00, -1.00, 1781.7, 651.0)">i</text><text xml:space="preserve" font-family="DBSans-Regular" font-size="50.0" fill="#FEFFFE" transform="matrix(1.00, 0.00, -0.00, -1.00, 1796.4, 651.0)">e</text><text xml:space="preserve" font-family="DBSans-Regular" font-size="50.0" fill="#FEFFFE" transform="matrix(1.00, 0.00, -0.00, -1.00, 1823.5, 651.0)">g</text></g></svg>