<?xml version="1.0" encoding="UTF-8" standalone="no"?><svg xmlns="http://www.w3.org/2000/svg" xmlns:xlink="http://www.w3.org/1999/xlink" clip-rule="evenodd" stroke-miterlimit="4.00" viewBox="0 0 1920 1080"><desc>SVG generated by Keynote</desc><defs></defs><g transform="matrix(1.00, 0.00, -0.00, -1.00, 0.0, 1080.0)"><path d="M 0.0 1080.0 L 1920.0 1080.0 L 1920.0 0.0 L 0.0 0.0 Z M 0.0 1080.0 " fill="#000000"></path><text xml:space="preserve" font-family="DBSans-Regular" font-size="18.0" fill="#FEFFFE" transform="matrix(1.00, 0.00, -0.00, -1.00, 63.0, 62.0)">N</text><text xml:space="preserve" font-family="DBSans-Regular" font-size="18.0" fill="#FEFFFE" transform="matrix(1.00, 0.00, -0.00, -1.00, 76.9, 62.0)">u</text><text xml:space="preserve" font-family="DBSans-Regular" font-size="18.0" fill="#FEFFFE" transform="matrix(1.00, 0.00, -0.00, -1.00, 87.4, 62.0)">t</text><text xml:space="preserve" font-family="DBSans-Regular" font-size="18.0" fill="#FEFFFE" transform="matrix(1.00, 0.00, -0.00, -1.00, 94.3, 62.0)">z</text><text xml:space="preserve" font-family="DBSans-Regular" font-size="18.0" fill="#FEFFFE" transform="matrix(1.00, 0.00, -0.00, -1.00, 103.3, 62.0)">u</text><text xml:space="preserve" font-family="DBSans-Regular" font-size="18.0" fill="#FEFFFE" transform="matrix(1.00, 0.00, -0.00, -1.00, 113.8, 62.0)">n</text><text xml:space="preserve" font-family="DBSans-Regular" font-size="18.0" fill="#FEFFFE" transform="matrix(1.00, 0.00, -0.00, -1.00, 124.4, 62.0)">g</text><text xml:space="preserve" font-family="DBSans-Regular" font-size="18.0" fill="#FEFFFE" transform="matrix(1.00, 0.00, -0.00, -1.00, 133.9, 62.0)"> </text><text xml:space="preserve" font-family="DBSans-Regular" font-size="18.0" fill="#FEFFFE" transform="matrix(1.00, 0.00, -0.00, -1.00, 139.3, 62.0)">d</text><text xml:space="preserve" font-family="DBSans-Regular" font-size="18.0" fill="#FEFFFE" transform="matrix(1.00, 0.00, -0.00, -1.00, 150.0, 62.0)">e</text><text xml:space="preserve" font-family="DBSans-Regular" font-size="18.0" fill="#FEFFFE" transform="matrix(1.00, 0.00, -0.00, -1.00, 159.7, 62.0)">r</text><text xml:space="preserve" font-family="DBSans-Regular" font-size="18.0" fill="#FEFFFE" transform="matrix(1.00, 0.00, -0.00, -1.00, 167.0, 62.0)"> </text><text xml:space="preserve" font-family="DBSans-Regular" font-size="18.0" fill="#FEFFFE" transform="matrix(1.00, 0.00, -0.00, -1.00, 172.4, 62.0)">R</text><text xml:space="preserve" font-family="DBSans-Regular" font-size="18.0" fill="#FEFFFE" transform="matrix(1.00, 0.00, -0.00, -1.00, 184.3, 62.0)">I</text><text xml:space="preserve" font-family="DBSans-Regular" font-size="18.0" fill="#FEFFFE" transform="matrix(1.00, 0.00, -0.00, -1.00, 191.5, 62.0)"> </text><text xml:space="preserve" font-family="DBSans-Regular" font-size="18.0" fill="#FEFFFE" transform="matrix(1.00, 0.00, -0.00, -1.00, 196.9, 62.0)">M</text><text xml:space="preserve" font-family="DBSans-Regular" font-size="18.0" fill="#FEFFFE" transform="matrix(1.00, 0.00, -0.00, -1.00, 213.0, 62.0)">a</text><text xml:space="preserve" font-family="DBSans-Regular" font-size="18.0" fill="#FEFFFE" transform="matrix(1.00, 0.00, -0.00, -1.00, 222.6, 62.0)">p</text><text xml:space="preserve" font-family="DBSans-Regular" font-size="18.0" fill="#FEFFFE" transform="matrix(1.00, 0.00, -0.00, -1.00, 233.4, 62.0)">s</text><text xml:space="preserve" font-family="DBSans-Regular" font-size="18.0" fill="#FEFFFE" transform="matrix(1.00, 0.00, -0.00, -1.00, 241.6, 62.0)"> </text><text xml:space="preserve" font-family="DBSans-Regular" font-size="18.0" fill="#FEFFFE" transform="matrix(1.00, 0.00, -0.00, -1.00, 247.0, 62.0)">b</text><text xml:space="preserve" font-family="DBSans-Regular" font-size="18.0" fill="#FEFFFE" transform="matrix(1.00, 0.00, -0.00, -1.00, 257.8, 62.0)">e</text><text xml:space="preserve" font-family="DBSans-Regular" font-size="18.0" fill="#FEFFFE" transform="matrix(1.00, 0.00, -0.00, -1.00, 267.5, 62.0)">i</text><text xml:space="preserve" font-family="DBSans-Regular" font-size="18.0" fill="#FEFFFE" transform="matrix(1.00, 0.00, -0.00, -1.00, 272.8, 62.0)">m</text><text xml:space="preserve" font-family="DBSans-Regular" font-size="18.0" fill="#FEFFFE" transform="matrix(1.00, 0.00, -0.00, -1.00, 288.6, 62.0)"> </text><text xml:space="preserve" font-family="DBSans-Regular" font-size="18.0" fill="#FEFFFE" transform="matrix(1.00, 0.00, -0.00, -1.00, 294.0, 62.0)">U</text><text xml:space="preserve" font-family="DBSans-Regular" font-size="18.0" fill="#FEFFFE" transform="matrix(1.00, 0.00, -0.00, -1.00, 307.2, 62.0)">m</text><text xml:space="preserve" font-family="DBSans-Regular" font-size="18.0" fill="#FEFFFE" transform="matrix(1.00, 0.00, -0.00, -1.00, 322.9, 62.0)">s</text><text xml:space="preserve" font-family="DBSans-Regular" font-size="18.0" fill="#FEFFFE" transform="matrix(1.00, 0.00, -0.00, -1.00, 330.9, 62.0)">t</text><text xml:space="preserve" font-family="DBSans-Regular" font-size="18.0" fill="#FEFFFE" transform="matrix(1.00, 0.00, -0.00, -1.00, 337.9, 62.0)">i</text><text xml:space="preserve" font-family="DBSans-Regular" font-size="18.0" fill="#FEFFFE" transform="matrix(1.00, 0.00, -0.00, -1.00, 343.2, 62.0)">e</text><text xml:space="preserve" font-family="DBSans-Regular" font-size="18.0" fill="#FEFFFE" transform="matrix(1.00, 0.00, -0.00, -1.00, 353.0, 62.0)">g</text></g></svg>