<?xml version="1.0" encoding="utf-8"?>
<!-- Generator: Adobe Illustrator 16.0.4, SVG Export Plug-In . SVG Version: 6.00 Build 0)  -->
<!DOCTYPE svg PUBLIC "-//W3C//DTD SVG 1.1//EN" "http://www.w3.org/Graphics/SVG/1.1/DTD/svg11.dtd">
<svg version="1.1" id="Ebene_1" xmlns="http://www.w3.org/2000/svg" xmlns:xlink="http://www.w3.org/1999/xlink" x="0px" y="0px"
	 width="139px" height="159px" viewBox="0 0 139 159" enable-background="new 0 0 139 159" xml:space="preserve">
<rect fill="#FFFFFF" width="139" height="159"/>
<g>
	<g>
		<g>
			<path d="M23.234,122.6h9.021c2.525,0,4.461,0.582,5.807,1.746c1.347,1.162,2.021,3.266,2.021,6.311
				c0,2.846-0.725,4.885-2.17,6.117c-1.446,1.23-3.416,1.848-5.91,1.848h-8.769V122.6z M29.387,134.627h1.537
				c1.056,0,1.774-0.33,2.158-0.986c0.382-0.658,0.572-1.707,0.572-3.145c0-1.453-0.194-2.514-0.585-3.178
				c-0.391-0.668-1.113-1-2.168-1h-1.515V134.627z"/>
		</g>
		<g>
			<path d="M48.689,122.6v16.021h-6.152V122.6H48.689z"/>
		</g>
		<g>
			<path d="M50.111,122.6h6.588l2.984,9.596l3.053-9.596h6.288l-5.922,16.021h-7.275L50.111,122.6z"/>
		</g>
		<g>
			<path d="M70.22,122.6h13.885v3.855h-7.873l0.054,2.631h7.528v3.105h-7.528l-0.054,2.574h8.032v3.855H70.22V122.6z"/>
		</g>
		<g>
			<path fill="#FF0000" d="M87.317,134.215h5.004v4.406h-5.004V134.215z"/>
		</g>
		<g>
			<path fill="#FF0000" d="M101.32,124.006v14.615h-5.613v-14.615H101.32z"/>
		</g>
		<g>
			<path fill="#FF0000" d="M115.787,128.006c-0.627-0.223-1.318-0.4-2.072-0.535c-0.754-0.133-1.508-0.197-2.261-0.197
				c-0.685,0-1.257,0.053-1.718,0.166c-0.46,0.111-0.691,0.377-0.691,0.795c0,0.447,0.786,0.826,2.355,1.143
				c1.572,0.312,2.853,0.746,3.843,1.299c0.991,0.549,1.487,1.648,1.487,3.297c0,1.771-0.699,3.033-2.095,3.779
				c-1.395,0.746-3.071,1.119-5.024,1.119c-2.024,0-4.035-0.23-6.031-0.691v-3.789c1.536,0.643,3.211,0.963,5.027,0.963
				c0.753,0,1.359-0.076,1.82-0.23c0.461-0.152,0.69-0.41,0.69-0.773c0-0.475-0.789-0.879-2.366-1.215
				c-1.577-0.334-2.857-0.781-3.842-1.34s-1.477-1.66-1.477-3.309c0-1.799,0.727-3.041,2.178-3.717
				c1.452-0.676,3.232-1.016,5.339-1.016c0.839,0,1.651,0.043,2.44,0.125c0.787,0.084,1.586,0.211,2.396,0.377V128.006z"/>
		</g>
	</g>
	<g>
		
			<linearGradient id="SVGID_1_" gradientUnits="userSpaceOnUse" x1="65.7153" y1="82.248" x2="144.9977" y2="82.248" gradientTransform="matrix(0 1 -1 0 151.7188 -43.6655)">
			<stop  offset="0" style="stop-color:#0066B3"/>
			<stop  offset="0.8708" style="stop-color:#DDF3FE"/>
		</linearGradient>
		<polyline fill="url(#SVGID_1_)" points="64.787,109.678 26.154,109.678 26.154,23.048 112.786,23.048 112.785,109.678 
			64.787,109.678 		"/>
		<g>
			<radialGradient id="SVGID_2_" cx="68.8701" cy="100.4883" r="70.3558" gradientUnits="userSpaceOnUse">
				<stop  offset="0.0056" style="stop-color:#53A5BF"/>
				<stop  offset="0.9505" style="stop-color:#00487D"/>
			</radialGradient>
			<path fill-rule="evenodd" clip-rule="evenodd" fill="url(#SVGID_2_)" d="M114.871,98.8c0.073-0.219-0.778-0.599-2.01-0.986
				v-74.33h-7.384l-0.012,0.161l-0.01,0.031l-0.006,0.04l-0.011,0.082l-0.101,0.303l-0.016,0.031l-0.011,0.04l-0.021,0.082
				l-0.044,0.162l-0.106,0.303l-0.098,0.303l-0.111,0.284l-0.109,0.293l-0.033,0.061l-0.016,0.03l-0.012,0.04l-0.055,0.142
				l-0.11,0.283l-0.066,0.122l-0.033,0.061l-0.016,0.03l-0.012,0.041l-0.121,0.263l-0.132,0.253l-0.066,0.121l-0.034,0.061
				l-0.017,0.03l-0.01,0.041l-0.022,0.021l-0.018,0.029l-0.032,0.061l-0.066,0.122l-0.137,0.242l-0.145,0.233l-0.021,0.02
				l-0.018,0.031l-0.032,0.061l-0.067,0.122l-0.138-0.051l-0.126-0.03l-0.122-0.02h-0.221l-0.197,0.04l-0.09,0.041l-0.086,0.041
				l-0.078,0.061l-0.078,0.06l-0.065,0.092l-0.066,0.081l-0.054,0.111l-0.056,0.112l-0.038,0.131l-0.243,0.678l-0.241,0.688
				l-0.255,0.667l-0.253,0.678l-0.266,0.647l-0.131,0.324l-0.067,0.162l-0.032,0.082l-0.028,0.091l-0.038,0.071l-0.032,0.081
				l-0.067,0.162l-0.131,0.324l-0.039,0.07l-0.1,0.243l-0.132,0.324l-0.144,0.303l-0.039,0.071l-0.033,0.081l-0.065,0.162
				l-0.144,0.303l-0.039,0.071l-0.032,0.082l-0.066,0.161l-0.077,0.142l-0.038,0.071l-0.033,0.081l-0.143,0.303l-0.287,0.607
				l-0.304,0.587l-0.297,0.587l-0.309,0.566l-0.309,0.577l-0.012,0.162l-0.011,0.03l-0.006,0.041l-0.011,0.081l-0.253,0.759
				l-0.26,0.748l-0.138,0.365l-0.131,0.374l-0.039,0.081l-0.034,0.091l-0.064,0.182l-0.134,0.365l-0.286,0.698l-0.292,0.688
				l-0.155,0.334l-0.148,0.343l-0.153,0.324l-0.078,0.162l-0.038,0.081l-0.033,0.09l-0.318,0.638l-0.326,0.627l-0.336,0.606
				l-0.342,0.597l-0.353,0.577l-0.357,0.566l-0.188,0.273l-0.182,0.283l-0.375,0.536l-0.007,0.081l-0.005,0.041v0.05l-0.021,0.161
				l-0.1,0.608l-0.089,0.627l-0.17,1.284h-0.051l-0.038,0.021l-0.033,0.02l-0.021,0.051l-0.286,0.576l-0.248,0.617l-0.226,0.617
				l-0.188,0.658l-0.165,0.657l-0.128,0.698L90.771,57l-0.066,0.739l-0.082,0.011l-0.028,0.02l-0.006,0.041l-0.099,0.282l-0.1,0.283
				l-0.104,0.263l-0.099,0.273l-0.111,0.254l-0.11,0.252l-0.032,0.051l-0.027,0.061l-0.056,0.121l-0.034,0.051l-0.082,0.182v0.355
				l0.007,0.324l0.026,0.303l0.017,0.131l0.027,0.132l0.028,0.11l0.039,0.122l0.033,0.132l0.01,0.081l0.006,0.091v0.081l0.011,0.081
				l0.011,0.07l0.028,0.071l0.038,0.122l0.033,0.12l0.027,0.122l0.022,0.131l0.011,0.111l0.006,0.121l-0.011,0.243l-0.021,0.102
				l-0.028,0.121l-0.077,0.222l-0.05,0.103l-0.055,0.11l-0.066,0.102l-0.022,0.021l-0.01,0.01l-0.007,0.021l-0.033,0.061
				l0.028,0.132l0.037,0.142l0.084,0.252l0.094,0.234l0.049,0.1l0.062,0.112l0.054,0.091l0.067,0.091l0.065,0.081l0.077,0.092
				l0.072,0.061l0.082,0.07l0.171,0.131l0.006,0.011l0.012,0.04l0.005,0.051l0.006,0.092l-0.017,0.283v0.313l0.011,0.313
				l0.028,0.354l-2.466,0.354l0.061,0.385l0.072,0.385l0.087,0.413l0.007,0.021l0.021,0.02l0.027,0.01l0.05,0.012l0.766,0.98
				l0.767,1.002l1.526,2.014l0.754,1.011l0.755,1.031l1.5,2.075l0.026,0.03l0.039,0.03l0.038,0.02l0.05,0.01l0.369,1.73l0.376,1.709
				l0.38,1.69l0.39,1.688l0.034,0.152l0.011,0.172l-0.088,0.223l-0.082,0.223l-0.089,0.213l-0.083,0.223l-0.093,0.201l-0.089,0.203
				l-0.099,0.191l-0.095,0.203l-0.055,0.081l-0.027,0.04l-0.021,0.051l-0.1,0.183l-0.21,0.354l-0.22,0.314l-0.033,0.028
				l-0.027,0.041L94.9,86.652l-0.108,0.16l-0.066,0.062l-0.034,0.029l-0.027,0.041l-0.121,0.143l-0.126,0.121l-0.123,0.13
				l-0.13,0.112l-0.128,0.121l-0.265,0.213l-0.143,0.081l-0.072,0.04l-0.065,0.051l-0.288,0.172l-0.297,0.143l-0.153,0.06
				l-0.078,0.03l-0.07,0.041l-0.129,0.749l-0.01,0.192l-0.005,0.039v0.152l-0.017,0.182l-0.011,0.092l-0.006,0.102l-0.018,0.08
				l-0.011,0.092l-0.027,0.182l-0.032,0.162l-0.034,0.172l-0.017,0.03l-0.011,0.04l-0.021,0.082l-0.044,0.15l-0.056,0.143
				l-0.056,0.151l-0.065,0.132l-0.034,0.061l-0.014,0.031l-0.012,0.04l-0.072,0.121l-0.04,0.06l-0.032,0.071l-0.087,0.101
				L91.7,91.861l-0.039,0.062l-0.094,0.102l-0.093,0.101l-0.104,0.082l-0.1,0.09l-0.11,0.081l-0.109,0.091l-0.127,0.061
				l-0.122,0.072l-0.264,0.121l-0.145,0.039l-0.071,0.021l-0.065,0.029l-0.149,0.041l-0.148,0.04l-0.012,0.011v0.242l0.012,0.071
				l0.012,0.051l0.026,0.05l0.11,0.162l0.109,0.182l0.105,0.184l0.104,0.202l0.095,0.192l0.064,0.145l-0.781,0.041l-0.786,1.318
				l-0.063-0.047l-0.171-0.123l0.117,0.367l-3.937,6.605l-1.537,4.836l-11.054,1.201l-7.662,1.756l-3.454-3.223l-3.269-0.693
				l-5.509-5.322c0,0-0.455,0.467-0.707-0.531c-0.337-1.34-3.667-2.922-3.667-2.922l-1.016-7.274l0.03-0.084l0.184-0.505
				l0.175-0.526l0.085-0.263l0.042-0.132l0.05-0.12l0.021-0.082l0.007-0.04l0.014-0.03v-0.051l0.007-0.041l0.008-0.08v-2.145h0.049
				l0.049-0.021l0.043-0.029l0.042-0.031l0.021-0.06l0.021-0.061l0.015-0.071l0.006-0.08v-1.073l0.071-0.161l0.035-0.082l0.042-0.07
				l0.028-0.091l0.035-0.081l0.07-0.171l0.021-0.102L48.29,84l0.056-0.183l0.043-0.204l0.042-0.189l0.015-0.184v-0.091l0.007-0.08
				v-2.144l-0.016-0.174l-0.021-0.161l-0.042-0.172l-0.035-0.183l-0.035-0.202l-0.027-0.212l-0.028-0.232l-0.021-0.254l-0.015-0.272
				l-0.006-0.273h0.246l-0.016-0.171l-0.041-0.132l-0.063-0.142l-0.042-0.152l-0.042-0.162l-0.021-0.172l-0.028-0.202l-0.007-0.203
				v-0.222L48.206,77l-0.008-0.091l-0.007-0.051l-0.021-0.051l-0.014-0.021l-0.092-0.09l-0.042-0.051l-0.028-0.041l-0.05-0.122
				l-0.021-0.07l-0.008-0.06l-0.021-0.173l-0.007-0.091l0.007-0.091l0.021-0.212l0.015-0.112l0.027-0.101l-0.062-0.01l-0.035-0.012
				l-0.035-0.02l-0.007-0.01l-0.05-0.254l-0.035-0.252l-0.021-0.263V74.5l0.056-0.069l0.028-0.041l0.014-0.02l0.008-0.012h0.014
				l0.057-0.08l0.027-0.04l0.015-0.021l0.007-0.01h0.015l0.042-0.092v-0.02l0.007-0.01l0.015-0.021l0.028-0.041l0.042-0.1
				l0.049-0.102l0.028-0.121l0.035-0.121l0.028-0.132l0.035-0.122l0.015-0.142l0.021-0.142l0.015-0.151l0.007-0.081l0.014-0.07
				l0.007-0.021h0.113l-0.016-0.183l-0.021-0.161l-0.098-0.374l-0.112-0.354l0.056-0.102l0.057-0.092l0.085-0.202l0.013-0.081
				l0.008-0.041l0.013-0.029l0.016-0.162l-0.063-0.01l-0.035-0.01L48.324,70.9l-0.006-0.02l-0.05-0.253l-0.035-0.243l-0.021-0.262
				l-0.006-0.254h0.246l0.007-0.182l0.021-0.182l0.027-0.264l0.028-0.243l0.021-0.242l0.021-0.223l0.007-0.233l0.015-0.211
				l0.015-0.416l-0.021-0.394l-0.028-0.354l-0.049-0.333l-0.063-0.294l-0.007-0.091l-0.009-0.071l-0.021-0.061l-0.021-0.04
				l-0.184-0.294l-0.162-0.293l-0.161-0.313l-0.148-0.313l-0.147-0.334l-0.134-0.334L47.325,63.8l-0.113-0.354l-0.062-0.01
				l-0.042-0.012l-0.036-0.029l-0.006-0.021l-0.113-0.333l-0.092-0.334l-0.085-0.344l-0.063-0.345l-0.062-0.011L46.613,62
				l-0.034-0.03l-0.015-0.02l-0.141-0.375l-0.141-0.354l-0.155-0.333l-0.154-0.294h-0.127L45.825,60.3l-0.021-0.272l-0.035-0.253
				l-0.036-0.233l-0.056-0.222l-0.057-0.193l-0.07-0.172l-0.077-0.151h0.246l-0.007-0.182l-0.015-0.172l-0.105-0.718l-0.119-0.709
				l0.189-0.061l0.197-0.051l0.091-0.039l0.1-0.031l0.19-0.061l0.352-0.162l0.169-0.091l0.176-0.081l0.155-0.111l0.162-0.102
				l0.155-0.11l0.076-0.062l0.085-0.051l0.142-0.131l0.147-0.121l0.141-0.142l0.141-0.132v-0.03h0.008l0.014-0.021v-0.03h0.007
				l0.015-0.021l0.014-0.07l0.008-0.08l-0.008-0.092l-0.014-0.07L48.163,55l-0.021-0.051l-0.31-0.597l-0.316-0.566l-0.324-0.566
				l-0.324-0.546l-0.338-0.546l-0.345-0.516l-0.353-0.516L45.474,50.6l0.154,0.091l0.154,0.092l0.071,0.03l0.077,0.04l0.147,0.061
				h0.043l0.021,0.011l0.07,0.021l0.135,0.021h0.127l0.126-0.011l0.112-0.041l0.113-0.05l0.05-0.041l0.057-0.03l0.104-0.08
				l0.042-0.061l0.008-0.021l0.014-0.01l0.028-0.021l0.099-0.121l0.084-0.142l0.084-0.151l0.008-0.041l0.014-0.03l0.008-0.041
				l0.014-0.029l0.015-0.081l0.007-0.081l-0.007-0.091l-0.015-0.071l-0.021-0.07l-0.021-0.051l-0.112-0.213l-0.12-0.172
				l-0.133-0.171l-0.134-0.142l-0.155-0.143l-0.161-0.111l-0.176-0.11l-0.184-0.081l-0.008-0.092l-0.014-0.07l-0.021-0.061
				l-0.021-0.041l-0.127-0.202l-0.099-0.202l-0.07-0.202l-0.028-0.182l-0.014-0.192l0.028-0.182l0.042-0.182l0.085-0.172
				l-0.064-0.01l-0.056-0.02l-0.049-0.03l-0.035-0.031L44.727,45.3l-1.021-1.294l-1.021-1.304l-1-1.315l-1-1.335l-0.979-1.346
				l-0.979-1.365l-0.958-1.376l-0.119-0.02l-0.112-0.03l-0.684-0.425l-0.331-0.223l-0.324-0.232l-0.33-0.253l-0.317-0.252
				l-0.316-0.263l-0.311-0.274l-0.316-0.303l-0.303-0.303l-0.303-0.313l-0.296-0.324l-0.585-0.688l-0.288-0.364l-0.274-0.364
				l-0.127-0.01l-0.127-0.031l-1-0.333l-0.986-0.344l-0.007-0.091l-0.014-0.071l-0.021-0.07l-0.021-0.051l-0.247-0.445l-0.246-0.425
				l-0.254-0.424l-0.254-0.405l-0.267-0.404l-0.275-0.384l-0.281-0.374l-0.282-0.354l-0.302-0.364l-0.304-0.344l-0.619-0.657
				l-0.324-0.324l-0.324-0.303l-0.338-0.293l-0.338-0.272v12.845l0.154,0.172l0.162,0.191l0.311,0.395l0.14,0.203l0.148,0.222
				l0.282,0.456l0.127,0.222l0.127,0.243L27.291,40l0.219,0.516l0.21,0.557l0.177,0.557l0.169,0.597l0.147,0.616l0.071,0.314
				l0.069,0.334l0.106,0.658l0.098,0.698l0.078,0.717l0.034,0.365l0.036,0.384H28.58l-0.24-0.142l-0.226-0.151l-0.218-0.162
				l-0.205-0.162l-0.204-0.193l-0.189-0.192l-0.189-0.203l-0.177-0.202l-0.176-0.233l-0.162-0.233l-0.162-0.243l-0.148-0.252
				l-0.147-0.273l-0.134-0.273l-0.133-0.283l-0.12-0.293l-0.021-0.041l-0.028-0.02l-0.049-0.011h-0.05v44.241l0.148-0.039
				l0.147-0.021l0.134-0.021l0.141,0.01h0.12l0.126,0.031l0.112,0.029l0.12,0.052l0.1,0.05l0.105,0.071l0.092,0.071l0.091,0.091
				l0.078,0.091l0.076,0.11l0.071,0.122l0.07,0.142l0.049,0.132l0.057,0.151l0.042,0.162l0.05,0.183l0.027,0.182l0.036,0.203
				l0.021,0.201l0.021,0.232l0.007,0.223l0.007,0.244v0.515l-0.014,0.272l-0.014,0.293l-0.028,0.293l-0.021,0.314l-0.042,0.345
				l-0.028,0.374l-0.042,0.394l-0.028,0.426l-0.042,0.435l-0.004,0.039c-0.347,0.922-0.717,1.906-1.074,2.863l-0.035,0.011
				l-0.154,0.021h-0.148l-0.014,0.01l-0.028-0.01h-0.148l-0.183-0.021v1.902c-0.639,1.729-1.134,3.098-1.207,3.392
				c-0.229,0.921,3.914,8.518,4.835,8.518c-1.583,0,74.787,1.109,81.268-0.689c0.224-0.062,0.429-0.156,0.629-0.26h1.736v-1.734
				C114.651,104.426,114.696,99.32,114.871,98.8z"/>
		</g>
		<polygon opacity="0.36" fill-rule="evenodd" clip-rule="evenodd" fill="#80C9FF" points="96.342,52.742 96.346,52.912 
			96.358,52.984 96.381,53.064 96.496,53.57 96.601,54.076 96.646,54.318 96.667,54.44 96.679,54.501 96.694,54.572 96.777,55.078 
			96.85,55.563 96.908,56.048 96.932,56.281 96.958,56.524 96.997,57.01 97.009,57.232 97.009,57.283 97.014,57.344 97.024,57.465 
			97.042,57.931 97.042,58.154 97.042,58.265 97.047,58.386 97.047,58.841 97.035,59.054 97.03,59.277 97.003,59.721 96.981,59.933 
			96.965,60.156 96.926,60.601 96.926,60.773 97.091,60.551 97.18,60.429 97.268,60.298 97.355,60.146 97.449,59.984 97.642,59.64 
			97.736,59.437 97.835,59.226 98.045,58.78 98.254,58.275 98.363,58.011 98.479,57.739 98.479,57.556 98.491,57.384 98.491,57.091 
			98.496,56.818 98.485,56.302 98.458,55.806 98.436,55.574 98.414,55.361 98.381,55.138 98.348,54.937 98.258,54.562 98.204,54.38 
			98.154,54.218 98.094,54.056 98.033,53.915 97.956,53.763 97.885,53.631 97.719,53.398 97.626,53.288 97.538,53.197 
			97.339,53.044 97.229,52.963 97.119,52.903 96.876,52.812 96.745,52.771 96.617,52.751 96.342,52.742 		"/>
		<polygon opacity="0.71" fill-rule="evenodd" clip-rule="evenodd" fill="#80C9FF" points="108.267,77.334 108.217,77 
			108.172,76.697 108.073,76.121 108.019,75.847 107.969,75.605 107.913,75.373 107.864,75.169 107.742,74.775 107.621,74.451 
			107.555,74.299 107.493,74.177 107.363,73.986 107.219,73.834 107.142,73.774 107.07,73.744 106.917,73.712 106.761,73.763 
			106.674,73.792 106.591,73.853 106.503,73.916 106.42,74.005 106.244,74.218 106.15,74.349 106.062,74.511 106.051,74.876 
			106.029,75.593 106.018,76.302 106.012,77 106.018,77.688 106.023,78.355 106.041,79.023 106.062,79.671 106.1,80.309 
			106.133,80.927 106.178,81.533 106.228,82.13 106.293,82.717 106.354,83.283 106.431,83.84 106.514,84.387 106.607,84.922 
			106.695,85.428 106.801,85.934 106.904,86.42 107.026,86.904 107.142,87.37 107.274,87.826 107.411,88.261 107.561,88.695 
			107.711,89.1 107.869,89.505 108.034,89.89 108.21,90.273 108.388,90.628 108.574,90.98 108.768,91.315 108.977,91.649 
			108.977,91.639 108.982,91.639 108.992,91.639 109.016,91.639 109.016,91.629 109.021,91.629 109.032,91.629 109.054,91.629 
			109.076,91.6 109.093,91.579 109.181,91.256 109.263,90.932 109.334,90.588 109.4,90.232 109.457,89.859 109.506,89.475 
			109.522,89.272 109.545,89.08 109.583,88.675 109.604,88.24 109.621,87.795 109.621,87.562 109.628,87.339 109.633,86.875 
			109.621,86.389 109.609,85.893 109.588,85.377 109.571,85.113 109.562,84.862 109.362,83.961 109.181,83.051 109.005,82.13 
			108.845,81.199 108.686,80.248 108.537,79.287 108.394,78.314 108.267,77.334 		"/>
		<polygon fill-rule="evenodd" clip-rule="evenodd" fill="#CDCDCE" points="89.734,60.238 89.636,60.238 89.63,60.318 89.63,60.409 
			89.625,60.409 89.625,60.419 89.625,60.439 89.625,60.48 89.625,60.562 89.603,60.683 89.592,60.703 89.585,60.703 89.585,60.712 
			89.585,60.732 89.575,60.794 89.564,60.794 89.559,60.794 89.559,60.804 89.547,60.824 89.525,60.865 89.515,60.865 
			89.509,60.865 89.509,60.875 89.498,60.895 89.477,60.925 89.442,60.935 89.426,60.935 89.415,60.946 89.376,60.946 
			89.343,60.956 89.359,61.087 89.388,61.218 89.42,61.33 89.471,61.431 89.52,61.501 89.585,61.562 89.652,61.613 89.734,61.654 
			89.928,61.664 89.922,61.573 89.912,61.492 89.879,61.36 89.84,61.238 89.812,61.127 89.784,60.996 89.768,60.865 89.741,60.562 
			89.734,60.238 		"/>
		<polygon fill-rule="evenodd" clip-rule="evenodd" fill="#D5D5D5" points="88.587,81.301 88.581,81.209 88.576,81.148 
			88.559,81.098 88.548,81.078 88.366,80.927 88.185,80.795 87.997,80.673 87.81,80.582 87.843,80.724 87.876,80.855 87.908,80.977 
			87.953,81.088 87.987,81.178 88.03,81.26 88.063,81.33 88.107,81.392 88.141,81.432 88.185,81.463 88.262,81.482 88.295,81.473 
			88.339,81.452 88.377,81.422 88.422,81.381 88.492,81.32 88.587,81.301 		"/>
		<path opacity="0.55" fill-rule="evenodd" clip-rule="evenodd" fill="#80C9FF" d="M41.994,61.656h-0.062l-0.043,0.021l-0.035,0.021
			l-0.021,0.05l-0.507,1.022L40.84,63.82l-0.473,1.062l-0.45,1.103l-0.443,1.103l-0.416,1.144l-0.4,1.163l-0.388,1.183l0.048,0.232
			l0.064,0.224l0.078,0.201l0.105,0.192l0.105,0.173l0.134,0.172l0.134,0.151l0.161,0.142l0.113,0.061l0.056,0.01h0.057l0.1-0.04
			l0.042-0.041l0.056-0.05l0.169-0.254l0.17-0.242l0.154-0.253l0.162-0.242l0.141-0.273l0.147-0.263l0.063-0.143l0.07-0.131
			l0.134-0.263l0.057-0.152l0.064-0.142l0.118-0.283l0.021-0.08l0.028-0.071l0.057-0.142l0.112-0.293l0.042-0.162l0.022-0.081
			l0.026-0.071l0.101-0.303l0.083-0.314l0.085-0.312l0.07-0.334l0.07-0.334l0.056-0.344l0.057-0.334l0.043-0.354l0.021-0.183
			l0.027-0.171l0.036-0.365l0.013-0.182l0.009-0.091l0.013-0.081l0.021-0.385v-0.102l0.008-0.09l0.014-0.184l0.008-0.384
			l0.014-0.374l-0.007-0.201v-0.193v-0.395l-0.015-0.404L41.994,61.656L41.994,61.656z M40.508,66.48v-0.535l0.149-0.192
			l0.133-0.151l0.106-0.132l0.098-0.091l0.07-0.071l0.029-0.03l0.027-0.01l0.027-0.011l0.016,0.03l-0.008,0.01l-0.008,0.031
			l-0.027,0.07l-0.027,0.041L41.064,65.5L41.03,65.56l-0.036,0.08l-0.049,0.071l-0.049,0.092l-0.106,0.192l-0.069,0.1l-0.063,0.123
			l-0.078,0.12L40.508,66.48L40.508,66.48z"/>
		<polygon opacity="0.36" fill-rule="evenodd" clip-rule="evenodd" fill="#62A1BA" points="40.508,65.945 40.508,66.48 
			40.579,66.338 40.657,66.218 40.721,66.095 40.79,65.996 40.896,65.803 40.945,65.711 40.994,65.64 41.03,65.56 41.064,65.5 
			41.094,65.439 41.121,65.398 41.148,65.328 41.156,65.296 41.164,65.287 41.148,65.256 41.121,65.267 41.094,65.277 
			41.064,65.307 40.994,65.378 40.896,65.469 40.79,65.601 40.657,65.752 40.508,65.945 		"/>
		<polygon fill-rule="evenodd" clip-rule="evenodd" fill="#62A1BA" points="46.951,49.882 46.945,49.954 46.936,50.025 
			46.925,50.051 46.919,50.087 46.909,50.115 46.903,50.15 46.841,50.283 46.777,50.408 46.704,50.514 46.684,50.533 46.673,50.542 
			46.668,50.559 46.637,50.613 46.558,50.683 46.517,50.71 46.479,50.746 46.396,50.791 46.312,50.827 46.218,50.835 46.123,50.835 
			46.022,50.818 45.971,50.799 45.955,50.791 45.944,50.791 45.924,50.791 45.813,50.737 45.756,50.701 45.703,50.675 
			45.588,50.595 45.474,50.514 45.741,50.951 46.003,51.405 46.26,51.859 46.511,52.339 46.752,52.82 46.993,53.318 47.229,53.818 
			47.458,54.342 47.475,54.386 47.491,54.449 47.501,54.511 47.506,54.591 47.621,54.654 47.742,54.734 47.852,54.814 
			47.963,54.912 48.062,55.011 48.161,55.125 48.34,55.384 48.429,55.535 48.334,55.046 48.219,54.574 48.15,54.342 48.077,54.12 
			47.92,53.701 47.731,53.203 47.564,52.722 47.411,52.241 47.286,51.769 47.171,51.289 47.082,50.818 47.004,50.345 46.951,49.882 
					"/>
		<polygon fill-rule="evenodd" clip-rule="evenodd" fill="#D4D4D4" points="28.58,46.312 28.705,46.312 28.672,45.928 
			28.636,45.563 28.558,44.846 28.46,44.148 28.354,43.49 28.284,43.156 28.214,42.842 28.065,42.226 27.896,41.629 27.72,41.073 
			27.51,40.516 27.291,40 27.052,39.505 26.924,39.262 26.798,39.04 26.516,38.584 26.369,38.362 26.228,38.16 25.917,37.765 
			25.755,37.574 25.601,37.401 25.601,42.388 25.601,42.751 25.649,42.751 25.699,42.762 25.728,42.782 25.749,42.823 
			25.867,43.116 26.002,43.399 26.136,43.672 26.283,43.945 26.432,44.198 26.594,44.44 26.756,44.673 26.932,44.906 27.108,45.108 
			27.298,45.311 27.487,45.502 27.691,45.695 27.896,45.857 28.114,46.019 28.341,46.17 28.58,46.312 		"/>
		<path opacity="0.71" fill-rule="evenodd" clip-rule="evenodd" fill="#80C9FF" d="M40.368,84.494l-0.007,0.082l-0.015,0.081
			l-0.021,0.061l-0.021,0.061l-0.246,0.445l-0.247,0.444l-0.253,0.436l-0.254,0.445l-0.269,0.424l-0.26,0.426l-0.268,0.414
			l-0.268,0.415l-0.282,0.395l-0.28,0.394l-0.29,0.385l-0.041,0.041l-0.035,0.05l-0.07,0.103l-0.142,0.201l-0.155,0.182
			l-0.043,0.041l-0.034,0.051l-0.07,0.102l-0.296,0.373l-0.304,0.365l-0.302,0.363l0.092,0.354l0.119,0.354l0.127,0.323l0.148,0.313
			L36.53,92.9l0.169,0.272l0.176,0.254l0.204,0.231l0.205,0.213l0.218,0.191l0.232,0.172l0.253,0.152l0.261,0.131l0.274,0.122
			l0.289,0.091l0.31,0.092l0.255,0.02l0.365,0.525l0.366,0.547l0.352,0.547l0.359,0.566l0.346,0.566l0.346,0.586l0.33,0.598
			l0.338,0.617l0.021,0.029l0.043,0.03l0.049,0.021l0.063,0.01v0.576l0.021,0.557l0.028,0.546l0.049,0.536l0.05,0.506l0.07,0.496
			l0.076,0.485l0.1,0.476l0.092,0.444l0.12,0.435l0.119,0.416l0.148,0.414l0.147,0.385l0.161,0.375l0.177,0.354l0.189,0.344
			L43.98,107l0.027,0.092l0.036,0.109l0.015,0.102l0.021,0.123l0.006,0.119l0.007,0.143l0.359-1.486l4.195,2.107l0.402-1.426
			l0.204-0.707l0.219-0.689l0.211-0.697l0.225-0.678l0.458-1.346l0.473-1.324l-3.316-4.85l0.015-0.08l0.007-0.042l0.015-0.028
			v-0.051l0.006-0.041l0.007-0.081v-0.354v-4.996l-0.062-0.01l-0.042-0.01l-0.035-0.031l-0.016-0.021l-0.197-0.506l-0.195-0.485
			l-0.205-0.485l-0.197-0.466L46.41,88.43l-0.211-0.455l-0.219-0.456l-0.211-0.435l-0.232-0.445l-0.225-0.424l-0.474-0.84
			l-0.246-0.414l-0.245-0.395l-0.501-0.779l0.049-0.738l0.063-0.697l0.085-0.679l0.106-0.636l0.118-0.628l0.135-0.587l0.07-0.295
			l0.085-0.271l0.176-0.536l0.104-0.354l0.1-0.334l0.077-0.333l0.078-0.314l0.049-0.313l0.049-0.303l0.021-0.293l0.022-0.283
			l-0.008-0.294l-0.007-0.272l-0.035-0.273l-0.035-0.252l-0.064-0.254l-0.062-0.243l-0.092-0.231l-0.092-0.223v-0.183l-0.203,0.466
			l-0.19,0.485l-0.189,0.495l-0.17,0.516l-0.169,0.516l-0.155,0.547l-0.155,0.546l-0.139,0.577l-0.142,0.565l-0.127,0.588
			l-0.127,0.596l-0.105,0.618l-0.106,0.616l-0.091,0.648l-0.092,0.646l-0.077,0.679h-0.063l-0.05,0.021l-0.049,0.02l-0.035,0.05
			l-0.056,0.051l-0.05,0.062l-0.1,0.121l-0.112,0.111l-0.056,0.051l-0.05,0.059l-0.064,0.043l-0.055,0.05l-0.112,0.101l-0.063,0.041
			l-0.058,0.051L41.51,84l-0.071,0.029l-0.063,0.041l-0.134,0.08L41.1,84.211l-0.069,0.031l-0.063,0.04l-0.077,0.02l-0.071,0.03
			l-0.147,0.062l-0.155,0.051l-0.077,0.021L40.368,84.494L40.368,84.494z"/>
		<polyline opacity="0.65" fill-rule="evenodd" clip-rule="evenodd" fill="#BFE4FF" points="47.647,96.457 47.647,96.043 
			47.641,95.82 47.641,95.607 47.641,95.174 47.627,94.717 47.599,94.139 47.606,93.777 47.599,93.534 47.599,93.302 47.585,93.131 
			47.55,92.979 47.741,92.01 47.403,91.211 47.221,90.816 47.037,90.442 46.848,90.068 46.657,89.713 46.445,89.35 46.241,89.005 
			46.022,88.662 45.812,88.338 45.354,87.701 44.875,87.104 44.812,87.104 44.763,87.125 44.714,87.145 44.678,87.195 
			44.678,87.195 44.213,87.68 43.763,88.196 43.318,88.713 42.89,89.248 42.84,89.653 42.826,89.845 42.826,90.037 42.826,90.209 
			42.84,90.381 42.854,90.533 42.883,90.685 42.911,90.816 42.952,90.947 42.995,91.059 43.052,91.17 43.107,91.262 43.179,91.353 
			43.249,91.434 43.334,91.515 43.749,91.848 44.156,92.223 44.544,92.616 44.728,92.82 44.918,93.041 45.262,93.477 45.431,93.699 
			45.606,93.941 45.925,94.438 46.241,94.953 46.529,95.489 46.805,96.045 46.933,96.328 47.059,96.632 47.305,97.25 		"/>
		<polygon fill-rule="evenodd" clip-rule="evenodd" fill="#D4D4D4" points="27.276,94.822 27.312,94.306 27.354,93.82 
			27.368,93.578 27.39,93.355 27.432,92.921 27.46,92.495 27.502,92.102 27.531,91.728 27.573,91.383 27.594,91.068 27.622,90.775 
			27.636,90.482 27.649,90.21 27.649,89.937 27.649,89.695 27.644,89.451 27.636,89.229 27.615,88.996 27.594,88.795 27.558,88.592 
			27.531,88.41 27.48,88.228 27.439,88.065 27.382,87.914 27.333,87.782 27.263,87.641 27.191,87.519 27.115,87.408 27.036,87.317 
			26.945,87.227 26.854,87.155 26.748,87.084 26.65,87.034 26.529,86.982 26.417,86.953 26.291,86.922 26.171,86.922 26.03,86.912 
			25.896,86.933 25.749,86.953 25.601,86.992 25.601,95.914 25.601,96.269 25.783,96.289 25.867,96.289 25.91,96.289 25.932,96.289 
			25.959,96.299 25.974,96.289 25.995,96.289 26.037,96.289 26.122,96.289 26.277,96.269 26.417,96.227 26.445,96.208 26.46,96.197 
			26.48,96.197 26.552,96.178 26.608,96.137 26.636,96.117 26.65,96.106 26.671,96.106 26.783,96.025 26.875,95.925 26.918,95.863 
			26.924,95.844 26.939,95.833 26.967,95.813 26.981,95.773 26.987,95.752 27.003,95.742 27.045,95.682 27.115,95.54 27.164,95.378 
			27.164,95.348 27.171,95.327 27.185,95.287 27.213,95.207 27.228,95.104 27.228,95.076 27.234,95.055 27.248,95.015 
			27.276,94.822 		"/>
		<polygon fill-rule="evenodd" clip-rule="evenodd" fill="#D4D4D4" points="28.558,108.76 28.517,108.506 28.48,108.273 
			28.396,107.818 28.29,107.383 28.234,107.172 28.178,106.98 28.044,106.584 27.967,106.395 27.896,106.221 27.734,105.867 
			27.565,105.555 27.361,105.24 27.157,104.965 26.932,104.715 26.699,104.48 26.438,104.269 26.178,104.076 25.89,103.905 
			25.741,103.824 25.601,103.764 25.53,104.137 25.474,104.502 25.425,104.855 25.396,105.199 25.368,105.523 25.354,105.836 
			25.347,106.131 25.354,106.424 25.361,106.686 25.382,106.949 25.41,107.191 25.459,107.426 25.51,107.637 25.572,107.84 
			25.643,108.021 25.734,108.203 25.819,108.355 25.917,108.506 26.023,108.639 26.149,108.76 26.27,108.861 26.411,108.951 
			26.559,109.033 26.721,109.104 26.882,109.145 27.058,109.186 27.242,109.205 27.445,109.225 27.649,109.215 27.868,109.205 
			28.093,109.174 28.332,109.135 28.453,109.113 28.58,109.113 28.572,108.932 28.558,108.76 		"/>
		<polygon fill-rule="evenodd" clip-rule="evenodd" fill="#62A1BA" points="48.451,78.79 48.451,78.78 48.459,78.78 48.473,78.78 
			48.501,78.78 48.501,78.77 48.508,78.77 48.522,78.77 48.551,78.77 48.572,78.75 48.593,78.729 48.648,78.375 48.664,78.212 
			48.677,78.072 48.677,77.92 48.67,77.789 48.656,77.667 48.643,77.566 48.607,77.454 48.572,77.363 48.529,77.273 48.48,77.203 
			48.416,77.13 48.354,77.082 48.282,77.031 48.205,77 48.191,77.232 48.191,77.454 48.198,77.657 48.227,77.859 48.248,78.031 
			48.29,78.193 48.332,78.345 48.396,78.487 48.437,78.619 48.451,78.79 		"/>
		<polygon fill-rule="evenodd" clip-rule="evenodd" fill="#62A1BA" points="48.451,82.715 48.451,83.069 48.451,83.059 
			48.459,83.059 48.473,83.059 48.501,83.059 48.551,83.038 48.563,83.018 48.563,83.008 48.572,83.008 48.585,83.008 
			48.614,82.978 48.685,82.795 48.748,82.624 48.797,82.451 48.847,82.301 48.874,82.148 48.896,82.008 48.903,81.865 
			48.903,81.744 48.882,81.612 48.854,81.491 48.818,81.379 48.769,81.279 48.706,81.178 48.628,81.086 48.543,80.995 
			48.451,80.926 48.451,82.715 		"/>
		<path fill-rule="evenodd" clip-rule="evenodd" fill="#80C9FF" d="M88.213,97.537l2.67-2.967l2.077-4.748l3.542-3.746
			c0,0,0.559-4.646,0-5.947c-0.558-1.301-2.601-6.691-3.345-7.063s-5.019-4.646-5.019-4.646l2.417,9.85l-1.116,4.833l-0.742,2.788
			l1.858,3.532L88.213,97.537z"/>
		<polygon opacity="0.65" fill-rule="evenodd" clip-rule="evenodd" fill="#BFE4FF" points="94.198,82.662 94.662,83.146 
			95.113,83.663 95.558,84.179 95.986,84.715 96.036,85.119 96.05,85.312 96.05,85.504 96.05,85.676 96.036,85.848 96.021,86 
			95.994,86.151 95.965,86.283 95.924,86.414 95.882,86.525 95.825,86.637 95.768,86.729 95.698,86.818 95.628,86.9 95.543,86.98 
			95.127,87.314 94.72,87.689 94.332,88.083 94.149,88.285 93.958,88.508 93.614,88.943 93.445,89.166 93.27,89.408 92.951,89.904 
			92.635,90.42 92.346,90.955 92.071,91.512 91.944,91.795 91.817,92.098 91.571,92.715 91.353,93.354 91.143,94.01 91.051,94.344 
			90.951,94.698 90.769,95.417 90.762,95.062 90.762,94.738 90.748,94.404 90.74,94.061 90.727,93.717 90.727,93.354 90.727,93.16 
			90.719,92.979 90.719,92.595 90.712,92.21 90.719,92.149 90.719,92.098 90.719,91.998 90.719,91.795 90.719,91.381 90.727,91.158 
			90.727,90.945 90.727,90.511 90.74,90.055 90.748,89.59 90.762,89.115 90.769,88.873 90.769,88.639 90.782,88.468 90.817,88.316 
			91.135,87.477 91.473,86.678 91.655,86.283 91.839,85.908 92.028,85.535 92.22,85.182 92.431,84.816 92.635,84.472 92.853,84.128 
			93.064,83.805 93.522,83.166 94.001,82.57 94.064,82.57 94.113,82.591 94.162,82.611 94.198,82.662 		"/>
		
			<radialGradient id="SVGID_3_" cx="70.1094" cy="109.0449" r="85.2774" gradientTransform="matrix(0.9927 0 0 0.983 0.0972 -1.332)" gradientUnits="userSpaceOnUse">
			<stop  offset="0" style="stop-color:#EFF9FE"/>
			<stop  offset="0.9101" style="stop-color:#55C0EA"/>
		</radialGradient>
		<polygon opacity="0.2" fill="url(#SVGID_3_)" points="114.595,48.593 79.882,93.113 111.296,37.629 77.939,91.674 103.506,32.548 
			75.865,90.494 95.152,28.457 73.672,89.586 86.335,25.448 71.374,88.965 77.148,23.596 68.956,88.642 67.704,22.968 
			66.776,88.623 60.208,23.363 64.694,88.846 52.276,24.658 62.567,89.323 43.578,27.174 60.395,90.102 35.245,30.754 
			58.309,91.154 27.345,35.359 56.346,92.463 23.492,45.899 23.492,46.322 54.507,94.023 23.492,58.968 23.492,59.923 
			52.827,95.811 23.492,69.375 23.492,70.613 51.335,97.804 23.492,78.058 23.492,79.443 50.052,99.973 23.492,85.592 
			23.492,87.062 48.996,102.297 23.492,92.365 23.492,93.878 48.186,104.744 23.492,98.639 23.492,100.203 47.629,107.324 
			23.492,104.654 23.492,106.266 47.341,110.025 23.492,110.6 23.492,111.43 114.595,111.43 114.595,110.861 88.084,110.391 
			114.595,107.051 114.595,105.77 87.885,108.061 114.595,101.585 114.595,100.269 87.456,105.682 114.595,95.299 114.595,93.938 
			86.764,103.25 114.595,88.479 114.595,87.162 85.828,100.926 114.595,80.922 114.595,79.674 84.652,98.719 114.595,72.267 
			114.595,71.151 83.26,96.66 114.595,61.935 114.595,61.064 81.66,94.783 114.595,49.008 		"/>
		<g>
			<path d="M79.965,58.072c-3.01-3.01-4.387-4.447-4.387-4.447l-2.591-1.677l-0.09-0.081l-1.178-0.766l-1.007-0.048l-0.285-1.951
				c0,0-0.907-2.158-2.499-2.385c-1.588-0.226-2.837,1.478-3.064,2.157c-0.167,0.5-0.942,1.73-1.345,2.351l0.12-0.761l-0.037-5.865
				L62.96,44.61L62.847,45v4.669l-0.348,1.99l-0.701,0.054l-0.043,0.257c-0.54-0.176-1.165-0.27-1.725-0.065
				c-1.073,0.392-1.537,1.683-1.392,3.826c-0.307,0.419-0.551,0.899-0.586,1.433c-0.114,1.703-1.25,1.136-1.25,1.136l-0.681,0.907
				l-0.228,1.816c0,0,0.49,1.589,2.857,1.589v2.157c0,0-0.02,3.182,1.91,5.109l0.568,0.908l1.93,0.34c0,0-0.112,5.451,0.797,8.517
				c0,0,0.793,3.18,1.815,3.975l0.794,2.498l-0.453,1.249c0,0-0.227,2.725,0.228,5.676c0,0,0,1.705,1.475,1.705
				c1.477,0,0.908-0.342,0.908-2.159c0-1.815,0.229-2.384,0.229-2.384l0.567,2.838c0,0,0.794,1.93,1.93,1.705
				c1.134-0.229,1.248-1.364,0.795-3.295c-0.454-1.929-0.682-3.064-0.682-3.064s-0.682-1.362-1.93-2.271l-0.227-2.044l-0.796-2.611
				l0.229-2.954l0.567-3.178c0,0,2.496,4.541,2.156,5.904l-0.681,1.021l-0.908,2.271c0,0,1.816,0.454,3.18-1.021
				c0,0,0.454,1.362,1.929,1.589c0,0,1.477-0.908,1.25-1.816s-0.455-1.93-0.455-1.93l0.455-1.477l-0.227-1.136l0.34-0.795
				l-1.136-1.815l-0.341-3.748l-0.341-1.361l0.568-1.816c0,0,1.136,0.113,1.931-0.682s0.113-1.477,0.795-2.158
				c0.681-0.682,2.043-2.725,2.043-2.725S82.974,61.08,79.965,58.072z M60.323,54.212c0,0-0.536,0.311-1.089,0.833
				c-0.006-1.31,0.28-2.166,0.849-2.483c0.459-0.254,1.062-0.152,1.569,0.027l-0.081,0.486L60.323,54.212z M77.108,62.046
				c-0.42,0.887-0.398,0.739-0.398,0.739l-0.432-0.034l-0.262-0.354c-0.023-0.032-0.283-0.658-0.238-0.681
				c0.046-0.022-0.007-0.296-0.007-0.341c0-0.047,0.08-0.558,0.08-0.558s-0.58-0.546-0.638-0.604
				c-0.057-0.056-0.573-1.001-0.573-1.001s-0.352-0.637-0.363-0.738c-0.012-0.104,0.351-0.467,0.351-0.467s0.695,0.397,0.787,0.568
				c0.091,0.171,1.602,1.718,1.602,1.718S77.53,61.159,77.108,62.046z"/>
		</g>
		<circle opacity="0.5" cx="60.037" cy="47.345" r="0.671"/>
		<circle opacity="0.73" cx="60.255" cy="39.679" r="0.461"/>
		<circle opacity="0.5" cx="59.083" cy="43.742" r="0.461"/>
		<circle opacity="0.5" cx="59.083" cy="35.929" r="0.271"/>
		<circle opacity="0.73" cx="57.751" cy="45.521" r="0.461"/>
		<g>
			<path fill="#0B1D21" d="M23.235,20.128L23.234,112.6h92.473V20.128H23.235z M109.866,25.97c0,5.264,0,75.524,0,80.788
				c-5.265,0-75.525,0-80.79,0c0-5.264,0.001-75.524,0.001-80.788C34.342,25.97,104.602,25.97,109.866,25.97z"/>
			<path fill="#0B1D21" d="M28.659,25.552v81.624h81.624V25.552H28.659z M109.449,26.387c0,0.822,0,79.132,0,79.953
				c-0.818,0-79.139,0-79.956,0c0-0.816,0.001-79.136,0.001-79.953C30.316,26.387,108.626,26.387,109.449,26.387z"/>
		</g>
		<g>
			<path fill="#FFFFFF" d="M28.512,107.4V25.334h82.066v81.354v0.713H28.512L28.512,107.4z M109.865,106.688v-0.713V106.688
				L109.865,106.688z M29.938,105.975h79.216l-0.002-79.216H29.938V105.975L29.938,105.975z"/>
		</g>
	</g>
</g>
<path fill="#E3E3E3" d="M133,6v147H6V6H133 M134,5H5v149h129V5L134,5z"/>
</svg>
