<?xml version="1.0" encoding="utf-8"?>
<!-- Generator: Adobe Illustrator 16.0.4, SVG Export Plug-In . SVG Version: 6.00 Build 0)  -->
<!DOCTYPE svg PUBLIC "-//W3C//DTD SVG 1.1//EN" "http://www.w3.org/Graphics/SVG/1.1/DTD/svg11.dtd">
<svg version="1.1" id="Ebene_1" xmlns="http://www.w3.org/2000/svg" xmlns:xlink="http://www.w3.org/1999/xlink" x="0px" y="0px"
	 width="1200px" height="495px" viewBox="0 0 1200 495" enable-background="new 0 0 1200 495" xml:space="preserve">
<g>
	<g>
		<g>
			<path fill="#10293F" d="M617.502,39.374c2.448,0,4.411,1.975,4.411,4.415c0,2.438-1.963,4.412-4.411,4.412
				s-4.414-1.973-4.414-4.412C613.088,41.349,615.054,39.374,617.502,39.374z"/>
		</g>
		<path fill="#10293F" d="M608.105,37.987h-0.722v2.017c0,0.386-0.312,0.699-0.698,0.699c-0.385,0-0.697-0.313-0.697-0.699v-2.017
			h-3.667c-1.322,0-2.395,1.072-2.395,2.394c0,1.322,1.072,2.394,2.395,2.394h5.784c1.322,0,2.396-1.072,2.396-2.394
			C610.501,39.059,609.429,37.987,608.105,37.987z"/>
		<path fill="#10293F" d="M586.104,43.255l-8.436,3.309c-1.021,0.401-2.023-0.154-2.227-1.232l-0.48-2.543
			c-0.203-1.078,0.529-1.96,1.626-1.96c0,0,9.517,0,10.833,0c1.709,0,2.489,0.144,3.284,0.827c0.372,0.32,3.116,2.367,3.116,2.367
			s11.029,0,13.356,0s3.325,0.815,4.294,2.117l4.667,5.846h7.173c0.974,0,1.764,0.79,1.764,1.763s-0.79,1.763-1.764,1.763h-8.868
			l-3.277-4.104h-10.651l-5.073,4.471l-7.067-3.886l-7.058,6.342c-0.816,0.733-1.95,0.566-2.521-0.371l-1.349-2.216
			c-0.57-0.937-0.198-2.021,0.829-2.41c0,0,9.661-3.655,10.739-4.036c1.077-0.38,1.963-0.3,2.672,0.007
			c0.709,0.308,2.989,1.371,2.989,1.371l2.568-2.263h-4.372L586.104,43.255z"/>
	</g>
	<polygon opacity="0.66" fill="#10293F" enable-background="new    " points="645.207,46 600,0.793 554.793,46 0,46 0,47 
		555.207,47 600,2.207 644.793,47 1200,47 1200,46 	"/>
	
		<linearGradient id="SVGID_1_" gradientUnits="userSpaceOnUse" x1="36" y1="697.793" x2="36" y2="738" gradientTransform="matrix(1 0 0 -1 564 790)">
		<stop  offset="0" style="stop-color:#10293F;stop-opacity:0.66"/>
		<stop  offset="1" style="stop-color:#10293F;stop-opacity:0.13"/>
	</linearGradient>
	<polygon fill="url(#SVGID_1_)" points="638.793,52 600,90.792 561.207,52 560.5,52 559.793,52 600,92.206 640.207,52 639.5,52 	"/>
</g>
<g>
	<rect y="245" opacity="0.66" fill="#10293F" enable-background="new    " width="555" height="1"/>
	<rect x="645" y="245" opacity="0.66" fill="#10293F" enable-background="new    " width="555" height="1"/>
	<rect x="645" y="249" opacity="0.66" fill="#10293F" enable-background="new    " width="555" height="1"/>
	<rect y="249" opacity="0.66" fill="#10293F" enable-background="new    " width="555" height="1"/>
</g>
<g>
	<rect y="145" opacity="0.66" fill="#10293F" enable-background="new    " width="555" height="1"/>
	<rect x="645" y="145" opacity="0.66" fill="#10293F" enable-background="new    " width="555" height="1"/>
	<rect x="645" y="149" opacity="0.66" fill="#10293F" enable-background="new    " width="555" height="1"/>
	<rect y="149" opacity="0.66" fill="#10293F" enable-background="new    " width="555" height="1"/>
</g>
<g>
	<rect y="345" opacity="0.66" fill="#10293F" enable-background="new    " width="555" height="1"/>
	<rect x="645" y="345" opacity="0.66" fill="#10293F" enable-background="new    " width="555" height="1"/>
	<rect x="645" y="349" opacity="0.66" fill="#10293F" enable-background="new    " width="555" height="1"/>
	<rect y="349" opacity="0.66" fill="#10293F" enable-background="new    " width="555" height="1"/>
</g>
<g>
	<rect y="445" opacity="0.66" fill="#10293F" enable-background="new    " width="555" height="1"/>
	<rect x="645" y="445" opacity="0.66" fill="#10293F" enable-background="new    " width="555" height="1"/>
	<rect x="645" y="449" opacity="0.66" fill="#10293F" enable-background="new    " width="555" height="1"/>
	<rect y="449" opacity="0.66" fill="#10293F" enable-background="new    " width="555" height="1"/>
</g>
<g>
	<path fill="#10293F" d="M615.396,217.5c3.021,1.15,4.16,6.241,8.707,6.308c3.266,7.551-4.062,22.002-6.543,25.477
		c-4.004,5.396,0.332,15.599-7.926,14.184c-8.353-0.66-1.617-9.479-4.167-15.696c-1.548-3.977-5.092-19.789-0.068-26.304
		C609.823,222.523,612.181,217.871,615.396,217.5L615.396,217.5z M615.562,220.229c-0.525,7.019-3.336,21.078,0.125,21.616
		c1.896-0.691,7.096-10.182,4.948-17.064h-0.001c0.176,8.724-4.283,16.009-5.107,12.992
		C614.648,234.56,616.123,222.023,615.562,220.229L615.562,220.229z M614.581,220.012c-1.017,1.582-2.915,14.062-4.612,16.925
		c-1.595,2.69-3.965-5.515-1.483-13.881l-0.001,0.001c-3.896,6.068-1.395,16.598,0.251,17.765
		C612.214,241.221,613.229,226.919,614.581,220.012L614.581,220.012z M609.753,262.604c2.321,0.289,4.474-1.623,4.803-4.271
		c0.146-1.151-0.08-2.252-0.567-3.153l-6.508-0.813c-0.696,0.753-1.187,1.765-1.328,2.916
		C605.819,259.93,607.433,262.314,609.753,262.604L609.753,262.604z M611.734,246.768c2.335,0.292,4.102,1.542,4.185,0.883
		c0.082-0.659-1.552-2.981-3.887-3.273s-4.488,1.557-4.572,2.216C607.379,247.253,609.398,246.475,611.734,246.768z"/>
	<path fill="#10293F" d="M580.576,239.298c-2.024,2.522-0.43,7.49-4.319,9.851c1.008,8.166,14.645,16.918,18.542,18.658
		c6.184,2.629,7.608,13.622,14.014,8.221c6.87-4.799-3.403-8.992-4.353-15.645c-0.678-4.215-5.625-19.645-13.256-22.721
		C587.923,240.811,583.534,237.992,580.576,239.298L580.576,239.298z M581.812,241.737c4.005,5.786,13.547,16.488,10.834,18.705
		c-1.984,0.365-11.273-5.188-12.907-12.211h0.001c4.266,7.612,11.799,11.637,10.981,8.619
		C589.855,253.633,582.237,243.569,581.812,241.737L581.812,241.737z M582.548,241.054c1.676,0.85,9.632,10.651,12.545,12.262
		c2.738,1.512,0.627-6.765-5.747-12.726l0,0c6.432,3.263,9.604,13.61,8.777,15.449C595.326,258.146,587.211,246.326,582.548,241.054
		L582.548,241.054z M608.271,275.34c-1.854,1.426-4.679,0.865-6.304-1.25c-0.707-0.921-1.071-1.982-1.104-3.008l5.199-3.996
		c0.981,0.297,1.916,0.922,2.623,1.841C610.312,271.044,610.127,273.916,608.271,275.34L608.271,275.34z M598.547,262.686
		c-1.865,1.436-2.756,3.408-3.162,2.881c-0.404-0.526-0.171-3.355,1.695-4.789c1.866-1.435,4.66-0.933,5.064-0.405
		C602.551,260.898,600.414,261.252,598.547,262.686z"/>
</g>
<path fill="#10293F" d="M604.999,329.739v-0.326c0-1.484-1.085-2.711-2.505-2.938l-0.139-1.385c0.95-0.565,1.594-1.603,1.594-2.789
	c0-1.382-0.87-2.562-2.09-3.028l-0.162-1.772h-1.991l-0.161,1.772c-0.882,0.338-1.578,1.049-1.896,1.939h-1.846
	c0-0.473-0.382-0.911-0.852-0.974l-7.234-0.975c-0.469-0.062-0.852,0.272-0.852,0.745v4.583c0,0.474,0.383,0.809,0.852,0.745
	l7.234-0.974c0.469-0.063,0.852-0.502,0.852-0.975h1.846c0.256,0.717,0.756,1.315,1.4,1.7l-0.138,1.382
	c-1.112,0.179-2.019,0.972-2.359,2.021h4.037c0.351,0,0.636,0.285,0.636,0.636c0,0.268-0.167,0.495-0.401,0.588h-3.959
	c-4.746,0-8.595,3.848-8.595,8.596v30.596c0,4.746,3.849,8.594,8.595,8.594h7.678c4.747,0,8.594-3.848,8.594-8.594v-30.596
	C613.135,333.719,609.531,329.979,604.999,329.739z M600.702,323.767c-0.808,0-1.465-0.656-1.465-1.465s0.657-1.465,1.465-1.465
	s1.466,0.657,1.466,1.465S601.51,323.767,600.702,323.767z M608.383,358.304h-15.335v-13.435h15.335V358.304z M594.99,346.342h11.92
	v9.356L594.99,346.342z M605.328,356.832H594.52v-8.482L605.328,356.832z"/>
<path fill="#10293F" d="M621.244,454.506c2.34-2.078,3.995-5.282,3.995-9.33c0-4.893-1.345-8.223-3.995-9.981v-15.501
	c0-1.211-0.982-2.192-2.193-2.192s-2.191,0.981-2.191,2.192v14.079c-0.393-0.033-0.795-0.053-1.215-0.053h-31.289
	c-6.365,0-9.594,3.854-9.594,11.456c0,7.422,5.562,12.017,10.711,12.017c3.393,0,5.883-1.161,7.79-2.694
	c0.234-0.117,0.498-0.243,0.784-0.374l4.143,3.136c1,1,2.621,1,3.621,0l4.145-3.136c0.285,0.131,0.549,0.258,0.783,0.375
	c1.906,1.532,4.396,2.693,7.789,2.693c0.774,0,1.559-0.106,2.331-0.31v2.184c-0.542,0.554-0.878,1.31-0.878,2.146v5.031
	c0,2.821-2.295,5.118-5.115,5.118c-2.338,0-4.311-1.578-4.919-3.724c1.236-0.83,1.907-1.549,1.97-1.615
	c0.812-0.896,0.746-2.283-0.15-3.098c-0.896-0.813-2.283-0.748-3.098,0.149c-0.023,0.025-2.504,2.622-7.189,2.871
	c-1.21,0.062-2.138,1.097-2.072,2.306c0.062,1.17,1.029,2.076,2.188,2.076c0.039,0,0.079,0,0.119-0.002
	c0.912-0.049,1.757-0.17,2.55-0.332c1.55,4.365,5.711,7.506,10.604,7.506c6.206,0,11.256-5.05,11.256-11.257v-5.031
	c0-0.837-0.334-1.593-0.877-2.146L621.244,454.506L621.244,454.506z M614.527,453.648c-4.866,0-7.118-3.199-9.104-6.021
	c-1.53-2.172-2.974-4.224-5.422-4.224s-3.892,2.052-5.422,4.223c-1.986,2.822-4.239,6.021-9.105,6.021
	c-3.446,0-7.168-3.24-7.168-8.474c0-6.954,2.908-7.912,6.052-7.912h31.289c3.144,0,6.051,0.958,6.051,7.912
	C621.695,450.408,617.975,453.648,614.527,453.648z"/>
<g>
	<g>
		<path fill="#10293F" d="M619.544,138.322c2.733,0,4.931,2.204,4.931,4.93c0,2.725-2.196,4.926-4.931,4.926
			c-2.733,0-4.93-2.202-4.93-4.926C614.614,140.525,616.811,138.322,619.544,138.322z"/>
	</g>
	<path fill="#10293F" d="M609.055,136.772h-0.807v2.254c0,0.429-0.354,0.779-0.778,0.779c-0.431,0-0.784-0.35-0.784-0.779v-2.254
		h-4.095c-1.478,0-2.672,1.197-2.672,2.674s1.195,2.674,2.672,2.674h6.464c1.479,0,2.67-1.197,2.67-2.674
		S610.532,136.772,609.055,136.772z"/>
	<path fill="#10293F" d="M584.48,142.655l-9.42,3.695c-1.141,0.449-2.261-0.171-2.486-1.375l-0.538-2.84
		c-0.227-1.204,0.591-2.188,1.817-2.188c0,0,10.625,0,12.096,0c1.908,0,2.781,0.161,3.667,0.924c0.417,0.357,3.48,2.644,3.48,2.644
		s12.316,0,14.917,0c2.598,0,3.709,0.909,4.792,2.363l5.216,6.53h8.009c1.087,0,1.969,0.881,1.969,1.968s-0.882,1.969-1.969,1.969
		h-9.904l-3.66-4.585h-11.895l-5.666,4.994l-7.895-4.34l-7.881,7.082c-0.911,0.819-2.179,0.632-2.815-0.414l-1.506-2.476
		c-0.637-1.046-0.222-2.256,0.926-2.69c0,0,10.789-4.082,11.992-4.507c1.202-0.423,2.19-0.335,2.982,0.009
		c0.792,0.342,3.339,1.531,3.339,1.531l2.868-2.529h-4.881L584.48,142.655z"/>
</g>
</svg>
