<?xml version="1.0" encoding="utf-8"?>
<!-- Generator: Adobe Illustrator 15.0.2, SVG Export Plug-In . SVG Version: 6.00 Build 0)  -->
<!DOCTYPE svg PUBLIC "-//W3C//DTD SVG 1.1//EN" "http://www.w3.org/Graphics/SVG/1.1/DTD/svg11.dtd">
<svg version="1.1" id="Ebene_1" xmlns="http://www.w3.org/2000/svg" xmlns:xlink="http://www.w3.org/1999/xlink" x="0px" y="0px"
	 width="2880px" height="114px" viewBox="0 0 2880 114" enable-background="new 0 0 2880 114" xml:space="preserve">
<g>
	<g>
		<g>
			<path fill="#FFFFFF" d="M1457.502,59.374c2.448,0,4.411,1.975,4.411,4.415c0,2.438-1.963,4.412-4.411,4.412
				s-4.414-1.973-4.414-4.412C1453.088,61.349,1455.054,59.374,1457.502,59.374z"/>
		</g>
		<path fill="#FFFFFF" d="M1448.106,57.987h-0.722v2.017c0,0.386-0.312,0.699-0.698,0.699c-0.385,0-0.698-0.313-0.698-0.699v-2.017
			h-3.667c-1.322,0-2.394,1.072-2.394,2.394s1.071,2.394,2.394,2.394h5.785c1.322,0,2.395-1.072,2.395-2.394
			S1449.429,57.987,1448.106,57.987z"/>
		<path fill="#FFFFFF" d="M1426.104,63.255l-8.436,3.309c-1.021,0.401-2.023-0.154-2.227-1.232l-0.48-2.543
			c-0.203-1.078,0.529-1.96,1.626-1.96c0,0,9.517,0,10.833,0c1.709,0,2.488,0.144,3.283,0.827c0.372,0.32,3.115,2.367,3.115,2.367
			s11.029,0,13.357,0c2.327,0,3.325,0.815,4.294,2.117l4.667,5.846h7.173c0.973,0,1.763,0.79,1.763,1.763s-0.79,1.763-1.763,1.763
			h-8.869l-3.277-4.104h-10.651l-5.074,4.471l-7.067-3.886l-7.058,6.342c-0.816,0.733-1.95,0.566-2.521-0.371l-1.349-2.216
			c-0.57-0.937-0.198-2.021,0.829-2.41c0,0,9.662-3.655,10.739-4.036s1.962-0.3,2.671,0.007c0.709,0.308,2.99,1.371,2.99,1.371
			l2.568-2.263h-4.372L1426.104,63.255z"/>
	</g>
	<polygon opacity="0.66" fill="#FFFFFF" points="1485.207,66 1440,20.793 1394.793,66 0,66 0,67 1395.207,67 1440,22.207 
		1484.793,67 2880,67 2880,66 	"/>
	<linearGradient id="SVGID_1_" gradientUnits="userSpaceOnUse" x1="1440" y1="112.2061" x2="1440" y2="71.9995">
		<stop  offset="0" style="stop-color:#FFFFFF;stop-opacity:0.66"/>
		<stop  offset="1" style="stop-color:#FFFFFF;stop-opacity:0.13"/>
	</linearGradient>
	<polygon fill="url(#SVGID_1_)" points="1478.793,72 1440,110.792 1401.207,72 1400.5,72 1399.793,72 1440,112.206 1480.207,72 
		1479.5,72 	"/>
</g>
<g>
	<polygon fill="#FFFFFF" points="1440,17.964 1486.036,64 2880,64 2880,0 0,0 0,64 1393.965,64 	"/>
</g>
</svg>
