<?xml version="1.0" encoding="utf-8"?>
<!-- Generator: Adobe Illustrator 15.0.2, SVG Export Plug-In . SVG Version: 6.00 Build 0)  -->
<!DOCTYPE svg PUBLIC "-//W3C//DTD SVG 1.1//EN" "http://www.w3.org/Graphics/SVG/1.1/DTD/svg11.dtd">
<svg version="1.1" id="Ebene_1" xmlns="http://www.w3.org/2000/svg" xmlns:xlink="http://www.w3.org/1999/xlink" x="0px" y="0px"
	 width="240px" height="40px" viewBox="-177.5 440.5 240 40" enable-background="new -177.5 440.5 240 40" xml:space="preserve">
<g>
	<path fill="#333333" d="M45.352,449.5c-4.483,0-6.738-2.102-8.916-4.134c-2.131-1.989-4.144-3.866-8.233-3.866
		c-4.089,0-6.103,1.877-8.231,3.866c-2.179,2.032-4.431,4.134-8.914,4.134s-6.736-2.102-8.916-4.135
		c-2.129-1.988-4.142-3.865-8.23-3.865c-4.088,0-6.1,1.877-8.229,3.866c-2.179,2.032-4.43,4.134-8.912,4.134
		c-4.481,0-6.733-2.102-8.914-4.134c-2.129-1.989-4.142-3.866-8.23-3.866c-4.088,0-6.1,1.877-8.23,3.866
		c-2.177,2.032-4.429,4.134-8.912,4.134c-4.482,0-6.734-2.102-8.912-4.134c-2.13-1.989-4.141-3.866-8.23-3.866
		c-4.088,0-6.099,1.877-8.229,3.865c-2.177,2.033-4.428,4.135-8.911,4.135c-4.483,0-6.735-2.102-8.913-4.134
		c-2.13-1.989-4.142-3.866-8.23-3.866s-6.1,1.877-8.229,3.866c-2.178,2.032-4.43,4.134-8.912,4.134s-6.733-2.102-8.911-4.134
		c-2.129-1.989-4.14-3.866-8.227-3.866c-4.087,0-6.098,1.877-8.228,3.865c-2.177,2.033-4.428,4.135-8.91,4.135
		s-6.734-2.102-8.912-4.134c-2.129-1.989-4.141-3.866-8.229-3.866v-1c4.482,0,6.734,2.102,8.912,4.134
		c2.129,1.989,4.141,3.866,8.229,3.866c4.087,0,6.099-1.877,8.228-3.866c2.177-2.032,4.428-4.134,8.91-4.134
		c4.482,0,6.733,2.102,8.911,4.134c2.129,1.989,4.14,3.866,8.227,3.866c4.088,0,6.099-1.877,8.229-3.865
		c2.178-2.033,4.429-4.135,8.912-4.135s6.735,2.102,8.913,4.134c2.13,1.989,4.141,3.866,8.23,3.866c4.088,0,6.1-1.877,8.229-3.866
		c2.178-2.032,4.429-4.134,8.911-4.134c4.482,0,6.734,2.102,8.912,4.134c2.13,1.989,4.142,3.866,8.23,3.866
		c4.087,0,6.1-1.877,8.23-3.866c2.178-2.032,4.43-4.134,8.912-4.134s6.734,2.102,8.914,4.134c2.13,1.989,4.143,3.866,8.23,3.866
		s6.101-1.877,8.229-3.866c2.177-2.032,4.429-4.134,8.911-4.134s6.736,2.102,8.914,4.134c2.13,1.988,4.142,3.866,8.232,3.866
		c4.088,0,6.103-1.877,8.231-3.866c2.178-2.032,4.43-4.134,8.914-4.134c4.483,0,6.737,2.102,8.916,4.134
		c2.13,1.988,4.144,3.866,8.233,3.866s6.104-1.878,8.233-3.866c2.179-2.032,4.431-4.134,8.915-4.134v1
		c-4.09,0-6.104,1.877-8.232,3.866C52.088,447.398,49.835,449.5,45.352,449.5z"/>
</g>
<g>
	<path fill="#FFFFFF" d="M45.352,459.5c-4.483,0-6.738-2.102-8.916-4.134c-2.131-1.989-4.144-3.866-8.232-3.866
		c-4.09,0-6.104,1.877-8.23,3.866c-2.181,2.032-4.433,4.134-8.916,4.134s-6.736-2.102-8.916-4.135
		c-2.129-1.988-4.142-3.865-8.229-3.865s-6.101,1.877-8.229,3.866c-2.179,2.032-4.43,4.134-8.912,4.134
		c-4.481,0-6.733-2.102-8.914-4.134c-2.129-1.989-4.142-3.866-8.229-3.866s-6.101,1.877-8.229,3.866
		c-2.178,2.032-4.43,4.134-8.913,4.134c-4.482,0-6.734-2.102-8.912-4.134c-2.13-1.989-4.141-3.866-8.23-3.866
		c-4.088,0-6.099,1.877-8.229,3.865c-2.178,2.033-4.429,4.135-8.912,4.135c-4.483,0-6.735-2.102-8.913-4.134
		c-2.13-1.989-4.142-3.866-8.23-3.866s-6.1,1.877-8.229,3.866c-2.178,2.032-4.43,4.134-8.912,4.134s-6.733-2.102-8.911-4.134
		c-2.129-1.989-4.14-3.866-8.227-3.866c-4.087,0-6.098,1.877-8.228,3.865c-2.177,2.033-4.428,4.135-8.91,4.135
		s-6.734-2.102-8.912-4.134c-2.129-1.989-4.141-3.866-8.229-3.866v-1c4.482,0,6.734,2.102,8.912,4.134
		c2.129,1.989,4.141,3.866,8.229,3.866c4.087,0,6.099-1.877,8.228-3.866c2.177-2.032,4.428-4.134,8.91-4.134
		c4.482,0,6.733,2.102,8.911,4.134c2.129,1.989,4.14,3.866,8.227,3.866c4.088,0,6.099-1.877,8.229-3.865
		c2.178-2.033,4.429-4.135,8.912-4.135s6.735,2.102,8.913,4.134c2.13,1.989,4.141,3.866,8.23,3.866c4.088,0,6.1-1.877,8.229-3.866
		c2.178-2.032,4.429-4.134,8.911-4.134c4.482,0,6.734,2.102,8.912,4.134c2.13,1.989,4.142,3.866,8.23,3.866
		c4.087,0,6.1-1.877,8.23-3.866c2.178-2.032,4.43-4.134,8.912-4.134s6.734,2.102,8.914,4.134c2.13,1.989,4.143,3.866,8.23,3.866
		c4.086,0,6.1-1.877,8.229-3.866c2.177-2.032,4.43-4.134,8.911-4.134s6.735,2.102,8.913,4.134c2.131,1.988,4.143,3.866,8.232,3.866
		c4.088,0,6.103-1.877,8.231-3.866c2.178-2.032,4.43-4.134,8.914-4.134c4.483,0,6.737,2.102,8.916,4.134
		c2.13,1.988,4.144,3.866,8.233,3.866c4.088,0,6.103-1.878,8.232-3.866c2.182-2.032,4.434-4.134,8.918-4.134v1
		c-4.09,0-6.104,1.877-8.232,3.866C52.088,457.398,49.835,459.5,45.352,459.5z"/>
</g>
<g>
	<g>
		<rect x="-177.5" y="464.5" fill="#333333" width="111" height="1"/>
		<rect x="-48.5" y="464.5" fill="#333333" width="111" height="1"/>
	</g>
	
		<rect x="-59.976" y="462.525" transform="matrix(-0.7071 0.7071 -0.7071 -0.7071 230.6443 834.464)" fill="#333333" width="4.95" height="4.95"/>
</g>
<g>
	<g>
		<rect x="-177.5" y="474.5" fill="#FFFFFF" width="111" height="1"/>
		<rect x="-48.5" y="474.5" fill="#FFFFFF" width="111" height="1"/>
	</g>
	
		<rect x="-59.976" y="472.525" transform="matrix(-0.7071 0.7071 -0.7071 -0.7071 237.7154 851.535)" fill="#FFFFFF" width="4.95" height="4.95"/>
</g>
</svg>
