<?xml version="1.0" encoding="UTF-8" standalone="no"?>
<svg width="400px" height="400px" viewBox="0 0 400 400" version="1.1" xmlns="http://www.w3.org/2000/svg" xmlns:xlink="http://www.w3.org/1999/xlink" xmlns:sketch="http://www.bohemiancoding.com/sketch/ns">
    <title>Landscape</title>
    <description>Created with Sketch (http://www.bohemiancoding.com/sketch)</description>
    <defs></defs>
    <g id="Page-1" stroke="none" stroke-width="1" fill="none" fill-rule="evenodd" sketch:type="MSPage">
        <g id="Landscape" sketch:type="MSArtboardGroup" stroke="#2CA2C8">
            <g id="Oval-1-+-Oval-1-copy" sketch:type="MSLayerGroup" transform="translate(1.000000, 1.000000)">
                <path d="M8,16 C12.4182782,16 16,12.4182782 16,8 C16,3.58172178 12.4182782,0 8,0 C3.58172178,0 0,3.58172178 0,8 C0,12.4182782 3.58172178,16 8,16 Z" id="Oval-1" sketch:type="MSShapeGroup"></path>
                <circle id="Oval-1-copy" fill="#2CA2C8" sketch:type="MSShapeGroup" cx="8" cy="8" r="5"></circle>
            </g>
            <g id="Oval-1-+-Oval-1-copy-2" sketch:type="MSLayerGroup" transform="translate(18.000000, 1.000000)">
                <path d="M8,16 C12.4182782,16 16,12.4182782 16,8 C16,3.58172178 12.4182782,0 8,0 C3.58172178,0 0,3.58172178 0,8 C0,12.4182782 3.58172178,16 8,16 Z" id="Oval-1" sketch:type="MSShapeGroup"></path>
                <circle id="Oval-1-copy" fill="#2CA2C8" sketch:type="MSShapeGroup" cx="8" cy="8" r="5"></circle>
            </g>
            <g id="Oval-1-+-Oval-1-copy-3" sketch:type="MSLayerGroup" transform="translate(35.000000, 1.000000)">
                <path d="M8,16 C12.4182782,16 16,12.4182782 16,8 C16,3.58172178 12.4182782,0 8,0 C3.58172178,0 0,3.58172178 0,8 C0,12.4182782 3.58172178,16 8,16 Z" id="Oval-1" sketch:type="MSShapeGroup"></path>
                <circle id="Oval-1-copy" fill="#2CA2C8" sketch:type="MSShapeGroup" cx="8" cy="8" r="5"></circle>
            </g>
            <g id="Oval-1-+-Oval-1-copy-4" sketch:type="MSLayerGroup" transform="translate(52.000000, 1.000000)">
                <path d="M8,16 C12.4182782,16 16,12.4182782 16,8 C16,3.58172178 12.4182782,0 8,0 C3.58172178,0 0,3.58172178 0,8 C0,12.4182782 3.58172178,16 8,16 Z" id="Oval-1" sketch:type="MSShapeGroup"></path>
                <circle id="Oval-1-copy" fill="#2CA2C8" sketch:type="MSShapeGroup" cx="8" cy="8" r="5"></circle>
            </g>
            <g id="Oval-1-+-Oval-1-copy-5" sketch:type="MSLayerGroup" transform="translate(69.000000, 1.000000)">
                <path d="M8,16 C12.4182782,16 16,12.4182782 16,8 C16,3.58172178 12.4182782,0 8,0 C3.58172178,0 0,3.58172178 0,8 C0,12.4182782 3.58172178,16 8,16 Z" id="Oval-1" sketch:type="MSShapeGroup"></path>
                <circle id="Oval-1-copy" fill="#2CA2C8" sketch:type="MSShapeGroup" cx="8" cy="8" r="5"></circle>
            </g>
            <g id="Oval-1-+-Oval-1-copy-2" sketch:type="MSLayerGroup" transform="translate(1.000000, 51.000000)">
                <path d="M8,16 C12.4182782,16 16,12.4182782 16,8 C16,3.58172178 12.4182782,0 8,0 C3.58172178,0 0,3.58172178 0,8 C0,12.4182782 3.58172178,16 8,16 Z" id="Oval-1" sketch:type="MSShapeGroup"></path>
                <circle id="Oval-1-copy" fill="#2CA2C8" sketch:type="MSShapeGroup" cx="8" cy="8" r="5"></circle>
            </g>
            <g id="Oval-1-+-Oval-1-copy-3" sketch:type="MSLayerGroup" transform="translate(18.000000, 51.000000)">
                <path d="M8,16 C12.4182782,16 16,12.4182782 16,8 C16,3.58172178 12.4182782,0 8,0 C3.58172178,0 0,3.58172178 0,8 C0,12.4182782 3.58172178,16 8,16 Z" id="Oval-1" sketch:type="MSShapeGroup"></path>
                <circle id="Oval-1-copy" fill="#2CA2C8" sketch:type="MSShapeGroup" cx="8" cy="8" r="5"></circle>
            </g>
            <g id="Oval-1-+-Oval-1-copy-4" sketch:type="MSLayerGroup" transform="translate(35.000000, 51.000000)">
                <path d="M8,16 C12.4182782,16 16,12.4182782 16,8 C16,3.58172178 12.4182782,0 8,0 C3.58172178,0 0,3.58172178 0,8 C0,12.4182782 3.58172178,16 8,16 Z" id="Oval-1" sketch:type="MSShapeGroup"></path>
                <circle id="Oval-1-copy" fill="#2CA2C8" sketch:type="MSShapeGroup" cx="8" cy="8" r="5"></circle>
            </g>
            <g id="Oval-1-+-Oval-1-copy-5" sketch:type="MSLayerGroup" transform="translate(52.000000, 51.000000)">
                <path d="M8,16 C12.4182782,16 16,12.4182782 16,8 C16,3.58172178 12.4182782,0 8,0 C3.58172178,0 0,3.58172178 0,8 C0,12.4182782 3.58172178,16 8,16 Z" id="Oval-1" sketch:type="MSShapeGroup"></path>
                <circle id="Oval-1-copy" fill="#2CA2C8" sketch:type="MSShapeGroup" cx="8" cy="8" r="5"></circle>
            </g>
            <g id="Oval-1-+-Oval-1-copy-6" sketch:type="MSLayerGroup" transform="translate(69.000000, 51.000000)">
                <path d="M8,16 C12.4182782,16 16,12.4182782 16,8 C16,3.58172178 12.4182782,0 8,0 C3.58172178,0 0,3.58172178 0,8 C0,12.4182782 3.58172178,16 8,16 Z" id="Oval-1" sketch:type="MSShapeGroup"></path>
            </g>
        </g>
    </g>
</svg>