<?xml version="1.0" encoding="utf-8"?>
<!-- Generator: Adobe Illustrator 15.0.2, SVG Export Plug-In . SVG Version: 6.00 Build 0)  -->
<!DOCTYPE svg PUBLIC "-//W3C//DTD SVG 1.1//EN" "http://www.w3.org/Graphics/SVG/1.1/DTD/svg11.dtd">
<svg version="1.1" id="Ebene_1" xmlns="http://www.w3.org/2000/svg" xmlns:xlink="http://www.w3.org/1999/xlink" x="0px" y="0px"
	 width="240px" height="9px" viewBox="0 0 240 9" enable-background="new 0 0 240 9" xml:space="preserve">
<g>
	<path fill="#333333" d="M222.851,9c-4.484,0-6.737-2.102-8.916-4.134C211.805,2.877,209.792,1,205.702,1
		c-4.089,0-6.102,1.877-8.232,3.866C195.292,6.898,193.04,9,188.556,9s-6.736-2.102-8.915-4.135C177.511,2.877,175.499,1,171.41,1
		c-4.088,0-6.099,1.877-8.229,3.866C161.003,6.898,158.752,9,154.27,9c-4.483,0-6.735-2.102-8.914-4.134
		C143.227,2.877,141.214,1,137.125,1c-4.088,0-6.1,1.877-8.23,3.866C126.718,6.898,124.466,9,119.983,9
		c-4.482,0-6.734-2.102-8.912-4.134C108.941,2.877,106.93,1,102.841,1c-4.088,0-6.099,1.877-8.229,3.865
		C92.435,6.898,90.184,9,85.701,9c-4.483,0-6.735-2.102-8.913-4.134C74.658,2.877,72.646,1,68.558,1c-4.088,0-6.1,1.877-8.229,3.866
		C58.151,6.898,55.899,9,51.417,9s-6.733-2.102-8.911-4.134C40.377,2.877,38.366,1,34.279,1s-6.098,1.877-8.228,3.865
		C23.874,6.898,21.623,9,17.141,9c-4.482,0-6.734-2.102-8.912-4.134C6.1,2.877,4.088,1,0,1V0c4.482,0,6.734,2.102,8.912,4.134
		C11.041,6.123,13.053,8,17.141,8c4.087,0,6.099-1.877,8.228-3.866C27.546,2.102,29.797,0,34.279,0c4.482,0,6.733,2.102,8.911,4.134
		C45.319,6.123,47.33,8,51.417,8c4.088,0,6.099-1.877,8.229-3.865C61.824,2.102,64.075,0,68.558,0c4.483,0,6.735,2.102,8.913,4.134
		C79.601,6.123,81.612,8,85.701,8c4.088,0,6.1-1.877,8.229-3.866C96.108,2.102,98.359,0,102.841,0c4.482,0,6.734,2.102,8.912,4.134
		C113.883,6.123,115.895,8,119.983,8s6.1-1.877,8.23-3.866C130.391,2.102,132.643,0,137.125,0c4.483,0,6.735,2.102,8.914,4.134
		C148.169,6.123,150.181,8,154.27,8c4.088,0,6.099-1.877,8.229-3.866C164.676,2.102,166.928,0,171.41,0
		c4.483,0,6.736,2.102,8.914,4.134C182.454,6.122,184.466,8,188.556,8c4.089,0,6.102-1.877,8.232-3.866
		C198.966,2.102,201.218,0,205.702,0s6.737,2.102,8.916,4.134C216.748,6.122,218.761,8,222.851,8s6.103-1.878,8.234-3.866
		C233.263,2.102,235.516,0,240,0v1c-4.09,0-6.103,1.877-8.233,3.866C229.588,6.898,227.335,9,222.851,9z"/>
</g>
</svg>
