<?xml version="1.0" encoding="UTF-8" standalone="no"?>
<svg width="104px" height="90px" viewBox="0 0 104 90" version="1.1" xmlns="http://www.w3.org/2000/svg" xmlns:xlink="http://www.w3.org/1999/xlink" xmlns:sketch="http://www.bohemiancoding.com/sketch/ns">
    <!-- Generator: Sketch 3.3.1 (12005) - http://www.bohemiancoding.com/sketch -->
    <title>Slice 1</title>
    <desc>Created with Sketch.</desc>
    <defs>
        <path id="path-1" d="M0,77 L100.993,77 L100.993,0.03 L0,0.03 L0,77 Z"></path>
        <path id="path-3" d="M0,77 L100.993,77 L100.993,0.03 L0,0.03 L0,77 Z"></path>
        <path id="path-5" d="M0,77 L100.993,77 L100.993,0.03 L0,0.03"></path>
    </defs>
    <g id="Page-1" stroke="none" stroke-width="1" fill="none" fill-rule="evenodd" sketch:type="MSPage">
        <g id="Imported-Layers" sketch:type="MSLayerGroup" transform="translate(1.000000, 0.000000)">
            <g id="Group-3">
                <mask id="mask-2" sketch:name="Clip 2" fill="white">
                    <use xlink:href="#path-1"></use>
                </mask>
                <g id="Clip-2"></g>
                <path d="M100.9785,1.8369 C100.9025,0.8279 100.0685,0.0299 99.0405,0.0299 L24.8265,0.0299 C23.7985,0.0299 22.9645,0.8279 22.8885,1.8369 L22.8785,34.8209 L25.9985,34.8209 L25.9985,3.1559 L97.8695,3.1559 L97.8695,44.5789 L39.7585,44.5789 L39.7585,53.9569 L53.3405,53.9569 L53.3405,54.7609 C53.3405,57.8879 52.5595,60.2319 49.4345,61.0139 C48.6765,61.2019 48.6525,62.5769 49.4345,62.5769 L61.9335,62.5769 L74.4325,62.5769 C75.2135,62.5769 75.1905,61.2019 74.4325,61.0139 C71.3075,60.2319 70.5265,57.8879 70.5265,54.7609 L70.5265,53.9569 L99.0405,53.9569 C100.1195,53.9569 100.9935,53.0829 100.9935,52.0029 L100.9785,1.8369 Z" id="Fill-1" fill="#1A171B" sketch:type="MSShapeGroup" mask="url(#mask-2)"></path>
            </g>
            <path d="M58.374,15.144 C58.868,14.807 59.462,14.643 60.106,14.643 C61.145,14.643 62.315,15.071 63.405,15.896 C65.016,17.116 66.602,19.418 65.77,21.891 C65.239,23.473 63.454,25.741 57.849,27.168 C57.821,27.078 57.795,26.986 57.769,26.893 C55.44,18.617 57.147,15.98 58.374,15.144 M44.306,29.239 C49.949,29.239 54.179,28.759 57.347,28.02 C58.38,31.227 59.711,32.942 61.398,33.251 C61.578,33.284 61.758,33.3 61.94,33.3 C65.113,33.299 68.686,28.468 71.857,24.178 C74.345,20.814 76.916,17.333 78.271,17.782 C79.025,18.03 79.926,19.73 79.926,26.417 C79.926,26.619 80.089,26.783 80.291,26.783 C80.492,26.783 80.655,26.619 80.655,26.417 C80.655,20.457 79.991,17.58 78.5,17.088 C76.644,16.477 74.272,19.684 71.27,23.744 C68.043,28.109 64.385,33.059 61.53,32.533 C60.154,32.281 58.988,30.706 58.058,27.846 C63.981,26.313 65.886,23.842 66.463,22.123 C67.417,19.283 65.649,16.68 63.846,15.314 C61.826,13.785 59.517,13.481 57.962,14.541 C56.575,15.487 54.613,18.375 57.065,27.091 C57.09,27.175 57.114,27.258 57.138,27.34 C54.049,28.048 49.893,28.51 44.306,28.51 C44.104,28.51 43.941,28.673 43.941,28.874 C43.941,29.076 44.104,29.239 44.306,29.239" id="Fill-4" fill="#1A171B" sketch:type="MSShapeGroup"></path>
            <g id="Group-8">
                <mask id="mask-4" sketch:name="Clip 7" fill="white">
                    <use xlink:href="#path-3"></use>
                </mask>
                <g id="Clip-7"></g>
                <path d="M36.9468,50.4834 C36.9468,49.9364 37.3888,49.4954 37.9348,49.4954 C38.4808,49.4954 38.9228,49.9364 38.9228,50.4834 C38.9228,51.0284 38.4808,51.4714 37.9348,51.4714 C37.3888,51.4714 36.9468,51.0284 36.9468,50.4834 L36.9468,50.4834 Z M39.5158,37.0424 C39.5158,35.9504 38.6308,35.0654 37.5398,35.0654 L1.9758,35.0654 C0.8848,35.0654 -0.0002,35.9504 -0.0002,37.0424 L-0.0002,63.9244 C-0.0002,65.0164 0.8848,65.9014 1.9758,65.9014 L25.7878,65.9014 C25.4578,65.4854 25.1108,64.9574 25.1938,64.3354 C25.2978,63.5494 25.8298,63.4324 26.1378,63.4324 C27.1838,63.4324 28.8338,64.7634 29.1708,65.2244 C29.3478,65.4664 29.4928,65.6884 29.6208,65.9014 L31.5608,65.9014 C31.4188,64.8024 31.1978,63.7614 30.9128,62.7374 L3.5708,62.7374 C3.3448,62.7374 3.1608,62.5534 3.1608,62.3294 L3.1608,38.6354 C3.1608,38.4114 3.3448,38.2274 3.5708,38.2274 L35.9448,38.2274 C36.1708,38.2274 36.3538,38.4114 36.3538,38.6354 L36.3538,56.0904 C36.5508,56.3624 36.7158,56.7144 36.8448,57.1554 C37.0598,56.8394 37.4648,56.6264 38.1698,56.4494 C38.2878,56.4194 38.4048,56.4044 38.5168,56.4044 C38.9268,56.4044 39.2528,56.5954 39.5158,56.9094 L39.5158,37.0424 Z" id="Fill-6" fill="#1A171B" sketch:type="MSShapeGroup" mask="url(#mask-4)"></path>
            </g>
            <g id="Group-11">
                <mask id="mask-6" sketch:name="Clip 10" fill="white">
                    <use xlink:href="#path-5"></use>
                </mask>
                <g id="Clip-10"></g>
                <path d="M38.5171,56.6475 C38.4261,56.6475 38.3301,56.6605 38.2281,56.6845 C36.7821,57.0465 36.7071,57.5535 37.1391,58.8095 C37.3191,59.3335 37.7521,61.4715 38.0441,61.7095 C37.2891,61.0985 36.8911,58.1885 36.6161,57.2395 C36.2911,56.1195 35.7841,55.6945 35.1851,55.6945 C34.5601,55.6945 33.8341,56.1575 33.1121,56.7765 C32.9251,56.9465 32.6251,57.4855 32.6531,57.6215 C33.0751,58.5675 33.8631,60.2575 34.0701,60.8115 C34.2421,60.9525 34.3661,61.0125 34.4501,61.0125 C34.6771,61.0125 34.6131,60.5675 34.4471,60.0475 C34.8361,61.0185 35.2411,62.1925 34.9651,62.3225 C34.9601,62.3255 34.9551,62.3265 34.9491,62.3265 C34.5091,62.3265 31.7481,55.5015 31.3341,54.7415 C30.8701,53.8935 30.1161,51.7475 28.9011,51.7475 C28.7391,51.7475 28.5691,51.7855 28.3901,51.8705 C26.6881,52.6765 28.6201,55.9095 29.0861,57.0285 C30.3931,60.1645 31.5091,62.9985 31.8641,66.3875 C31.9011,66.7455 31.8601,69.0975 31.2941,69.0975 C31.1641,69.0975 31.0071,68.9735 30.8181,68.6755 C29.9991,67.3865 29.8931,66.6265 28.9741,65.3685 C28.6691,64.9505 27.0851,63.6745 26.1381,63.6745 C25.7721,63.6745 25.5011,63.8655 25.4341,64.3675 C25.3171,65.2535 26.2701,65.9825 26.4701,66.3995 C26.6791,67.2375 26.9671,67.9645 27.3961,68.7135 C28.1361,70.0085 28.5981,70.5465 29.2341,71.8955 C29.8481,73.1975 31.3801,73.6055 32.7191,74.0035 C34.4371,74.5145 36.3321,75.7195 37.7771,76.7765 C38.0001,76.9405 38.2061,77.0005 38.4191,77.0005 C38.7901,77.0005 39.1821,76.8175 39.7181,76.6825 C42.0941,76.0885 43.8631,75.1305 46.2401,74.5375 C43.5961,71.7545 44.3281,68.8545 43.6591,65.3095 C43.4071,63.9755 43.1701,59.4625 41.9561,58.7475 C41.5511,58.5085 41.2431,58.4065 41.0111,58.4065 C39.8001,58.4065 40.6951,61.2235 40.9361,62.1905 C40.2781,61.1045 40.2701,56.6485 38.5171,56.6475" id="Fill-9" fill="#1A171B" sketch:type="MSShapeGroup" mask="url(#mask-6)"></path>
            </g>
            <path d="M11.0513,52.8525 C11.2583,52.8525 11.4613,52.8505 11.6613,52.8485 L11.6583,52.6045 C11.4593,52.6085 11.2573,52.6085 11.0513,52.6085 L11.0513,52.8525 Z" id="Fill-12" fill="#1A171B" sketch:type="MSShapeGroup"></path>
            <path d="M18.7119,51.5889 C18.3669,51.7199 17.9859,51.8389 17.5809,51.9449 L17.6419,52.1809 C18.0559,52.0729 18.4449,51.9499 18.7979,51.8179 L18.7119,51.5889 Z" id="Fill-14" fill="#1A171B" sketch:type="MSShapeGroup"></path>
            <path d="M19.7808,51.0908 L19.9028,51.3018 C20.2898,51.0788 20.6188,50.8308 20.8838,50.5638 L20.7098,50.3918 C20.4618,50.6438 20.1488,50.8788 19.7808,51.0908" id="Fill-16" fill="#1A171B" sketch:type="MSShapeGroup"></path>
            <path d="M21.1108,54.0303 L20.9548,53.8423 C20.6028,54.1353 20.2728,54.3393 19.9738,54.4473 L20.0558,54.6763 C20.3868,54.5563 20.7318,54.3453 21.1108,54.0303" id="Fill-18" fill="#1A171B" sketch:type="MSShapeGroup"></path>
            <path d="M21.9863,53.1846 C22.2303,52.9176 22.4873,52.6166 22.7723,52.2626 L22.5823,52.1106 C22.3003,52.4596 22.0473,52.7566 21.8073,53.0196 L21.9863,53.1846 Z" id="Fill-20" fill="#1A171B" sketch:type="MSShapeGroup"></path>
            <path d="M21.5552,49.5176 C21.6402,49.2706 21.6832,49.0146 21.6832,48.7536 C21.6832,48.5946 21.6672,48.4326 21.6352,48.2716 L21.3972,48.3196 C21.4262,48.4646 21.4402,48.6106 21.4402,48.7536 C21.4402,48.9876 21.4022,49.2176 21.3252,49.4386 L21.5552,49.5176 Z" id="Fill-22" fill="#1A171B" sketch:type="MSShapeGroup"></path>
            <path d="M20.2627,46.2568 L20.1197,46.4548 C20.4347,46.6818 20.7167,46.9658 20.9337,47.2748 L21.1337,47.1358 C20.8997,46.8038 20.5987,46.4998 20.2627,46.2568" id="Fill-24" fill="#1A171B" sketch:type="MSShapeGroup"></path>
            <path d="M16.6484,49.0693 C16.6754,49.4423 16.7294,49.8463 16.8074,50.2723 L17.0464,50.2273 C16.9704,49.8113 16.9184,49.4153 16.8904,49.0513 L16.6484,49.0693 Z" id="Fill-26" fill="#1A171B" sketch:type="MSShapeGroup"></path>
            <path d="M19.1436,45.7236 C18.6906,45.6126 18.2556,45.6306 17.8896,45.7816 L17.9806,46.0066 C18.3006,45.8756 18.6836,45.8606 19.0846,45.9596 L19.1436,45.7236 Z" id="Fill-28" fill="#1A171B" sketch:type="MSShapeGroup"></path>
            <path d="M17.4199,52.6123 L17.6489,52.5303 C17.5689,52.3053 17.4909,52.0603 17.4179,51.8003 C17.3789,51.6613 17.3409,51.5243 17.3069,51.3913 L17.0709,51.4523 C17.1069,51.5883 17.1439,51.7253 17.1829,51.8663 C17.2579,52.1323 17.3379,52.3833 17.4199,52.6123" id="Fill-30" fill="#1A171B" sketch:type="MSShapeGroup"></path>
            <path d="M15.2676,52.6201 C15.6826,52.5691 16.0846,52.5091 16.4606,52.4391 L16.4176,52.2001 C16.0456,52.2681 15.6486,52.3281 15.2376,52.3801 L15.2676,52.6201 Z" id="Fill-32" fill="#1A171B" sketch:type="MSShapeGroup"></path>
            <path d="M12.8652,52.8154 C13.2792,52.7964 13.6832,52.7724 14.0682,52.7414 L14.0492,52.4994 C13.6672,52.5294 13.2652,52.5534 12.8552,52.5714 L12.8652,52.8154 Z" id="Fill-34" fill="#1A171B" sketch:type="MSShapeGroup"></path>
            <path d="M16.9829,46.6553 C16.8169,46.9803 16.7069,47.3823 16.6569,47.8483 L16.8999,47.8743 C16.9459,47.4383 17.0469,47.0643 17.1999,46.7643 L16.9829,46.6553 Z" id="Fill-36" fill="#1A171B" sketch:type="MSShapeGroup"></path>
            <path d="M18.7993,54.6221 L18.9133,54.4071 C18.6353,54.2591 18.3743,53.9871 18.1383,53.5971 L17.9303,53.7241 C18.1893,54.1511 18.4823,54.4541 18.7993,54.6221" id="Fill-38" fill="#1A171B" sketch:type="MSShapeGroup"></path>
            <path d="M27.8701,48.5596 C27.9361,48.8836 27.9871,49.2786 28.0211,49.7346 L28.2641,49.7156 C28.2281,49.2496 28.1761,48.8446 28.1081,48.5106 L27.8701,48.5596 Z" id="Fill-40" fill="#1A171B" sketch:type="MSShapeGroup"></path>
            <path d="M24.1353,50.4687 L24.2293,50.3427 L24.0333,50.1977 L23.9403,50.3237 C23.7353,50.6007 23.5273,50.8827 23.3163,51.1617 L23.5103,51.3087 C23.7213,51.0287 23.9303,50.7467 24.1353,50.4687" id="Fill-42" fill="#1A171B" sketch:type="MSShapeGroup"></path>
            <path d="M25.6992,48.4502 L25.5152,48.2902 C25.2932,48.5462 25.0522,48.8462 24.7552,49.2322 L24.9492,49.3812 C25.2422,48.9972 25.4802,48.7022 25.6992,48.4502" id="Fill-44" fill="#1A171B" sketch:type="MSShapeGroup"></path>
            <path d="M26.5381,47.6289 C26.9381,47.3309 27.2261,47.2889 27.4521,47.5229 L27.6261,47.3539 C27.3191,47.0339 26.9071,47.0529 26.3931,47.4329 L26.5381,47.6289 Z" id="Fill-46" fill="#1A171B" sketch:type="MSShapeGroup"></path>
            <path d="M28.3242,51.5596 C28.3242,51.3466 28.3232,51.1436 28.3192,50.9486 L28.0752,50.9526 C28.0792,51.1456 28.0812,51.3486 28.0812,51.5596 L28.3242,51.5596 Z" id="Fill-48" fill="#1A171B" sketch:type="MSShapeGroup"></path>
        </g>
    </g>
</svg>