<?xml version="1.0" encoding="UTF-8" standalone="no"?>
<svg width="220px" height="220px" viewBox="0 0 220 220" version="1.1" xmlns="http://www.w3.org/2000/svg" xmlns:xlink="http://www.w3.org/1999/xlink" xmlns:sketch="http://www.bohemiancoding.com/sketch/ns">
    <title>06_system</title>
    <description>Created with Sketch (http://www.bohemiancoding.com/sketch)</description>
    <defs></defs>
    <g id="Page-1" stroke="none" stroke-width="1" fill="none" fill-rule="evenodd" sketch:type="MSPage">
        <g id="13_Herz-Beziehung" sketch:type="MSLayerGroup" transform="translate(31.000000, 15.000000)">
            <g id="Planeten">
                <g id="Planet1" sketch:type="MSShapeGroup">
                    <circle id="Oval-29" stroke="#333333" cx="18" cy="20" r="10"></circle>
                    <g id="Group" transform="translate(18.000000, 19.000000) rotate(8.000000) translate(-18.000000, -19.000000) translate(2.000000, 2.000000)" fill="#888888">
                        <circle id="Oval-33" transform="translate(3.500000, 3.500000) rotate(-195.000000) translate(-3.500000, -3.500000) " cx="3.5" cy="3.5" r="2.5"></circle>
                        <circle id="Oval-33-copy" transform="translate(28.500000, 30.500000) rotate(-195.000000) translate(-28.500000, -30.500000) " cx="28.5" cy="30.5" r="2.5"></circle>
                        <circle id="Oval-33-copy-2" transform="translate(28.500000, 3.500000) rotate(-195.000000) translate(-28.500000, -3.500000) " cx="28.5" cy="3.5" r="2.5"></circle>
                        <circle id="Oval-33-copy-3" transform="translate(3.500000, 30.500000) rotate(-195.000000) translate(-3.500000, -30.500000) " cx="3.5" cy="30.5" r="2.5"></circle>
                    </g>
                </g>
                <g id="Planet2" transform="translate(123.000000, 2.000000)" sketch:type="MSShapeGroup">
                    <circle id="Oval-29" stroke="#333333" cx="18" cy="20" r="10"></circle>
                    <g id="Group" transform="translate(18.000000, 19.000000) rotate(8.000000) translate(-18.000000, -19.000000) translate(2.000000, 2.000000)" fill="#888888">
                        <circle id="Oval-33" transform="translate(3.500000, 3.500000) rotate(-195.000000) translate(-3.500000, -3.500000) " cx="3.5" cy="3.5" r="2.5"></circle>
                        <circle id="Oval-33-copy" transform="translate(28.500000, 30.500000) rotate(-195.000000) translate(-28.500000, -30.500000) " cx="28.5" cy="30.5" r="2.5"></circle>
                        <circle id="Oval-33-copy-2" transform="translate(28.500000, 3.500000) rotate(-195.000000) translate(-28.500000, -3.500000) " cx="28.5" cy="3.5" r="2.5"></circle>
                        <circle id="Oval-33-copy-3" transform="translate(3.500000, 30.500000) rotate(-195.000000) translate(-3.500000, -30.500000) " cx="3.5" cy="30.5" r="2.5"></circle>
                    </g>
                </g>
                <g id="Planet3" transform="translate(123.000000, 126.000000)" sketch:type="MSShapeGroup">
                    <circle id="Oval-29" stroke="#333333" cx="18" cy="20" r="10"></circle>
                    <g id="Group" transform="translate(18.000000, 19.000000) rotate(8.000000) translate(-18.000000, -19.000000) translate(2.000000, 2.000000)" fill="#888888">
                        <circle id="Oval-33" transform="translate(3.500000, 3.500000) rotate(-195.000000) translate(-3.500000, -3.500000) " cx="3.5" cy="3.5" r="2.5"></circle>
                        <circle id="Oval-33-copy" transform="translate(28.500000, 30.500000) rotate(-195.000000) translate(-28.500000, -30.500000) " cx="28.5" cy="30.5" r="2.5"></circle>
                        <circle id="Oval-33-copy-2" transform="translate(28.500000, 3.500000) rotate(-195.000000) translate(-28.500000, -3.500000) " cx="28.5" cy="3.5" r="2.5"></circle>
                        <circle id="Oval-33-copy-3" transform="translate(3.500000, 30.500000) rotate(-195.000000) translate(-3.500000, -30.500000) " cx="3.5" cy="30.5" r="2.5"></circle>
                    </g>
                </g>
                <g id="Planet3" transform="translate(1.000000, 125.000000)" sketch:type="MSShapeGroup">
                    <circle id="Oval-29" stroke="#333333" cx="18" cy="20" r="10"></circle>
                    <g id="Group" transform="translate(18.000000, 19.000000) rotate(8.000000) translate(-18.000000, -19.000000) translate(2.000000, 2.000000)" fill="#888888">
                        <circle id="Oval-33" transform="translate(3.500000, 3.500000) rotate(-195.000000) translate(-3.500000, -3.500000) " cx="3.5" cy="3.5" r="2.5"></circle>
                        <circle id="Oval-33-copy" transform="translate(28.500000, 30.500000) rotate(-195.000000) translate(-28.500000, -30.500000) " cx="28.5" cy="30.5" r="2.5"></circle>
                        <circle id="Oval-33-copy-2" transform="translate(28.500000, 3.500000) rotate(-195.000000) translate(-28.500000, -3.500000) " cx="28.5" cy="3.5" r="2.5"></circle>
                        <circle id="Oval-33-copy-3" transform="translate(3.500000, 30.500000) rotate(-195.000000) translate(-3.500000, -30.500000) " cx="3.5" cy="30.5" r="2.5"></circle>
                    </g>
                </g>
                <g id="Sun" transform="translate(60.000000, 64.000000)">
                    <circle id="Oval-26" stroke="#333333" stroke-width="2" sketch:type="MSShapeGroup" cx="20" cy="20" r="20"></circle>
                    <text fill="#333333" sketch:type="MSTextLayer" font-family="HanziPen SC" font-size="16" font-weight="normal" line-spacing="26">
                        <tspan x="9" y="21">Sun</tspan>
                    </text>
                </g>
                <g id="Umlaufbahnen" transform="translate(13.000000, 18.000000)" stroke="#333333" sketch:type="MSShapeGroup">
                    <path d="M113.642877,0.282754418 C101.517015,0.282754452 63.7872596,21.5035224 42.4041915,40.9795623 C21.0211222,60.4556008 1.6444938,95.2933694 1.64449453,111.818579" id="Path-39"></path>
                    <path d="M67.6428771,31.2827544 C55.517015,31.2827545 7.74319588,59.5144506 -13.6827436,84.6353621" id="Path-39-copy" transform="translate(27.000000, 58.000000) rotate(-90.000000) translate(-27.000000, -58.000000) "></path>
                    <path d="M101.477313,109.661005 C93.076922,127.336076 93.1686512,126.271158 92.1444945,139.318579" id="Path-39-copy-2" transform="translate(97.000000, 124.500000) rotate(-90.000000) translate(-97.000000, -124.500000) "></path>
                    <path d="M131.642877,1.28275442 C119.517015,1.28275445 81.7872596,22.5035224 60.4041915,41.9795623 C39.0211222,61.4556008 19.6444938,96.2933694 19.6444945,112.818579" id="Path-39-copy-2" transform="translate(76.000000, 57.000000) rotate(-270.000000) translate(-76.000000, -57.000000) "></path>
                    <path d="M133.154314,19.6748786 C111.771244,39.1509171 85.6444938,80.2933694 85.6444945,96.8185795" id="Path-39-copy" transform="translate(109.500000, 58.500000) rotate(-180.000000) translate(-109.500000, -58.500000) "></path>
                    <path d="M49.6428771,121.282754 C37.4949794,123.472821 30.6494756,126.849212 20.6438365,132.41567" id="Path-39-copy-2" transform="translate(35.500000, 126.500000) rotate(-180.000000) translate(-35.500000, -126.500000) "></path>
                </g>
            </g>
            <text id="Goals" sketch:type="MSTextLayer" font-family="HanziPen SC" font-size="16" font-weight="normal" line-spacing="26" fill="#333333">
                <tspan x="65" y="128">Goals</tspan>
            </text>
            <text id="Gravity" sketch:type="MSTextLayer" font-family="HanziPen SC" font-size="20" font-weight="normal" line-spacing="26" fill="#333333">
                <tspan x="50" y="185">Gravity</tspan>
            </text>
        </g>
    </g>
</svg>