<?xml version="1.0" encoding="UTF-8" standalone="no"?>
<svg width="220px" height="220px" viewBox="0 0 220 220" version="1.1" xmlns="http://www.w3.org/2000/svg" xmlns:xlink="http://www.w3.org/1999/xlink" xmlns:sketch="http://www.bohemiancoding.com/sketch/ns">
    <title>04_story</title>
    <description>Created with Sketch (http://www.bohemiancoding.com/sketch)</description>
    <defs></defs>
    <g id="Page-1" stroke="none" stroke-width="1" fill="none" fill-rule="evenodd" sketch:type="MSPage">
        <g id="11_Herz-Zeit" sketch:type="MSLayerGroup" transform="translate(8.000000, 13.000000)">
            <g id="Mountains" transform="translate(0.000000, 15.000000)" stroke="#333333" sketch:type="MSShapeGroup">
                <path d="M0.0192143105,106.561071 C0.0192143105,106.561071 13.9248862,69.4357421 40.3080182,66.7029557 C66.6911503,63.9701709 69.8393439,95.8008098 92.517162,99.3685772" id="Path-25"></path>
                <path d="M60.8532381,71.7559017 C60.8532381,71.7559017 78.8699012,38.2386294 96.8546097,35.3988649 C114.839318,32.5591014 142.378359,80.0306761 153.943036,83.117738" id="Path-26"></path>
                <path d="M114.854601,40.7435674 C114.854601,40.7435674 134.139709,2.45954719 155.810277,0.0199073493 C177.480844,-2.41973212 206.06743,45.3727717 206.06743,45.3727717" id="Path-27"></path>
            </g>
            <g id="Flag" transform="translate(156.000000, 0.000000)" stroke="#333333" sketch:type="MSShapeGroup">
                <path d="M1.5,14.5 L1.5,0.5" id="Line" stroke-linecap="square"></path>
                <rect id="Rectangle-41" x="1" y="0" width="12" height="8"></rect>
            </g>
            <g id="Road" transform="translate(35.000000, 91.000000)" stroke="#333333" sketch:type="MSShapeGroup">
                <path d="M-0.049034786,96.7390111 C-0.049034786,96.7390111 30.5788661,100.209365 65.4622032,94.9103963 C100.34554,89.6114263 106.812769,76.4135813 89.2177025,68.0498865 C71.6226397,59.6861918 46.732977,53.5288494 67.9753404,48.570749 C89.217702,43.6126478 127.484936,52.3513005 142.225995,42.841044 C156.967053,33.3307873 127.980749,26.5195962 137.686234,14.5674756 C147.391721,2.61535506 168.91674,1.71281141 168.91674,1.71281141" id="Path-28"></path>
                <path d="M0.892693806,88.2741441 C0.892693806,88.2741441 26.1581376,91.3478898 59.1226378,88.2741445 C92.087138,85.200399 87.5987389,76.4372853 70.0036726,68.0735906 C52.4086098,59.7098958 36.2731385,49.674559 57.515502,44.7164586 C78.7578636,39.7583575 119.732325,46.968862 133.502986,39.9943214 C147.273646,33.0197807 120.82605,26.0122561 130.531535,14.0601354 C140.237022,2.10801492 168.68156,-0.367869471 168.68156,-0.367869471" id="Path-28-copy"></path>
            </g>
            <g id="Guy" transform="translate(8.000000, 151.000000)" stroke="#333333" sketch:type="MSShapeGroup">
                <path d="M15.3271407,10.3091658 C18.5796867,12.6476565 20.8761944,17.8755996 20.9951508,24 L20.9951508,24 L2.0048492,24 C2.12380559,17.8755996 4.42031332,12.6476565 7.67285932,10.3091658 C8.66288748,11.3557917 10.0124815,12 11.5,12 C12.9875185,12 14.3371125,11.3557917 15.3271407,10.3091658 Z" id="Oval-16"></path>
                <circle id="Oval-17-copy" cx="11.5" cy="4.5" r="4.5"></circle>
            </g>
            <g id="Steps" transform="translate(35.000000, 18.000000)" sketch:type="MSShapeGroup">
                <circle id="Oval-19" fill="#333333" cx="49.5" cy="146.5" r="2.5"></circle>
                <circle id="Oval-19-copy" fill="#333333" cx="31.5" cy="114.5" r="2.5"></circle>
                <circle id="Oval-19-copy-2" fill="#333333" cx="114.5" cy="101.5" r="2.5"></circle>
                <path d="M114.5,101.5 L143.5,65.5" id="Line" stroke="#333333" stroke-width="2" stroke-linecap="square"></path>
                <circle id="Oval-19-copy-3" fill="#333333" cx="143.5" cy="65.5" r="2.5"></circle>
                <circle id="Oval-19-copy-4" fill="#333333" cx="107.5" cy="51.5" r="2.5"></circle>
                <circle id="Oval-19-copy-5" fill="#333333" cx="148.5" cy="32.5" r="2.5"></circle>
                <circle id="Oval-19-copy-6" fill="#333333" cx="105.5" cy="21.5" r="2.5"></circle>
                <path d="M105.5,21.5 L148.5,32.5" id="Line" stroke="#333333" stroke-width="2" stroke-linecap="square"></path>
                <path d="M148.5,32.5 L107.5,51.5" id="Line" stroke="#333333" stroke-width="2" stroke-linecap="square"></path>
                <path d="M0.5,149.5 L49.5,146.5" id="Line" stroke="#333333" stroke-width="2" stroke-linecap="round"></path>
                <path d="M49.5,146.5 L32,115" id="Line" stroke="#333333" stroke-width="2" stroke-linecap="square"></path>
                <path d="M143.5,65.5 L107,51" id="Line" stroke="#333333" stroke-width="2" stroke-linecap="square"></path>
                <path d="M106,20 L120.5,0.5" id="Line" stroke="#333333" stroke-width="2" stroke-linecap="round"></path>
                <path d="M31.5,114.5 L114.5,101.5" id="Line" stroke="#333333" stroke-width="2" stroke-linecap="square"></path>
            </g>
            <text id="Story" sketch:type="MSTextLayer" font-family="HanziPen SC" font-size="20" font-weight="normal" line-spacing="26" fill="#333333">
                <tspan x="14" y="35">Story</tspan>
            </text>
        </g>
    </g>
</svg>