<?xml version="1.0" encoding="UTF-8" standalone="no"?><svg xmlns="http://www.w3.org/2000/svg" xmlns:xlink="http://www.w3.org/1999/xlink" clip-rule="evenodd" stroke-miterlimit="4.00" viewBox="0 0 1920 1080"><desc>SVG generated by Keynote</desc><defs></defs><g transform="matrix(1.00, 0.00, -0.00, -1.00, 0.0, 1080.0)"><path d="M 0.0 1080.0 L 1920.0 1080.0 L 1920.0 0.0 L 0.0 0.0 Z M 0.0 1080.0 " fill="#000000"></path><image xlink:href="../../4DF11852-212E-495B-B43B-392CDDEB0227/assets/8F3455D8DAF5A1465EE2BBF355F01F33.jpeg" width="1204.00" height="768.00" transform="matrix(1.59, 0.00, -0.00, -1.60, 0.0, 1220.0)"></image><g opacity="0.32"><g><clipPath id="clip-376"><path d="M 0.0 0.0 L 1920.0 0.0 L 1920.0 171.0 L 0.0 171.0 Z M 0.0 0.0 "></path></clipPath><g clip-path="url(#clip-376)"><image xlink:href="../../2D20B215-3A98-43C9-B9B6-3ADB229E98B7/assets/9CF28785C52FA99EB8CB44F905CD7564.png" width="2088.00" height="171.00" transform="matrix(1.00, 0.00, -0.00, -1.00, -101.0, 169.5)" opacity="0.50"></image></g></g><g><clipPath id="clip-377"><path d="M -100.0 168.5 L 1986.2 168.5 L 1986.2 0.0 L -100.0 0.0 Z M -100.0 168.5 "></path></clipPath><g clip-path="url(#clip-377)"><g><clipPath id="clip-378"><path d="M 0.0 0.0 L 1920.0 0.0 L 1920.0 171.0 L 0.0 171.0 Z M 0.0 0.0 "></path></clipPath><g clip-path="url(#clip-378)"><image xlink:href="5A185A87FA3A65F11D94052D4E639515.png" width="960.00" height="85.00" transform="matrix(2.00, 0.00, -0.00, 1.99, 0.0, -0.5)"></image></g></g></g></g></g><g><clipPath id="clip-379"><path d="M 334.3 80.0 L 393.9 80.0 L 393.9 107.5 L 334.3 107.5 Z M 334.3 80.0 "></path></clipPath><g clip-path="url(#clip-379)"><image xlink:href="../../2D20B215-3A98-43C9-B9B6-3ADB229E98B7/assets/2C966A8E9097A0643398217F6E3B9386.png" width="58.00" height="26.00" transform="matrix(0.99, 0.00, -0.00, -0.98, 335.3, 106.5)" opacity="0.71"></image></g></g><g><clipPath id="clip-380"><path d="M 335.0 76.2 L 393.2 76.2 L 393.2 106.8 L 335.0 106.8 Z M 335.0 76.2 "></path></clipPath><g clip-path="url(#clip-380)"><text xml:space="preserve" font-family="DBSans-Regular" font-size="18.0" fill="#FEFFFE" transform="matrix(1.00, 0.00, -0.00, -1.00, 340.0, 89.0)">0</text><text xml:space="preserve" font-family="DBSans-Regular" font-size="18.0" fill="#FEFFFE" transform="matrix(1.00, 0.00, -0.00, -1.00, 350.8, 89.0)">9</text><text xml:space="preserve" font-family="DBSans-Regular" font-size="18.0" fill="#FEFFFE" transform="matrix(1.00, 0.00, -0.00, -1.00, 361.6, 89.0)">:</text><text xml:space="preserve" font-family="DBSans-Regular" font-size="18.0" fill="#FEFFFE" transform="matrix(1.00, 0.00, -0.00, -1.00, 367.0, 89.0)">0</text><text xml:space="preserve" font-family="DBSans-Regular" font-size="18.0" fill="#FEFFFE" transform="matrix(1.00, 0.00, -0.00, -1.00, 377.8, 89.0)">0</text></g></g><g><clipPath id="clip-381"><path d="M 573.1 80.0 L 632.7 80.0 L 632.7 107.5 L 573.1 107.5 Z M 573.1 80.0 "></path></clipPath><g clip-path="url(#clip-381)"><image xlink:href="../../2D20B215-3A98-43C9-B9B6-3ADB229E98B7/assets/6C43E39852F6C4FAD2196F026730DCF2.png" width="58.00" height="26.00" transform="matrix(0.99, 0.00, -0.00, -0.98, 574.1, 106.5)" opacity="0.71"></image></g></g><g><clipPath id="clip-382"><path d="M 573.8 76.2 L 632.0 76.2 L 632.0 106.8 L 573.8 106.8 Z M 573.8 76.2 "></path></clipPath><g clip-path="url(#clip-382)"><text xml:space="preserve" font-family="DBSans-Regular" font-size="18.0" fill="#FEFFFE" transform="matrix(1.00, 0.00, -0.00, -1.00, 579.0, 89.0)">1</text><text xml:space="preserve" font-family="DBSans-Regular" font-size="18.0" fill="#FEFFFE" transform="matrix(1.00, 0.00, -0.00, -1.00, 589.8, 89.0)">0</text><text xml:space="preserve" font-family="DBSans-Regular" font-size="18.0" fill="#FEFFFE" transform="matrix(1.00, 0.00, -0.00, -1.00, 600.6, 89.0)">:</text><text xml:space="preserve" font-family="DBSans-Regular" font-size="18.0" fill="#FEFFFE" transform="matrix(1.00, 0.00, -0.00, -1.00, 606.0, 89.0)">0</text><text xml:space="preserve" font-family="DBSans-Regular" font-size="18.0" fill="#FEFFFE" transform="matrix(1.00, 0.00, -0.00, -1.00, 616.8, 89.0)">0</text></g></g><g><clipPath id="clip-383"><path d="M 801.5 80.0 L 861.1 80.0 L 861.1 107.5 L 801.5 107.5 Z M 801.5 80.0 "></path></clipPath><g clip-path="url(#clip-383)"><image xlink:href="../../2D20B215-3A98-43C9-B9B6-3ADB229E98B7/assets/F4A37AC86F086D5BCAF49AB207FE8564.png" width="58.00" height="26.00" transform="matrix(0.99, 0.00, -0.00, -0.98, 802.5, 106.5)" opacity="0.71"></image></g></g><g><clipPath id="clip-384"><path d="M 802.2 76.2 L 860.4 76.2 L 860.4 106.8 L 802.2 106.8 Z M 802.2 76.2 "></path></clipPath><g clip-path="url(#clip-384)"><text xml:space="preserve" font-family="DBSans-Regular" font-size="18.0" fill="#FEFFFE" transform="matrix(1.00, 0.00, -0.00, -1.00, 807.0, 89.0)">1</text><text xml:space="preserve" font-family="DBSans-Regular" font-size="18.0" fill="#FEFFFE" transform="matrix(1.00, 0.00, -0.00, -1.00, 817.8, 89.0)">1</text><text xml:space="preserve" font-family="DBSans-Regular" font-size="18.0" fill="#FEFFFE" transform="matrix(1.00, 0.00, -0.00, -1.00, 828.6, 89.0)">:</text><text xml:space="preserve" font-family="DBSans-Regular" font-size="18.0" fill="#FEFFFE" transform="matrix(1.00, 0.00, -0.00, -1.00, 834.0, 89.0)">0</text><text xml:space="preserve" font-family="DBSans-Regular" font-size="18.0" fill="#FEFFFE" transform="matrix(1.00, 0.00, -0.00, -1.00, 844.8, 89.0)">0</text></g></g><g><clipPath id="clip-385"><path d="M 362.1 -594.3 L 362.1 73.3 L 367.1 73.3 L 367.1 -594.3 Z M 362.1 -594.3 "></path></clipPath><g clip-path="url(#clip-385)"><image xlink:href="../../2D20B215-3A98-43C9-B9B6-3ADB229E98B7/assets/F4E992F9A491846451E2505F8E81089A.png" width="665.00" height="1.00" transform="matrix(0.00, 1.00, 1.00, -0.00, 365.1, -593.2)" opacity="0.30"></image><path d="M 0.0 0.0 L 665.5 0.0 " fill="none" stroke="#FEFFFE" stroke-opacity="0.30" stroke-width="1.00" transform="matrix(0.00, 1.00, 1.00, 0.00, 363.6, -593.3)"></path></g></g><g><clipPath id="clip-386"><path d="M 600.4 -594.3 L 600.4 73.3 L 605.4 73.3 L 605.4 -594.3 Z M 600.4 -594.3 "></path></clipPath><g clip-path="url(#clip-386)"><image xlink:href="../../2D20B215-3A98-43C9-B9B6-3ADB229E98B7/assets/F4E992F9A491846451E2505F8E81089A.png" width="665.00" height="1.00" transform="matrix(0.00, 1.00, 1.00, -0.00, 603.4, -593.2)" opacity="0.30"></image><path d="M 0.0 0.0 L 665.5 0.0 " fill="none" stroke="#FEFFFE" stroke-opacity="0.30" stroke-width="1.00" transform="matrix(0.00, 1.00, 1.00, 0.00, 601.9, -593.3)"></path></g></g><g><clipPath id="clip-387"><path d="M 830.8 -594.3 L 830.8 73.3 L 835.8 73.3 L 835.8 -594.3 Z M 830.8 -594.3 "></path></clipPath><g clip-path="url(#clip-387)"><image xlink:href="../../2D20B215-3A98-43C9-B9B6-3ADB229E98B7/assets/F4E992F9A491846451E2505F8E81089A.png" width="665.00" height="1.00" transform="matrix(0.00, 1.00, 1.00, -0.00, 833.8, -593.2)" opacity="0.30"></image><path d="M 0.0 0.0 L 665.5 0.0 " fill="none" stroke="#FEFFFE" stroke-opacity="0.30" stroke-width="1.00" transform="matrix(0.00, 1.00, 1.00, 0.00, 832.3, -593.3)"></path></g></g><g><clipPath id="clip-388"><path d="M 402.0 36.2 L 1187.2 36.2 L 1187.2 63.2 L 402.0 63.2 Z M 402.0 36.2 "></path></clipPath><g clip-path="url(#clip-388)"><path d="M 403.0 62.2 L 1186.2 62.2 L 1186.2 37.2 L 403.0 37.2 Z M 403.0 62.2 " fill="#FEFFFE" fill-opacity="0.80"></path></g></g><g opacity="0.80"><g><clipPath id="clip-389"><path d="M 403.0 37.0 L 1186.2 37.0 L 1186.2 62.2 L 403.0 62.2 Z M 403.0 37.0 "></path></clipPath><g clip-path="url(#clip-389)"><text xml:space="preserve" font-family="DBSans-Regular" font-size="14.0" fill="#000000" transform="matrix(1.00, 0.00, -0.00, -1.00, 407.0, 45.0)">i</text><text xml:space="preserve" font-family="DBSans-Regular" font-size="14.0" fill="#000000" transform="matrix(1.00, 0.00, -0.00, -1.00, 411.1, 45.0)">m</text><text xml:space="preserve" font-family="DBSans-Regular" font-size="14.0" fill="#000000" transform="matrix(1.00, 0.00, -0.00, -1.00, 423.4, 45.0)"> </text><text xml:space="preserve" font-family="DBSans-Regular" font-size="14.0" fill="#000000" transform="matrix(1.00, 0.00, -0.00, -1.00, 427.6, 45.0)">I</text><text xml:space="preserve" font-family="DBSans-Regular" font-size="14.0" fill="#000000" transform="matrix(1.00, 0.00, -0.00, -1.00, 433.0, 45.0)">C</text><text xml:space="preserve" font-family="DBSans-Regular" font-size="14.0" fill="#000000" transform="matrix(1.00, 0.00, -0.00, -1.00, 442.0, 45.0)">E</text><text xml:space="preserve" font-family="DBSans-Regular" font-size="14.0" fill="#000000" transform="matrix(1.00, 0.00, -0.00, -1.00, 450.6, 45.0)"> </text><text xml:space="preserve" font-family="DBSans-Regular" font-size="14.0" fill="#000000" transform="matrix(1.00, 0.00, -0.00, -1.00, 454.8, 45.0)">6</text><text xml:space="preserve" font-family="DBSans-Regular" font-size="14.0" fill="#000000" transform="matrix(1.00, 0.00, -0.00, -1.00, 463.2, 45.0)">9</text><text xml:space="preserve" font-family="DBSans-Regular" font-size="14.0" fill="#000000" transform="matrix(1.00, 0.00, -0.00, -1.00, 471.6, 45.0)">0</text></g></g></g><g><clipPath id="clip-390"><path d="M 1187.2 36.2 L 1201.9 36.2 L 1201.9 63.2 L 1187.2 63.2 Z M 1187.2 36.2 "></path></clipPath><g clip-path="url(#clip-390)"><path d="M 1188.2 62.2 L 1200.9 62.2 L 1200.9 37.2 L 1188.2 37.2 Z M 1188.2 62.2 " fill="#C82505" fill-opacity="0.80"></path></g></g><g><clipPath id="clip-391"><path d="M 1031.5 80.0 L 1091.1 80.0 L 1091.1 107.5 L 1031.5 107.5 Z M 1031.5 80.0 "></path></clipPath><g clip-path="url(#clip-391)"><image xlink:href="../../2D20B215-3A98-43C9-B9B6-3ADB229E98B7/assets/01867461BABCEBA048C7BA099AA33BAF.png" width="58.00" height="26.00" transform="matrix(0.99, 0.00, -0.00, -0.98, 1032.5, 106.5)" opacity="0.71"></image></g></g><g><clipPath id="clip-392"><path d="M 1032.2 76.2 L 1090.4 76.2 L 1090.4 106.8 L 1032.2 106.8 Z M 1032.2 76.2 "></path></clipPath><g clip-path="url(#clip-392)"><text xml:space="preserve" font-family="DBSans-Regular" font-size="18.0" fill="#FEFFFE" transform="matrix(1.00, 0.00, -0.00, -1.00, 1037.0, 89.0)">1</text><text xml:space="preserve" font-family="DBSans-Regular" font-size="18.0" fill="#FEFFFE" transform="matrix(1.00, 0.00, -0.00, -1.00, 1047.8, 89.0)">2</text><text xml:space="preserve" font-family="DBSans-Regular" font-size="18.0" fill="#FEFFFE" transform="matrix(1.00, 0.00, -0.00, -1.00, 1058.6, 89.0)">:</text><text xml:space="preserve" font-family="DBSans-Regular" font-size="18.0" fill="#FEFFFE" transform="matrix(1.00, 0.00, -0.00, -1.00, 1064.0, 89.0)">0</text><text xml:space="preserve" font-family="DBSans-Regular" font-size="18.0" fill="#FEFFFE" transform="matrix(1.00, 0.00, -0.00, -1.00, 1074.8, 89.0)">0</text></g></g><g><clipPath id="clip-393"><path d="M 1060.8 -594.3 L 1060.8 73.3 L 1065.8 73.3 L 1065.8 -594.3 Z M 1060.8 -594.3 "></path></clipPath><g clip-path="url(#clip-393)"><image xlink:href="../../2D20B215-3A98-43C9-B9B6-3ADB229E98B7/assets/F4E992F9A491846451E2505F8E81089A.png" width="665.00" height="1.00" transform="matrix(0.00, 1.00, 1.00, -0.00, 1063.8, -593.2)" opacity="0.30"></image><path d="M 0.0 0.0 L 665.5 0.0 " fill="none" stroke="#FEFFFE" stroke-opacity="0.30" stroke-width="1.00" transform="matrix(0.00, 1.00, 1.00, 0.00, 1062.3, -593.3)"></path></g></g><g><clipPath id="clip-394"><path d="M 1261.5 80.0 L 1321.1 80.0 L 1321.1 107.5 L 1261.5 107.5 Z M 1261.5 80.0 "></path></clipPath><g clip-path="url(#clip-394)"><image xlink:href="../../2D20B215-3A98-43C9-B9B6-3ADB229E98B7/assets/1F5C5963B00FEC22487B38DF57D42404.png" width="58.00" height="26.00" transform="matrix(0.99, 0.00, -0.00, -0.98, 1262.5, 106.5)" opacity="0.71"></image></g></g><g><clipPath id="clip-395"><path d="M 1262.2 76.2 L 1320.4 76.2 L 1320.4 106.8 L 1262.2 106.8 Z M 1262.2 76.2 "></path></clipPath><g clip-path="url(#clip-395)"><text xml:space="preserve" font-family="DBSans-Regular" font-size="18.0" fill="#FEFFFE" transform="matrix(1.00, 0.00, -0.00, -1.00, 1267.0, 89.0)">1</text><text xml:space="preserve" font-family="DBSans-Regular" font-size="18.0" fill="#FEFFFE" transform="matrix(1.00, 0.00, -0.00, -1.00, 1277.8, 89.0)">3</text><text xml:space="preserve" font-family="DBSans-Regular" font-size="18.0" fill="#FEFFFE" transform="matrix(1.00, 0.00, -0.00, -1.00, 1288.6, 89.0)">:</text><text xml:space="preserve" font-family="DBSans-Regular" font-size="18.0" fill="#FEFFFE" transform="matrix(1.00, 0.00, -0.00, -1.00, 1294.0, 89.0)">0</text><text xml:space="preserve" font-family="DBSans-Regular" font-size="18.0" fill="#FEFFFE" transform="matrix(1.00, 0.00, -0.00, -1.00, 1304.8, 89.0)">0</text></g></g><g><clipPath id="clip-396"><path d="M 1290.8 -594.3 L 1290.8 73.3 L 1295.8 73.3 L 1295.8 -594.3 Z M 1290.8 -594.3 "></path></clipPath><g clip-path="url(#clip-396)"><image xlink:href="../../2D20B215-3A98-43C9-B9B6-3ADB229E98B7/assets/F4E992F9A491846451E2505F8E81089A.png" width="665.00" height="1.00" transform="matrix(0.00, 1.00, 1.00, -0.00, 1293.8, -593.2)" opacity="0.30"></image><path d="M 0.0 0.0 L 665.5 0.0 " fill="none" stroke="#FEFFFE" stroke-opacity="0.30" stroke-width="1.00" transform="matrix(0.00, 1.00, 1.00, 0.00, 1292.3, -593.3)"></path></g></g><g><clipPath id="clip-397"><path d="M 1202.0 36.2 L 1987.2 36.2 L 1987.2 63.2 L 1202.0 63.2 Z M 1202.0 36.2 "></path></clipPath><g clip-path="url(#clip-397)"><path d="M 1203.0 62.2 L 1986.2 62.2 L 1986.2 37.2 L 1203.0 37.2 Z M 1203.0 62.2 " fill="#FEFFFE" fill-opacity="0.80"></path></g></g><g opacity="0.80"><g><clipPath id="clip-398"><path d="M 1203.0 37.0 L 1920.0 37.0 L 1920.0 62.2 L 1203.0 62.2 Z M 1203.0 37.0 "></path></clipPath><g clip-path="url(#clip-398)"><text xml:space="preserve" font-family="DBSans-Regular" font-size="14.0" fill="#000000" transform="matrix(1.00, 0.00, -0.00, -1.00, 1207.0, 45.0)">i</text><text xml:space="preserve" font-family="DBSans-Regular" font-size="14.0" fill="#000000" transform="matrix(1.00, 0.00, -0.00, -1.00, 1211.1, 45.0)">m</text><text xml:space="preserve" font-family="DBSans-Regular" font-size="14.0" fill="#000000" transform="matrix(1.00, 0.00, -0.00, -1.00, 1223.4, 45.0)"> </text><text xml:space="preserve" font-family="DBSans-Regular" font-size="14.0" fill="#000000" transform="matrix(1.00, 0.00, -0.00, -1.00, 1227.6, 45.0)">I</text><text xml:space="preserve" font-family="DBSans-Regular" font-size="14.0" fill="#000000" transform="matrix(1.00, 0.00, -0.00, -1.00, 1233.0, 45.0)">C</text><text xml:space="preserve" font-family="DBSans-Regular" font-size="14.0" fill="#000000" transform="matrix(1.00, 0.00, -0.00, -1.00, 1242.0, 45.0)">E</text><text xml:space="preserve" font-family="DBSans-Regular" font-size="14.0" fill="#000000" transform="matrix(1.00, 0.00, -0.00, -1.00, 1250.6, 45.0)"> </text><text xml:space="preserve" font-family="DBSans-Regular" font-size="14.0" fill="#000000" transform="matrix(1.00, 0.00, -0.00, -1.00, 1254.8, 45.0)">7</text><text xml:space="preserve" font-family="DBSans-Regular" font-size="14.0" fill="#000000" transform="matrix(1.00, 0.00, -0.00, -1.00, 1263.2, 45.0)">2</text><text xml:space="preserve" font-family="DBSans-Regular" font-size="14.0" fill="#000000" transform="matrix(1.00, 0.00, -0.00, -1.00, 1271.6, 45.0)">4</text></g></g></g><g><clipPath id="clip-399"><path d="M 937.4 78.0 L 960.0 100.6 L 982.6 78.0 L 960.0 55.5 Z M 937.4 78.0 "></path></clipPath><g clip-path="url(#clip-399)"><image xlink:href="../../2D20B215-3A98-43C9-B9B6-3ADB229E98B7/assets/B5A47B7D1AFB838CFCB033843A2C9641.png" width="30.00" height="30.00" transform="matrix(0.71, 0.71, 0.71, -0.71, 938.8, 78.0)" opacity="0.50"></image><path d="M 943.1 77.0 L 960.0 60.1 L 976.9 77.0 Z M 943.1 77.0 " fill="#FEFFFE"></path></g></g></g></svg>