<?xml version="1.0" encoding="UTF-8" standalone="no"?>
<svg width="220px" height="220px" viewBox="0 0 220 220" version="1.1" xmlns="http://www.w3.org/2000/svg" xmlns:xlink="http://www.w3.org/1999/xlink" xmlns:sketch="http://www.bohemiancoding.com/sketch/ns">
    <title>08_AB</title>
    <description>Created with Sketch (http://www.bohemiancoding.com/sketch)</description>
    <defs></defs>
    <g id="Page-1" stroke="none" stroke-width="1" fill="none" fill-rule="evenodd" sketch:type="MSPage">
        <g id="22_Hand-Unterschied" sketch:type="MSLayerGroup" transform="translate(14.000000, 28.000000)">
            <rect id="Rectangle-59" stroke="#333333" sketch:type="MSShapeGroup" x="31" y="0" width="50" height="50" rx="4"></rect>
            <rect id="Rectangle-59-copy" stroke="#333333" sketch:type="MSShapeGroup" x="117" y="0" width="50" height="50" rx="4"></rect>
            <g id="iphone" transform="translate(34.000000, 103.000000)" stroke="#333333" sketch:type="MSShapeGroup">
                <rect id="Rectangle-61" x="0" y="0" width="45" height="65" rx="4"></rect>
                <path d="M0.5,7.5 L44.5,7.5" id="Line" stroke-linecap="square"></path>
                <path d="M0.5,54.5 L44.5,54.5" id="Line-copy" stroke-linecap="square"></path>
                <circle id="Oval-81" cx="22.5" cy="59.5" r="2.5"></circle>
            </g>
            <g id="Blackberry" transform="translate(121.000000, 103.000000)" stroke="#333333" sketch:type="MSShapeGroup">
                <rect id="Rectangle-61-copy" x="0" y="0" width="45" height="65" rx="4"></rect>
                <path d="M0.5,34.5 L44.5,34.5" id="Line" stroke-linecap="square"></path>
                <path d="M4.5,43.5 L40.5,43.5" id="Line-copy" stroke-linecap="square"></path>
                <path d="M4.5,49.5 L40.5,49.5" id="Line-copy-2" stroke-linecap="square"></path>
                <path d="M4.5,55.5 L40.5,55.5" id="Line-copy-3" stroke-linecap="square"></path>
                <path d="M11.5,60.5 L11.5,37.5" id="Line-copy-3" stroke-linecap="square"></path>
                <path d="M27.5,61.5 L27.5,37.5" id="Line-copy-4" stroke-linecap="square"></path>
                <path d="M19.5,61.5 L19.5,37.5" id="Line-copy-5" stroke-linecap="square"></path>
                <path d="M34.5,61.5 L34.5,37.5" id="Line-copy-5" stroke-linecap="square"></path>
                <path d="M0.5,6.5 L44.5,6.5" id="Line" stroke-linecap="square"></path>
                <path d="M4.5,37.5 L4.5,61.5" id="Line" stroke-linecap="square"></path>
                <path d="M4.5,37.5 L40.5,37.5" id="Line" stroke-linecap="square"></path>
                <path d="M40.5,37.5 L40.5,61.5" id="Line" stroke-linecap="square"></path>
                <path d="M40.5,61.5 L4.5,61.5" id="Line" stroke-linecap="square"></path>
            </g>
            <g id="Guy_sad" transform="translate(38.000000, 12.000000)" sketch:type="MSShapeGroup">
                <path d="M23.4372833,15.267965 C28.5003308,19.042381 32,27.1309001 32,36.5 C32,36.6670796 31.998887,36.833752 31.9966721,37 L31.9966721,37 L2.00332789,37 C2.00111296,36.833752 2,36.6670796 2,36.5 C2,26.4435417 6.0320078,17.8624548 11.7015383,14.5080994 C13.1660458,16.0252397 15.4429197,17 18,17 C20.0995086,17 22.0101204,16.3428804 23.4372833,15.267965 Z" id="Oval-72" stroke="#333333"></path>
                <ellipse id="Oval-73-copy" stroke="#333333" cx="18" cy="6.5" rx="7" ry="6.5"></ellipse>
                <path d="M23.9909419,9.66291888 C23.9909419,9.66291888 19.4808694,7.63879479 17.06181,9.23597416" id="Path-80" stroke="#333333" stroke-linecap="round"></path>
                <circle id="Oval-85" fill="#333333" cx="21" cy="4" r="1"></circle>
            </g>
            <g id="Guy_happy" transform="translate(143.000000, 40.000000) scale(-1, 1) translate(-143.000000, -40.000000) translate(125.000000, 8.000000)" sketch:type="MSShapeGroup">
                <path d="M23.4372833,19.267965 C28.5003308,23.042381 32,31.1309001 32,40.5 C32,40.6670796 31.998887,40.833752 31.9966721,41 L31.9966721,41 L2.00332789,41 C2.00111296,40.833752 2,40.6670796 2,40.5 C2,30.4435417 6.0320078,21.8624548 11.7015383,18.5080994 C13.1660458,20.0252397 15.4429197,21 18,21 C20.0995086,21 22.0101204,20.3428804 23.4372833,19.267965 Z" id="Oval-72" stroke="#333333"></path>
                <path d="M18,17 C21.8659934,17 25,14.0898511 25,10.5 C25,6.91014895 21.8659934,4 18,4 C14.1340066,4 11,6.91014895 11,10.5 C11,14.0898511 14.1340066,17 18,17 Z" id="Oval-73-copy" stroke="#333333"></path>
                <path d="M23.6080456,13.2205183 C23.6080456,13.2205183 20.5534265,12.8957819 18.1343671,14.4929613" id="Path-80" stroke="#333333" stroke-linecap="round" transform="translate(21.000000, 13.500000) scale(1, -1) translate(-21.000000, -13.500000) "></path>
                <circle id="Oval-85" fill="#333333" cx="21" cy="8" r="1"></circle>
                <path d="M8.34306685,4.97527708 C7.72152407,3.3065778 9.55278344,-0.495018542 9.55278344,-0.495018542 C9.55278344,-0.495018542 9.89636076,0.21723037 11.1522074,0.784077769 C12.408054,1.35092479 12.4737432,0.974502861 13.1546242,0.239742207 C13.8355052,-0.495018542 14.5901939,-0.105680158 14.9799013,0.866742966 C15.3696086,1.8391661 14.4912907,2.29825299 16.4807912,2.29825324 C18.4702918,2.29825348 19.0607578,2.36800179 19.7128528,3.0817274 C20.364948,3.79545301 20.4265787,5.49747056 21.341062,5.49747018 C22.2555453,5.49746984 22.190225,7.29765222 22.6493126,8.24904032 C23.1084,9.20042843 23.0102349,10.6470689 23.0102347,11.1932499 C23.0102345,11.7394308 23.9531343,12.6251292 21.8329937,12.6251292 C19.7128531,12.6251292 19.5644981,13.7034675 19.5644983,13.7034672 C19.5644986,13.7034668 20.1874395,7.79844142 17.2956339,6.38685913 C14.4038283,4.97527689 11.4622019,4.63133081 11.4622019,4.63133081" id="Path-82" fill="#333333" transform="translate(15.500000, 7.000000) scale(-1, 1) translate(-15.500000, -7.000000) "></path>
            </g>
            <text id="old" sketch:type="MSTextLayer" font-family="HanziPen SC" font-size="14" font-weight="normal" sketch:alignment="middle" line-spacing="20" fill="#333333">
                <tspan x="48.328" y="68">old</tspan>
                <tspan x="37.457" y="88">before</tspan>
            </text>
            <text id="new" sketch:type="MSTextLayer" font-family="HanziPen SC" font-size="14" font-weight="normal" sketch:alignment="middle" line-spacing="20" fill="#333333">
                <tspan x="129.653" y="68">new</tspan>
                <tspan x="126.132" y="88">after</tspan>
            </text>
        </g>
    </g>
</svg>