<?xml version="1.0" encoding="utf-8"?>
<!-- Generator: Adobe Illustrator 16.0.4, SVG Export Plug-In . SVG Version: 6.00 Build 0)  -->
<!DOCTYPE svg PUBLIC "-//W3C//DTD SVG 1.1//EN" "http://www.w3.org/Graphics/SVG/1.1/DTD/svg11.dtd">
<svg version="1.1" id="Ebene_1" xmlns="http://www.w3.org/2000/svg" xmlns:xlink="http://www.w3.org/1999/xlink" x="0px" y="0px"
	 width="114.981px" height="25.172px" viewBox="0 0 114.981 25.172" enable-background="new 0 0 114.981 25.172"
	 xml:space="preserve">
<g>
	<path fill="#FFFFFF" d="M7.041,5.314C6.997,4.357,6.941,3.202,6.953,2.201H6.919C6.677,3.103,6.37,4.104,6.04,5.039L4.961,8.251
		H3.916l-0.99-3.169C2.64,4.137,2.376,3.125,2.178,2.201H2.156C2.123,3.168,2.079,4.346,2.024,5.358L1.859,8.339H0.594l0.495-7.415
		h1.782l0.968,2.981C4.103,4.775,4.334,5.655,4.521,6.48h0.033c0.198-0.803,0.451-1.716,0.737-2.585l1.023-2.971h1.76l0.429,7.415
		h-1.32L7.041,5.314z"/>
	<path fill="#FFFFFF" d="M12.881,8.339l-0.088-0.594H12.76c-0.33,0.418-0.891,0.715-1.584,0.715c-1.078,0-1.683-0.781-1.683-1.596
		c0-1.353,1.199-2.035,3.18-2.023V4.752c0-0.352-0.143-0.935-1.089-0.935c-0.528,0-1.078,0.165-1.441,0.396l-0.264-0.88
		c0.396-0.242,1.089-0.473,1.936-0.473c1.716,0,2.211,1.089,2.211,2.255v1.937c0,0.484,0.022,0.957,0.077,1.287H12.881z
		 M12.705,5.721c-0.957-0.022-1.87,0.187-1.87,1.001c0,0.528,0.341,0.771,0.77,0.771c0.539,0,0.935-0.353,1.056-0.737
		c0.033-0.1,0.044-0.209,0.044-0.297V5.721z"/>
	<path fill="#FFFFFF" d="M15.389,7.096c0.308,0.187,0.891,0.385,1.375,0.385c0.594,0,0.858-0.242,0.858-0.594
		c0-0.363-0.22-0.55-0.88-0.781c-1.045-0.363-1.485-0.935-1.474-1.562c0-0.945,0.781-1.683,2.024-1.683
		c0.594,0,1.111,0.153,1.419,0.318l-0.264,0.958c-0.231-0.133-0.66-0.309-1.133-0.309c-0.484,0-0.748,0.231-0.748,0.562
		c0,0.341,0.253,0.506,0.935,0.748c0.968,0.352,1.419,0.847,1.43,1.639c0,0.969-0.759,1.673-2.178,1.673
		c-0.649,0-1.232-0.154-1.628-0.374L15.389,7.096z"/>
	<path fill="#FFFFFF" d="M21.593,1.453v1.529h1.287v1.012h-1.287v2.365c0,0.649,0.176,0.99,0.693,0.99
		c0.231,0,0.407-0.033,0.528-0.066l0.022,1.034c-0.198,0.077-0.55,0.133-0.979,0.133c-0.495,0-0.913-0.165-1.167-0.44
		c-0.286-0.308-0.418-0.792-0.418-1.496v-2.52h-0.77V2.982h0.77V1.771L21.593,1.453z"/>
	<path fill="#FFFFFF" d="M24.793,6.04c0.033,0.969,0.792,1.387,1.65,1.387c0.627,0,1.078-0.088,1.485-0.242l0.198,0.936
		c-0.462,0.187-1.1,0.33-1.87,0.33c-1.738,0-2.761-1.067-2.761-2.707c0-1.485,0.902-2.882,2.618-2.882
		c1.738,0,2.311,1.43,2.311,2.607c0,0.253-0.022,0.451-0.044,0.571H24.793z M27.148,5.094c0.011-0.495-0.209-1.31-1.111-1.31
		c-0.836,0-1.188,0.759-1.243,1.31H27.148z"/>
	<path fill="#FFFFFF" d="M29.512,4.708c0-0.726-0.011-1.243-0.044-1.727h1.177l0.044,1.022h0.044
		c0.264-0.759,0.891-1.144,1.463-1.144c0.132,0,0.209,0.011,0.319,0.033v1.275c-0.11-0.021-0.231-0.044-0.396-0.044
		c-0.649,0-1.089,0.418-1.21,1.023c-0.022,0.121-0.044,0.264-0.044,0.418v2.772h-1.353V4.708z"/>
	<path fill="#FFFFFF" d="M35.76,1.023c0.484-0.088,1.155-0.153,2.068-0.153c0.99,0,1.716,0.209,2.189,0.604
		c0.44,0.363,0.726,0.946,0.726,1.64c0,0.704-0.22,1.287-0.638,1.683c-0.539,0.539-1.386,0.793-2.344,0.793
		c-0.253,0-0.484-0.012-0.66-0.044v2.794H35.76V1.023z M37.103,4.478c0.165,0.044,0.385,0.055,0.66,0.055
		c1.012,0,1.628-0.495,1.628-1.364c0-0.825-0.572-1.265-1.507-1.265c-0.374,0-0.638,0.032-0.781,0.065V4.478z"/>
	<path fill="#FFFFFF" d="M41.722,4.708c0-0.726-0.011-1.243-0.044-1.727h1.177l0.044,1.022h0.044
		c0.264-0.759,0.891-1.144,1.463-1.144c0.132,0,0.209,0.011,0.319,0.033v1.275c-0.11-0.021-0.231-0.044-0.396-0.044
		c-0.649,0-1.089,0.418-1.21,1.023c-0.022,0.121-0.044,0.264-0.044,0.418v2.772h-1.353V4.708z"/>
	<path fill="#FFFFFF" d="M50.633,5.611c0,1.97-1.386,2.85-2.75,2.85c-1.518,0-2.684-1.045-2.684-2.762
		c0-1.76,1.155-2.838,2.772-2.838C49.566,2.861,50.633,3.983,50.633,5.611z M46.595,5.666c0,1.034,0.506,1.815,1.331,1.815
		c0.771,0,1.31-0.759,1.31-1.837c0-0.836-0.374-1.793-1.298-1.793C46.98,3.851,46.595,4.775,46.595,5.666z"/>
	<path fill="#FFFFFF" d="M56.639,2.982c-0.022,0.362-0.044,0.803-0.044,1.54v3.036c0,1.122-0.231,1.926-0.792,2.432
		c-0.561,0.495-1.331,0.649-2.068,0.649c-0.682,0-1.408-0.144-1.87-0.43l0.297-1.023c0.341,0.198,0.913,0.407,1.562,0.407
		c0.88,0,1.54-0.462,1.54-1.617V7.514h-0.022c-0.308,0.474-0.858,0.792-1.562,0.792c-1.332,0-2.277-1.1-2.277-2.618
		c0-1.761,1.144-2.827,2.431-2.827c0.814,0,1.298,0.396,1.551,0.836h0.022l0.055-0.715H56.639z M55.242,5.126
		c0-0.12-0.011-0.253-0.044-0.362c-0.143-0.495-0.528-0.869-1.1-0.869c-0.759,0-1.32,0.66-1.32,1.749c0,0.913,0.462,1.65,1.309,1.65
		c0.506,0,0.946-0.33,1.1-0.814c0.033-0.143,0.055-0.33,0.055-0.484V5.126z"/>
	<path fill="#FFFFFF" d="M58.002,4.708c0-0.726-0.011-1.243-0.044-1.727h1.177l0.044,1.022h0.044
		c0.264-0.759,0.891-1.144,1.463-1.144c0.132,0,0.209,0.011,0.319,0.033v1.275c-0.11-0.021-0.231-0.044-0.396-0.044
		c-0.649,0-1.089,0.418-1.21,1.023c-0.022,0.121-0.044,0.264-0.044,0.418v2.772h-1.353V4.708z"/>
	<path fill="#FFFFFF" d="M64.834,8.339l-0.088-0.594h-0.033c-0.33,0.418-0.891,0.715-1.584,0.715c-1.078,0-1.683-0.781-1.683-1.596
		c0-1.353,1.199-2.035,3.18-2.023V4.752c0-0.352-0.143-0.935-1.089-0.935c-0.528,0-1.078,0.165-1.441,0.396l-0.264-0.88
		c0.396-0.242,1.089-0.473,1.936-0.473c1.716,0,2.211,1.089,2.211,2.255v1.937c0,0.484,0.022,0.957,0.077,1.287H64.834z
		 M64.658,5.721c-0.957-0.022-1.87,0.187-1.87,1.001c0,0.528,0.341,0.771,0.77,0.771c0.539,0,0.935-0.353,1.056-0.737
		c0.033-0.1,0.044-0.209,0.044-0.297V5.721z"/>
	<path fill="#FFFFFF" d="M67.407,4.577c0-0.616-0.011-1.133-0.044-1.595h1.166l0.055,0.792h0.033
		c0.264-0.418,0.748-0.913,1.65-0.913c0.704,0,1.254,0.396,1.485,0.99h0.022c0.187-0.298,0.407-0.518,0.66-0.672
		c0.297-0.209,0.638-0.318,1.078-0.318c0.891,0,1.793,0.604,1.793,2.321v3.157h-1.32V5.38c0-0.892-0.308-1.42-0.957-1.42
		c-0.462,0-0.803,0.33-0.946,0.716c-0.033,0.132-0.066,0.297-0.066,0.45v3.213h-1.32V5.237c0-0.748-0.297-1.276-0.924-1.276
		c-0.506,0-0.847,0.396-0.968,0.771c-0.055,0.132-0.077,0.286-0.077,0.44v3.168h-1.32V4.577z"/>
	<path fill="#FFFFFF" d="M76.735,4.577c0-0.616-0.011-1.133-0.044-1.595h1.166l0.055,0.792h0.033
		c0.264-0.418,0.748-0.913,1.65-0.913c0.704,0,1.254,0.396,1.485,0.99h0.022c0.187-0.298,0.407-0.518,0.66-0.672
		c0.297-0.209,0.638-0.318,1.078-0.318c0.891,0,1.793,0.604,1.793,2.321v3.157h-1.32V5.38c0-0.892-0.308-1.42-0.957-1.42
		c-0.462,0-0.803,0.33-0.946,0.716c-0.033,0.132-0.066,0.297-0.066,0.45v3.213h-1.32V5.237c0-0.748-0.297-1.276-0.924-1.276
		c-0.506,0-0.847,0.396-0.968,0.771c-0.055,0.132-0.077,0.286-0.077,0.44v3.168h-1.32V4.577z"/>
	<path fill="#FFFFFF" d="M87.021,6.04c0.033,0.969,0.792,1.387,1.65,1.387c0.627,0,1.078-0.088,1.485-0.242l0.198,0.936
		c-0.462,0.187-1.1,0.33-1.87,0.33c-1.738,0-2.761-1.067-2.761-2.707c0-1.485,0.902-2.882,2.618-2.882
		c1.738,0,2.311,1.43,2.311,2.607c0,0.253-0.022,0.451-0.044,0.571H87.021z M89.375,5.094c0.011-0.495-0.209-1.31-1.111-1.31
		c-0.836,0-1.188,0.759-1.243,1.31H89.375z"/>
</g>
<g>
	<path fill="#FFFFFF" d="M2.123,19.84l-1.958-7.415h0.539l1.078,4.181c0.242,0.957,0.473,1.849,0.616,2.541H2.42
		c0.121-0.692,0.385-1.573,0.682-2.541l1.21-4.181h0.506l1.1,4.147c0.242,0.902,0.484,1.826,0.605,2.574h0.022
		c0.165-0.803,0.407-1.606,0.671-2.552l1.221-4.17h0.54L6.754,19.84H6.249l-1.111-4.269c-0.297-1.089-0.473-1.815-0.572-2.509H4.543
		c-0.121,0.683-0.33,1.42-0.66,2.509L2.618,19.84H2.123z"/>
	<path fill="#FFFFFF" d="M9.702,17.145c0,1.684,0.913,2.354,2.013,2.354c0.77,0,1.166-0.154,1.463-0.297l0.132,0.406
		c-0.198,0.11-0.737,0.342-1.661,0.342c-1.519,0-2.464-1.101-2.464-2.651c0-1.761,1.012-2.86,2.376-2.86
		c1.727,0,2.057,1.628,2.057,2.387c0,0.144,0,0.221-0.022,0.319H9.702z M13.068,16.727c0.011-0.737-0.297-1.849-1.573-1.849
		c-1.166,0-1.672,1.034-1.771,1.849H13.068z"/>
	<path fill="#FFFFFF" d="M14.949,12.029h0.528v3.521h0.022c0.352-0.682,1.001-1.11,1.925-1.11c1.342,0,2.266,1.122,2.266,2.706
		c0,1.881-1.199,2.816-2.354,2.816c-0.858,0-1.474-0.353-1.893-1.078h-0.022l-0.044,0.957h-0.473
		c0.033-0.374,0.044-0.836,0.044-1.232V12.029z M15.477,17.805c0,0.121,0.011,0.253,0.044,0.385
		c0.231,0.804,0.913,1.331,1.738,1.331c1.21,0,1.903-0.99,1.903-2.365c0-1.21-0.66-2.277-1.859-2.277
		c-0.77,0-1.507,0.528-1.76,1.408c-0.033,0.132-0.066,0.275-0.066,0.462V17.805z"/>
	<path fill="#FFFFFF" d="M20.889,18.366c0.44,0.254,1.1,0.474,1.793,0.474c0.869,0,1.353-0.407,1.353-1.013
		c0-0.561-0.374-0.891-1.32-1.231c-1.221-0.44-2.002-1.09-2.002-2.156c0-1.211,1.012-2.135,2.618-2.135
		c0.803,0,1.397,0.176,1.782,0.374l-0.33,1.089c-0.264-0.143-0.781-0.352-1.474-0.352c-0.858,0-1.232,0.462-1.232,0.891
		c0,0.572,0.429,0.837,1.419,1.222c1.287,0.484,1.914,1.133,1.914,2.2c0,1.188-0.902,2.223-2.816,2.223
		c-0.781,0-1.595-0.221-2.002-0.462L20.889,18.366z"/>
	<path fill="#FFFFFF" d="M30.58,19.675c-0.286,0.132-0.847,0.275-1.518,0.275c-1.672,0-2.761-1.067-2.761-2.729
		c0-1.606,1.1-2.86,2.981-2.86c0.495,0,1.001,0.109,1.309,0.253l-0.242,1.012c-0.22-0.099-0.539-0.209-1.023-0.209
		c-1.034,0-1.65,0.76-1.639,1.738c0,1.101,0.715,1.728,1.639,1.728c0.473,0,0.803-0.1,1.067-0.209L30.58,19.675z"/>
	<path fill="#FFFFFF" d="M33.022,12.987c0,0.406-0.297,0.726-0.771,0.726c-0.451,0-0.748-0.319-0.748-0.726
		c0-0.419,0.308-0.737,0.759-0.737C32.725,12.25,33.011,12.568,33.022,12.987z M31.581,19.84v-5.357h1.364v5.357H31.581z"/>
	<path fill="#FFFFFF" d="M35.354,17.541c0.033,0.969,0.792,1.387,1.65,1.387c0.627,0,1.078-0.088,1.485-0.242l0.198,0.936
		c-0.462,0.187-1.1,0.33-1.87,0.33c-1.738,0-2.761-1.067-2.761-2.707c0-1.485,0.902-2.882,2.618-2.882
		c1.738,0,2.311,1.43,2.311,2.607c0,0.253-0.022,0.451-0.044,0.571H35.354z M37.708,16.595c0.011-0.495-0.209-1.31-1.111-1.31
		c-0.836,0-1.188,0.759-1.243,1.31H37.708z"/>
	<path fill="#FFFFFF" d="M40.072,16.078c0-0.616-0.011-1.133-0.044-1.595h1.188l0.066,0.803h0.033
		c0.231-0.418,0.814-0.924,1.705-0.924c0.936,0,1.903,0.604,1.903,2.299v3.18h-1.353v-3.025c0-0.771-0.286-1.354-1.023-1.354
		c-0.539,0-0.914,0.386-1.056,0.792c-0.044,0.121-0.055,0.286-0.055,0.44v3.146h-1.364V16.078z"/>
	<path fill="#FFFFFF" d="M50.303,19.675c-0.286,0.132-0.847,0.275-1.518,0.275c-1.672,0-2.761-1.067-2.761-2.729
		c0-1.606,1.1-2.86,2.981-2.86c0.495,0,1.001,0.109,1.309,0.253l-0.242,1.012c-0.22-0.099-0.539-0.209-1.023-0.209
		c-1.034,0-1.65,0.76-1.639,1.738c0,1.101,0.715,1.728,1.639,1.728c0.473,0,0.803-0.1,1.067-0.209L50.303,19.675z"/>
	<path fill="#FFFFFF" d="M52.162,17.541c0.033,0.969,0.792,1.387,1.65,1.387c0.627,0,1.078-0.088,1.485-0.242l0.198,0.936
		c-0.462,0.187-1.1,0.33-1.87,0.33c-1.738,0-2.761-1.067-2.761-2.707c0-1.485,0.902-2.882,2.618-2.882
		c1.738,0,2.311,1.43,2.311,2.607c0,0.253-0.022,0.451-0.044,0.571H52.162z M54.516,16.595c0.011-0.495-0.209-1.31-1.111-1.31
		c-0.836,0-1.188,0.759-1.243,1.31H54.516z"/>
</g>
</svg>
