<?xml version="1.0" encoding="UTF-8" standalone="no"?>
<svg width="220px" height="220px" viewBox="0 0 220 220" version="1.1" xmlns="http://www.w3.org/2000/svg" xmlns:xlink="http://www.w3.org/1999/xlink" xmlns:sketch="http://www.bohemiancoding.com/sketch/ns">
    <title>09_system</title>
    <description>Created with Sketch (http://www.bohemiancoding.com/sketch)</description>
    <defs></defs>
    <g id="Page-1" stroke="none" stroke-width="1" fill="none" fill-rule="evenodd" sketch:type="MSPage">
        <g id="23_Hand_Beziehung" sketch:type="MSLayerGroup" transform="translate(18.000000, 35.000000)">
            <path d="M1,96 L106.5,96" id="Line" stroke="#333333" stroke-width="2" stroke-linecap="square" sketch:type="MSShapeGroup"></path>
            <path d="M25,136 L25,1.5" id="Line" stroke="#333333" stroke-width="2" stroke-linecap="square" sketch:type="MSShapeGroup"></path>
            <path d="M1.5,123 L106.519043,123" id="Line" stroke="#333333" stroke-width="2" stroke-linecap="square" sketch:type="MSShapeGroup"></path>
            <path d="M1.5,45 L106.5,45" id="Line" stroke="#333333" stroke-width="2" stroke-linecap="square" sketch:type="MSShapeGroup"></path>
            <path d="M58,1.5 L58,94.5" id="Line" stroke="#333333" stroke-width="2" stroke-linecap="square" sketch:type="MSShapeGroup"></path>
            <path d="M74.371847,95.9059589 C74.371847,95.9059589 74.3718476,77.3676731 74.371847,68.3906781 C74.3718466,59.4136832 75.8053289,59.4136778 107.382335,59.4136832" id="Path-88" stroke="#333333" stroke-width="2" sketch:type="MSShapeGroup"></path>
            <path d="M59.4067652,109.538847 C59.4067652,109.538848 64.5,117.381994 64.5,117.381994 L70.0428084,108.896948 C70.0428084,108.896948 71,106.745104 71,105.5 C71,101.910149 68.0898511,99 64.5,99 C60.9101489,99 58,101.910149 58,105.5 C58,107.026293 59.4067651,109.538847 59.4067652,109.538847 Z M64.5,107 C65.8807119,107 67,105.880712 67,104.5 C67,103.119288 65.8807119,102 64.5,102 C63.1192881,102 62,103.119288 62,104.5 C62,105.880712 63.1192881,107 64.5,107 Z" id="Oval-90" fill="#333333" sketch:type="MSShapeGroup"></path>
            <path d="M147.384195,52.6515526 L164.42852,52.6515526 L164.42852,54.7849831 L157.661758,54.7849831 L157.661758,57.2571343 L167.687462,57.2571343 L172.339644,65.8910168 L174.950955,65.8910164 L174.950955,61.4119112 L178,61.4119116 L178,77.9454214 L174.950956,77.9454214 L174.950956,73.6473171 L172.158149,73.6473171 L172.158149,78 L149.590068,78 L141.27372,71.6500357 L139.435307,71.6500357 L139.435307,67.7824607 L137.095974,67.7824608 L137.095974,75.4783554 L135,75.4783554 L135,57.6357586 L137.257936,57.6357586 L137.257936,64.605202 L139.435307,64.605202 L139.435307,59.8679125 L141.636442,59.8679125 L144.263925,57.2571341 L155.137579,57.2571341 L155.137579,54.7849832 L147.635354,54.7849832 L147.635354,52" id="Path-90" stroke="#333333" sketch:type="MSShapeGroup"></path>
            <circle id="Oval-92" stroke="#333333" sketch:type="MSShapeGroup" cx="138" cy="12" r="5"></circle>
            <circle id="Oval-92-copy" stroke="#333333" sketch:type="MSShapeGroup" cx="186" cy="12" r="5"></circle>
            <circle id="Oval-92-copy-2" stroke="#333333" sketch:type="MSShapeGroup" cx="186" cy="113" r="5"></circle>
            <circle id="Oval-92-copy-3" stroke="#333333" sketch:type="MSShapeGroup" cx="162" cy="128" r="5"></circle>
            <circle id="Oval-92-copy-4" stroke="#333333" sketch:type="MSShapeGroup" cx="138" cy="113" r="5"></circle>
            <path d="M183.5,19.5 L173.5,48.5" id="Line" stroke="#333333" stroke-linecap="square" stroke-dasharray="3" sketch:type="MSShapeGroup"></path>
            <path d="M140.46032,20.5826582 L149.5,45.4999994" id="Line-copy" stroke="#333333" stroke-linecap="square" stroke-dasharray="3" sketch:type="MSShapeGroup"></path>
            <path d="M161.03968,84.4959457 L161.03968,120.417341" id="Line-copy-2" stroke="#333333" stroke-linecap="square" stroke-dasharray="3" sketch:type="MSShapeGroup"></path>
            <path d="M171.03968,83.5 L179.5,103.5" id="Line-copy-3" stroke="#333333" stroke-linecap="square" stroke-dasharray="3" sketch:type="MSShapeGroup"></path>
            <path d="M145.5,83.5 L140.5,103.5" id="Line-copy-4" stroke="#333333" stroke-linecap="square" stroke-dasharray="3" sketch:type="MSShapeGroup"></path>
            <rect id="Rectangle-65" stroke="#333333" sketch:type="MSShapeGroup" x="0" y="0" width="108" height="138" rx="4"></rect>
        </g>
    </g>
</svg>